<?xml version="1.0" standalone="no"?>
<!DOCTYPE svg PUBLIC "-//W3C//DTD SVG 1.1//EN" "http://www.w3.org/Graphics/SVG/1.1/DTD/svg11.dtd" >
<svg xmlns="http://www.w3.org/2000/svg">
<metadata></metadata>
<defs>
<font id="fontatica_4fregular" horiz-adv-x="819" >
<font-face units-per-em="2048" ascent="1536" descent="-512" />
<missing-glyph horiz-adv-x="389" />
<glyph horiz-adv-x="2048" />
<glyph horiz-adv-x="2048" />
<glyph unicode="&#xd;" horiz-adv-x="2048" />
<glyph unicode=" "  horiz-adv-x="389" />
<glyph unicode="&#x09;" horiz-adv-x="389" />
<glyph unicode="&#xa0;" horiz-adv-x="389" />
<glyph unicode="!" horiz-adv-x="450" d="M123 82v41q0 43 19.5 62.5t62.5 19.5h41q43 0 62.5 -19.5t19.5 -62.5v-41q0 -43 -19.5 -62.5t-62.5 -19.5h-41q-43 0 -62.5 19.5t-19.5 62.5zM123 1352q-3 82 82 82h41q85 0 82 -82l-39 -963q-2 -22 -11.5 -31.5t-31.5 -9.5h-41q-22 0 -31.5 9.5t-11.5 31.5z" />
<glyph unicode="&#x22;" horiz-adv-x="618" d="M63 1352q-3 82 82 82h41q85 0 82 -82l-39 -348q-2 -22 -11.5 -31.5t-31.5 -9.5h-41q-22 0 -31.5 9.5t-11.5 31.5zM350 1352q-3 82 82 82h41q85 0 82 -82l-39 -348q-2 -22 -11.5 -31.5t-31.5 -9.5h-41q-22 0 -31.5 9.5t-11.5 31.5z" />
<glyph unicode="#" horiz-adv-x="1042" d="M88 379l8 61q6 41 47 41h113q20 0 23 21l14 102q3 21 -19 21h-112q-41 0 -35 41l8 61q6 41 47 41h113q21 0 24 20l39 277q3 22 13 31.5t32 9.5h82q43 0 37 -41l-39 -277q-3 -20 17 -20h102q22 0 25 20l39 277q3 22 13 31.5t32 9.5h82q42 0 36 -41l-38 -277q-3 -20 16 -20 h113q22 0 29.5 -9.5t4.5 -31.5l-8 -61q-6 -41 -47 -41h-113q-19 0 -22 -21l-14 -102q-3 -21 18 -21h113q22 0 29.5 -9.5t4.5 -31.5l-8 -61q-6 -41 -47 -41h-112q-22 0 -25 -21l-39 -276q-3 -22 -13 -31.5t-32 -9.5h-82q-43 0 -37 41l39 276q3 21 -16 21h-103q-21 0 -24 -21 l-39 -276q-3 -22 -13 -31.5t-32 -9.5h-82q-43 0 -37 41l39 276q3 21 -16 21h-113q-41 0 -35 41zM442 502q-3 -21 19 -21h102q20 0 23 21l14 102q3 21 -18 21h-103q-19 0 -22 -21z" />
<glyph unicode="$" d="M102 184v21q0 43 19.5 62.5t62.5 19.5h246q43 0 62.5 19.5t19.5 62.5v30q0 16 -1 29t-4 24t-4.5 18.5t-8.5 16t-8.5 12t-12 11t-12.5 9t-15.5 10t-15.5 10.5l-80 49q-23 14 -60.5 34t-59.5 32t-49.5 34.5t-42.5 47t-25.5 64.5t-10.5 91v194q0 123 54 182.5t172 63.5v123 q0 43 19.5 62.5t62.5 19.5t62.5 -19.5t19.5 -62.5v-125q112 -6 163.5 -65t51.5 -179v-112q0 -43 -19.5 -62.5t-62.5 -19.5h-41q-43 0 -62.5 19.5t-19.5 62.5v92q0 43 -19.5 62.5t-62.5 19.5h-31q-43 0 -62.5 -19.5t-19.5 -62.5v-133q0 -31 4 -53t14.5 -36t17 -20t24.5 -16 t24 -14l80 -48q24 -14 59.5 -34t52.5 -29.5t41 -26t35 -28.5t25 -31.5t19.5 -40.5t9.5 -50t4 -65v-92q0 -124 -54 -182.5t-171 -63.5v-122q0 -43 -19.5 -62.5t-62.5 -19.5t-62.5 19.5t-19.5 62.5v122h-144q-43 0 -62.5 19.5t-19.5 62.5z" />
<glyph unicode="%" horiz-adv-x="1050" d="M102 741v545q0 76 36 112t112 36h74q76 0 111.5 -35.5t35.5 -112.5v-545q0 -77 -35.5 -112t-111.5 -35h-74q-77 0 -112.5 35.5t-35.5 111.5zM104 219q-43 67 23 113l231 160q37 30 63 24t50 -45q43 -74 -18 -113l-234 -161q-68 -48 -115 22zM231 770q0 -25 10 -35t35 -10 h21q25 0 35 10t10 35v487q0 25 -10 35.5t-35 10.5h-21q-25 0 -35 -10.5t-10 -35.5v-487zM578 147v545q0 77 35.5 112.5t111.5 35.5h74q76 0 111.5 -35.5t35.5 -112.5v-545q0 -77 -35 -112t-112 -35h-74q-77 0 -112 35t-35 112zM578 961q-43 74 18 112l235 162 q35 25 62.5 19.5t52.5 -42.5q43 -66 -22 -112l-234 -160q-37 -30 -62.5 -24t-49.5 45zM707 176q0 -25 10 -35t35 -10h20q25 0 35 10t10 35v488q0 25 -10 35t-35 10h-20q-25 0 -35 -10t-10 -35v-488z" />
<glyph unicode="&#x26;" horiz-adv-x="901" d="M102 246v338q0 107 34.5 155.5t109.5 48.5v21q-75 0 -109.5 49t-34.5 156v174q0 129 58.5 187.5t187.5 58.5h123q129 0 187.5 -58.5t58.5 -187.5v-133q0 -43 -19.5 -62.5t-62.5 -19.5h-41q-43 0 -62.5 19.5t-19.5 62.5v153q0 22 -9.5 31.5t-31.5 9.5h-123 q-22 0 -31.5 -9.5t-9.5 -31.5v-276q0 -22 9.5 -31.5t31.5 -9.5h430q43 0 62.5 -19.5t19.5 -62.5v-21q0 -43 -19.5 -62t-62.5 -19h-20q-22 0 -31.5 -9.5t-9.5 -31.5v-420q0 -129 -58.5 -187.5t-187.5 -58.5h-123q-129 0 -187.5 58.5t-58.5 187.5zM307 225q0 -22 9.5 -31.5 t31.5 -9.5h123q22 0 31.5 9.5t9.5 31.5v441q0 22 -9.5 31.5t-31.5 9.5h-123q-22 0 -31.5 -9.5t-9.5 -31.5v-441z" />
<glyph unicode="'" horiz-adv-x="331" d="M63 1352q-3 82 82 82h41q85 0 82 -82l-39 -348q-2 -22 -11.5 -31.5t-31.5 -9.5h-41q-22 0 -31.5 9.5t-11.5 31.5z" />
<glyph unicode="(" horiz-adv-x="552" d="M123 102v1045q0 151 58.5 219t187.5 68h41q43 0 62.5 -19.5t19.5 -62.5v-21q0 -43 -19.5 -62.5t-62.5 -19.5t-62.5 -29.5t-19.5 -93.5v-1003q0 -64 19.5 -93.5t62.5 -29.5t62.5 -19.5t19.5 -62.5v-20q0 -43 -19.5 -62.5t-62.5 -19.5h-41q-129 0 -187.5 67.5t-58.5 218.5z " />
<glyph unicode=")" horiz-adv-x="552" d="M61 -82q0 43 19.5 62.5t62.5 19.5t62.5 29.5t19.5 93.5v1003q0 64 -19.5 93.5t-62.5 29.5t-62.5 19.5t-19.5 62.5v21q0 43 19.5 62.5t62.5 19.5h41q129 0 187.5 -68t58.5 -219v-1045q0 -151 -58.5 -218.5t-187.5 -67.5h-41q-43 0 -62.5 19.5t-19.5 62.5v20z" />
<glyph unicode="*" horiz-adv-x="804" d="M68.5 1128q-11.5 25 3.5 66v2q15 41 40 53t66 0l117 -39q20 -6 20 15v127q0 43 19.5 62.5t62.5 19.5h9q43 0 62 -19.5t19 -62.5v-129q0 -21 21 -15l119 39q41 14 66 2t40 -53v-2q15 -41 3.5 -66t-52.5 -38l-125 -41q-20 -6 -8 -23l78 -100q50 -64 -15 -117l-4 -2 q-34 -27 -59.5 -23.5t-52.5 37.5l-84 111q-12 19 -25 0l-84 -113q-26 -34 -52 -37t-60 23l-5 4q-65 51 -14 117l74 100q11 17 -6 23l-121 41q-41 13 -52.5 38z" />
<glyph unicode="+" horiz-adv-x="983" d="M102 666v102q0 22 9.5 31.5t31.5 9.5h236q20 0 20 20v236q0 22 9.5 31.5t31.5 9.5h103q22 0 31.5 -9.5t9.5 -31.5v-236q0 -20 20 -20h236q22 0 31.5 -9.5t9.5 -31.5v-102q0 -22 -9.5 -31.5t-31.5 -9.5h-236q-20 0 -20 -21v-235q0 -22 -9.5 -31.5t-31.5 -9.5h-103 q-22 0 -31.5 9.5t-9.5 31.5v235q0 21 -20 21h-236q-22 0 -31.5 9.5t-9.5 31.5z" />
<glyph unicode="," horiz-adv-x="528" d="M125 -225l31 389q3 44 21.5 63t60.5 19h102q34 0 52 -21.5t9 -60.5l-92 -389q-10 -45 -26 -63.5t-56 -18.5h-20q-88 0 -82 82z" />
<glyph unicode="-" horiz-adv-x="614" d="M123 748v102q0 22 9.5 31.5t31.5 9.5h287q22 0 31.5 -9.5t9.5 -31.5v-102q0 -22 -9.5 -31.5t-31.5 -9.5h-287q-22 0 -31.5 9.5t-9.5 31.5z" />
<glyph unicode="." horiz-adv-x="512" d="M123 82v82q0 43 19.5 62.5t62.5 19.5h102q43 0 62.5 -19.5t19.5 -62.5v-82q0 -43 -19.5 -62.5t-62.5 -19.5h-102q-43 0 -62.5 19.5t-19.5 62.5z" />
<glyph unicode="/" horiz-adv-x="626" d="M16 -176l435 1622q12 42 35.5 56.5t64.5 2.5q42 -12 56 -35t3 -65l-434 -1622q-12 -41 -35.5 -55t-64.5 -4q-43 12 -57 35.5t-3 64.5z" />
<glyph unicode="0" d="M102 246v942q0 129 58.5 187.5t187.5 58.5h123q129 0 187.5 -58.5t58.5 -187.5v-113q0 -22 -9.5 -31.5t-31.5 -9.5h-123q-22 0 -31.5 9.5t-9.5 31.5v92q0 43 -19.5 62.5t-62.5 19.5h-41q-43 0 -62.5 -19.5t-19.5 -62.5v-901q0 -43 19.5 -62.5t62.5 -19.5h41 q43 0 62.5 19.5t19.5 62.5v666q0 22 9.5 31.5t31.5 9.5h123q22 0 31.5 -9.5t9.5 -31.5v-686q0 -129 -58.5 -187.5t-187.5 -58.5h-123q-129 0 -187.5 58.5t-58.5 187.5z" />
<glyph unicode="1" horiz-adv-x="641" d="M14 1161q-39 70 33 113l195 119q65 41 153 41q43 0 62.5 -19.5t19.5 -62.5v-1270q0 -43 -19.5 -62.5t-62.5 -19.5h-41q-43 0 -62.5 19.5t-19.5 62.5v647q0 70 5.5 147.5t15.5 174.5t14 147l-166 -100q-68 -43 -108 30z" />
<glyph unicode="2" d="M102 41v338q0 45 4.5 79t18.5 62.5t26.5 46.5t42.5 41t52 36.5t68 40.5q22 13 34 20l80 47q28 16 42.5 28t28 41t13.5 70v276q0 43 -19.5 62.5t-62.5 19.5h-31q-43 0 -62.5 -19.5t-19.5 -62.5v-194q0 -43 -19 -62.5t-62 -19.5h-41q-43 0 -62.5 19.5t-19.5 62.5v215 q0 129 58 187.5t187 58.5h113q129 0 187.5 -58.5t58.5 -187.5v-318q0 -39 -6 -71.5t-15 -57t-25.5 -46.5t-31 -36.5t-38.5 -31.5t-41 -27t-45.5 -26t-45.5 -27l-80 -49q-2 -2 -15.5 -10.5t-15.5 -10t-12.5 -9t-12 -11t-8.5 -12t-8.5 -16t-4.5 -18.5t-4 -24t-1 -29v-133 q0 -22 9.5 -31.5t31.5 -9.5h328q22 0 31.5 -9.5t9.5 -31.5v-102q0 -22 -9.5 -31.5t-31.5 -9.5h-533q-22 0 -31.5 9.5t-9.5 31.5z" />
<glyph unicode="3" horiz-adv-x="815" d="M92 246v215q0 43 19.5 62.5t62.5 19.5h41q43 0 62.5 -19.5t19.5 -62.5v-195q0 -43 19.5 -62.5t62.5 -19.5h41q43 0 62.5 19.5t19.5 62.5v359q0 43 -19.5 62.5t-62.5 19.5h-41q-43 0 -62.5 19t-19.5 62q0 45 35 136l119 284q8 19 -4.5 30t-36.5 11h-277q-22 0 -31.5 9.5 t-9.5 31.5v103q0 22 9.5 31.5t31.5 9.5h512q35 0 54 -22t8 -60l-187 -465q97 -12 142 -70.5t45 -171.5v-399q0 -129 -58.5 -187.5t-187.5 -58.5h-123q-129 0 -187.5 58.5t-58.5 187.5z" />
<glyph unicode="4" horiz-adv-x="864" d="M45 440l238 916q11 40 35.5 59t68.5 19h37q34 0 52.5 -22t8.5 -60l-194 -768q-6 -21 6 -31t35 -10h102q22 0 31.5 9.5t9.5 31.5v225q0 43 19.5 62.5t62.5 19.5h41q43 0 62.5 -19.5t19.5 -62.5v-225q0 -22 9.5 -31.5t31.5 -9.5h20q43 0 62.5 -19.5t19.5 -62.5v-21 q0 -43 -19.5 -62.5t-62.5 -19.5h-20q-22 0 -31.5 -9.5t-9.5 -31.5v-235q0 -43 -19.5 -62.5t-62.5 -19.5h-41q-43 0 -62.5 19.5t-19.5 62.5v235q0 22 -9.5 31.5t-31.5 9.5h-328q-34 0 -51 21t-10 61z" />
<glyph unicode="5" d="M102 246v215q0 43 19.5 62.5t62.5 19.5h41q43 0 62.5 -19.5t19.5 -62.5v-195q0 -43 19.5 -62.5t62.5 -19.5h41q43 0 62.5 19.5t19.5 62.5v369q0 43 -19.5 62.5t-62.5 19.5h-246q-43 0 -62.5 19.5t-19.5 62.5v553q0 43 19.5 62.5t62.5 19.5h492q22 0 31.5 -9.5t9.5 -31.5 v-103q0 -22 -9.5 -31.5t-31.5 -9.5h-328q-22 0 -31.5 -9.5t-9.5 -31.5v-266q0 -22 9.5 -31.5t31.5 -9.5h123q129 0 187.5 -58.5t58.5 -187.5v-409q0 -129 -58.5 -187.5t-187.5 -58.5h-123q-129 0 -187.5 58.5t-58.5 187.5z" />
<glyph unicode="6" d="M102 246v942q0 129 58.5 187.5t187.5 58.5h246q43 0 62.5 -19.5t19.5 -62.5v-21q0 -43 -19.5 -62.5t-62.5 -19.5h-205q-43 0 -62.5 -19.5t-19.5 -62.5v-225q0 -22 9.5 -31.5t31.5 -9.5h123q129 0 187.5 -58.5t58.5 -187.5v-409q0 -129 -58.5 -187.5t-187.5 -58.5h-123 q-129 0 -187.5 58.5t-58.5 187.5zM307 266q0 -43 19.5 -62.5t62.5 -19.5h41q43 0 62.5 19.5t19.5 62.5v369q0 43 -19.5 62.5t-62.5 19.5h-82q-22 0 -31.5 -9.5t-9.5 -31.5v-410z" />
<glyph unicode="7" horiz-adv-x="679" d="M41 1290v103q0 22 9.5 31.5t31.5 9.5h491q34 0 51.5 -21t10.5 -61l-330 -1274q-11 -40 -35.5 -59t-68.5 -19h-37q-35 0 -54 22t-8 60l287 1126q6 21 -6 31t-35 10h-266q-22 0 -31.5 9.5t-9.5 31.5z" />
<glyph unicode="8" d="M102 246v338q0 107 34.5 155.5t109.5 48.5v21q-75 0 -109.5 49t-34.5 156v174q0 129 58.5 187.5t187.5 58.5h123q129 0 187.5 -58.5t58.5 -187.5v-174q0 -107 -34.5 -156t-109.5 -49v-21q75 0 109.5 -48.5t34.5 -155.5v-338q0 -129 -58.5 -187.5t-187.5 -58.5h-123 q-129 0 -187.5 58.5t-58.5 187.5zM307 225q0 -22 9.5 -31.5t31.5 -9.5h123q22 0 31.5 9.5t9.5 31.5v441q0 22 -9.5 31.5t-31.5 9.5h-123q-22 0 -31.5 -9.5t-9.5 -31.5v-441zM307 932q0 -22 9.5 -31.5t31.5 -9.5h123q22 0 31.5 9.5t9.5 31.5v276q0 22 -9.5 31.5t-31.5 9.5 h-123q-22 0 -31.5 -9.5t-9.5 -31.5v-276z" />
<glyph unicode="9" d="M102 778v410q0 129 58.5 187.5t187.5 58.5h123q129 0 187.5 -58.5t58.5 -187.5v-942q0 -129 -58.5 -187.5t-187.5 -58.5h-246q-43 0 -62.5 19.5t-19.5 62.5v20q0 43 19.5 62.5t62.5 19.5h205q43 0 62.5 19.5t19.5 62.5v226q0 22 -9.5 31t-31.5 9h-123q-129 0 -187.5 58.5 t-58.5 187.5zM307 799q0 -43 19.5 -62.5t62.5 -19.5h82q22 0 31.5 9.5t9.5 31.5v409q0 43 -19.5 62.5t-62.5 19.5h-41q-43 0 -62.5 -19.5t-19.5 -62.5v-368z" />
<glyph unicode=":" horiz-adv-x="512" d="M123 82v82q0 43 19.5 62.5t62.5 19.5h102q43 0 62.5 -19.5t19.5 -62.5v-82q0 -43 -19.5 -62.5t-62.5 -19.5h-102q-43 0 -62.5 19.5t-19.5 62.5zM123 696v82q0 43 19.5 62.5t62.5 19.5h102q43 0 62.5 -19.5t19.5 -62.5v-82q0 -43 -19.5 -62.5t-62.5 -19.5h-102 q-43 0 -62.5 19.5t-19.5 62.5z" />
<glyph unicode=";" horiz-adv-x="512" d="M115 -225l30 389q3 44 21.5 63t60.5 19h103q34 0 52 -21.5t9 -60.5l-92 -389q-10 -45 -26 -63.5t-56 -18.5h-20q-88 0 -82 82zM123 696v82q0 43 19.5 62.5t62.5 19.5h102q43 0 62.5 -19.5t19.5 -62.5v-82q0 -43 -19.5 -62.5t-62.5 -19.5h-102q-43 0 -62.5 19.5 t-19.5 62.5z" />
<glyph unicode="&#x3c;" horiz-adv-x="1032" d="M41 717q0 42 19 65t61 37l729 287q76 33 102 -47l11 -33q14 -41 1.5 -66t-53.5 -40l-526 -193q-14 -4 -18 -6.5t0 -5.5t18 -8l526 -193q41 -15 53.5 -40t-1.5 -66l-11 -31q-26 -80 -102 -47l-729 284q-42 14 -61 37.5t-19 65.5z" />
<glyph unicode="=" horiz-adv-x="901" d="M102 502v102q0 22 9.5 31.5t31.5 9.5h615q22 0 31.5 -9.5t9.5 -31.5v-102q0 -22 -9.5 -31.5t-31.5 -9.5h-615q-22 0 -31.5 9.5t-9.5 31.5zM102 829v103q0 22 9.5 31.5t31.5 9.5h615q22 0 31.5 -9.5t9.5 -31.5v-103q0 -22 -9.5 -31.5t-31.5 -9.5h-615q-22 0 -31.5 9.5 t-9.5 31.5z" />
<glyph unicode="&#x3e;" horiz-adv-x="1032" d="M68 474q12 25 53 40l526 193q14 5 18 8t0 5.5t-18 6.5l-526 193q-41 15 -53 40t2 66l10 33q26 80 102 47l729 -287q42 -14 61 -37t19 -65t-19 -65.5t-61 -37.5l-729 -284q-76 -33 -102 47l-10 31q-14 41 -2 66z" />
<glyph unicode="?" d="M113 973v215q0 129 58 187.5t187 58.5h113q129 0 187.5 -58.5t58.5 -187.5v-318q0 -39 -5.5 -72t-13.5 -57t-23.5 -46.5t-28 -37t-35 -32t-37.5 -27t-42.5 -26.5t-42.5 -27q-4 -3 -14.5 -9.5t-14 -8.5t-11.5 -8t-10.5 -9.5t-8.5 -10.5t-8 -12.5t-6 -14.5t-5 -18t-2 -21.5 t-1 -26.5v-17q0 -22 -9.5 -31.5t-31.5 -9.5h-82q-22 0 -31.5 9.5t-9.5 31.5v37q0 29 2.5 54t5 44.5t10.5 38.5t13 31.5t19.5 29t21 24.5t27.5 24.5t30 24t36.5 27t39.5 28.5q20 15 31 27t21.5 41.5t10.5 70.5v276q0 43 -19.5 62.5t-62.5 19.5h-31q-43 0 -62.5 -19.5 t-19.5 -62.5v-194q0 -43 -19 -62.5t-62 -19.5h-41q-43 0 -62.5 19.5t-19.5 62.5zM225 82v41q0 43 19.5 62.5t62.5 19.5h41q43 0 62.5 -19.5t19.5 -62.5v-41q0 -43 -19.5 -62.5t-62.5 -19.5h-41q-43 0 -62.5 19.5t-19.5 62.5z" />
<glyph unicode="@" horiz-adv-x="942" d="M123 61v1106q0 129 58.5 187.5t187.5 58.5h204q129 0 187.5 -58.5t58.5 -187.5v-880q0 -43 -19.5 -62.5t-62.5 -19.5h-245q-43 0 -62.5 19.5t-19.5 62.5v614q0 43 19.5 62.5t62.5 19.5h102q20 0 20 21v143q0 43 -19.5 62.5t-62.5 19.5h-122q-43 0 -62.5 -19.5 t-19.5 -62.5v-1065q0 -43 19.5 -62.5t62.5 -19.5h307q43 0 62.5 -19.5t19.5 -62.5v-20q0 -43 -19.5 -62.5t-62.5 -19.5h-348q-129 0 -187.5 58t-58.5 187zM573 358q0 -20 21 -20q20 0 20 20v473q0 21 -20 21q-21 0 -21 -21v-473z" />
<glyph unicode="A" horiz-adv-x="802" d="M63 82l82 1106q9 132 63.5 189t182.5 57h21q127 0 181.5 -57t63.5 -189l82 -1106v-10q0 -72 -82 -72h-41q-42 0 -60 19t-21 63l-19 235q-2 22 -11.5 31.5t-31.5 9.5h-143q-22 0 -31.5 -9.5t-11.5 -31.5l-19 -235q-3 -43 -22 -62.5t-60 -19.5h-41q-82 0 -82 72v10z M307 584v-8q1 -16 7 -24q8 -10 30 -9h115q23 -1 31 9q7 8 6 24v8l-43 583q-6 82 -52 82q-26 0 -37 -20t-14 -62z" />
<glyph unicode="B" horiz-adv-x="860" d="M123 82v1270q0 43 19.5 62.5t62.5 19.5h287q129 0 187 -58.5t58 -187.5v-174q0 -107 -34 -156t-109 -49v-21q75 0 109 -48.5t34 -155.5v-338q0 -129 -58 -187.5t-187 -58.5h-287q-43 0 -62.5 19.5t-19.5 62.5zM328 225q0 -22 9.5 -31.5t31.5 -9.5h123q22 0 31 9.5t9 31.5 v441q0 22 -9 31.5t-31 9.5h-123q-22 0 -31.5 -9.5t-9.5 -31.5v-441zM328 932q0 -22 9.5 -31.5t31.5 -9.5h123q22 0 31 9.5t9 31.5v276q0 22 -9 31.5t-31 9.5h-123q-22 0 -31.5 -9.5t-9.5 -31.5v-276z" />
<glyph unicode="C" horiz-adv-x="798" d="M123 246v942q0 129 58.5 187.5t187.5 58.5h123q129 0 187 -58.5t58 -187.5v-215q0 -43 -19.5 -62.5t-62.5 -19.5h-41q-43 0 -62.5 19.5t-19.5 62.5v194q0 43 -19 62.5t-62 19.5h-41q-43 0 -62.5 -19.5t-19.5 -62.5v-901q0 -43 19.5 -62.5t62.5 -19.5h225q43 0 62.5 -19.5 t19.5 -62.5v-20q0 -43 -19.5 -62.5t-62.5 -19.5h-266q-129 0 -187.5 58.5t-58.5 187.5z" />
<glyph unicode="D" horiz-adv-x="860" d="M123 82v1270q0 43 19.5 62.5t62.5 19.5h287q129 0 187 -58.5t58 -187.5v-942q0 -129 -58 -187.5t-187 -58.5h-287q-43 0 -62.5 19.5t-19.5 62.5zM328 225q0 -22 9.5 -31.5t31.5 -9.5h82q43 0 62 19.5t19 62.5v901q0 43 -19 62.5t-62 19.5h-82q-22 0 -31.5 -9.5 t-9.5 -31.5v-983z" />
<glyph unicode="E" horiz-adv-x="675" d="M123 82v1270q0 43 19.5 62.5t62.5 19.5h348q43 0 62.5 -19.5t19.5 -62.5v-21q0 -43 -19.5 -62.5t-62.5 -19.5h-184q-22 0 -31.5 -9.5t-9.5 -31.5v-276q0 -22 9.5 -31.5t31.5 -9.5h102q43 0 62.5 -19.5t19.5 -62.5v-21q0 -43 -19.5 -62t-62.5 -19h-102q-22 0 -31.5 -9.5 t-9.5 -31.5v-441q0 -22 9.5 -31.5t31.5 -9.5h184q43 0 62.5 -19.5t19.5 -62.5v-20q0 -43 -19.5 -62.5t-62.5 -19.5h-348q-43 0 -62.5 19.5t-19.5 62.5z" />
<glyph unicode="F" horiz-adv-x="675" d="M123 82v1270q0 43 19.5 62.5t62.5 19.5h348q43 0 62.5 -19.5t19.5 -62.5v-21q0 -43 -19.5 -62.5t-62.5 -19.5h-184q-22 0 -31.5 -9.5t-9.5 -31.5v-276q0 -22 9.5 -31.5t31.5 -9.5h102q43 0 62.5 -19.5t19.5 -62.5v-21q0 -43 -19.5 -62t-62.5 -19h-102q-22 0 -31.5 -9.5 t-9.5 -31.5v-584q0 -43 -19.5 -62.5t-62.5 -19.5h-41q-43 0 -62.5 19.5t-19.5 62.5z" />
<glyph unicode="G" horiz-adv-x="829" d="M123 246v942q0 129 58.5 187.5t187.5 58.5h286q43 0 62.5 -19.5t19.5 -62.5v-21q0 -43 -19.5 -62.5t-62.5 -19.5h-245q-43 0 -62.5 -19.5t-19.5 -62.5v-901q0 -43 19.5 -62.5t62.5 -19.5h41q43 0 62 19.5t19 62.5v471q0 43 19.5 62.5t62.5 19.5h41q43 0 62.5 -19.5 t19.5 -62.5v-491q0 -129 -58 -187.5t-187 -58.5h-123q-129 0 -187.5 58.5t-58.5 187.5z" />
<glyph unicode="H" horiz-adv-x="860" d="M123 82v1270q0 43 19.5 62.5t62.5 19.5h41q43 0 62.5 -19.5t19.5 -62.5v-420q0 -22 9.5 -31.5t31.5 -9.5h123q22 0 31 9.5t9 31.5v420q0 43 19.5 62.5t62.5 19.5h41q43 0 62.5 -19.5t19.5 -62.5v-1270q0 -43 -19.5 -62.5t-62.5 -19.5h-41q-43 0 -62.5 19.5t-19.5 62.5 v584q0 22 -9 31.5t-31 9.5h-123q-22 0 -31.5 -9.5t-9.5 -31.5v-584q0 -43 -19.5 -62.5t-62.5 -19.5h-41q-43 0 -62.5 19.5t-19.5 62.5z" />
<glyph unicode="I" horiz-adv-x="450" d="M123 82v1270q0 43 19.5 62.5t62.5 19.5h41q43 0 62.5 -19.5t19.5 -62.5v-1270q0 -43 -19.5 -62.5t-62.5 -19.5h-41q-43 0 -62.5 19.5t-19.5 62.5z" />
<glyph unicode="J" horiz-adv-x="849" d="M123 246v491q0 43 19.5 62.5t62.5 19.5h41q43 0 62.5 -19.5t19.5 -62.5v-471q0 -43 19.5 -62.5t62.5 -19.5h30q43 0 62.5 19.5t19.5 62.5v942q0 22 -9.5 31.5t-31.5 9.5h-276q-43 0 -62.5 19.5t-19.5 62.5v21q0 43 19.5 62.5t62.5 19.5h440q43 0 62.5 -19.5t19.5 -62.5 v-1106q0 -129 -58.5 -187.5t-187.5 -58.5h-112q-129 0 -187.5 58.5t-58.5 187.5z" />
<glyph unicode="K" horiz-adv-x="835" d="M123 82v1270q0 43 19.5 62.5t62.5 19.5h41q43 0 62.5 -19.5t19.5 -62.5v-420q0 -41 26 -41q25 0 39 39l148 426q25 78 104 78h41q35 0 55 -22.5t7 -59.5l-173 -506q-6 -20 -6 -39t6 -39l234 -686q5 -15 5 -28q0 -19 -12 -32q-20 -22 -54 -22h-41q-81 0 -105 78l-201 590 q-14 39 -43 39q-30 0 -30 -41v-584q0 -43 -19.5 -62.5t-62.5 -19.5h-41q-43 0 -62.5 19.5t-19.5 62.5z" />
<glyph unicode="L" horiz-adv-x="675" d="M123 82v1270q0 43 19.5 62.5t62.5 19.5h41q43 0 62.5 -19.5t19.5 -62.5v-1127q0 -22 9.5 -31.5t31.5 -9.5h184q43 0 62.5 -19.5t19.5 -62.5v-20q0 -43 -19.5 -62.5t-62.5 -19.5h-348q-43 0 -62.5 19.5t-19.5 62.5z" />
<glyph unicode="M" horiz-adv-x="1269" d="M123 82v1270q0 43 19.5 62.5t62.5 19.5h41q82 0 102 -80l277 -805q4 -14 7 -18t6 0t7 18l277 805q14 41 37.5 60.5t64.5 19.5h41q43 0 62.5 -19.5t19.5 -62.5v-1270q0 -43 -19.5 -62.5t-62.5 -19.5h-41q-43 0 -62.5 19.5t-19.5 62.5v205q0 250 14 491l7 92q0 22 -2.5 22 t-8.5 -20l-215 -669q-14 -42 -37 -61t-65 -19t-65.5 19t-37.5 61l-215 669q-6 20 -8 20t-2 -22l6 -92q15 -258 15 -491v-205q0 -43 -19.5 -62.5t-62.5 -19.5h-41q-43 0 -62.5 19.5t-19.5 62.5z" />
<glyph unicode="N" horiz-adv-x="921" d="M123 82v1270q0 43 19.5 62.5t62.5 19.5h41q82 0 102 -80l256 -793q6 -20 8 -20t2 22l-6 92q-14 241 -14 492v205q0 43 19.5 62.5t62.5 19.5h41q43 0 62.5 -19.5t19.5 -62.5v-1270q0 -43 -19.5 -62.5t-62.5 -19.5h-41q-83 0 -103 80l-256 792q-6 20 -8 20t-2 -22l6 -92 q15 -258 15 -491v-205q0 -43 -19.5 -62.5t-62.5 -19.5h-41q-43 0 -62.5 19.5t-19.5 62.5z" />
<glyph unicode="O" horiz-adv-x="860" d="M123 246v942q0 129 58.5 187.5t187.5 58.5h123q129 0 187 -58.5t58 -187.5v-942q0 -129 -58 -187.5t-187 -58.5h-123q-129 0 -187.5 58.5t-58.5 187.5zM328 266q0 -43 19.5 -62.5t62.5 -19.5h41q43 0 62 19.5t19 62.5v901q0 43 -19 62.5t-62 19.5h-41q-43 0 -62.5 -19.5 t-19.5 -62.5v-901z" />
<glyph unicode="P" horiz-adv-x="798" d="M123 82v1270q0 43 19.5 62.5t62.5 19.5h287q129 0 187 -58.5t58 -187.5v-400q0 -129 -58 -187t-187 -58h-123q-22 0 -31.5 -9.5t-9.5 -31.5v-420q0 -43 -19.5 -62.5t-62.5 -19.5h-41q-43 0 -62.5 19.5t-19.5 62.5zM328 760q3 -33 41 -33h82q43 0 62 19.5t19 62.5v358 q0 43 -19 62.5t-62 19.5h-82q-22 0 -31.5 -9.5t-9.5 -31.5v-448z" />
<glyph unicode="Q" horiz-adv-x="860" d="M123 246v942q0 129 58.5 187.5t187.5 58.5h123q129 0 187 -58.5t58 -187.5v-942q0 -119 -49 -178t-156 -68v-33v-6q0 -52 82 -100l64 -37q47 -28 47 -67q0 -21 -14 -46l-19 -33q-25 -46 -61 -46q-22 0 -47 16l-11 6q-24 14 -59.5 34t-52 29.5t-41 26t-35 28.5t-24.5 31.5 t-19.5 40.5t-9.5 50t-4 65v41q-107 9 -156 68t-49 178zM328 266q0 -43 19.5 -62.5t62.5 -19.5h41q43 0 62 19.5t19 62.5v901q0 43 -19 62.5t-62 19.5h-41q-43 0 -62.5 -19.5t-19.5 -62.5v-901z" />
<glyph unicode="R" horiz-adv-x="839" d="M123 82v1270q0 43 19.5 62.5t62.5 19.5h287q129 0 187 -58.5t58 -187.5v-400q0 -101 -35 -158t-110 -77l172 -471q5 -14 5 -26q0 -19 -12 -33q-20 -23 -55 -23h-36q-48 0 -74.5 18.5t-40.5 59.5l-158 426q-15 37 -41 37q-24 0 -24 -39v-420q0 -43 -19.5 -62.5 t-62.5 -19.5h-41q-43 0 -62.5 19.5t-19.5 62.5zM328 760q0 -33 41 -33h82q43 0 62 19.5t19 62.5v358q0 43 -19 62.5t-62 19.5h-82q-22 0 -31.5 -9.5t-9.5 -31.5v-448z" />
<glyph unicode="S" d="M102 82v20q0 43 19.5 62.5t62.5 19.5h246q43 0 62.5 19.5t19.5 62.5v92q0 16 -1 29t-4 24t-4.5 18.5t-8.5 16t-8.5 12t-12 11t-12.5 9t-15.5 10t-15.5 10.5l-80 49q-24 14 -60.5 31.5t-59 28.5t-49.5 32.5t-42.5 46t-26 66.5t-10.5 98v338q0 129 58.5 187.5t187.5 58.5 h113q129 0 187.5 -58.5t58.5 -187.5v-215q0 -43 -19.5 -62.5t-62.5 -19.5h-41q-43 0 -62.5 19.5t-19.5 62.5v194q0 43 -19.5 62.5t-62.5 19.5h-31q-43 0 -62.5 -19.5t-19.5 -62.5v-276q0 -31 4 -53t14.5 -36t17 -20t24.5 -16t24 -14l80 -47q18 -10 54 -29t48.5 -26t39 -23 t34.5 -25t24.5 -26.5t21.5 -32.5l12.5 -37.5t9.5 -48t2 -58.5v-153q0 -129 -58.5 -187.5t-187.5 -58.5h-287q-43 0 -62.5 19.5t-19.5 62.5z" />
<glyph unicode="T" horiz-adv-x="655" d="M20 1290v103q0 22 9.5 31.5t31.5 9.5h533q22 0 31.5 -9.5t9.5 -31.5v-103q0 -22 -9.5 -31.5t-31.5 -9.5h-123q-22 0 -31.5 -9.5t-9.5 -31.5v-1126q0 -43 -19.5 -62.5t-62.5 -19.5h-41q-43 0 -62.5 19.5t-19.5 62.5v1126q0 22 -9.5 31.5t-31.5 9.5h-123q-22 0 -31.5 9.5 t-9.5 31.5z" />
<glyph unicode="U" horiz-adv-x="860" d="M123 246v1106q0 43 19.5 62.5t62.5 19.5h41q43 0 62.5 -19.5t19.5 -62.5v-1086q0 -43 19.5 -62.5t62.5 -19.5h41q43 0 62 19.5t19 62.5v1086q0 43 19.5 62.5t62.5 19.5h41q43 0 62.5 -19.5t19.5 -62.5v-1106q0 -129 -58 -187.5t-187 -58.5h-123q-129 0 -187.5 58.5 t-58.5 187.5z" />
<glyph unicode="V" horiz-adv-x="802" d="M63 1352v10q0 72 82 72h41q41 0 60 -19.5t22 -62.5l82 -1086q3 -82 51 -82q49 0 52 82l82 1086q3 44 21 63t60 19h41q82 0 82 -72v-10l-82 -1106q-8 -131 -63 -188.5t-182 -57.5h-21q-128 0 -183 57t-63 189z" />
<glyph unicode="W" horiz-adv-x="1282" d="M63 1352v10q0 72 82 72h41q42 0 60.5 -19t21.5 -63l76 -1086q3 -42 12 -62t29 -20q25 0 35.5 20t15.5 62l82 881q5 44 22.5 63t59.5 19h86q42 0 59.5 -19t22.5 -63l82 -881q5 -43 15 -62.5t36 -19.5q20 0 29 20t12 62l72 1086q3 44 21 63t61 19h41q82 0 82 -72v-10 l-72 -1106q-8 -131 -61.5 -188.5t-174.5 -57.5h-20q-106 0 -151 56.5t-54 189.5l-12 164q-13 180 -19 409q-1 20 -6.5 28.5t-11 0t-6.5 -28.5q-6 -229 -19 -409l-12 -164q-9 -132 -54.5 -189t-150.5 -57h-20q-122 0 -174.5 57t-61.5 189z" />
<glyph unicode="X" horiz-adv-x="798" d="M68 82l213 625q6 19 5.5 38t-5.5 39l-193 568q-13 37 7 59.5t55 22.5h40q79 0 105 -78l43 -127q11 -35 21 -75t22 -90.5t18 -76.5q6 23 18 75.5t22.5 92t21.5 74.5l43 127q14 40 37.5 59t66.5 19h41q35 0 55 -22.5t7 -59.5l-193 -568q-6 -19 -6 -38.5t6 -38.5l213 -625 q5 -15 5 -28q0 -19 -12 -32q-20 -22 -54 -22h-41q-81 0 -105 78l-43 127q-14 44 -27.5 93.5t-30 113t-24.5 94.5q-8 -31 -24.5 -94.5t-30 -113t-27.5 -93.5l-43 -127q-14 -40 -37.5 -59t-66.5 -19h-41q-35 0 -55 22q-12 13 -11 32q0 13 5 28z" />
<glyph unicode="Y" horiz-adv-x="798" d="M92 604v748q0 43 19.5 62.5t62.5 19.5h41q43 0 62.5 -19.5t19.5 -62.5v-727q0 -43 19.5 -62.5t62.5 -19.5h41q43 0 62.5 19.5t19.5 62.5v727q0 43 19.5 62.5t62.5 19.5h41q43 0 62.5 -19.5t19.5 -62.5v-748q0 -119 -49 -178t-156 -68v-276q0 -43 -19.5 -62.5t-62.5 -19.5 h-41q-43 0 -62.5 19.5t-19.5 62.5v276q-107 7 -156 67t-49 179z" />
<glyph unicode="Z" horiz-adv-x="704" d="M66 82l327 1126q6 21 -6 31t-35 10h-225q-22 0 -31.5 9.5t-9.5 31.5v103q0 22 9.5 31.5t31.5 9.5h451q34 0 51 -21q12 -15 12 -39q0 -10 -2 -22l-328 -1127q-6 -21 6 -31t35 -10h226q22 0 31 -9.5t9 -31.5v-102q0 -22 -9 -31.5t-31 -9.5h-451q-34 0 -51 21q-12 15 -12 39 q0 10 2 22z" />
<glyph unicode="[" horiz-adv-x="655" d="M123 -287v1823q0 43 19.5 62.5t62.5 19.5h389q22 0 31.5 -9.5t9.5 -31.5v-102q0 -22 -9.5 -31.5t-31.5 -9.5h-225q-22 0 -31.5 -9.5t-9.5 -31.5v-1536q0 -22 9.5 -31.5t31.5 -9.5h225q22 0 31.5 -9.5t9.5 -31.5v-103q0 -22 -9.5 -31.5t-31.5 -9.5h-389q-43 0 -62.5 19.5 t-19.5 62.5z" />
<glyph unicode="\" horiz-adv-x="626" d="M16 1405q-11 41 3 64.5t57 35.5q41 12 64.5 -2.5t35.5 -56.5l434 -1622q11 -42 -3 -65t-56 -35q-41 -10 -64.5 4t-35.5 55z" />
<glyph unicode="]" horiz-adv-x="655" d="M20 -225q0 22 9.5 31.5t31.5 9.5h226q22 0 31.5 9.5t9.5 31.5v1536q0 22 -9.5 31.5t-31.5 9.5h-226q-22 0 -31.5 9.5t-9.5 31.5v102q0 22 9.5 31.5t31.5 9.5h390q43 0 62 -19.5t19 -62.5v-1823q0 -43 -19 -62.5t-62 -19.5h-390q-22 0 -31.5 9.5t-9.5 31.5v103z" />
<glyph unicode="^" horiz-adv-x="704" d="M72 1065l178 391q21 44 41.5 62t60.5 18t61 -18.5t42 -61.5l178 -391q33 -76 -47 -102l-4 -2q-41 -14 -66.5 -2t-40.5 53l-123 323h-4l-119 -323q-15 -41 -40 -53t-66 2l-4 2q-80 26 -47 102z" />
<glyph unicode="_" horiz-adv-x="901" d="M0 -256q0 22 9.5 31.5t31.5 9.5h819q22 0 31.5 -9.5t9.5 -31.5v-102q0 -22 -9.5 -31.5t-31.5 -9.5h-819q-22 0 -31.5 9.5t-9.5 31.5v102z" />
<glyph unicode="`" horiz-adv-x="655" d="M156 1466l6 21q9 34 29.5 47t50.5 0l239 -119q42 -18 31 -49l-4 -10q-8 -20 -18 -26.5t-31 -2.5l-256 57q-61 14 -47 82z" />
<glyph unicode="a" horiz-adv-x="808" d="M92 246v225q0 47 11.5 86t25 63t44.5 50t48.5 37t60 34.5t58.5 32.5l80 47q46 28 60 46q22 30 22 87q0 47 -17.5 68.5t-64.5 21.5h-205q-43 0 -62.5 19.5t-19.5 62.5v21q0 43 19.5 62.5t62.5 19.5h246q129 0 187.5 -58.5t58.5 -187.5v-737q0 -129 -58.5 -187.5 t-187.5 -58.5h-123q-129 0 -187.5 58.5t-58.5 187.5zM297 266q0 -43 19.5 -62.5t62.5 -19.5h41q82 0 82 82v383l-121 -69q-4 -2 -19 -11t-18.5 -12t-14.5 -12t-14 -16.5t-9 -20.5t-7.5 -30t-1.5 -38v-174z" />
<glyph unicode="b" d="M102 82v1372q0 43 19.5 62.5t62.5 19.5h41q43 0 62.5 -19.5t19.5 -62.5v-184q0 -22 9.5 -31.5t31.5 -9.5h123q129 0 187.5 -58.5t58.5 -187.5v-737q0 -129 -58.5 -187.5t-187.5 -58.5h-287q-43 0 -62.5 19.5t-19.5 62.5zM307 225q0 -22 9.5 -31.5t31.5 -9.5h82 q43 0 62.5 19.5t19.5 62.5v697q0 43 -19.5 62t-62.5 19h-82q-38 0 -41 -32v-787z" />
<glyph unicode="c" horiz-adv-x="788" d="M102 246v737q0 129 58.5 187.5t187.5 58.5h123q129 0 187.5 -58.5t58.5 -187.5v-174q0 -43 -19.5 -62.5t-62.5 -19.5h-41q-43 0 -62.5 19.5t-19.5 62.5v154q0 43 -19.5 62t-62.5 19h-41q-43 0 -62.5 -19t-19.5 -62v-697q0 -43 19.5 -62.5t62.5 -19.5h225q43 0 62.5 -19.5 t19.5 -62.5v-20q0 -43 -19.5 -62.5t-62.5 -19.5h-266q-129 0 -187.5 58.5t-58.5 187.5z" />
<glyph unicode="d" d="M102 246v737q0 129 58.5 187.5t187.5 58.5h123q22 0 31.5 9.5t9.5 31.5v184q0 43 19.5 62.5t62.5 19.5h41q43 0 62.5 -19.5t19.5 -62.5v-1372q0 -43 -19.5 -62.5t-62.5 -19.5h-287q-129 0 -187.5 58.5t-58.5 187.5zM307 266q0 -43 19.5 -62.5t62.5 -19.5h82 q22 0 31.5 9.5t9.5 31.5v787q-3 32 -41 32h-82q-43 0 -62.5 -19t-19.5 -62v-697z" />
<glyph unicode="e" horiz-adv-x="788" d="M102 246v737q0 129 58.5 187.5t187.5 58.5h123q129 0 187.5 -58.5t58.5 -187.5v-379q0 -129 -58.5 -187.5t-187.5 -58.5h-123q-22 0 -31.5 -9.5t-9.5 -31.5v-51q0 -43 19.5 -62.5t62.5 -19.5h225q43 0 62.5 -19.5t19.5 -62.5v-20q0 -43 -19.5 -62.5t-62.5 -19.5h-266 q-129 0 -187.5 58.5t-58.5 187.5zM307 584q0 -22 9.5 -31.5t31.5 -9.5h123q22 0 31.5 9.5t9.5 31.5v379q0 43 -19.5 62t-62.5 19h-41q-43 0 -62.5 -19t-19.5 -62v-379z" />
<glyph unicode="f" horiz-adv-x="634" d="M102 82v1208q0 129 58.5 187.5t187.5 58.5h205q43 0 62.5 -19.5t19.5 -62.5v-20q0 -43 -19.5 -62.5t-62.5 -19.5h-164q-43 0 -62.5 -19.5t-19.5 -62.5v-185q0 -22 9.5 -31.5t31.5 -9.5h164q43 0 62.5 -19t19.5 -62v-21q0 -43 -19.5 -62.5t-62.5 -19.5h-164 q-22 0 -31.5 -9.5t-9.5 -31.5v-737q0 -43 -19.5 -62.5t-62.5 -19.5h-41q-43 0 -62.5 19.5t-19.5 62.5z" />
<glyph unicode="g" d="M102 246v737q0 129 58.5 187.5t187.5 58.5h287q43 0 62.5 -19.5t19.5 -62.5v-1188q0 -36 -4 -65t-9.5 -50t-19.5 -40.5t-25 -31.5t-35 -28.5t-41 -26t-52.5 -29.5t-59.5 -34l-10 -6q-26 -16 -47 -16q-37 0 -62 46l-18 33q-15 26 -15 48q0 40 48 65l63 37q82 48 82 100v6 q-3 33 -41 33h-123q-129 0 -187.5 58.5t-58.5 187.5zM307 266q0 -43 19.5 -62.5t62.5 -19.5h82q38 0 41 33v787q0 22 -9.5 31t-31.5 9h-82q-43 0 -62.5 -19t-19.5 -62v-697z" />
<glyph unicode="h" d="M102 82v1372q0 43 19.5 62.5t62.5 19.5h41q43 0 62.5 -19.5t19.5 -62.5v-184q0 -22 9.5 -31.5t31.5 -9.5h123q129 0 187.5 -58.5t58.5 -187.5v-901q0 -43 -19.5 -62.5t-62.5 -19.5h-41q-43 0 -62.5 19.5t-19.5 62.5v881q0 43 -19.5 62t-62.5 19h-82q-38 0 -41 -32v-930 q0 -43 -19.5 -62.5t-62.5 -19.5h5h4h3h3h1h2h1h1h-1h-1h-1h-2h-1h-1h-2h-1h-2h-2h-2h-2h-2h-3h-3h-3h-3h-3h-4h-4h-5h-6h-7q-43 0 -62.5 19.5t-19.5 62.5z" />
<glyph unicode="i" horiz-adv-x="409" d="M102 82v1065q0 43 19.5 62.5t62.5 19.5h41q43 0 62.5 -19.5t19.5 -62.5v-1065q0 -43 -19.5 -62.5t-62.5 -19.5h-41q-43 0 -62.5 19.5t-19.5 62.5zM102 1413v41q0 43 19.5 62.5t62.5 19.5h41q43 0 62.5 -19.5t19.5 -62.5v-41q0 -43 -19.5 -62.5t-62.5 -19.5h-41 q-43 0 -62.5 19.5t-19.5 62.5z" />
<glyph unicode="j" horiz-adv-x="409" d="M-76 -289q-14 25 -14 46q0 39 47 67l63 37q82 48 82 106v1180q0 43 19.5 62.5t62.5 19.5h41q43 0 62.5 -19.5t19.5 -62.5v-1188q0 -36 -4 -65t-9.5 -50t-19.5 -40.5t-25 -31.5t-35 -28.5t-41 -26t-52.5 -29.5t-59.5 -34l-10 -6q-25 -16 -47 -16q-36 0 -61 46zM102 1413 v41q0 43 19.5 62.5t62.5 19.5h41q43 0 62.5 -19.5t19.5 -62.5v-41q0 -43 -19.5 -62.5t-62.5 -19.5h-41q-43 0 -62.5 19.5t-19.5 62.5z" />
<glyph unicode="k" horiz-adv-x="800" d="M102 82v1372q0 43 19.5 62.5t62.5 19.5h41q43 0 62.5 -19.5t19.5 -62.5v-625q0 -41 27 -41q25 0 39 39l112 324q25 78 105 78h41q35 0 54.5 -22t6.5 -60l-137 -404q-6 -20 -5.5 -39t5.5 -38l199 -584q5 -15 5 -27q0 -19 -12 -33q-20 -22 -55 -22h-41q-42 0 -67 19t-37 59 l-166 487q-14 39 -43 39q-31 0 -31 -41v-481q0 -43 -19.5 -62.5t-62.5 -19.5h-41q-43 0 -62.5 19.5t-19.5 62.5z" />
<glyph unicode="l" horiz-adv-x="409" d="M102 82v1372q0 43 19.5 62.5t62.5 19.5h41q43 0 62.5 -19.5t19.5 -62.5v-1372q0 -43 -19.5 -62.5t-62.5 -19.5h-41q-43 0 -62.5 19.5t-19.5 62.5z" />
<glyph unicode="m" horiz-adv-x="1228" d="M102 82v901q0 129 58.5 187.5t187.5 58.5h51q107 0 156 -34.5t49 -109.5h21q0 75 48.5 109.5t155.5 34.5h52q129 0 187 -58.5t58 -187.5v-901q0 -43 -19.5 -62.5t-62.5 -19.5h-40q-43 0 -62.5 19.5t-19.5 62.5v922q0 22 -9.5 31t-31.5 9h-123q-22 0 -31.5 -9t-9.5 -31 v-922q0 -43 -19.5 -62.5t-62.5 -19.5h-41q-43 0 -62.5 19.5t-19.5 62.5v922q0 22 -9.5 31t-31.5 9h-123q-22 0 -31.5 -9t-9.5 -31v-922q0 -43 -19.5 -62.5t-62.5 -19.5h-41q-43 0 -62.5 19.5t-19.5 62.5z" />
<glyph unicode="n" d="M102 82v901q0 129 58.5 187.5t187.5 58.5h123q129 0 187.5 -58.5t58.5 -187.5v-901q0 -43 -19.5 -62.5t-62.5 -19.5h-41q-43 0 -62.5 19.5t-19.5 62.5v881q0 43 -19.5 62t-62.5 19h-41q-43 0 -62.5 -19t-19.5 -62v-881q0 -43 -19.5 -62.5t-62.5 -19.5h-41 q-43 0 -62.5 19.5t-19.5 62.5z" />
<glyph unicode="o" d="M102 246v737q0 129 58.5 187.5t187.5 58.5h123q129 0 187.5 -58.5t58.5 -187.5v-737q0 -129 -58.5 -187.5t-187.5 -58.5h-123q-129 0 -187.5 58.5t-58.5 187.5zM307 266q0 -43 19.5 -62.5t62.5 -19.5h41q43 0 62.5 19.5t19.5 62.5v697q0 43 -19.5 62t-62.5 19h-41 q-43 0 -62.5 -19t-19.5 -62v-697z" />
<glyph unicode="p" d="M102 -225v1372q0 43 19.5 62.5t62.5 19.5h287q129 0 187.5 -58.5t58.5 -187.5v-737q0 -129 -58.5 -187.5t-187.5 -58.5h-123q-22 0 -31.5 -9.5t-9.5 -31.5v-184q0 -43 -19.5 -62.5t-62.5 -19.5h-41q-43 0 -62.5 19.5t-19.5 62.5zM307 217q3 -33 41 -33h82q43 0 62.5 19.5 t19.5 62.5v697q0 43 -19.5 62t-62.5 19h-82q-22 0 -31.5 -9t-9.5 -31v-787z" />
<glyph unicode="q" d="M102 246v737q0 129 58.5 187.5t187.5 58.5h287q43 0 62.5 -19.5t19.5 -62.5v-1372q0 -43 -19.5 -62.5t-62.5 -19.5h-41q-43 0 -62.5 19.5t-19.5 62.5v184q0 22 -9.5 31.5t-31.5 9.5h-123q-129 0 -187.5 58.5t-58.5 187.5zM307 266q0 -43 19.5 -62.5t62.5 -19.5h82 q38 0 41 33v787q0 22 -9.5 31t-31.5 9h-82q-43 0 -62.5 -19t-19.5 -62v-697z" />
<glyph unicode="r" horiz-adv-x="737" d="M102 82v901q0 129 58.5 187.5t187.5 58.5h123q129 0 187.5 -58.5t58.5 -187.5v-174q0 -43 -19.5 -62.5t-62.5 -19.5h-41q-43 0 -62.5 19.5t-19.5 62.5v154q0 43 -19.5 62t-62.5 19h-41q-43 0 -62.5 -19t-19.5 -62v-881q0 -43 -19.5 -62.5t-62.5 -19.5h-41 q-43 0 -62.5 19.5t-19.5 62.5z" />
<glyph unicode="s" horiz-adv-x="778" d="M82 82v20q0 43 19.5 62.5t62.5 19.5h246q47 0 64.5 21.5t17.5 68.5q0 14 -1 26.5t-4.5 22.5t-5.5 17.5t-8.5 15.5t-9.5 12t-12 10.5t-12 9t-14.5 9.5t-14.5 9l-80 49q-18 11 -57.5 33t-59.5 34.5t-49.5 37.5t-44 49.5t-26 63t-11.5 85.5v225q0 129 58.5 187.5t187.5 58.5 h112q129 0 187.5 -58.5t58.5 -187.5v-174q0 -43 -19.5 -62.5t-62.5 -19.5h-41q-43 0 -62.5 19.5t-19.5 62.5v154q0 43 -19.5 62t-62.5 19h-30q-43 0 -62.5 -19t-19.5 -62v-164q0 -21 1.5 -38t7.5 -30t9 -20.5t14 -16.5t14.5 -12t18.5 -12t19 -11l80 -47q22 -13 53.5 -31 t47 -27t39 -24t34 -25t25.5 -26t21.5 -31.5t13 -37t9 -46.5t2.5 -57v-61q0 -129 -58 -187.5t-187 -58.5h-287q-43 0 -62.5 19.5t-19.5 62.5z" />
<glyph unicode="t" horiz-adv-x="737" d="M102 246v1024q0 43 19.5 62.5t62.5 19.5h41q43 0 62.5 -19.5t19.5 -62.5v-185q0 -22 9.5 -31.5t31.5 -9.5h246q43 0 62.5 -19t19.5 -62v-21q0 -43 -19.5 -62.5t-62.5 -19.5h-246q-22 0 -31.5 -9.5t-9.5 -31.5v-553q0 -43 19.5 -62.5t62.5 -19.5t62.5 19.5t19.5 62.5v154 q0 43 19.5 62.5t62.5 19.5h41q43 0 62.5 -19.5t19.5 -62.5v-174q0 -129 -58.5 -187.5t-187.5 -58.5h-82q-129 0 -187.5 58.5t-58.5 187.5z" />
<glyph unicode="u" d="M102 246v901q0 43 19.5 62.5t62.5 19.5h41q43 0 62.5 -19.5t19.5 -62.5v-881q0 -43 19.5 -62.5t62.5 -19.5h41q43 0 62.5 19.5t19.5 62.5v881q0 43 19.5 62.5t62.5 19.5h41q43 0 62.5 -19.5t19.5 -62.5v-901q0 -129 -58.5 -187.5t-187.5 -58.5h-123q-129 0 -187.5 58.5 t-58.5 187.5z" />
<glyph unicode="v" horiz-adv-x="823" d="M63 1147q-1 7 -1 14q0 68 83 68h41q42 0 59.5 -19t22.5 -63l92 -881q3 -42 14.5 -62t37.5 -20q45 0 51 82l92 881q5 44 22.5 63t59.5 19h41q83 0 83 -68q0 -7 -1 -14l-92 -901q-14 -133 -67 -189.5t-179 -56.5h-21q-127 0 -179 56t-66 190z" />
<glyph unicode="w" horiz-adv-x="1257" d="M63 1147v10q0 72 82 72h41q42 0 60.5 -19t21.5 -63l62 -881q3 -42 12 -62t29 -20q25 0 35.5 20t15.5 62l82 778q5 44 22.5 63t59.5 19h86q42 0 59.5 -19t22.5 -63l82 -778q5 -43 15 -62.5t36 -19.5q20 0 29 20t12 62l61 881q3 44 21 63t61 19h41q82 0 82 -72v-10 l-61 -901q-9 -131 -62 -188.5t-174 -57.5h-20q-106 0 -151 56.5t-54 189.5l-13 164q-11 156 -18 409q-1 20 -7 28.5t-11.5 0t-6.5 -28.5q-7 -253 -18 -409l-12 -164q-9 -132 -54.5 -189t-150.5 -57h-21q-122 0 -174 57t-61 189z" />
<glyph unicode="x" horiz-adv-x="688" d="M27 82l198 522q6 20 6 39t-6 39l-178 465q-13 37 7 59.5t55 22.5h41q42 0 66 -18.5t38 -59.5l29 -107q11 -32 21 -68t22 -83.5t18 -69.5q5 17 18 68t23 86t21 67l28 107q14 40 38 59t67 19h41q35 0 54.5 -22t6.5 -60l-178 -465q-6 -20 -6 -39t6 -39l199 -522q5 -15 5 -27 q0 -19 -12 -33q-20 -22 -55 -22h-41q-83 0 -104 78l-29 106q-9 26 -82 281q-73 -255 -82 -281l-29 -106q-14 -40 -37.5 -59t-66.5 -19h-41q-34 0 -54 22q-12 13 -12 32q0 13 5 28z" />
<glyph unicode="y" d="M102 246v901q0 43 19.5 62.5t62.5 19.5h-5h-4h-3h-3h-1h-2h-1h-1h1h1h1h2h1h1h2h1h2h2h2h2h2h3h3h3h3h3h4h4h5h6h7q43 0 62.5 -19.5t19.5 -62.5v-881q0 -43 19.5 -62.5t62.5 -19.5h82q38 0 41 33v930q0 43 19.5 62.5t62.5 19.5h41q43 0 62.5 -19.5t19.5 -62.5v-1188 q0 -36 -4 -65t-9.5 -50t-19.5 -40.5t-25 -31.5t-35 -28.5t-41 -26t-52.5 -29.5t-59.5 -34l-10 -6q-26 -16 -47 -16q-37 0 -62 46l-18 33q-14 25 -14 46q0 39 47 67l63 37q82 48 82 100v6q-3 33 -41 33h-123q-129 0 -187.5 58.5t-58.5 187.5z" />
<glyph unicode="z" horiz-adv-x="704" d="M66 82l327 922q6 21 -6 30.5t-35 9.5h-225q-22 0 -31.5 9.5t-9.5 31.5v103q0 22 9.5 31.5t31.5 9.5h451q34 0 51 -21q12 -15 12 -39q0 -10 -2 -22l-328 -922q-6 -21 6 -31t35 -10h226q22 0 31 -9.5t9 -31.5v-102q0 -22 -9 -31.5t-31 -9.5h-451q-34 0 -51 21 q-12 15 -12 39q0 10 2 22z" />
<glyph unicode="{" horiz-adv-x="614" d="M61 614v21q0 43 19.5 62.5t62.5 19.5q22 0 31.5 9.5t9.5 31.5v430q0 129 58.5 187.5t187.5 58.5h41q43 0 62.5 -19.5t19.5 -62.5v-21q0 -43 -19.5 -62.5t-62.5 -19.5t-62.5 -19.5t-19.5 -62.5v-327q0 -107 -34 -156t-109 -49v-21q75 0 109 -48.5t34 -155.5v-328 q0 -43 19.5 -62.5t62.5 -19.5t62.5 -19.5t19.5 -62.5v-20q0 -43 -19.5 -62.5t-62.5 -19.5h-41q-129 0 -187.5 58t-58.5 187v431q0 22 -9.5 31t-31.5 9q-43 0 -62.5 19.5t-19.5 62.5z" />
<glyph unicode="|" horiz-adv-x="409" d="M123 -225v1679q0 43 19.5 62.5t62.5 19.5t62.5 -19.5t19.5 -62.5v-1679q0 -43 -19.5 -62.5t-62.5 -19.5t-62.5 19.5t-19.5 62.5z" />
<glyph unicode="}" horiz-adv-x="614" d="M61 -82q0 43 19.5 62.5t62.5 19.5t62.5 19.5t19.5 62.5v328q0 107 34.5 155.5t109.5 48.5v21q-75 0 -109.5 49t-34.5 156v327q0 43 -19.5 62.5t-62.5 19.5t-62.5 19.5t-19.5 62.5v21q0 43 19.5 62.5t62.5 19.5h41q129 0 187.5 -58.5t58.5 -187.5v-430q0 -22 9.5 -31.5 t31.5 -9.5q43 0 62.5 -19.5t19.5 -62.5v-21q0 -43 -19.5 -62.5t-62.5 -19.5q-22 0 -31.5 -9t-9.5 -31v-431q0 -129 -58.5 -187t-187.5 -58h-41q-43 0 -62.5 19.5t-19.5 62.5v20z" />
<glyph unicode="~" horiz-adv-x="1001" d="M106 559l19 88q45 191 233 191q56 0 96 -17.5t61 -42.5t39 -50t41 -42.5t54 -17.5q29 0 47.5 13t20.5 34l20 55q3 13 7 21.5t13.5 21t29.5 19t49 6.5q39 0 53 -16t8 -52l-20 -88q-46 -190 -236 -190q-56 0 -95.5 17.5t-60 42.5t-38 50t-41.5 42.5t-58 17.5q-50 0 -65 -48 l-19 -55l-2 -9q-3 -10 -7.5 -18.5t-14 -18t-28 -15.5t-44.5 -6q-79 0 -62 67z" />
<glyph unicode="&#xa2;" horiz-adv-x="788" d="M102 348v533q0 123 54 182t172 63v127q0 43 19.5 62.5t62.5 19.5t62.5 -19.5t19.5 -62.5v-127q117 -5 171 -63.5t54 -181.5v-133q0 -43 -19.5 -62.5t-62.5 -19.5h-41q-43 0 -62.5 19.5t-19.5 62.5v112q0 43 -19.5 62.5t-62.5 19.5h-41q-43 0 -62.5 -19.5t-19.5 -62.5 v-491q0 -43 19.5 -62.5t62.5 -19.5h225q43 0 62.5 -19.5t19.5 -62.5v-21q0 -43 -19.5 -62.5t-62.5 -19.5h-122v-122q0 -43 -19.5 -62.5t-62.5 -19.5t-62.5 19.5t-19.5 62.5v122q-119 5 -172.5 63.5t-53.5 182.5z" />
<glyph unicode="&#xa3;" horiz-adv-x="872" d="M39 768l10 61q3 22 13 31.5t32 9.5h51q21 0 21 21v297q0 129 58.5 187.5t187.5 58.5h112q129 0 187.5 -58.5t58.5 -187.5v-82q0 -43 -19.5 -62.5t-62.5 -19.5h-41q-43 0 -62.5 19.5t-19.5 62.5v61q0 43 -19.5 62.5t-62.5 19.5h-30q-43 0 -62.5 -19.5t-19.5 -62.5v-276 q0 -21 20 -21h131q43 0 37 -41l-10 -61q-3 -22 -13 -31.5t-32 -9.5h-113q-20 0 -20 -20v-482q0 -22 9.5 -31.5t31.5 -9.5h276q43 0 62.5 -19.5t19.5 -62.5v-20q0 -43 -19.5 -62.5t-62.5 -19.5h-563q-43 0 -62.5 19.5t-19.5 62.5v20q0 43 19.5 62.5t62.5 19.5q22 0 31.5 9.5 t9.5 31.5v482q0 20 -21 20h-69q-43 0 -37 41z" />
<glyph unicode="&#xa5;" horiz-adv-x="860" d="M123 901v451q0 43 19.5 62.5t62.5 19.5h41q43 0 62.5 -19.5t19.5 -62.5v-430q0 -43 19.5 -62.5t62.5 -19.5h41q43 0 62 19.5t19 62.5v430q0 43 19.5 62.5t62.5 19.5h41q43 0 62.5 -19.5t19.5 -62.5v-451q0 -119 -49 -178t-156 -68v-61q0 -21 21 -21h131q43 0 37 -41 l-10 -61q-3 -22 -13 -31.5t-32 -9.5h-113q-21 0 -21 -20v-103q0 -20 21 -20h131q43 0 37 -41l-10 -62q-3 -22 -13 -31.5t-32 -9.5h-113q-21 0 -21 -20v-41q0 -43 -19 -62.5t-62 -19.5h-41q-43 0 -62.5 19.5t-19.5 62.5v41q0 20 -21 20h-131q-43 0 -37 41l11 62q3 22 13 31.5 t32 9.5h112q21 0 21 20v103q0 20 -21 20h-131q-43 0 -37 41l11 61q3 22 13 31.5t32 9.5h112q21 0 21 21v61q-107 7 -156 67t-49 179z" />
<glyph unicode="&#xa8;" horiz-adv-x="655" d="M123 1397v33q0 65 65 65h33q66 0 66 -65v-33q0 -66 -66 -66h-33q-65 0 -65 66zM369 1397v33q0 65 65 65h33q65 0 65 -65v-33q0 -66 -65 -66h-33q-65 0 -65 66z" />
<glyph unicode="&#xa9;" horiz-adv-x="1167" d="M123 379v676q0 193 87.5 280.5t281.5 87.5h184q194 0 281 -87.5t87 -280.5v-676q0 -194 -87.5 -281.5t-280.5 -87.5h-184q-194 0 -281.5 88t-87.5 281zM205 379q0 -151 68 -219t219 -68h184q151 0 219 68t68 219v676q0 151 -68 218.5t-219 67.5h-184q-151 0 -219 -67.5 t-68 -218.5v-676zM342 442v549q0 103 47 150t150 47h98q103 0 150 -47t47 -150v-172q0 -65 -66 -65h-33q-65 0 -65 65v156q0 65 -66 65h-33q-65 0 -65 -65v-516q0 -66 65 -66h181q65 0 65 -65v-17q0 -65 -65 -65h-213q-103 0 -150 46.5t-47 149.5z" />
<glyph unicode="&#xab;" horiz-adv-x="634" d="M47 410q-11 38 0 77l98 250q14 39 38.5 58.5t66.5 19.5h41q35 0 54.5 -22t6.5 -60l-98 -250q-12 -41 0 -69l98 -250q13 -38 -6.5 -60t-54.5 -22h-41q-42 0 -66.5 19.5t-38.5 58.5zM344 418q-8 30 0 61l80 201q11 31 30 46t54 15h33q27 0 43 -17.5t6 -47.5l-80 -199 q-9 -34 0 -57l80 -199q10 -30 -6 -47.5t-43 -17.5h-33q-35 0 -54 15t-30 46z" />
<glyph unicode="&#xad;" horiz-adv-x="614" d="M123 748v102q0 22 9.5 31.5t31.5 9.5h287q22 0 31.5 -9.5t9.5 -31.5v-102q0 -22 -9.5 -31.5t-31.5 -9.5h-287q-22 0 -31.5 9.5t-9.5 31.5z" />
<glyph unicode="&#xae;" horiz-adv-x="1167" d="M123 379v676q0 193 87.5 280.5t281.5 87.5h184q194 0 281 -87.5t87 -280.5v-676q0 -194 -87.5 -281.5t-280.5 -87.5h-184q-194 0 -281.5 88t-87.5 281zM205 379q0 -151 68 -219t219 -68h184q151 0 219 68t68 219v676q0 151 -68 218.5t-219 67.5h-184q-151 0 -219 -67.5 t-68 -218.5v-676zM342 311v811q0 66 66 66h229q103 0 150 -47t47 -150v-114q0 -82 -28 -128t-89 -61l139 -377q10 -29 -6 -47t-43 -18h-31q-37 0 -58.5 14.5t-33.5 46.5l-125 342q-11 29 -33 29q-20 0 -20 -31v-336q0 -34 -15.5 -49.5t-50.5 -15.5h-32q-66 0 -66 65z M506 854q0 -27 33 -27h65q35 0 50.5 16t15.5 50v82q0 34 -15.5 49.5t-50.5 15.5h-65q-33 0 -33 -32v-154z" />
<glyph unicode="&#xb4;" horiz-adv-x="655" d="M154 1366q-11 31 30 49l240 119q30 13 50.5 0t29.5 -47l6 -21q14 -68 -47 -82l-256 -57q-21 -4 -31 2.5t-18 26.5z" />
<glyph unicode="&#xb8;" horiz-adv-x="454" d="M102 -307q0 18 4.5 29.5t14 15t12 4t10.5 0.5h74q29 9 29 39q0 22 -16 38t-35.5 25.5t-35.5 33.5t-16 61v73h107v-73q0 -20 16 -35t35 -24t35 -33t16 -60q0 -61 -35 -101t-100 -40h-74q-41 0 -41 47z" />
<glyph unicode="&#xbb;" horiz-adv-x="634" d="M45 221l80 199q9 23 0 57l-80 199q-10 30 6 47.5t43 17.5h33q35 0 54 -15t30 -46l80 -201q8 -31 0 -61l-80 -201q-11 -31 -30 -46t-54 -15h-33q-27 0 -43 17.5t-6 47.5zM283 164l98 250q12 28 0 69l-98 250q-13 38 6.5 60t54.5 22h41q42 0 66 -19.5t38 -58.5l99 -250 q11 -39 0 -77l-99 -250q-14 -39 -38 -58.5t-66 -19.5h-41q-35 0 -54.5 22t-6.5 60z" />
<glyph unicode="&#x2c6;" horiz-adv-x="655" d="M127 1358q-51 65 8 94l174 100q19 9 37 0l174 -100q59 -29 8 -94q-54 -65 -92 -29l-102 92q-6 4 -12 0l-103 -92q-39 -35 -92 29z" />
<glyph unicode="&#x2da;" horiz-adv-x="450" d="M90 1413q0 55 40 95t95 40t95 -40t40 -95t-40 -95t-95 -40t-95 40t-40 95zM176 1413q0 -20 14.5 -34.5t34.5 -14.5t34.5 14.5t14.5 34.5t-14.5 34.5t-34.5 14.5t-34.5 -14.5t-14.5 -34.5z" />
<glyph unicode="&#x2dc;" horiz-adv-x="688" d="M104 1350l13 53q25 115 141 115q34 0 58 -10.5t37 -26t23.5 -30.5t24.5 -25.5t33 -10.5q37 0 41 29l12 33q3 11 6.5 17.5t17.5 15t36 8.5q25 0 33.5 -9.5t3.5 -31.5l-13 -54q-25 -114 -141 -114q-34 0 -58 10.5t-36.5 25.5t-23 30t-25 25.5t-35.5 10.5q-30 0 -39 -29 l-12 -32l-1 -4q-1 -4 -2 -7t-3.5 -7.5t-6.5 -8t-10 -7t-15 -5.5t-20 -2q-22 0 -33 8.5t-6 32.5z" />
<glyph unicode="&#x400;" horiz-adv-x="675" d="M123 82v1270q0 43 19.5 62.5t62.5 19.5h348q43 0 62.5 -19.5t19.5 -62.5v-21q0 -43 -19.5 -62.5t-62.5 -19.5h-184q-22 0 -31.5 -9.5t-9.5 -31.5v-276q0 -22 9.5 -31.5t31.5 -9.5h102q43 0 62.5 -19.5t19.5 -62.5v-21q0 -43 -19.5 -62t-62.5 -19h-102q-22 0 -31.5 -9.5 t-9.5 -31.5v-441q0 -22 9.5 -31.5t31.5 -9.5h184q43 0 62.5 -19.5t19.5 -62.5v-20q0 -43 -19.5 -62.5t-62.5 -19.5h-348q-43 0 -62.5 19.5t-19.5 62.5zM160 1671l6 21q9 34 29.5 47t50.5 0l239 -119q42 -18 31 -49l-4 -10q-8 -20 -18 -26.5t-31 -2.5l-256 57q-61 14 -47 82z " />
<glyph unicode="&#x401;" horiz-adv-x="675" d="M123 82v1270q0 43 19.5 62.5t62.5 19.5h348q43 0 62.5 -19.5t19.5 -62.5v-21q0 -43 -19.5 -62.5t-62.5 -19.5h-184q-22 0 -31.5 -9.5t-9.5 -31.5v-276q0 -22 9.5 -31.5t31.5 -9.5h102q43 0 62.5 -19.5t19.5 -62.5v-21q0 -43 -19.5 -62t-62.5 -19h-102q-22 0 -31.5 -9.5 t-9.5 -31.5v-441q0 -22 9.5 -31.5t31.5 -9.5h184q43 0 62.5 -19.5t19.5 -62.5v-20q0 -43 -19.5 -62.5t-62.5 -19.5h-348q-43 0 -62.5 19.5t-19.5 62.5zM172 1602v32q0 66 66 66h32q66 0 66 -66v-32q0 -66 -66 -66h-32q-66 0 -66 66zM418 1602v32q0 66 65 66h33q66 0 66 -66 v-32q0 -66 -66 -66h-33q-65 0 -65 66z" />
<glyph unicode="&#x402;" horiz-adv-x="962" d="M20 1290v103q0 22 9.5 31.5t31.5 9.5h533q22 0 31.5 -9.5t9.5 -31.5v-103q0 -22 -9.5 -31.5t-31.5 -9.5h-123q-22 0 -31.5 -9.5t-9.5 -31.5v-90q3 -33 41 -33h123q129 0 187.5 -58t58.5 -187v-566q0 -41 -4 -72.5t-14.5 -55.5t-20 -39.5t-31 -31.5t-36 -25t-46.5 -26.5 t-51 -29.5q-68 -43 -109 31l-18 32q-40 73 33 113l10 6q82 48 82 107v536q0 43 -19.5 62.5t-62.5 19.5h-82q-38 0 -41 -33v-786q0 -43 -19.5 -62.5t-62.5 -19.5h-41q-43 0 -62.5 19.5t-19.5 62.5v1126q0 22 -9.5 31.5t-31.5 9.5h-123q-22 0 -31.5 9.5t-9.5 31.5z" />
<glyph unicode="&#x403;" horiz-adv-x="675" d="M123 82v1270q0 43 19.5 62.5t62.5 19.5h348q43 0 62.5 -19.5t19.5 -62.5v-21q0 -43 -19.5 -62.5t-62.5 -19.5h-184q-22 0 -31.5 -9.5t-9.5 -31.5v-1126q0 -43 -19.5 -62.5t-62.5 -19.5h-41q-43 0 -62.5 19.5t-19.5 62.5zM199 1571q-11 31 30 49l240 119q30 13 50.5 0 t29.5 -47l6 -21q14 -68 -47 -82l-256 -57q-21 -4 -31 2.5t-18 26.5z" />
<glyph unicode="&#x404;" horiz-adv-x="798" d="M123 246v942q0 129 58.5 187.5t187.5 58.5h123q129 0 187 -58.5t58 -187.5v-215q0 -43 -19.5 -62.5t-62.5 -19.5h-41q-43 0 -62.5 19.5t-19.5 62.5v194q0 43 -19 62.5t-62 19.5h-41q-43 0 -62.5 -19.5t-19.5 -62.5v-399q0 -22 9.5 -31.5t31.5 -9.5h102q43 0 62.5 -19.5 t19.5 -62.5v-20q0 -43 -19.5 -62.5t-62.5 -19.5h-102q-22 0 -31.5 -9.5t-9.5 -31.5v-236q0 -43 19.5 -62.5t62.5 -19.5h225q43 0 62.5 -19.5t19.5 -62.5v-20q0 -43 -19.5 -62.5t-62.5 -19.5h-266q-129 0 -187.5 58.5t-58.5 187.5z" />
<glyph unicode="&#x405;" horiz-adv-x="860" d="M123 82v20q0 43 19.5 62.5t62.5 19.5h246q43 0 62 19.5t19 62.5v92q0 14 -1 26.5t-2 21.5t-5 18.5t-5.5 15t-8 12.5t-8.5 10t-11 9.5t-11.5 8.5t-14 9t-14.5 9l-80 49q-24 14 -60.5 31.5t-59 28.5t-49.5 32.5t-42.5 46t-26 66.5t-10.5 98v338q0 129 58.5 187.5 t187.5 58.5h112q129 0 187.5 -58.5t58.5 -187.5v-215q0 -43 -19.5 -62.5t-62.5 -19.5h-41q-43 0 -62.5 19.5t-19.5 62.5v194q0 43 -19.5 62.5t-62.5 19.5h-30q-43 0 -62.5 -19.5t-19.5 -62.5v-276q0 -31 4 -53t14.5 -36t17 -20t24.5 -16t24 -14l80 -47q18 -10 49.5 -26.5 t44 -23.5t36.5 -21t33 -22t25 -22.5t22 -26.5t15 -29.5t12 -37t5.5 -44t2.5 -53.5v-153q0 -129 -58 -187.5t-187 -58.5h-287q-43 0 -62.5 19.5t-19.5 62.5z" />
<glyph unicode="&#x406;" horiz-adv-x="450" d="M123 82v1270q0 43 19.5 62.5t62.5 19.5h41q43 0 62.5 -19.5t19.5 -62.5v-1270q0 -43 -19.5 -62.5t-62.5 -19.5h-41q-43 0 -62.5 19.5t-19.5 62.5z" />
<glyph unicode="&#x407;" horiz-adv-x="450" d="M20 1602v32q0 66 66 66h33q65 0 65 -66v-32q0 -66 -65 -66h-33q-66 0 -66 66zM123 82v1270q0 43 19.5 62.5t62.5 19.5h41q43 0 62.5 -19.5t19.5 -62.5v-1270q0 -43 -19.5 -62.5t-62.5 -19.5h-41q-43 0 -62.5 19.5t-19.5 62.5zM266 1602v32q0 66 66 66h33q65 0 65 -66v-32 q0 -66 -65 -66h-33q-66 0 -66 66z" />
<glyph unicode="&#x408;" horiz-adv-x="849" d="M123 246v532q0 22 9.5 31.5t31.5 9.5h123q22 0 31.5 -9.5t9.5 -31.5v-512q0 -43 19.5 -62.5t62.5 -19.5h30q43 0 62.5 19.5t19.5 62.5v942q0 22 -9.5 31.5t-31.5 9.5h-317q-22 0 -31.5 9.5t-9.5 31.5v103q0 22 9.5 31.5t31.5 9.5h481q43 0 62.5 -19.5t19.5 -62.5v-1106 q0 -129 -58.5 -187.5t-187.5 -58.5h-112q-129 0 -187.5 58.5t-58.5 187.5z" />
<glyph unicode="&#x409;" horiz-adv-x="1255" d="M14 68q-40 72 33 112q76 45 82 107l102 1065q0 43 19.5 62.5t62.5 19.5h349q43 0 62 -19.5t19 -62.5v-420q0 -22 9.5 -31.5t31.5 -9.5h123q129 0 187.5 -58.5t58.5 -187.5v-399q0 -129 -58.5 -187.5t-187.5 -58.5h-286q-43 0 -62.5 19.5t-19.5 62.5v1126q0 22 -9.5 31.5 t-31.5 9.5h-31q-22 0 -31.5 -9.5t-9.5 -31.5l-92 -929q-4 -37 -13 -69.5t-18 -54.5t-28 -44.5t-29 -34t-35.5 -29t-33.5 -22.5t-36 -21q-67 -43 -108 31zM743 225q0 -22 9.5 -31.5t31.5 -9.5h82q43 0 62.5 19.5t19.5 62.5v359q0 43 -19.5 62.5t-62.5 19.5h-82q-38 0 -41 -33 v-449z" />
<glyph unicode="&#x40a;" horiz-adv-x="1249" d="M123 82v1270q0 43 19.5 62.5t62.5 19.5h41q43 0 62.5 -19.5t19.5 -62.5v-420q0 -22 9.5 -31.5t31.5 -9.5h123q22 0 31 9.5t9 31.5v420q0 43 19.5 62.5t62.5 19.5h41q43 0 62.5 -19.5t19.5 -62.5v-420q0 -22 9.5 -31.5t31.5 -9.5h123q129 0 187.5 -58.5t58.5 -187.5v-399 q0 -129 -58.5 -187.5t-187.5 -58.5h-287q-43 0 -62.5 19.5t-19.5 62.5v584q0 22 -9 31.5t-31 9.5h-123q-22 0 -31.5 -9.5t-9.5 -31.5v-584q0 -43 -19.5 -62.5t-62.5 -19.5h-41q-43 0 -62.5 19.5t-19.5 62.5zM737 225q0 -22 9.5 -31.5t31.5 -9.5h82q43 0 62.5 19.5t19.5 62.5 v359q0 43 -19.5 62.5t-62.5 19.5h-82q-38 0 -41 -33v-449z" />
<glyph unicode="&#x40b;" horiz-adv-x="962" d="M20 1290v103q0 22 9.5 31.5t31.5 9.5h533q22 0 31.5 -9.5t9.5 -31.5v-103q0 -22 -9.5 -31.5t-31.5 -9.5h-123q-22 0 -31.5 -9.5t-9.5 -31.5v-90q3 -33 41 -33h123q129 0 187.5 -58t58.5 -187v-758q0 -43 -19.5 -62.5t-62.5 -19.5h5h4h3h3h1h2h1h1h-1h-1h-1h-2h-1h-1h-2 h-1h-2h-2h-2h-2h-2h-3h-3h-3h-3h-3h-4h-4h-5h-6h-7q-43 0 -62.5 19.5t-19.5 62.5v737q0 43 -19.5 62.5t-62.5 19.5h-82q-38 0 -41 -33v-786q0 -43 -19.5 -62.5t-62.5 -19.5h-41q-43 0 -62.5 19.5t-19.5 62.5v1126q0 22 -9.5 31.5t-31.5 9.5h-123q-22 0 -31.5 9.5t-9.5 31.5z " />
<glyph unicode="&#x40c;" horiz-adv-x="835" d="M123 82v1270q0 43 19.5 62.5t62.5 19.5h41q43 0 62.5 -19.5t19.5 -62.5v-420q0 -41 26 -41q25 0 39 39l148 426q25 78 104 78h41q35 0 55 -22.5t7 -59.5l-173 -506q-12 -39 0 -78l234 -686q13 -38 -6.5 -60t-54.5 -22h-41q-81 0 -105 78l-201 590q-14 39 -43 39 q-30 0 -30 -41v-584q0 -43 -19.5 -62.5t-62.5 -19.5h-41q-43 0 -62.5 19.5t-19.5 62.5zM317 1571q-11 31 31 49l240 119q30 13 50.5 0t29.5 -47l6 -21q14 -68 -47 -82l-256 -57q-21 -4 -31 2.5t-18 26.5z" />
<glyph unicode="&#x40d;" horiz-adv-x="921" d="M123 82v1270q0 43 19.5 62.5t62.5 19.5h41q43 0 62.5 -19.5t19.5 -62.5v-205q0 -234 -15 -492l-6 -92q0 -22 2 -22t8 20l256 793q20 80 103 80h41q43 0 62.5 -19.5t19.5 -62.5v-1270q0 -43 -19.5 -62.5t-62.5 -19.5h-41q-43 0 -62.5 19.5t-19.5 62.5v205q0 250 14 491 l6 92q0 22 -2 22t-8 -20l-256 -792q-20 -80 -102 -80h-41q-43 0 -62.5 19.5t-19.5 62.5zM215 1671l6 21q9 34 29.5 47t50.5 0l240 -119q41 -18 30 -49l-4 -10q-8 -20 -18 -26.5t-31 -2.5l-256 57q-61 14 -47 82z" />
<glyph unicode="&#x40e;" d="M82 594v758q0 43 19.5 62.5t62.5 19.5h-5h-4h-3h-3h-1h-2h-1h-1h1h1h1h2h1h1h2h1h2h2h2h2h2h3h3h3h3h3h4h4h5h6h7q43 0 62.5 -19.5t19.5 -62.5v-738q0 -43 19.5 -62.5t62.5 -19.5h82q38 0 41 33v787q0 43 19 62.5t62 19.5h41q43 0 62.5 -19.5t19.5 -62.5v-1045 q0 -36 -4 -65t-9.5 -50t-19.5 -40.5t-24.5 -31.5t-35 -28.5t-41 -26t-52 -29.5t-59.5 -34l-11 -6q-67 -43 -108 31l-19 32q-39 70 33 113l64 37q87 51 82 106q-3 33 -41 33h-123q-129 0 -187.5 58.5t-58.5 187.5zM182 1663v25q0 26 11.5 37.5t37.5 11.5h25q26 0 37.5 -11.5 t11.5 -37.5v-13q0 -25 18.5 -36t59.5 -13h16q78 3 78 49v13q0 26 11.5 37.5t37.5 11.5h25q26 0 37.5 -11.5t11.5 -37.5v-25q0 -77 -47 -112t-150 -35h-24q-103 0 -150 35t-47 112z" />
<glyph unicode="&#x40f;" horiz-adv-x="860" d="M123 82v1270q0 43 19.5 62.5t62.5 19.5h41q43 0 62.5 -19.5t19.5 -62.5v-1127q0 -22 9.5 -31.5t31.5 -9.5h123q22 0 31 9.5t9 31.5v1127q0 43 19.5 62.5t62.5 19.5h41q43 0 62.5 -19.5t19.5 -62.5v-1270q0 -43 -19.5 -62.5t-62.5 -19.5h-82q-22 0 -31.5 -9.5t-9.5 -31.5 v-184q0 -43 -19 -62.5t-62 -19.5h-41q-43 0 -62.5 19.5t-19.5 62.5v184q0 22 -9.5 31.5t-31.5 9.5h-82q-43 0 -62.5 19.5t-19.5 62.5z" />
<glyph unicode="&#x410;" horiz-adv-x="802" d="M63 82l82 1106q9 132 63.5 189t182.5 57h21q127 0 181.5 -57t63.5 -189l82 -1106q6 -82 -82 -82h-41q-42 0 -60 19t-21 63l-19 235q-2 22 -11.5 31.5t-31.5 9.5h-143q-22 0 -31.5 -9.5t-11.5 -31.5l-19 -235q-3 -43 -22 -62.5t-60 -19.5h-41q-88 0 -82 82zM307 584 q-2 -22 6.5 -31.5t30.5 -9.5h115q22 0 30.5 9.5t6.5 31.5l-43 583q-6 82 -52 82q-26 0 -37 -20t-14 -62z" />
<glyph unicode="&#x411;" horiz-adv-x="860" d="M123 82v1270q0 43 19.5 62.5t62.5 19.5h430q43 0 62.5 -19.5t19.5 -62.5v-21q0 -43 -19.5 -62.5t-62.5 -19.5h-266q-22 0 -31.5 -9.5t-9.5 -31.5v-276q0 -22 9.5 -31.5t31.5 -9.5h123q129 0 187 -58.5t58 -187.5v-399q0 -129 -58 -187.5t-187 -58.5h-287 q-43 0 -62.5 19.5t-19.5 62.5zM328 225q0 -22 9.5 -31.5t31.5 -9.5h82q43 0 62 19.5t19 62.5v359q0 43 -19 62.5t-62 19.5h-82q-38 0 -41 -33v-449z" />
<glyph unicode="&#x412;" horiz-adv-x="860" d="M123 82v1270q0 43 19.5 62.5t62.5 19.5h287q129 0 187 -58.5t58 -187.5v-174q0 -107 -34 -156t-109 -49v-21q75 0 109 -48.5t34 -155.5v-338q0 -129 -58 -187.5t-187 -58.5h-287q-43 0 -62.5 19.5t-19.5 62.5zM328 225q0 -22 9.5 -31.5t31.5 -9.5h123q22 0 31 9.5t9 31.5 v441q0 22 -9 31.5t-31 9.5h-123q-22 0 -31.5 -9.5t-9.5 -31.5v-441zM328 932q0 -22 9.5 -31.5t31.5 -9.5h123q22 0 31 9.5t9 31.5v276q0 22 -9 31.5t-31 9.5h-123q-22 0 -31.5 -9.5t-9.5 -31.5v-276z" />
<glyph unicode="&#x413;" horiz-adv-x="675" d="M123 82v1270q0 43 19.5 62.5t62.5 19.5h348q43 0 62.5 -19.5t19.5 -62.5v-21q0 -43 -19.5 -62.5t-62.5 -19.5h-184q-22 0 -31.5 -9.5t-9.5 -31.5v-1126q0 -43 -19.5 -62.5t-62.5 -19.5h-41q-43 0 -62.5 19.5t-19.5 62.5z" />
<glyph unicode="&#x414;" horiz-adv-x="880" d="M20 102q0 27 9 43.5t17.5 21.5t35.5 17q21 10 35 26t21 36.5t9.5 35.5t4.5 37l94 1033q0 43 19.5 62.5t62.5 19.5h348q43 0 62.5 -19.5t19.5 -62.5v-1127q0 -22 9.5 -31.5t31.5 -9.5q32 0 46.5 -19.5t14.5 -62.5v-245q0 -43 -19.5 -62.5t-62.5 -19.5h-20 q-43 0 -62.5 19.5t-19.5 62.5v102q0 22 -9.5 31.5t-31.5 9.5h-389q-22 0 -31.5 -9.5t-9.5 -31.5v-102q0 -43 -19.5 -62.5t-62.5 -19.5h-21q-43 0 -62.5 19.5t-19.5 62.5v245zM332 225q-6 -19 6 -30t35 -11h139q22 0 31.5 9.5t9.5 31.5v983q0 22 -9.5 31.5t-31.5 9.5h-41 q-21 0 -30 -9.5t-11 -31.5l-78 -889q-4 -35 -20 -94z" />
<glyph unicode="&#x415;" horiz-adv-x="675" d="M123 82v1270q0 43 19.5 62.5t62.5 19.5h348q43 0 62.5 -19.5t19.5 -62.5v-21q0 -43 -19.5 -62.5t-62.5 -19.5h-184q-22 0 -31.5 -9.5t-9.5 -31.5v-276q0 -22 9.5 -31.5t31.5 -9.5h102q43 0 62.5 -19.5t19.5 -62.5v-21q0 -43 -19.5 -62t-62.5 -19h-102q-22 0 -31.5 -9.5 t-9.5 -31.5v-441q0 -22 9.5 -31.5t31.5 -9.5h184q43 0 62.5 -19.5t19.5 -62.5v-20q0 -43 -19.5 -62.5t-62.5 -19.5h-348q-43 0 -62.5 19.5t-19.5 62.5z" />
<glyph unicode="&#x416;" horiz-adv-x="1261" d="M47 82l234 686q12 39 0 78l-172 506q-13 38 6.5 60t54.5 22h41q79 0 104 -78l148 -426q14 -39 39 -39q26 0 26 41v420q0 43 19.5 62.5t62.5 19.5h41q43 0 62.5 -19.5t19.5 -62.5v-420q0 -41 27 -41q25 0 39 39l147 426q25 78 105 78h41q35 0 54.5 -22t6.5 -60l-172 -506 q-12 -39 0 -78l233 -686q13 -38 -6.5 -60t-54.5 -22h-41q-42 0 -67 19t-37 59l-201 590q-14 39 -43 39q-31 0 -31 -41v-584q0 -43 -19.5 -62.5t-62.5 -19.5h-41q-43 0 -62.5 19.5t-19.5 62.5v584q0 41 -30 41q-29 0 -43 -39l-201 -590q-12 -40 -37 -59t-67 -19h-41 q-35 0 -55 22.5t-7 59.5z" />
<glyph unicode="&#x417;" d="M82 973v215q0 129 58.5 187.5t187.5 58.5h123q129 0 187 -58.5t58 -187.5v-338q0 -107 -34 -156t-109 -49v-20q77 0 110 -40t33 -145v-82q0 -33 -2 -58.5t-9 -47.5t-12.5 -37.5t-21 -32t-25 -26t-33.5 -24.5t-38.5 -23t-48 -26.5t-53.5 -29.5l-117 -65q-69 -43 -109 30 l-18 33q-39 70 33 113l170 96q80 47 80 107v94q0 43 -19.5 62.5t-62.5 19.5h-41q-43 0 -62.5 19.5t-19.5 62.5v20q0 43 19.5 62.5t62.5 19.5h41q43 0 62.5 19.5t19.5 62.5v358q0 43 -19.5 62.5t-62.5 19.5h-41q-43 0 -62.5 -19.5t-19.5 -62.5v-194q0 -43 -19.5 -62.5 t-62.5 -19.5h-41q-43 0 -62.5 19.5t-19.5 62.5z" />
<glyph unicode="&#x418;" horiz-adv-x="921" d="M123 82v1270q0 43 19.5 62.5t62.5 19.5h41q43 0 62.5 -19.5t19.5 -62.5v-205q0 -234 -15 -492l-6 -92q0 -22 2 -22t8 20l256 793q20 80 103 80h41q43 0 62.5 -19.5t19.5 -62.5v-1270q0 -43 -19.5 -62.5t-62.5 -19.5h-41q-43 0 -62.5 19.5t-19.5 62.5v205q0 250 14 491 l6 92q0 22 -2 22t-8 -20l-256 -792q-20 -80 -102 -80h-41q-43 0 -62.5 19.5t-19.5 62.5z" />
<glyph unicode="&#x419;" horiz-adv-x="921" d="M123 82v1270q0 43 19.5 62.5t62.5 19.5h41q43 0 62.5 -19.5t19.5 -62.5v-205q0 -234 -15 -492l-6 -92q0 -22 2 -22t8 20l256 793q20 80 103 80h41q43 0 62.5 -19.5t19.5 -62.5v-1270q0 -43 -19.5 -62.5t-62.5 -19.5h-41q-43 0 -62.5 19.5t-19.5 62.5v205q0 250 14 491 l6 92q0 22 -2 22t-8 -20l-256 -792q-20 -80 -102 -80h-41q-43 0 -62.5 19.5t-19.5 62.5zM252 1663v25q0 26 11.5 37.5t37.5 11.5h25q26 0 37.5 -11.5t11.5 -37.5v-13q0 -25 18.5 -36t59.5 -13h16q78 3 78 49v13q0 26 11.5 37.5t37.5 11.5h25q26 0 37.5 -11.5t11.5 -37.5v-25 q0 -77 -47 -112t-150 -35h-24q-103 0 -150 35t-47 112z" />
<glyph unicode="&#x41a;" horiz-adv-x="835" d="M123 82v1270q0 43 19.5 62.5t62.5 19.5h41q43 0 62.5 -19.5t19.5 -62.5v-420q0 -41 26 -41q25 0 39 39l148 426q25 78 104 78h41q35 0 55 -22.5t7 -59.5l-173 -506q-12 -39 0 -78l234 -686q13 -38 -6.5 -60t-54.5 -22h-41q-81 0 -105 78l-201 590q-14 39 -43 39 q-30 0 -30 -41v-584q0 -43 -19.5 -62.5t-62.5 -19.5h-41q-43 0 -62.5 19.5t-19.5 62.5z" />
<glyph unicode="&#x41b;" horiz-adv-x="866" d="M14 68q-40 72 33 112q76 45 82 107l102 1065q0 43 19.5 62.5t62.5 19.5h349q43 0 62 -19.5t19 -62.5v-1270q0 -43 -19 -62.5t-62 -19.5h-41q-43 0 -62.5 19.5t-19.5 62.5v1126q0 22 -9.5 31.5t-31.5 9.5h-31q-22 0 -31.5 -9.5t-9.5 -31.5l-92 -929q-4 -37 -13 -69.5 t-18 -54.5t-28 -44.5t-29 -34t-35.5 -29t-33.5 -22.5t-36 -21q-67 -43 -108 31z" />
<glyph unicode="&#x41c;" horiz-adv-x="1269" d="M123 82v1270q0 43 19.5 62.5t62.5 19.5h41q82 0 102 -80l277 -805q4 -14 7 -18t6 0t7 18l277 805q14 41 37.5 60.5t64.5 19.5h41q43 0 62.5 -19.5t19.5 -62.5v-1270q0 -43 -19.5 -62.5t-62.5 -19.5h-41q-43 0 -62.5 19.5t-19.5 62.5v205q0 250 14 491l7 92q0 22 -2.5 22 t-8.5 -20l-215 -669q-14 -42 -37 -61t-65 -19t-65.5 19t-37.5 61l-215 669q-6 20 -8 20t-2 -22l6 -92q15 -258 15 -491v-205q0 -43 -19.5 -62.5t-62.5 -19.5h-41q-43 0 -62.5 19.5t-19.5 62.5z" />
<glyph unicode="&#x41d;" horiz-adv-x="860" d="M123 82v1270q0 43 19.5 62.5t62.5 19.5h41q43 0 62.5 -19.5t19.5 -62.5v-420q0 -22 9.5 -31.5t31.5 -9.5h123q22 0 31 9.5t9 31.5v420q0 43 19.5 62.5t62.5 19.5h41q43 0 62.5 -19.5t19.5 -62.5v-1270q0 -43 -19.5 -62.5t-62.5 -19.5h-41q-43 0 -62.5 19.5t-19.5 62.5 v584q0 22 -9 31.5t-31 9.5h-123q-22 0 -31.5 -9.5t-9.5 -31.5v-584q0 -43 -19.5 -62.5t-62.5 -19.5h-41q-43 0 -62.5 19.5t-19.5 62.5z" />
<glyph unicode="&#x41e;" horiz-adv-x="860" d="M123 246v942q0 129 58.5 187.5t187.5 58.5h123q129 0 187 -58.5t58 -187.5v-942q0 -129 -58 -187.5t-187 -58.5h-123q-129 0 -187.5 58.5t-58.5 187.5zM328 266q0 -43 19.5 -62.5t62.5 -19.5h41q43 0 62 19.5t19 62.5v901q0 43 -19 62.5t-62 19.5h-41q-43 0 -62.5 -19.5 t-19.5 -62.5v-901z" />
<glyph unicode="&#x41f;" horiz-adv-x="860" d="M123 82v1270q0 43 19.5 62.5t62.5 19.5h450q43 0 62.5 -19.5t19.5 -62.5v-1270q0 -43 -19.5 -62.5t-62.5 -19.5h-41q-43 0 -62.5 19.5t-19.5 62.5v1126q0 22 -9 31.5t-31 9.5h-123q-22 0 -31.5 -9.5t-9.5 -31.5v-1126q0 -43 -19.5 -62.5t-62.5 -19.5h-41 q-43 0 -62.5 19.5t-19.5 62.5z" />
<glyph unicode="&#x420;" horiz-adv-x="860" d="M123 82v1270q0 43 19.5 62.5t62.5 19.5h287q129 0 187 -58.5t58 -187.5v-400q0 -129 -58 -187t-187 -58h-123q-22 0 -31.5 -9.5t-9.5 -31.5v-420q0 -43 -19.5 -62.5t-62.5 -19.5h-41q-43 0 -62.5 19.5t-19.5 62.5zM328 760q3 -33 41 -33h82q43 0 62 19.5t19 62.5v358 q0 43 -19 62.5t-62 19.5h-82q-22 0 -31.5 -9.5t-9.5 -31.5v-448z" />
<glyph unicode="&#x421;" horiz-adv-x="798" d="M123 246v942q0 129 58.5 187.5t187.5 58.5h123q129 0 187 -58.5t58 -187.5v-215q0 -43 -19.5 -62.5t-62.5 -19.5h-41q-43 0 -62.5 19.5t-19.5 62.5v194q0 43 -19 62.5t-62 19.5h-41q-43 0 -62.5 -19.5t-19.5 -62.5v-901q0 -43 19.5 -62.5t62.5 -19.5h225q43 0 62.5 -19.5 t19.5 -62.5v-20q0 -43 -19.5 -62.5t-62.5 -19.5h-266q-129 0 -187.5 58.5t-58.5 187.5z" />
<glyph unicode="&#x422;" horiz-adv-x="655" d="M20 1290v103q0 22 9.5 31.5t31.5 9.5h533q22 0 31.5 -9.5t9.5 -31.5v-103q0 -22 -9.5 -31.5t-31.5 -9.5h-123q-22 0 -31.5 -9.5t-9.5 -31.5v-1126q0 -43 -19.5 -62.5t-62.5 -19.5h-41q-43 0 -62.5 19.5t-19.5 62.5v1126q0 22 -9.5 31.5t-31.5 9.5h-123q-22 0 -31.5 9.5 t-9.5 31.5z" />
<glyph unicode="&#x423;" d="M82 594v758q0 43 19.5 62.5t62.5 19.5h-5h-4h-3h-3h-1h-2h-1h-1h1h1h1h2h1h1h2h1h2h2h2h2h2h3h3h3h3h3h4h4h5h6h7q43 0 62.5 -19.5t19.5 -62.5v-738q0 -43 19.5 -62.5t62.5 -19.5h82q38 0 41 33v787q0 43 19 62.5t62 19.5h41q43 0 62.5 -19.5t19.5 -62.5v-1045 q0 -36 -4 -65t-9.5 -50t-19.5 -40.5t-24.5 -31.5t-35 -28.5t-41 -26t-52 -29.5t-59.5 -34l-11 -6q-67 -43 -108 31l-19 32q-39 70 33 113l64 37q87 51 82 106q-3 33 -41 33h-123q-129 0 -187.5 58.5t-58.5 187.5z" />
<glyph unicode="&#x424;" horiz-adv-x="1187" d="M82 604v379q0 129 58.5 187.5t187.5 58.5h123q22 0 31.5 9.5t9.5 31.5v184q0 43 19 62.5t62 19.5h41q43 0 62.5 -19.5t19.5 -62.5v-184q0 -22 9.5 -31.5t31.5 -9.5h123q129 0 187.5 -58.5t58.5 -187.5v-379q0 -129 -58.5 -187.5t-187.5 -58.5h-123q-22 0 -31.5 -9.5 t-9.5 -31.5v-235q0 -43 -19.5 -62.5t-62.5 -19.5h-41q-43 0 -62 19.5t-19 62.5v235q0 22 -9.5 31.5t-31.5 9.5h-123q-129 0 -187.5 58.5t-58.5 187.5zM287 625q0 -43 19.5 -62.5t62.5 -19.5h82q38 0 41 32v429q0 22 -9.5 31t-31.5 9h-82q-43 0 -62.5 -19t-19.5 -62v-338z M696 575q3 -32 41 -32h82q43 0 62.5 19.5t19.5 62.5v338q0 43 -19.5 62t-62.5 19h-82q-22 0 -31.5 -9t-9.5 -31v-429z" />
<glyph unicode="&#x425;" horiz-adv-x="921" d="M129 82l213 625q11 38 0 77l-192 568q-13 38 6.5 60t54.5 22h41q42 0 66 -18.5t38 -59.5l43 -127q11 -35 21.5 -74.5t22.5 -92t18 -75.5q6 26 18 76.5t22 90.5t21 75l43 127q14 40 38 59t67 19h41q35 0 54.5 -22t6.5 -60l-192 -568q-11 -38 0 -77l213 -625 q13 -37 -7 -59.5t-55 -22.5h-41q-42 0 -67 19t-37 59l-43 127q-14 44 -27.5 93.5t-30 113t-24.5 94.5q-8 -31 -24.5 -94.5t-30 -113t-27.5 -93.5l-43 -127q-14 -40 -38 -59t-67 -19h-41q-35 0 -54.5 22t-6.5 60z" />
<glyph unicode="&#x426;" horiz-adv-x="860" d="M123 82v1270q0 43 19.5 62.5t62.5 19.5h41q43 0 62.5 -19.5t19.5 -62.5v-1127q0 -22 9.5 -31.5t31.5 -9.5h123q22 0 31 9.5t9 31.5v1127q0 43 19.5 62.5t62.5 19.5h41q43 0 62.5 -19.5t19.5 -62.5v-1127q0 -22 9.5 -31.5t31.5 -9.5q32 0 47 -19.5t15 -62.5v-245 q0 -43 -19.5 -62.5t-62.5 -19.5h-21q-43 0 -62.5 19.5t-19.5 62.5v102q0 22 -9.5 31.5t-31.5 9.5h-409q-43 0 -62.5 19.5t-19.5 62.5z" />
<glyph unicode="&#x427;" horiz-adv-x="778" d="M41 594v758q0 43 19.5 62.5t62.5 19.5h-5h-4h-3h-3h-1h-2h-1h-1h1h1h1h2h1h1h2h1h2h2h2h2h2h3h3h3h3h3h4h4h5h6h7q43 0 62.5 -19.5t19.5 -62.5v-738q0 -43 19.5 -62.5t62.5 -19.5h82q38 0 41 33v787q0 43 19 62.5t62 19.5h41q43 0 62.5 -19.5t19.5 -62.5v-1270 q0 -43 -19.5 -62.5t-62.5 -19.5h-41q-43 0 -62 19.5t-19 62.5v233q-3 33 -41 33h-123q-129 0 -187.5 58.5t-58.5 187.5z" />
<glyph unicode="&#x428;" horiz-adv-x="1187" d="M123 82v1270q0 43 19.5 62.5t62.5 19.5h41q43 0 62.5 -19.5t19.5 -62.5v-1127q0 -22 9.5 -31.5t31.5 -9.5h82q22 0 31.5 9.5t9.5 31.5v1127q0 43 19 62.5t62 19.5h41q43 0 62.5 -19.5t19.5 -62.5v-1127q0 -22 9.5 -31.5t31.5 -9.5h82q22 0 31.5 9.5t9.5 31.5v1127 q0 43 19.5 62.5t62.5 19.5h41q43 0 62.5 -19.5t19.5 -62.5v-1270q0 -43 -19.5 -62.5t-62.5 -19.5h-778q-43 0 -62.5 19.5t-19.5 62.5z" />
<glyph unicode="&#x429;" horiz-adv-x="1187" d="M123 82v1270q0 43 19.5 62.5t62.5 19.5h41q43 0 62.5 -19.5t19.5 -62.5v-1127q0 -22 9.5 -31.5t31.5 -9.5h82q22 0 31.5 9.5t9.5 31.5v1127q0 43 19 62.5t62 19.5h41q43 0 62.5 -19.5t19.5 -62.5v-1127q0 -22 9.5 -31.5t31.5 -9.5h82q22 0 31.5 9.5t9.5 31.5v1127 q0 43 19.5 62.5t62.5 19.5h41q43 0 62.5 -19.5t19.5 -62.5v-1127q0 -22 9.5 -31.5t31.5 -9.5q32 0 46.5 -19.5t14.5 -62.5v-245q0 -43 -19.5 -62.5t-62.5 -19.5h-20q-43 0 -62.5 19.5t-19.5 62.5v102q0 22 -9.5 31.5t-31.5 9.5h-737q-43 0 -62.5 19.5t-19.5 62.5z" />
<glyph unicode="&#x42a;" horiz-adv-x="921" d="M0 1331v21q0 43 19.5 62.5t62.5 19.5h266q43 0 62.5 -19.5t19.5 -62.5v-420q0 -22 9.5 -31.5t31.5 -9.5h123q129 0 187.5 -58.5t58.5 -187.5v-399q0 -129 -58.5 -187.5t-187.5 -58.5h-287q-43 0 -62.5 19.5t-19.5 62.5v1126q0 22 -9.5 31.5t-31.5 9.5h-102 q-43 0 -62.5 19.5t-19.5 62.5zM430 225q0 -22 9.5 -31.5t31.5 -9.5h82q43 0 62.5 19.5t19.5 62.5v359q0 43 -19.5 62.5t-62.5 19.5h-82q-38 0 -41 -33v-449z" />
<glyph unicode="&#x42b;" horiz-adv-x="1208" d="M123 82v1270q0 43 19.5 62.5t62.5 19.5h41q43 0 62.5 -19.5t19.5 -62.5v-420q0 -22 9.5 -31.5t31.5 -9.5h123q129 0 187 -58.5t58 -187.5v-399q0 -129 -58 -187.5t-187 -58.5h-287q-43 0 -62.5 19.5t-19.5 62.5zM328 225q0 -22 9.5 -31.5t31.5 -9.5h82q43 0 62 19.5 t19 62.5v359q0 43 -19 62.5t-62 19.5h-82q-38 0 -41 -33v-449zM881 82v1270q0 43 19.5 62.5t62.5 19.5h41q43 0 62 -19.5t19 -62.5v-1270q0 -43 -19 -62.5t-62 -19.5h-41q-43 0 -62.5 19.5t-19.5 62.5z" />
<glyph unicode="&#x42c;" d="M123 82v1270q0 43 19.5 62.5t62.5 19.5h41q43 0 62.5 -19.5t19.5 -62.5v-420q0 -22 9.5 -31.5t31.5 -9.5h123q129 0 187 -58.5t58 -187.5v-399q0 -129 -58 -187.5t-187 -58.5h-287q-43 0 -62.5 19.5t-19.5 62.5zM328 225q0 -22 9.5 -31.5t31.5 -9.5h82q43 0 62 19.5 t19 62.5v359q0 43 -19 62.5t-62 19.5h-82q-38 0 -41 -33v-449z" />
<glyph unicode="&#x42d;" horiz-adv-x="839" d="M102 973v215q0 129 58.5 187.5t187.5 58.5h123q129 0 187.5 -58.5t58.5 -187.5v-942q0 -129 -58.5 -187.5t-187.5 -58.5h-266q-43 0 -62.5 19.5t-19.5 62.5v20q0 43 19.5 62.5t62.5 19.5h225q43 0 62.5 19.5t19.5 62.5v236q0 22 -9.5 31.5t-31.5 9.5h-102 q-43 0 -62.5 19.5t-19.5 62.5v20q0 43 19.5 62.5t62.5 19.5h102q22 0 31.5 9.5t9.5 31.5v399q0 43 -19.5 62.5t-62.5 19.5h-41q-43 0 -62.5 -19.5t-19.5 -62.5v-194q0 -43 -19.5 -62.5t-62.5 -19.5h-41q-43 0 -62.5 19.5t-19.5 62.5z" />
<glyph unicode="&#x42e;" horiz-adv-x="1228" d="M123 82v1270q0 43 19.5 62.5t62.5 19.5h41q43 0 62.5 -19.5t19.5 -62.5v-420q0 -22 9.5 -31.5t31.5 -9.5h82q22 0 31.5 9.5t9.5 31.5v256q0 129 58 187.5t187 58.5h123q129 0 187.5 -58.5t58.5 -187.5v-942q0 -129 -58.5 -187.5t-187.5 -58.5h-123q-129 0 -187 58.5 t-58 187.5v420q0 22 -9.5 31.5t-31.5 9.5h-82q-22 0 -31.5 -9.5t-9.5 -31.5v-584q0 -43 -19.5 -62.5t-62.5 -19.5h-41q-43 0 -62.5 19.5t-19.5 62.5zM696 266q0 -43 19.5 -62.5t62.5 -19.5h41q43 0 62.5 19.5t19.5 62.5v901q0 43 -19.5 62.5t-62.5 19.5h-41 q-43 0 -62.5 -19.5t-19.5 -62.5v-901z" />
<glyph unicode="&#x42f;" horiz-adv-x="839" d="M76 82l172 471q-75 20 -110.5 77t-35.5 158v400q0 129 58.5 187.5t187.5 58.5h287q43 0 62.5 -19.5t19.5 -62.5v-1270q0 -43 -19.5 -62.5t-62.5 -19.5h-41q-43 0 -62.5 19.5t-19.5 62.5v420q0 39 -25 39q-26 0 -41 -37l-157 -426q-14 -41 -40.5 -59.5t-74.5 -18.5h-37 q-35 0 -54.5 23t-6.5 59zM307 809q0 -43 19.5 -62.5t62.5 -19.5h82q41 0 41 33v448q0 22 -9.5 31.5t-31.5 9.5h-82q-43 0 -62.5 -19.5t-19.5 -62.5v-358z" />
<glyph unicode="&#x430;" horiz-adv-x="808" d="M92 246v225q0 47 11.5 86t25 63t44.5 50t48.5 37t60 34.5t58.5 32.5l80 47q46 28 60 46q22 30 22 87q0 47 -17.5 68.5t-64.5 21.5h-205q-43 0 -62.5 19.5t-19.5 62.5v21q0 43 19.5 62.5t62.5 19.5h246q129 0 187.5 -58.5t58.5 -187.5v-737q0 -129 -58.5 -187.5 t-187.5 -58.5h-123q-129 0 -187.5 58.5t-58.5 187.5zM297 266q0 -43 19.5 -62.5t62.5 -19.5h41q82 0 82 82v383l-121 -69q-4 -2 -19 -11t-18.5 -12t-14.5 -12t-14 -16.5t-9 -20.5t-7.5 -30t-1.5 -38v-174z" />
<glyph unicode="&#x431;" d="M102 246v758q0 68 8.5 115t23 79.5t46 61t64.5 49.5t91 54q9 5 13 7l201 115q67 43 108 -31l19 -33q38 -70 -33 -112l-254 -146q-87 -51 -82 -106q3 -33 41 -33h123q129 0 187.5 -58.5t58.5 -187.5v-532q0 -129 -58.5 -187.5t-187.5 -58.5h-123q-129 0 -187.5 58.5 t-58.5 187.5zM307 266q0 -43 19.5 -62.5t62.5 -19.5h41q43 0 62.5 19.5t19.5 62.5v492q0 43 -19.5 62.5t-62.5 19.5h-82q-41 0 -41 -33v-541z" />
<glyph unicode="&#x432;" d="M102 82v1065q0 43 19.5 62.5t62.5 19.5h287q129 0 187.5 -58.5t58.5 -187.5v-72q0 -107 -34.5 -155.5t-109.5 -48.5v-21q75 0 109.5 -49t34.5 -156v-235q0 -129 -58.5 -187.5t-187.5 -58.5h-287q-43 0 -62.5 19.5t-19.5 62.5zM307 225q0 -22 9.5 -31.5t31.5 -9.5h123 q22 0 31.5 9.5t9.5 31.5v338q0 22 -9.5 31.5t-31.5 9.5h-123q-22 0 -31.5 -9.5t-9.5 -31.5v-338zM307 829q0 -22 9.5 -31.5t31.5 -9.5h123q22 0 31.5 9.5t9.5 31.5v175q0 22 -9.5 31t-31.5 9h-123q-22 0 -31.5 -9t-9.5 -31v-175z" />
<glyph unicode="&#x433;" horiz-adv-x="655" d="M102 82v1065q0 43 19.5 62.5t62.5 19.5h348q43 0 62.5 -19.5t19.5 -62.5v-21q0 -43 -19.5 -62.5t-62.5 -19.5h-184q-22 0 -31.5 -9t-9.5 -31v-922q0 -43 -19.5 -62.5t-62.5 -19.5h-41q-43 0 -62.5 19.5t-19.5 62.5z" />
<glyph unicode="&#x434;" horiz-adv-x="860" d="M20 102q0 27 9 43.5t17.5 21.5t35.5 17q21 10 35 26t21 36.5t9.5 35.5t4.5 37l75 828q5 44 22.5 63t59.5 19h346q43 0 62.5 -19.5t19.5 -62.5v-922q0 -22 9.5 -31.5t31.5 -9.5q32 0 47 -19.5t15 -62.5v-245q0 -43 -19.5 -62.5t-62.5 -19.5h-21q-43 0 -62.5 19.5 t-19.5 62.5v102q0 22 -9.5 31.5t-31.5 9.5h-368q-22 0 -31.5 -9.5t-9.5 -31.5v-102q0 -43 -19.5 -62.5t-62.5 -19.5h-21q-43 0 -62.5 19.5t-19.5 62.5v245zM332 225q-6 -19 6 -30t35 -11h119q22 0 31 9.5t9 31.5v779q0 22 -9 31t-31 9h-41q-21 0 -30 -9t-11 -31l-58 -685 q-4 -35 -20 -94z" />
<glyph unicode="&#x435;" horiz-adv-x="808" d="M102 246v737q0 129 58.5 187.5t187.5 58.5h123q129 0 187.5 -58.5t58.5 -187.5v-379q0 -129 -58.5 -187.5t-187.5 -58.5h-123q-22 0 -31.5 -9.5t-9.5 -31.5v-51q0 -43 19.5 -62.5t62.5 -19.5h225q43 0 62.5 -19.5t19.5 -62.5v-20q0 -43 -19.5 -62.5t-62.5 -19.5h-266 q-129 0 -187.5 58.5t-58.5 187.5zM307 584q0 -22 9.5 -31.5t31.5 -9.5h123q22 0 31.5 9.5t9.5 31.5v379q0 43 -19.5 62t-62.5 19h-41q-43 0 -62.5 -19t-19.5 -62v-379z" />
<glyph unicode="&#x436;" horiz-adv-x="1191" d="M47 82l199 584q11 38 0 77l-137 404q-13 38 6.5 60t54.5 22h41q79 0 104 -78l113 -324q14 -39 39 -39q27 0 27 41v318q0 43 19 62.5t62 19.5h41q43 0 62.5 -19.5t19.5 -62.5v-318q0 -41 27 -41q25 0 39 39l113 324q25 78 104 78h41q35 0 54.5 -22t6.5 -60l-137 -404 q-11 -39 0 -77l199 -584q13 -37 -7 -59.5t-55 -22.5h-41q-42 0 -66 18.5t-38 59.5l-166 487q-14 39 -43 39q-31 0 -31 -41v-481q0 -43 -19.5 -62.5t-62.5 -19.5h-41q-43 0 -62 19.5t-19 62.5v481q0 41 -31 41q-29 0 -43 -39l-166 -487q-14 -41 -38 -59.5t-66 -18.5h-41 q-35 0 -55 22.5t-7 59.5z" />
<glyph unicode="&#x437;" horiz-adv-x="778" d="M61 809v174q0 129 58.5 187.5t187.5 58.5h123q129 0 187.5 -58.5t58.5 -187.5v-256q0 -107 -34.5 -156t-109.5 -49v-20q77 0 110.5 -40.5t33.5 -144.5q0 -39 -4 -68.5t-16.5 -53.5t-22.5 -39t-36 -34t-42.5 -29t-57 -32.5t-65.5 -37.5l-117 -66q-67 -43 -108 31l-19 32 q-39 70 33 113l170 96q80 47 80 107q0 44 -19.5 64t-62.5 20h-41q-43 0 -62.5 19.5t-19.5 62.5v20q0 43 19.5 62.5t62.5 19.5h41q43 0 62.5 19.5t19.5 62.5v277q0 43 -19.5 62t-62.5 19h-41q-43 0 -62.5 -19t-19.5 -62v-154q0 -43 -19.5 -62.5t-62.5 -19.5h-41 q-43 0 -62.5 19.5t-19.5 62.5z" />
<glyph unicode="&#x438;" horiz-adv-x="839" d="M102 82v1065q0 43 19.5 62.5t62.5 19.5h41q43 0 62.5 -19.5t19.5 -62.5v-246q0 -141 -20 -379q0 -22 2 -22t8 20l215 629q14 42 37 61t65 19h41q43 0 62.5 -19.5t19.5 -62.5v-1065q0 -43 -19.5 -62.5t-62.5 -19.5h-41q-43 0 -62.5 19.5t-19.5 62.5v246q0 123 21 379 q0 22 -2 22t-8 -20l-215 -629q-20 -80 -103 -80h-41q-43 0 -62.5 19.5t-19.5 62.5z" />
<glyph unicode="&#x439;" horiz-adv-x="839" d="M102 82v1065q0 43 19.5 62.5t62.5 19.5h41q43 0 62.5 -19.5t19.5 -62.5v-246q0 -141 -20 -379q0 -22 2 -22t8 20l215 629q14 42 37 61t65 19h41q43 0 62.5 -19.5t19.5 -62.5v-1065q0 -43 -19.5 -62.5t-62.5 -19.5h-41q-43 0 -62.5 19.5t-19.5 62.5v246q0 123 21 379 q0 22 -2 22t-8 -20l-215 -629q-20 -80 -103 -80h-41q-43 0 -62.5 19.5t-19.5 62.5zM211 1458v25q0 26 11.5 37.5t37.5 11.5h25q26 0 37.5 -11.5t11.5 -37.5v-13q0 -25 18.5 -36t59.5 -13h16q78 3 78 49v13q0 26 11.5 37.5t37.5 11.5h25q26 0 37.5 -11.5t11.5 -37.5v-25 q0 -77 -47 -112t-150 -35h-24q-103 0 -150 35t-47 112z" />
<glyph unicode="&#x43a;" horiz-adv-x="800" d="M102 82v1065q0 43 19.5 62.5t62.5 19.5h41q43 0 62.5 -19.5t19.5 -62.5v-318q0 -41 27 -41q25 0 39 39l112 324q25 78 105 78h41q35 0 54.5 -22t6.5 -60l-137 -404q-11 -39 0 -77l199 -584q13 -37 -7 -59.5t-55 -22.5h-41q-42 0 -67 19t-37 59l-166 487q-14 39 -43 39 q-31 0 -31 -41v-481q0 -43 -19.5 -62.5t-62.5 -19.5h-41q-43 0 -62.5 19.5t-19.5 62.5z" />
<glyph unicode="&#x43b;" horiz-adv-x="845" d="M14 68q-40 72 33 112q76 45 82 107l82 860q0 43 19.5 62.5t62.5 19.5h348q43 0 62.5 -19.5t19.5 -62.5v-1065q0 -43 -19.5 -62.5t-62.5 -19.5h-41q-43 0 -62.5 19.5t-19.5 62.5v922q0 22 -9.5 31t-31.5 9h-31q-22 0 -31 -9t-9 -31l-72 -725q-4 -37 -13 -69.5t-18 -54.5 t-28 -44.5t-29 -34t-35.5 -29t-33.5 -22.5t-36 -21q-67 -43 -108 31z" />
<glyph unicode="&#x43c;" horiz-adv-x="1097" d="M102 82v1065q0 43 19.5 62.5t62.5 19.5h41q41 0 65 -19.5t38 -60.5l211 -600q4 -14 7 -18t6 0t7 18l211 600q14 41 37.5 60.5t64.5 19.5h41q43 0 62.5 -19.5t19.5 -62.5v-1065q0 -43 -19.5 -62.5t-62.5 -19.5h-41q-43 0 -62 19.5t-19 62.5v205q0 62 1 94.5t2 47t4.5 53 t6.5 91.5l6 93q0 22 -2 22t-8 -20l-150 -404q-16 -43 -38.5 -61.5t-63.5 -18.5q-42 0 -65 18.5t-38 61.5l-149 404q-6 20 -8 20t-2 -22l6 -93q3 -53 6.5 -91.5t4.5 -53t2 -47t1 -94.5v-205q0 -43 -19.5 -62.5t-62.5 -19.5h-41q-43 0 -62.5 19.5t-19.5 62.5z" />
<glyph unicode="&#x43d;" d="M102 82v1065q0 43 19.5 62.5t62.5 19.5h41q43 0 62.5 -19.5t19.5 -62.5v-318q0 -22 9.5 -31.5t31.5 -9.5h123q22 0 31.5 9.5t9.5 31.5v318q0 43 19.5 62.5t62.5 19.5h41q43 0 62.5 -19.5t19.5 -62.5v-1065q0 -43 -19.5 -62.5t-62.5 -19.5h-41q-43 0 -62.5 19.5 t-19.5 62.5v481q0 22 -9.5 31.5t-31.5 9.5h-123q-22 0 -31.5 -9.5t-9.5 -31.5v-481q0 -43 -19.5 -62.5t-62.5 -19.5h-41q-43 0 -62.5 19.5t-19.5 62.5z" />
<glyph unicode="&#x43e;" d="M102 246v737q0 129 58.5 187.5t187.5 58.5h123q129 0 187.5 -58.5t58.5 -187.5v-737q0 -129 -58.5 -187.5t-187.5 -58.5h-123q-129 0 -187.5 58.5t-58.5 187.5zM307 266q0 -43 19.5 -62.5t62.5 -19.5h41q43 0 62.5 19.5t19.5 62.5v697q0 43 -19.5 62t-62.5 19h-41 q-43 0 -62.5 -19t-19.5 -62v-697z" />
<glyph unicode="&#x43f;" d="M102 82v1065q0 43 19.5 62.5t62.5 19.5h451q43 0 62.5 -19.5t19.5 -62.5v-1065q0 -43 -19.5 -62.5t-62.5 -19.5h-41q-43 0 -62.5 19.5t-19.5 62.5v922q0 22 -9.5 31t-31.5 9h-123q-22 0 -31.5 -9t-9.5 -31v-922q0 -43 -19.5 -62.5t-62.5 -19.5h-41q-43 0 -62.5 19.5 t-19.5 62.5z" />
<glyph unicode="&#x440;" d="M102 -225v1372q0 43 19.5 62.5t62.5 19.5h287q129 0 187.5 -58.5t58.5 -187.5v-737q0 -129 -58.5 -187.5t-187.5 -58.5h-123q-22 0 -31.5 -9.5t-9.5 -31.5v-184q0 -43 -19.5 -62.5t-62.5 -19.5h-41q-43 0 -62.5 19.5t-19.5 62.5zM307 217q3 -33 41 -33h82q43 0 62.5 19.5 t19.5 62.5v697q0 43 -19.5 62t-62.5 19h-82q-22 0 -31.5 -9t-9.5 -31v-787z" />
<glyph unicode="&#x441;" horiz-adv-x="788" d="M102 246v737q0 129 58.5 187.5t187.5 58.5h123q129 0 187.5 -58.5t58.5 -187.5v-174q0 -43 -19.5 -62.5t-62.5 -19.5h-41q-43 0 -62.5 19.5t-19.5 62.5v154q0 43 -19.5 62t-62.5 19h-41q-43 0 -62.5 -19t-19.5 -62v-697q0 -43 19.5 -62.5t62.5 -19.5h225q43 0 62.5 -19.5 t19.5 -62.5v-20q0 -43 -19.5 -62.5t-62.5 -19.5h-266q-129 0 -187.5 58.5t-58.5 187.5z" />
<glyph unicode="&#x442;" horiz-adv-x="655" d="M20 1085v103q0 22 9.5 31.5t31.5 9.5h533q22 0 31.5 -9.5t9.5 -31.5v-103q0 -22 -9.5 -31.5t-31.5 -9.5h-123q-22 0 -31.5 -9t-9.5 -31v-922q0 -43 -19.5 -62.5t-62.5 -19.5h-41q-43 0 -62.5 19.5t-19.5 62.5v922q0 22 -9.5 31t-31.5 9h-123q-22 0 -31.5 9.5t-9.5 31.5z " />
<glyph unicode="&#x443;" d="M102 246v901q0 43 19.5 62.5t62.5 19.5h-5h-4h-3h-3h-1h-2h-1h-1h1h1h1h2h1h1h2h1h2h2h2h2h2h3h3h3h3h3h4h4h5h6h7q43 0 62.5 -19.5t19.5 -62.5v-881q0 -43 19.5 -62.5t62.5 -19.5h82q38 0 41 33v930q0 43 19.5 62.5t62.5 19.5h41q43 0 62.5 -19.5t19.5 -62.5v-1188 q0 -36 -4 -65t-9.5 -50t-19.5 -40.5t-25 -31.5t-35 -28.5t-41 -26t-52.5 -29.5t-59.5 -34l-10 -6q-69 -43 -109 30l-18 33q-39 70 33 113l63 37q87 51 82 106q-3 33 -41 33h-123q-129 0 -187.5 58.5t-58.5 187.5z" />
<glyph unicode="&#x444;" horiz-adv-x="1146" d="M102 246v737q0 129 58.5 187.5t187.5 58.5h82q22 0 31.5 9.5t9.5 31.5v184q0 43 19.5 62.5t62.5 19.5h41q43 0 62.5 -19.5t19.5 -62.5v-184q0 -22 9.5 -31.5t31.5 -9.5h82q129 0 187 -58.5t58 -187.5v-737q0 -129 -58 -187.5t-187 -58.5h-82q-22 0 -31.5 -9.5t-9.5 -31.5 v-184q0 -43 -19.5 -62.5t-62.5 -19.5h-41q-43 0 -62.5 19.5t-19.5 62.5v184q0 22 -9.5 31.5t-31.5 9.5h-82q-129 0 -187.5 58.5t-58.5 187.5zM307 266q0 -43 19.5 -62.5t62.5 -19.5h41q35 0 41 33v787q0 22 -9.5 31t-31.5 9h-41q-43 0 -62.5 -19t-19.5 -62v-697zM676 217 q0 -33 41 -33h41q43 0 62.5 19.5t19.5 62.5v697q0 43 -19.5 62t-62.5 19h-41q-22 0 -31.5 -9t-9.5 -31v-787z" />
<glyph unicode="&#x445;" horiz-adv-x="688" d="M27 82l198 522q12 39 0 78l-178 465q-13 37 7 59.5t55 22.5h41q42 0 66 -18.5t38 -59.5l29 -107q11 -32 21 -68t22 -83.5t18 -69.5q5 17 18 68t23 86t21 67l28 107q14 40 38 59t67 19h41q35 0 54.5 -22t6.5 -60l-178 -465q-12 -39 0 -78l199 -522q13 -37 -7 -59.5 t-55 -22.5h-41q-83 0 -104 78l-29 106q-9 26 -82 281q-73 -255 -82 -281l-29 -106q-14 -40 -37.5 -59t-66.5 -19h-41q-35 0 -54.5 22t-6.5 60z" />
<glyph unicode="&#x446;" d="M102 82v1065q0 43 19.5 62.5t62.5 19.5h41q43 0 62.5 -19.5t19.5 -62.5v-922q0 -22 9.5 -31.5t31.5 -9.5h123q22 0 31.5 9.5t9.5 31.5v922q0 43 19.5 62.5t62.5 19.5h41q43 0 62.5 -19.5t19.5 -62.5v-922q0 -22 9.5 -31.5t31.5 -9.5q32 0 46.5 -19.5t14.5 -62.5v-245 q0 -43 -19.5 -62.5t-62.5 -19.5h-20q-43 0 -62.5 19.5t-19.5 62.5v102q0 22 -9.5 31.5t-31.5 9.5h-410q-43 0 -62.5 19.5t-19.5 62.5z" />
<glyph unicode="&#x447;" horiz-adv-x="757" d="M41 594v553q0 43 19.5 62.5t62.5 19.5h-5h-4h-3h-3h-1h-2h-1h-1h1h1h1h2h1h1h2h1h2h2h2h2h2h3h3h3h3h3h4h4h5h6h7q43 0 62.5 -19.5t19.5 -62.5v-533q0 -43 19.5 -62.5t62.5 -19.5h82q38 0 41 33v582q0 43 19 62.5t62 19.5h41q43 0 62.5 -19.5t19.5 -62.5v-1065 q0 -43 -19.5 -62.5t-62.5 -19.5h-41q-43 0 -62 19.5t-19 62.5v233q-3 33 -41 33h-123q-129 0 -187.5 58.5t-58.5 187.5z" />
<glyph unicode="&#x448;" horiz-adv-x="1146" d="M102 82v1065q0 43 19.5 62.5t62.5 19.5h41q43 0 62.5 -19.5t19.5 -62.5v-922q0 -22 9.5 -31.5t31.5 -9.5h82q22 0 31.5 9.5t9.5 31.5v922q0 43 19.5 62.5t62.5 19.5h41q43 0 62.5 -19.5t19.5 -62.5v-922q0 -22 9.5 -31.5t31.5 -9.5h82q22 0 31.5 9.5t9.5 31.5v922 q0 43 19.5 62.5t62.5 19.5h41q43 0 62 -19.5t19 -62.5v-1065q0 -43 -19 -62.5t-62 -19.5h-779q-43 0 -62.5 19.5t-19.5 62.5z" />
<glyph unicode="&#x449;" horiz-adv-x="1146" d="M102 82v1065q0 43 19.5 62.5t62.5 19.5h41q43 0 62.5 -19.5t19.5 -62.5v-922q0 -22 9.5 -31.5t31.5 -9.5h82q22 0 31.5 9.5t9.5 31.5v922q0 43 19.5 62.5t62.5 19.5h41q43 0 62.5 -19.5t19.5 -62.5v-922q0 -22 9.5 -31.5t31.5 -9.5h82q22 0 31.5 9.5t9.5 31.5v922 q0 43 19.5 62.5t62.5 19.5h41q43 0 62 -19.5t19 -62.5v-922q0 -22 9.5 -31.5t31.5 -9.5q32 0 47 -19.5t15 -62.5v-245q0 -43 -19.5 -62.5t-62.5 -19.5h-21q-43 0 -62 19.5t-19 62.5v102q0 22 -9.5 31.5t-31.5 9.5h-738q-43 0 -62.5 19.5t-19.5 62.5z" />
<glyph unicode="&#x44a;" horiz-adv-x="880" d="M0 1126v21q0 43 19.5 62.5t62.5 19.5h246q43 0 62.5 -19.5t19.5 -62.5v-318q0 -22 9.5 -31.5t31.5 -9.5h122q129 0 187.5 -58t58.5 -187v-297q0 -129 -58.5 -187.5t-187.5 -58.5h-286q-43 0 -62.5 19.5t-19.5 62.5v922q0 22 -9.5 31t-31.5 9h-82q-43 0 -62.5 19.5 t-19.5 62.5zM410 225q0 -22 9.5 -31.5t31.5 -9.5h81q43 0 62.5 19.5t19.5 62.5v256q0 43 -19.5 62.5t-62.5 19.5h-81q-38 0 -41 -33v-346z" />
<glyph unicode="&#x44b;" horiz-adv-x="1146" d="M102 82v1065q0 43 19.5 62.5t62.5 19.5h41q43 0 62.5 -19.5t19.5 -62.5v-318q0 -22 9.5 -31.5t31.5 -9.5h123q129 0 187.5 -58t58.5 -187v-297q0 -129 -58.5 -187.5t-187.5 -58.5h-287q-43 0 -62.5 19.5t-19.5 62.5zM307 225q0 -22 9.5 -31.5t31.5 -9.5h82 q43 0 62.5 19.5t19.5 62.5v256q0 43 -19.5 62.5t-62.5 19.5h-82q-38 0 -41 -33v-346zM840 82v1065q0 43 19.5 62.5t62.5 19.5h41q43 0 62 -19.5t19 -62.5v-1065q0 -43 -19 -62.5t-62 -19.5h-41q-43 0 -62.5 19.5t-19.5 62.5z" />
<glyph unicode="&#x44c;" horiz-adv-x="778" d="M102 82v1065q0 43 19.5 62.5t62.5 19.5h41q43 0 62.5 -19.5t19.5 -62.5v-318q0 -22 9.5 -31.5t31.5 -9.5h123q129 0 187.5 -58t58.5 -187v-297q0 -129 -58.5 -187.5t-187.5 -58.5h-287q-43 0 -62.5 19.5t-19.5 62.5zM307 225q0 -22 9.5 -31.5t31.5 -9.5h82 q43 0 62.5 19.5t19.5 62.5v256q0 43 -19.5 62.5t-62.5 19.5h-82q-38 0 -41 -33v-346z" />
<glyph unicode="&#x44d;" horiz-adv-x="798" d="M82 809v174q0 129 58.5 187.5t187.5 58.5h123q129 0 187 -58.5t58 -187.5v-737q0 -129 -58 -187.5t-187 -58.5h-267q-43 0 -62.5 19.5t-19.5 62.5v20q0 43 19.5 62.5t62.5 19.5h226q43 0 62.5 19.5t19.5 62.5v113q0 22 -9.5 31.5t-31.5 9.5h-103q-43 0 -62.5 19.5 t-19.5 62.5v20q0 43 19.5 62.5t62.5 19.5h103q22 0 31.5 9.5t9.5 31.5v318q0 43 -19.5 62t-62.5 19h-41q-43 0 -62.5 -19t-19.5 -62v-154q0 -43 -19.5 -62.5t-62.5 -19.5h-41q-43 0 -62.5 19.5t-19.5 62.5z" />
<glyph unicode="&#x44e;" horiz-adv-x="1167" d="M102 82v1065q0 43 19.5 62.5t62.5 19.5h41q43 0 62.5 -19.5t19.5 -62.5v-318q0 -22 9.5 -31.5t31.5 -9.5h62q22 0 31.5 9.5t9.5 31.5v154q0 129 58 187.5t187 58.5h123q129 0 187.5 -58.5t58.5 -187.5v-737q0 -129 -58.5 -187.5t-187.5 -58.5h-123q-129 0 -187 58.5 t-58 187.5v317q0 22 -9.5 31.5t-31.5 9.5h-62q-22 0 -31.5 -9.5t-9.5 -31.5v-481q0 -43 -19.5 -62.5t-62.5 -19.5h-41q-43 0 -62.5 19.5t-19.5 62.5zM655 266q0 -43 19.5 -62.5t62.5 -19.5h41q43 0 62.5 19.5t19.5 62.5v697q0 43 -19.5 62t-62.5 19h-41q-43 0 -62.5 -19 t-19.5 -62v-697z" />
<glyph unicode="&#x44f;" horiz-adv-x="798" d="M55 82l172 369q-75 20 -110 77t-35 158v297q0 129 58.5 187.5t187.5 58.5h286q43 0 62.5 -19.5t19.5 -62.5v-1065q0 -43 -19.5 -62.5t-62.5 -19.5h-41q-43 0 -62 19.5t-19 62.5v317q0 39 -25 39q-26 0 -41 -37l-158 -323q-21 -42 -44.5 -60t-69.5 -18h-37 q-35 0 -56.5 23.5t-5.5 58.5zM287 707q0 -43 19.5 -62.5t62.5 -19.5h82q41 0 41 32v347q0 22 -9.5 31t-31.5 9h-82q-43 0 -62.5 -19t-19.5 -62v-256z" />
<glyph unicode="&#x450;" horiz-adv-x="808" d="M102 246v737q0 129 58.5 187.5t187.5 58.5h123q129 0 187.5 -58.5t58.5 -187.5v-379q0 -129 -58.5 -187.5t-187.5 -58.5h-123q-22 0 -31.5 -9.5t-9.5 -31.5v-51q0 -43 19.5 -62.5t62.5 -19.5h225q43 0 62.5 -19.5t19.5 -62.5v-20q0 -43 -19.5 -62.5t-62.5 -19.5h-266 q-129 0 -187.5 58.5t-58.5 187.5zM227 1466l6 21q9 34 29.5 47t50.5 0l240 -119q42 -18 31 -49l-4 -10q-8 -20 -18.5 -26.5t-31.5 -2.5l-256 57q-61 14 -47 82zM307 584q0 -22 9.5 -31.5t31.5 -9.5h123q22 0 31.5 9.5t9.5 31.5v379q0 43 -19.5 62t-62.5 19h-41 q-43 0 -62.5 -19t-19.5 -62v-379z" />
<glyph unicode="&#x451;" horiz-adv-x="808" d="M102 246v737q0 129 58.5 187.5t187.5 58.5h123q129 0 187.5 -58.5t58.5 -187.5v-379q0 -129 -58.5 -187.5t-187.5 -58.5h-123q-22 0 -31.5 -9.5t-9.5 -31.5v-51q0 -43 19.5 -62.5t62.5 -19.5h225q43 0 62.5 -19.5t19.5 -62.5v-20q0 -43 -19.5 -62.5t-62.5 -19.5h-266 q-129 0 -187.5 58.5t-58.5 187.5zM199 1397v33q0 65 65 65h33q65 0 65 -65v-33q0 -66 -65 -66h-33q-65 0 -65 66zM307 584q0 -22 9.5 -31.5t31.5 -9.5h123q22 0 31.5 9.5t9.5 31.5v379q0 43 -19.5 62t-62.5 19h-41q-43 0 -62.5 -19t-19.5 -62v-379zM444 1397v33q0 65 66 65 h33q65 0 65 -65v-33q0 -66 -65 -66h-33q-66 0 -66 66z" />
<glyph unicode="&#x452;" horiz-adv-x="942" d="M20 1085v103q0 22 9.5 31.5t31.5 9.5h123q22 0 31.5 9.5t9.5 31.5v184q0 43 19.5 62.5t62.5 19.5h41q43 0 62.5 -19.5t19.5 -62.5v-184q0 -22 9.5 -31.5t31.5 -9.5h123q22 0 31.5 -9.5t9.5 -31.5v-103q0 -22 -9.5 -31.5t-31.5 -9.5h-123q-22 0 -31.5 -9t-9.5 -31v-91 q3 -32 41 -32h123q129 0 187.5 -58.5t58.5 -187.5v-565q0 -41 -3.5 -72.5t-14.5 -55.5t-20.5 -39.5t-31.5 -32t-36 -25.5t-46 -27t-51 -29q-68 -43 -109 31l-18 33q-40 72 33 112l10 6q82 48 82 107v536q0 43 -19.5 62.5t-62.5 19.5h-82q-38 0 -41 -32v-582 q0 -43 -19.5 -62.5t-62.5 -19.5h-41q-43 0 -62.5 19.5t-19.5 62.5v922q0 22 -9.5 31t-31.5 9h-123q-22 0 -31.5 9.5t-9.5 31.5z" />
<glyph unicode="&#x453;" horiz-adv-x="655" d="M102 82v1065q0 43 19.5 62.5t62.5 19.5h348q43 0 62.5 -19.5t19.5 -62.5v-21q0 -43 -19.5 -62.5t-62.5 -19.5h-184q-22 0 -31.5 -9t-9.5 -31v-922q0 -43 -19.5 -62.5t-62.5 -19.5h-41q-43 0 -62.5 19.5t-19.5 62.5zM178 1366q-11 31 31 49l240 119q30 13 50 0t29 -47 l7 -21q7 -35 -4.5 -54.5t-43.5 -27.5l-256 -57q-21 -4 -31 2.5t-18 26.5z" />
<glyph unicode="&#x454;" horiz-adv-x="798" d="M102 246v737q0 129 58.5 187.5t187.5 58.5h123q129 0 187.5 -58.5t58.5 -187.5v-174q0 -43 -19.5 -62.5t-62.5 -19.5h-41q-43 0 -62.5 19.5t-19.5 62.5v154q0 43 -19.5 62t-62.5 19h-41q-43 0 -62.5 -19t-19.5 -62v-318q0 -22 9.5 -31.5t31.5 -9.5h103q43 0 62 -19.5 t19 -62.5v-20q0 -43 -19 -62.5t-62 -19.5h-103q-22 0 -31.5 -9.5t-9.5 -31.5v-113q0 -43 19.5 -62.5t62.5 -19.5h225q43 0 62.5 -19.5t19.5 -62.5v-20q0 -43 -19.5 -62.5t-62.5 -19.5h-266q-129 0 -187.5 58.5t-58.5 187.5z" />
<glyph unicode="&#x455;" horiz-adv-x="860" d="M123 82v20q0 43 19.5 62.5t62.5 19.5h246q47 0 64 21.5t17 68.5q0 14 -1 26.5t-4.5 23t-5 17.5t-8.5 15t-9 11.5t-12 11l-12 9t-14.5 9.5t-14.5 9l-80 49q-18 11 -57.5 33t-59.5 34.5t-49.5 37.5t-44 49.5t-26 63t-11.5 85.5v225q0 129 58.5 187.5t187.5 58.5h112 q129 0 187.5 -58.5t58.5 -187.5v-174q0 -43 -19.5 -62.5t-62.5 -19.5h-41q-43 0 -62.5 19.5t-19.5 62.5v154q0 43 -19.5 62t-62.5 19h-30q-43 0 -62.5 -19t-19.5 -62v-164q0 -21 1.5 -38t7.5 -30t9 -20.5t14 -16.5t14.5 -12t18.5 -12t19 -11l80 -47q22 -13 53.5 -31t47 -27 t39 -24t34 -25t25.5 -26t21.5 -31.5t13 -37t9 -46.5t2.5 -57v-61q0 -129 -58 -187.5t-187 -58.5h-287q-43 0 -62.5 19.5t-19.5 62.5z" />
<glyph unicode="&#x456;" horiz-adv-x="450" d="M123 82v1065q0 43 19.5 62.5t62.5 19.5h41q43 0 62.5 -19.5t19.5 -62.5v-1065q0 -43 -19.5 -62.5t-62.5 -19.5h-41q-43 0 -62.5 19.5t-19.5 62.5zM123 1413v41q0 43 19.5 62.5t62.5 19.5h41q43 0 62.5 -19.5t19.5 -62.5v-41q0 -43 -19.5 -62.5t-62.5 -19.5h-41 q-43 0 -62.5 19.5t-19.5 62.5z" />
<glyph unicode="&#x457;" horiz-adv-x="450" d="M20 1397v33q0 65 66 65h33q65 0 65 -65v-33q0 -66 -65 -66h-33q-66 0 -66 66zM123 82v1065q0 43 19.5 62.5t62.5 19.5h41q43 0 62.5 -19.5t19.5 -62.5v-1065q0 -43 -19.5 -62.5t-62.5 -19.5h-41q-43 0 -62.5 19.5t-19.5 62.5zM266 1397v33q0 65 66 65h33q65 0 65 -65v-33 q0 -66 -65 -66h-33q-66 0 -66 66z" />
<glyph unicode="&#x458;" horiz-adv-x="409" d="M-76 -289q-39 70 33 113l63 37q82 48 82 106v1180q0 43 19.5 62.5t62.5 19.5h41q43 0 62.5 -19.5t19.5 -62.5v-1188q0 -36 -4 -65t-9.5 -50t-19.5 -40.5t-25 -31.5t-35 -28.5t-41 -26t-52.5 -29.5t-59.5 -34l-10 -6q-68 -43 -108 30zM102 1413v41q0 43 19.5 62.5 t62.5 19.5h41q43 0 62.5 -19.5t19.5 -62.5v-41q0 -43 -19.5 -62.5t-62.5 -19.5h-41q-43 0 -62.5 19.5t-19.5 62.5z" />
<glyph unicode="&#x459;" horiz-adv-x="1214" d="M14 68q-40 72 33 112q76 45 82 107l82 860q0 43 19.5 62.5t62.5 19.5h348q43 0 62.5 -19.5t19.5 -62.5v-318q0 -22 9.5 -31.5t31.5 -9.5h123q129 0 187.5 -58t58.5 -187v-297q0 -129 -58.5 -187.5t-187.5 -58.5h-287q-43 0 -62.5 19.5t-19.5 62.5v922q0 22 -9.5 31 t-31.5 9h-31q-22 0 -31 -9t-9 -31l-72 -725q-4 -37 -13 -69.5t-18 -54.5t-28 -44.5t-29 -34t-35.5 -29t-33.5 -22.5t-36 -21q-67 -43 -108 31zM723 225q0 -22 9.5 -31.5t31.5 -9.5h82q43 0 62.5 19.5t19.5 62.5v256q0 43 -19.5 62.5t-62.5 19.5h-82q-38 0 -41 -33v-346z" />
<glyph unicode="&#x45a;" horiz-adv-x="1208" d="M102 82v1065q0 43 19.5 62.5t62.5 19.5h41q43 0 62.5 -19.5t19.5 -62.5v-318q0 -22 9.5 -31.5t31.5 -9.5h123q22 0 31.5 9.5t9.5 31.5v318q0 43 19.5 62.5t62.5 19.5h41q43 0 62.5 -19.5t19.5 -62.5v-318q0 -22 9.5 -31.5t31.5 -9.5h123q129 0 187 -58t58 -187v-297 q0 -129 -58 -187.5t-187 -58.5h-287q-43 0 -62.5 19.5t-19.5 62.5v481q0 22 -9.5 31.5t-31.5 9.5h-123q-22 0 -31.5 -9.5t-9.5 -31.5v-481q0 -43 -19.5 -62.5t-62.5 -19.5h-41q-43 0 -62.5 19.5t-19.5 62.5zM717 225q0 -22 9.5 -31.5t31.5 -9.5h82q43 0 62.5 19.5t19.5 62.5 v256q0 43 -19.5 62.5t-62.5 19.5h-82q-38 0 -41 -33v-346z" />
<glyph unicode="&#x45b;" horiz-adv-x="942" d="M20 1085v103q0 22 9.5 31.5t31.5 9.5h123q22 0 31.5 9.5t9.5 31.5v186q0 43 19.5 62.5t62.5 19.5h41q43 0 62.5 -19.5t19.5 -62.5v-186q0 -22 9.5 -31.5t31.5 -9.5h123q22 0 31.5 -9.5t9.5 -31.5v-103q0 -22 -9.5 -31.5t-31.5 -9.5h-123q-22 0 -31.5 -9t-9.5 -31v-91 q3 -32 41 -32h123q129 0 187.5 -58.5t58.5 -187.5v-553q0 -43 -19.5 -62.5t-62.5 -19.5h-41q-43 0 -62.5 19.5t-19.5 62.5v532q0 43 -19.5 62.5t-62.5 19.5h-82q-38 0 -41 -32v-582q0 -43 -19.5 -62.5t-62.5 -19.5h-41q-43 0 -62.5 19.5t-19.5 62.5v922q0 22 -9.5 31 t-31.5 9h-123q-22 0 -31.5 9.5t-9.5 31.5z" />
<glyph unicode="&#x45c;" horiz-adv-x="800" d="M102 82v1065q0 43 19.5 62.5t62.5 19.5h41q43 0 62.5 -19.5t19.5 -62.5v-318q0 -41 27 -41q25 0 39 39l112 324q25 78 105 78h41q35 0 54.5 -22t6.5 -60l-137 -404q-11 -39 0 -77l199 -584q13 -37 -7 -59.5t-55 -22.5h-41q-42 0 -67 19t-37 59l-166 487q-14 39 -43 39 q-31 0 -31 -41v-481q0 -43 -19.5 -62.5t-62.5 -19.5h-41q-43 0 -62.5 19.5t-19.5 62.5zM221 1366q-11 31 31 49l240 119q30 13 50 0t29 -47l7 -21q7 -35 -4.5 -54.5t-43.5 -27.5l-256 -57q-21 -4 -31 2.5t-18 26.5z" />
<glyph unicode="&#x45d;" horiz-adv-x="839" d="M102 82v1065q0 43 19.5 62.5t62.5 19.5h41q43 0 62.5 -19.5t19.5 -62.5v-246q0 -141 -20 -379q0 -22 2 -22t8 20l215 629q14 42 37 61t65 19h41q43 0 62.5 -19.5t19.5 -62.5v-1065q0 -43 -19.5 -62.5t-62.5 -19.5h-41q-43 0 -62.5 19.5t-19.5 62.5v246q0 123 21 379 q0 22 -2 22t-8 -20l-215 -629q-20 -80 -103 -80h-41q-43 0 -62.5 19.5t-19.5 62.5zM242 1466l6 21q9 34 29.5 47t50.5 0l239 -119q42 -18 31 -49l-4 -10q-8 -20 -18 -26.5t-31 -2.5l-256 57q-61 14 -47 82z" />
<glyph unicode="&#x45e;" d="M102 246v901q0 43 19.5 62.5t62.5 19.5h-5h-4h-3h-3h-1h-2h-1h-1h1h1h1h2h1h1h2h1h2h2h2h2h2h3h3h3h3h3h4h4h5h6h7q43 0 62.5 -19.5t19.5 -62.5v-881q0 -43 19.5 -62.5t62.5 -19.5h82q38 0 41 33v930q0 43 19.5 62.5t62.5 19.5h41q43 0 62.5 -19.5t19.5 -62.5v-1188 q0 -36 -4 -65t-9.5 -50t-19.5 -40.5t-25 -31.5t-35 -28.5t-41 -26t-52.5 -29.5t-59.5 -34l-10 -6q-69 -43 -109 30l-18 33q-39 70 33 113l63 37q87 51 82 106q-3 33 -41 33h-123q-129 0 -187.5 58.5t-58.5 187.5zM201 1458v25q0 26 11.5 37.5t37.5 11.5h24q26 0 38 -11.5 t12 -37.5v-13q0 -25 18 -36.5t59 -12.5h17q78 3 78 49v13q0 26 11.5 37.5t37.5 11.5h24q26 0 37.5 -11.5t11.5 -37.5v-25q0 -77 -46.5 -112t-149.5 -35h-25q-103 0 -149.5 35t-46.5 112z" />
<glyph unicode="&#x45f;" d="M102 82v1065q0 43 19.5 62.5t62.5 19.5h41q43 0 62.5 -19.5t19.5 -62.5v-922q0 -22 9.5 -31.5t31.5 -9.5h123q22 0 31.5 9.5t9.5 31.5v922q0 43 19.5 62.5t62.5 19.5h41q43 0 62.5 -19.5t19.5 -62.5v-1065q0 -43 -19.5 -62.5t-62.5 -19.5h-82q-22 0 -31.5 -9.5 t-9.5 -31.5v-184q0 -43 -19.5 -62.5t-62.5 -19.5h-41q-43 0 -62.5 19.5t-19.5 62.5v184q0 22 -9.5 31.5t-31.5 9.5h-82q-43 0 -62.5 19.5t-19.5 62.5z" />
<glyph unicode="&#x462;" horiz-adv-x="962" d="M20 1290v103q0 22 9.5 31.5t31.5 9.5h533q22 0 31.5 -9.5t9.5 -31.5v-103q0 -22 -9.5 -31.5t-31.5 -9.5h-123q-22 0 -31.5 -9.5t-9.5 -31.5v-90q3 -33 41 -33h123q129 0 187.5 -58t58.5 -187v-594q0 -129 -58.5 -187.5t-187.5 -58.5h-287q-43 0 -62.5 19.5t-19.5 62.5 v1126q0 22 -9.5 31.5t-31.5 9.5h-123q-22 0 -31.5 9.5t-9.5 31.5zM430 217q3 -33 41 -33h82q43 0 62.5 19.5t19.5 62.5v553q0 43 -19.5 62.5t-62.5 19.5h-82q-38 0 -41 -33v-651z" />
<glyph unicode="&#x463;" horiz-adv-x="962" d="M20 1085v103q0 22 9.5 31.5t31.5 9.5h123q22 0 31.5 9.5t9.5 31.5v186q0 43 19.5 62.5t62.5 19.5h41q43 0 62.5 -19.5t19.5 -62.5v-186q0 -22 9.5 -31.5t31.5 -9.5h123q22 0 31.5 -9.5t9.5 -31.5v-103q0 -22 -9.5 -31.5t-31.5 -9.5h-123q-22 0 -31.5 -9t-9.5 -31v-91 q3 -32 41 -32h123q129 0 187.5 -58.5t58.5 -187.5v-389q0 -129 -58.5 -187.5t-187.5 -58.5h-287q-43 0 -62.5 19.5t-19.5 62.5v922q0 22 -9.5 31t-31.5 9h-123q-22 0 -31.5 9.5t-9.5 31.5zM430 217q3 -33 41 -33h82q43 0 62.5 19.5t19.5 62.5v348q0 43 -19.5 62.5 t-62.5 19.5h-82q-38 0 -41 -32v-447z" />
<glyph unicode="&#x474;" horiz-adv-x="802" d="M63 1352q-6 82 82 82h41q41 0 60 -19.5t22 -62.5l82 -1086q3 -82 51 -82q49 0 52 82l82 1086q3 44 21 63t60 19h41q88 0 82 -82l-82 -1106q-8 -131 -63 -188.5t-182 -57.5h-21q-128 0 -183 57t-63 189z" />
<glyph unicode="&#x475;" horiz-adv-x="823" d="M63 1147q-9 82 82 82h41q42 0 59.5 -19t22.5 -63l92 -881q3 -42 14.5 -62t37.5 -20q45 0 51 82l92 881q5 44 22.5 63t59.5 19h41q91 0 82 -82l-92 -901q-14 -133 -67 -189.5t-179 -56.5h-21q-127 0 -179 56t-66 190z" />
<glyph unicode="&#x490;" horiz-adv-x="675" d="M123 82v1270q0 43 19.5 62.5t62.5 19.5h205q41 0 49 41l18 104q12 77 84 80q74 3 74 -82v-246q0 -43 -19.5 -62.5t-62.5 -19.5h-184q-22 0 -31.5 -9.5t-9.5 -31.5v-1126q0 -43 -19.5 -62.5t-62.5 -19.5h-41q-43 0 -62.5 19.5t-19.5 62.5z" />
<glyph unicode="&#x491;" horiz-adv-x="675" d="M123 82v1065q0 43 19.5 62.5t62.5 19.5h205q41 0 49 41l18 104q12 77 84 80q74 3 74 -82v-246q0 -43 -19.5 -62.5t-62.5 -19.5h-184q-22 0 -31.5 -9t-9.5 -31v-922q0 -43 -19.5 -62.5t-62.5 -19.5h-41q-43 0 -62.5 19.5t-19.5 62.5z" />
<glyph unicode="&#x4ae;" horiz-adv-x="798" d="M92 604v748q0 43 19.5 62.5t62.5 19.5h41q43 0 62.5 -19.5t19.5 -62.5v-727q0 -43 19.5 -62.5t62.5 -19.5h41q43 0 62.5 19.5t19.5 62.5v727q0 43 19.5 62.5t62.5 19.5h41q43 0 62.5 -19.5t19.5 -62.5v-748q0 -119 -49 -178t-156 -68v-276q0 -43 -19.5 -62.5t-62.5 -19.5 h-41q-43 0 -62.5 19.5t-19.5 62.5v276q-107 7 -156 67t-49 179z" />
<glyph unicode="&#x4af;" horiz-adv-x="798" d="M92 256v891q0 43 19.5 62.5t62.5 19.5h41q43 0 62.5 -19.5t19.5 -62.5v-871q0 -43 19.5 -62t62.5 -19h41q43 0 62.5 19t19.5 62v871q0 43 19.5 62.5t62.5 19.5h41q43 0 62.5 -19.5t19.5 -62.5v-891q0 -119 -49 -178t-156 -68v-235q0 -43 -19.5 -62.5t-62.5 -19.5h-41 q-43 0 -62.5 19.5t-19.5 62.5v235q-107 7 -156 67t-49 179z" />
<glyph unicode="&#x4c1;" horiz-adv-x="1261" d="M47 82l234 686q12 39 0 78l-172 506q-13 38 6.5 60t54.5 22h41q79 0 104 -78l148 -426q14 -39 39 -39q26 0 26 41v420q0 43 19.5 62.5t62.5 19.5h41q43 0 62.5 -19.5t19.5 -62.5v-420q0 -41 27 -41q25 0 39 39l147 426q25 78 105 78h41q35 0 54.5 -22t6.5 -60l-172 -506 q-12 -39 0 -78l233 -686q13 -38 -6.5 -60t-54.5 -22h-41q-42 0 -67 19t-37 59l-201 590q-14 39 -43 39q-31 0 -31 -41v-584q0 -43 -19.5 -62.5t-62.5 -19.5h-41q-43 0 -62.5 19.5t-19.5 62.5v584q0 41 -30 41q-29 0 -43 -39l-201 -590q-12 -40 -37 -59t-67 -19h-41 q-35 0 -55 22.5t-7 59.5zM422 1663v25q0 26 11.5 37.5t37.5 11.5h25q26 0 37.5 -11.5t11.5 -37.5v-13q0 -25 18.5 -36t59.5 -13h16q78 3 78 49v13q0 26 11.5 37.5t37.5 11.5h25q26 0 37.5 -11.5t11.5 -37.5v-25q0 -77 -47 -112t-150 -35h-25q-103 0 -149.5 35t-46.5 112z " />
<glyph unicode="&#x4c2;" horiz-adv-x="1191" d="M47 82l199 584q11 38 0 77l-137 404q-13 38 6.5 60t54.5 22h41q79 0 104 -78l113 -324q14 -39 39 -39q27 0 27 41v318q0 43 19 62.5t62 19.5h41q43 0 62.5 -19.5t19.5 -62.5v-318q0 -41 27 -41q25 0 39 39l113 324q25 78 104 78h41q35 0 54.5 -22t6.5 -60l-137 -404 q-11 -39 0 -77l199 -584q13 -37 -7 -59.5t-55 -22.5h-41q-42 0 -66 18.5t-38 59.5l-166 487q-14 39 -43 39q-31 0 -31 -41v-481q0 -43 -19.5 -62.5t-62.5 -19.5h-41q-43 0 -62 19.5t-19 62.5v481q0 41 -31 41q-29 0 -43 -39l-166 -487q-14 -41 -38 -59.5t-66 -18.5h-41 q-35 0 -55 22.5t-7 59.5zM387 1458v25q0 26 11.5 37.5t37.5 11.5h25q26 0 37.5 -11.5t11.5 -37.5v-13q0 -25 18.5 -36t59.5 -13h16q78 3 78 49v13q0 26 11.5 37.5t37.5 11.5h25q26 0 37.5 -11.5t11.5 -37.5v-25q0 -77 -47 -112t-150 -35h-24q-103 0 -150 35t-47 112z" />
<glyph unicode="&#x4d0;" horiz-adv-x="802" d="M63 82l82 1106q9 132 63.5 189t182.5 57h21q127 0 181.5 -57t63.5 -189l82 -1106q6 -82 -82 -82h-41q-42 0 -60 19t-21 63l-19 235q-2 22 -11.5 31.5t-31.5 9.5h-143q-22 0 -31.5 -9.5t-11.5 -31.5l-19 -235q-3 -43 -22 -62.5t-60 -19.5h-41q-88 0 -82 82zM193 1663v25 q0 26 11.5 37.5t37.5 11.5h24q26 0 37.5 -11.5t11.5 -37.5v-13q0 -25 18.5 -36t59.5 -13h17q40 2 58.5 13t18.5 36v13q0 26 12 37.5t38 11.5h24q26 0 37.5 -11.5t11.5 -37.5v-25q0 -77 -46.5 -112t-149.5 -35h-25q-103 0 -149.5 35t-46.5 112zM307 584q-2 -22 6.5 -31.5 t30.5 -9.5h115q22 0 30.5 9.5t6.5 31.5l-43 583q-6 82 -52 82q-26 0 -37 -20t-14 -62z" />
<glyph unicode="&#x4d1;" horiz-adv-x="808" d="M92 246v225q0 47 11.5 86t25 63t44.5 50t48.5 37t60 34.5t58.5 32.5l80 47q46 28 60 46q22 30 22 87q0 47 -17.5 68.5t-64.5 21.5h-205q-43 0 -62.5 19.5t-19.5 62.5v21q0 43 19.5 62.5t62.5 19.5h246q129 0 187.5 -58.5t58.5 -187.5v-737q0 -129 -58.5 -187.5 t-187.5 -58.5h-123q-129 0 -187.5 58.5t-58.5 187.5zM195 1458v25q0 26 11.5 37.5t37.5 11.5h24q26 0 37.5 -11.5t11.5 -37.5v-13q0 -25 18.5 -36t59.5 -13h17q40 2 58.5 13t18.5 36v13q0 26 12 37.5t38 11.5h24q26 0 37.5 -11.5t11.5 -37.5v-25q0 -77 -46.5 -112 t-149.5 -35h-25q-103 0 -149.5 35t-46.5 112zM297 266q0 -43 19.5 -62.5t62.5 -19.5h41q82 0 82 82v383l-121 -69q-4 -2 -19 -11t-18.5 -12t-14.5 -12t-14 -16.5t-9 -20.5t-7.5 -30t-1.5 -38v-174z" />
<glyph unicode="&#x4d2;" horiz-adv-x="802" d="M63 82l82 1106q9 132 63.5 189t182.5 57h21q127 0 181.5 -57t63.5 -189l82 -1106q6 -82 -82 -82h-41q-42 0 -60 19t-21 63l-19 235q-2 22 -11.5 31.5t-31.5 9.5h-143q-22 0 -31.5 -9.5t-11.5 -31.5l-19 -235q-3 -43 -22 -62.5t-60 -19.5h-41q-88 0 -82 82zM197 1602v32 q0 66 65 66h33q65 0 65 -66v-32q0 -66 -65 -66h-33q-65 0 -65 66zM307 584q-2 -22 6.5 -31.5t30.5 -9.5h115q22 0 30.5 9.5t6.5 31.5l-43 583q-6 82 -52 82q-26 0 -37 -20t-14 -62zM442 1602v32q0 66 66 66h33q65 0 65 -66v-32q0 -66 -65 -66h-33q-66 0 -66 66z" />
<glyph unicode="&#x4d3;" horiz-adv-x="808" d="M92 246v225q0 47 11.5 86t25 63t44.5 50t48.5 37t60 34.5t58.5 32.5l80 47q46 28 60 46q22 30 22 87q0 47 -17.5 68.5t-64.5 21.5h-205q-43 0 -62.5 19.5t-19.5 62.5v21q0 43 19.5 62.5t62.5 19.5h246q129 0 187.5 -58.5t58.5 -187.5v-737q0 -129 -58.5 -187.5 t-187.5 -58.5h-123q-129 0 -187.5 58.5t-58.5 187.5zM199 1397v33q0 65 65 65h33q65 0 65 -65v-33q0 -66 -65 -66h-33q-65 0 -65 66zM297 266q0 -43 19.5 -62.5t62.5 -19.5h41q82 0 82 82v383l-121 -69q-4 -2 -19 -11t-18.5 -12t-14.5 -12t-14 -16.5t-9 -20.5t-7.5 -30 t-1.5 -38v-174zM444 1397v33q0 65 66 65h33q65 0 65 -65v-33q0 -66 -65 -66h-33q-66 0 -66 66z" />
<glyph unicode="&#x4d4;" horiz-adv-x="1069" d="M63 82l82 1106q8 132 63 189t183 57h555q43 0 62.5 -19.5t19.5 -62.5v-21q0 -43 -19.5 -62.5t-62.5 -19.5h-184q-22 0 -31.5 -9.5t-9.5 -31.5v-276q0 -22 9.5 -31.5t31.5 -9.5h102q43 0 62.5 -19.5t19.5 -62.5v-21q0 -43 -19.5 -62t-62.5 -19h-102q-22 0 -31.5 -9.5 t-9.5 -31.5v-441q0 -22 9.5 -31.5t31.5 -9.5h184q43 0 62.5 -19.5t19.5 -62.5v-20q0 -43 -19.5 -62.5t-62.5 -19.5h-348q-43 0 -62.5 19.5t-19.5 62.5l-2 235q0 22 -9.5 31.5t-31.5 9.5h-143q-22 0 -31.5 -9.5t-11.5 -31.5l-19 -235q-3 -43 -22 -62.5t-60 -19.5h-41 q-88 0 -82 82zM307 584q-6 -41 37 -41h129q22 0 31.5 9.5t9.5 31.5v624q0 22 -9.5 31.5t-31.5 9.5h-72q-48 0 -51 -82z" />
<glyph unicode="&#x4d5;" horiz-adv-x="1208" d="M92 246v225q0 47 11.5 86t25 63t44.5 50t48.5 37t60 34.5t58.5 32.5l80 47q46 28 60 46q22 30 22 87q0 47 -17.5 68.5t-64.5 21.5h-205q-43 0 -62.5 19.5t-19.5 62.5v21q0 43 19.5 62.5t62.5 19.5h184q156 0 211 -90q46 90 178 90h82q129 0 187.5 -58.5t58.5 -187.5v-379 q0 -129 -58.5 -187.5t-187.5 -58.5h-122q-22 0 -31.5 -9.5t-9.5 -31.5v-51q0 -43 19 -62.5t62 -19.5h226q43 0 62.5 -19.5t19.5 -62.5v-20q0 -43 -19.5 -62.5t-62.5 -19.5h-226q-134 0 -178 90q-55 -90 -211 -90h-61q-129 0 -187.5 58.5t-58.5 187.5zM297 266 q0 -43 19.5 -62.5t62.5 -19.5h41q82 0 82 82v383l-121 -69q-4 -2 -19 -11t-18.5 -12t-14.5 -12t-14 -16.5t-9 -20.5t-7.5 -30t-1.5 -38v-174zM707 584q0 -22 9.5 -31.5t31.5 -9.5h122q22 0 31.5 9.5t9.5 31.5v379q0 43 -19.5 62t-62.5 19h-41q-43 0 -62 -19t-19 -62v-379z " />
<glyph unicode="&#x4d6;" horiz-adv-x="675" d="M123 82v1270q0 43 19.5 62.5t62.5 19.5h348q43 0 62.5 -19.5t19.5 -62.5v-21q0 -43 -19.5 -62.5t-62.5 -19.5h-184q-22 0 -31.5 -9.5t-9.5 -31.5v-276q0 -22 9.5 -31.5t31.5 -9.5h102q43 0 62.5 -19.5t19.5 -62.5v-21q0 -43 -19.5 -62t-62.5 -19h-102q-22 0 -31.5 -9.5 t-9.5 -31.5v-441q0 -22 9.5 -31.5t31.5 -9.5h184q43 0 62.5 -19.5t19.5 -62.5v-20q0 -43 -19.5 -62.5t-62.5 -19.5h-348q-43 0 -62.5 19.5t-19.5 62.5zM129 1663v25q0 26 11.5 37.5t37.5 11.5h25q26 0 37.5 -11.5t11.5 -37.5v-13q0 -25 18.5 -36t59.5 -13h16q78 3 78 49v13 q0 26 11.5 37.5t37.5 11.5h25q26 0 37.5 -11.5t11.5 -37.5v-25q0 -77 -47 -112t-150 -35h-24q-103 0 -150 35t-47 112z" />
<glyph unicode="&#x4d7;" horiz-adv-x="808" d="M102 246v737q0 129 58.5 187.5t187.5 58.5h123q129 0 187.5 -58.5t58.5 -187.5v-379q0 -129 -58.5 -187.5t-187.5 -58.5h-123q-22 0 -31.5 -9.5t-9.5 -31.5v-51q0 -43 19.5 -62.5t62.5 -19.5h225q43 0 62.5 -19.5t19.5 -62.5v-20q0 -43 -19.5 -62.5t-62.5 -19.5h-266 q-129 0 -187.5 58.5t-58.5 187.5zM195 1458v25q0 26 11.5 37.5t37.5 11.5h24q26 0 37.5 -11.5t11.5 -37.5v-13q0 -25 18.5 -36t59.5 -13h17q40 2 58.5 13t18.5 36v13q0 26 12 37.5t38 11.5h24q26 0 37.5 -11.5t11.5 -37.5v-25q0 -77 -46.5 -112t-149.5 -35h-25 q-103 0 -149.5 35t-46.5 112zM307 584q0 -22 9.5 -31.5t31.5 -9.5h123q22 0 31.5 9.5t9.5 31.5v379q0 43 -19.5 62t-62.5 19h-41q-43 0 -62.5 -19t-19.5 -62v-379z" />
<glyph unicode="&#x4d8;" horiz-adv-x="788" d="M72 246v481q0 129 58 187.5t187 58.5h123q22 0 31.5 9.5t9.5 31.5v153q0 43 -19.5 62.5t-62.5 19.5h-225q-43 0 -62.5 19.5t-19.5 62.5v21q0 43 19.5 62.5t62.5 19.5h266q129 0 187.5 -58.5t58.5 -187.5v-942q0 -129 -58.5 -187.5t-187.5 -58.5h-123q-129 0 -187 58.5 t-58 187.5zM276 266q0 -43 19.5 -62.5t62.5 -19.5h41q43 0 62.5 19.5t19.5 62.5v482q0 22 -9.5 31t-31.5 9h-123q-22 0 -31.5 -9t-9.5 -31v-482z" />
<glyph unicode="&#x4d9;" horiz-adv-x="788" d="M72 246v379q0 129 58 187t187 58h123q22 0 31.5 9.5t9.5 31.5v52q0 43 -19.5 62t-62.5 19h-225q-43 0 -62.5 19.5t-19.5 62.5v21q0 43 19.5 62.5t62.5 19.5h266q129 0 187.5 -58.5t58.5 -187.5v-737q0 -129 -58.5 -187.5t-187.5 -58.5h-123q-129 0 -187 58.5t-58 187.5z M276 266q0 -43 19.5 -62.5t62.5 -19.5h41q43 0 62.5 19.5t19.5 62.5v379q0 22 -9.5 31.5t-31.5 9.5h-123q-22 0 -31.5 -9.5t-9.5 -31.5v-379z" />
<glyph unicode="&#x4da;" horiz-adv-x="788" d="M72 246v481q0 129 58 187.5t187 58.5h123q22 0 31.5 9.5t9.5 31.5v153q0 43 -19.5 62.5t-62.5 19.5h-225q-43 0 -62.5 19.5t-19.5 62.5v21q0 43 19.5 62.5t62.5 19.5h266q129 0 187.5 -58.5t58.5 -187.5v-942q0 -129 -58.5 -187.5t-187.5 -58.5h-123q-129 0 -187 58.5 t-58 187.5zM188 1602v32q0 66 66 66h33q65 0 65 -66v-32q0 -66 -65 -66h-33q-66 0 -66 66zM276 266q0 -43 19.5 -62.5t62.5 -19.5h41q43 0 62.5 19.5t19.5 62.5v482q0 22 -9.5 31t-31.5 9h-123q-22 0 -31.5 -9t-9.5 -31v-482zM434 1602v32q0 66 66 66h32q66 0 66 -66v-32 q0 -66 -66 -66h-32q-66 0 -66 66z" />
<glyph unicode="&#x4db;" horiz-adv-x="788" d="M72 246v379q0 129 58 187t187 58h123q22 0 31.5 9.5t9.5 31.5v52q0 43 -19.5 62t-62.5 19h-225q-43 0 -62.5 19.5t-19.5 62.5v21q0 43 19.5 62.5t62.5 19.5h266q129 0 187.5 -58.5t58.5 -187.5v-737q0 -129 -58.5 -187.5t-187.5 -58.5h-123q-129 0 -187 58.5t-58 187.5z M188 1397v33q0 65 66 65h33q65 0 65 -65v-33q0 -66 -65 -66h-33q-66 0 -66 66zM276 266q0 -43 19.5 -62.5t62.5 -19.5h41q43 0 62.5 19.5t19.5 62.5v379q0 22 -9.5 31.5t-31.5 9.5h-123q-22 0 -31.5 -9.5t-9.5 -31.5v-379zM434 1397v33q0 65 66 65h32q66 0 66 -65v-33 q0 -66 -66 -66h-32q-66 0 -66 66z" />
<glyph unicode="&#x4dc;" horiz-adv-x="1261" d="M47 82l234 686q12 39 0 78l-172 506q-13 38 6.5 60t54.5 22h41q79 0 104 -78l148 -426q14 -39 39 -39q26 0 26 41v420q0 43 19.5 62.5t62.5 19.5h41q43 0 62.5 -19.5t19.5 -62.5v-420q0 -41 27 -41q25 0 39 39l147 426q25 78 105 78h41q35 0 54.5 -22t6.5 -60l-172 -506 q-12 -39 0 -78l233 -686q13 -38 -6.5 -60t-54.5 -22h-41q-42 0 -67 19t-37 59l-201 590q-14 39 -43 39q-31 0 -31 -41v-584q0 -43 -19.5 -62.5t-62.5 -19.5h-41q-43 0 -62.5 19.5t-19.5 62.5v584q0 41 -30 41q-29 0 -43 -39l-201 -590q-12 -40 -37 -59t-67 -19h-41 q-35 0 -55 22.5t-7 59.5zM426 1602v32q0 66 66 66h32q66 0 66 -66v-32q0 -66 -66 -66h-32q-66 0 -66 66zM672 1602v32q0 66 65 66h33q66 0 66 -66v-32q0 -66 -66 -66h-33q-65 0 -65 66z" />
<glyph unicode="&#x4dd;" horiz-adv-x="1191" d="M47 82l199 584q11 38 0 77l-137 404q-13 38 6.5 60t54.5 22h41q79 0 104 -78l113 -324q14 -39 39 -39q27 0 27 41v318q0 43 19 62.5t62 19.5h41q43 0 62.5 -19.5t19.5 -62.5v-318q0 -41 27 -41q25 0 39 39l113 324q25 78 104 78h41q35 0 54.5 -22t6.5 -60l-137 -404 q-11 -39 0 -77l199 -584q13 -37 -7 -59.5t-55 -22.5h-41q-42 0 -66 18.5t-38 59.5l-166 487q-14 39 -43 39q-31 0 -31 -41v-481q0 -43 -19.5 -62.5t-62.5 -19.5h-41q-43 0 -62 19.5t-19 62.5v481q0 41 -31 41q-29 0 -43 -39l-166 -487q-14 -41 -38 -59.5t-66 -18.5h-41 q-35 0 -55 22.5t-7 59.5zM391 1397v33q0 65 66 65h32q66 0 66 -65v-33q0 -66 -66 -66h-32q-66 0 -66 66zM637 1397v33q0 65 65 65h33q66 0 66 -65v-33q0 -66 -66 -66h-33q-65 0 -65 66z" />
<glyph unicode="&#x4de;" d="M82 973v215q0 129 58.5 187.5t187.5 58.5h123q129 0 187 -58.5t58 -187.5v-338q0 -107 -34 -156t-109 -49v-20q77 0 110 -40t33 -145v-82q0 -33 -2 -58.5t-9 -47.5t-12.5 -37.5t-21 -32t-25 -26t-33.5 -24.5t-38.5 -23t-48 -26.5t-53.5 -29.5l-117 -65q-69 -43 -109 30 l-18 33q-39 70 33 113l170 96q80 47 80 107v94q0 43 -19.5 62.5t-62.5 19.5h-41q-43 0 -62.5 19.5t-19.5 62.5v20q0 43 19.5 62.5t62.5 19.5h41q43 0 62.5 19.5t19.5 62.5v358q0 43 -19.5 62.5t-62.5 19.5h-41q-43 0 -62.5 -19.5t-19.5 -62.5v-194q0 -43 -19.5 -62.5 t-62.5 -19.5h-41q-43 0 -62.5 19.5t-19.5 62.5zM205 1602v32q0 66 65 66h33q66 0 66 -66v-32q0 -66 -66 -66h-33q-65 0 -65 66zM451 1602v32q0 66 65 66h33q65 0 65 -66v-32q0 -66 -65 -66h-33q-65 0 -65 66z" />
<glyph unicode="&#x4df;" horiz-adv-x="778" d="M61 809v174q0 129 58.5 187.5t187.5 58.5h123q129 0 187.5 -58.5t58.5 -187.5v-256q0 -107 -34.5 -156t-109.5 -49v-20q77 0 110.5 -40.5t33.5 -144.5q0 -39 -4 -68.5t-16.5 -53.5t-22.5 -39t-36 -34t-42.5 -29t-57 -32.5t-65.5 -37.5l-117 -66q-67 -43 -108 31l-19 32 q-39 70 33 113l170 96q80 47 80 107q0 44 -19.5 64t-62.5 20h-41q-43 0 -62.5 19.5t-19.5 62.5v20q0 43 19.5 62.5t62.5 19.5h41q43 0 62.5 19.5t19.5 62.5v277q0 43 -19.5 62t-62.5 19h-41q-43 0 -62.5 -19t-19.5 -62v-154q0 -43 -19.5 -62.5t-62.5 -19.5h-41 q-43 0 -62.5 19.5t-19.5 62.5zM184 1397v33q0 65 66 65h33q65 0 65 -65v-33q0 -66 -65 -66h-33q-66 0 -66 66zM430 1397v33q0 65 66 65h32q66 0 66 -65v-33q0 -66 -66 -66h-32q-66 0 -66 66z" />
<glyph unicode="&#x4e2;" horiz-adv-x="921" d="M123 82v1270q0 43 19.5 62.5t62.5 19.5h41q43 0 62.5 -19.5t19.5 -62.5v-205q0 -234 -15 -492l-6 -92q0 -22 2 -22t8 20l256 793q20 80 103 80h41q43 0 62.5 -19.5t19.5 -62.5v-1270q0 -43 -19.5 -62.5t-62.5 -19.5h-41q-43 0 -62.5 19.5t-19.5 62.5v205q0 250 14 491 l6 92q0 22 -2 22t-8 -20l-256 -792q-20 -80 -102 -80h-41q-43 0 -62.5 19.5t-19.5 62.5zM174 1591v13q0 55 66 55h442q66 0 66 -55v-13q0 -55 -66 -55h-442q-66 0 -66 55z" />
<glyph unicode="&#x4e3;" horiz-adv-x="839" d="M102 82v1065q0 43 19.5 62.5t62.5 19.5h41q43 0 62.5 -19.5t19.5 -62.5v-246q0 -141 -20 -379q0 -22 2 -22t8 20l215 629q14 42 37 61t65 19h41q43 0 62.5 -19.5t19.5 -62.5v-1065q0 -43 -19.5 -62.5t-62.5 -19.5h-41q-43 0 -62.5 19.5t-19.5 62.5v246q0 123 21 379 q0 22 -2 22t-8 -20l-215 -629q-20 -80 -103 -80h-41q-43 0 -62.5 19.5t-19.5 62.5zM133 1386v13q0 55 66 55h442q66 0 66 -55v-13q0 -55 -66 -55h-442q-66 0 -66 55z" />
<glyph unicode="&#x4e4;" horiz-adv-x="921" d="M123 82v1270q0 43 19.5 62.5t62.5 19.5h41q43 0 62.5 -19.5t19.5 -62.5v-205q0 -234 -15 -492l-6 -92q0 -22 2 -22t8 20l256 793q20 80 103 80h41q43 0 62.5 -19.5t19.5 -62.5v-1270q0 -43 -19.5 -62.5t-62.5 -19.5h-41q-43 0 -62.5 19.5t-19.5 62.5v205q0 250 14 491 l6 92q0 22 -2 22t-8 -20l-256 -792q-20 -80 -102 -80h-41q-43 0 -62.5 19.5t-19.5 62.5zM256 1602v32q0 66 66 66h32q66 0 66 -66v-32q0 -66 -66 -66h-32q-66 0 -66 66zM502 1602v32q0 66 65 66h33q66 0 66 -66v-32q0 -66 -66 -66h-33q-65 0 -65 66z" />
<glyph unicode="&#x4e5;" horiz-adv-x="839" d="M102 82v1065q0 43 19.5 62.5t62.5 19.5h41q43 0 62.5 -19.5t19.5 -62.5v-246q0 -141 -20 -379q0 -22 2 -22t8 20l215 629q14 42 37 61t65 19h41q43 0 62.5 -19.5t19.5 -62.5v-1065q0 -43 -19.5 -62.5t-62.5 -19.5h-41q-43 0 -62.5 19.5t-19.5 62.5v246q0 123 21 379 q0 22 -2 22t-8 -20l-215 -629q-20 -80 -103 -80h-41q-43 0 -62.5 19.5t-19.5 62.5zM215 1397v33q0 65 66 65h32q66 0 66 -65v-33q0 -66 -66 -66h-32q-66 0 -66 66zM461 1397v33q0 65 65 65h33q66 0 66 -65v-33q0 -66 -66 -66h-33q-65 0 -65 66z" />
<glyph unicode="&#x4e6;" horiz-adv-x="860" d="M123 246v942q0 129 58.5 187.5t187.5 58.5h123q129 0 187 -58.5t58 -187.5v-942q0 -129 -58 -187.5t-187 -58.5h-123q-129 0 -187.5 58.5t-58.5 187.5zM225 1602v32q0 66 66 66h33q65 0 65 -66v-32q0 -66 -65 -66h-33q-66 0 -66 66zM328 266q0 -43 19.5 -62.5t62.5 -19.5 h41q43 0 62 19.5t19 62.5v901q0 43 -19 62.5t-62 19.5h-41q-43 0 -62.5 -19.5t-19.5 -62.5v-901zM471 1602v32q0 66 66 66h32q66 0 66 -66v-32q0 -66 -66 -66h-32q-66 0 -66 66z" />
<glyph unicode="&#x4e7;" d="M102 246v737q0 129 58.5 187.5t187.5 58.5h123q129 0 187.5 -58.5t58.5 -187.5v-737q0 -129 -58.5 -187.5t-187.5 -58.5h-123q-129 0 -187.5 58.5t-58.5 187.5zM205 1397v33q0 65 65 65h33q66 0 66 -65v-33q0 -66 -66 -66h-33q-65 0 -65 66zM307 266q0 -43 19.5 -62.5 t62.5 -19.5h41q43 0 62.5 19.5t19.5 62.5v697q0 43 -19.5 62t-62.5 19h-41q-43 0 -62.5 -19t-19.5 -62v-697zM451 1397v33q0 65 65 65h33q65 0 65 -65v-33q0 -66 -65 -66h-33q-65 0 -65 66z" />
<glyph unicode="&#x4ec;" horiz-adv-x="839" d="M102 973v215q0 129 58.5 187.5t187.5 58.5h123q129 0 187.5 -58.5t58.5 -187.5v-942q0 -129 -58.5 -187.5t-187.5 -58.5h-266q-43 0 -62.5 19.5t-19.5 62.5v20q0 43 19.5 62.5t62.5 19.5h225q43 0 62.5 19.5t19.5 62.5v236q0 22 -9.5 31.5t-31.5 9.5h-102 q-43 0 -62.5 19.5t-19.5 62.5v20q0 43 19.5 62.5t62.5 19.5h102q22 0 31.5 9.5t9.5 31.5v399q0 43 -19.5 62.5t-62.5 19.5h-41q-43 0 -62.5 -19.5t-19.5 -62.5v-194q0 -43 -19.5 -62.5t-62.5 -19.5h-41q-43 0 -62.5 19.5t-19.5 62.5zM215 1602v32q0 66 66 66h32q66 0 66 -66 v-32q0 -66 -66 -66h-32q-66 0 -66 66zM461 1602v32q0 66 65 66h33q66 0 66 -66v-32q0 -66 -66 -66h-33q-65 0 -65 66z" />
<glyph unicode="&#x4ed;" horiz-adv-x="798" d="M82 809v174q0 129 58.5 187.5t187.5 58.5h123q129 0 187 -58.5t58 -187.5v-737q0 -129 -58 -187.5t-187 -58.5h-267q-43 0 -62.5 19.5t-19.5 62.5v20q0 43 19.5 62.5t62.5 19.5h226q43 0 62.5 19.5t19.5 62.5v113q0 22 -9.5 31.5t-31.5 9.5h-103q-43 0 -62.5 19.5 t-19.5 62.5v20q0 43 19.5 62.5t62.5 19.5h103q22 0 31.5 9.5t9.5 31.5v318q0 43 -19.5 62t-62.5 19h-41q-43 0 -62.5 -19t-19.5 -62v-154q0 -43 -19.5 -62.5t-62.5 -19.5h-41q-43 0 -62.5 19.5t-19.5 62.5zM195 1397v33q0 65 65 65h33q65 0 65 -65v-33q0 -66 -65 -66h-33 q-65 0 -65 66zM440 1397v33q0 65 66 65h33q65 0 65 -65v-33q0 -66 -65 -66h-33q-66 0 -66 66z" />
<glyph unicode="&#x4ee;" d="M82 594v758q0 43 19.5 62.5t62.5 19.5h-5h-4h-3h-3h-1h-2h-1h-1h1h1h1h2h1h1h2h1h2h2h2h2h2h3h3h3h3h3h4h4h5h6h7q43 0 62.5 -19.5t19.5 -62.5v-738q0 -43 19.5 -62.5t62.5 -19.5h82q38 0 41 33v787q0 43 19 62.5t62 19.5h41q43 0 62.5 -19.5t19.5 -62.5v-1045 q0 -36 -4 -65t-9.5 -50t-19.5 -40.5t-24.5 -31.5t-35 -28.5t-41 -26t-52 -29.5t-59.5 -34l-11 -6q-67 -43 -108 31l-19 32q-39 70 33 113l64 37q87 51 82 106q-3 33 -41 33h-123q-129 0 -187.5 58.5t-58.5 187.5zM123 1591v13q0 55 65 55h443q34 0 49.5 -13t15.5 -42v-13 q0 -29 -15.5 -42t-49.5 -13h-443q-34 0 -49.5 13t-15.5 42z" />
<glyph unicode="&#x4ef;" d="M102 246v901q0 43 19.5 62.5t62.5 19.5h-5h-4h-3h-3h-1h-2h-1h-1h1h1h1h2h1h1h2h1h2h2h2h2h2h3h3h3h3h3h4h4h5h6h7q43 0 62.5 -19.5t19.5 -62.5v-881q0 -43 19.5 -62.5t62.5 -19.5h82q38 0 41 33v930q0 43 19.5 62.5t62.5 19.5h41q43 0 62.5 -19.5t19.5 -62.5v-1188 q0 -36 -4 -65t-9.5 -50t-19.5 -40.5t-25 -31.5t-35 -28.5t-41 -26t-52.5 -29.5t-59.5 -34l-10 -6q-69 -43 -109 30l-18 33q-39 70 33 113l63 37q87 51 82 106q-3 33 -41 33h-123q-129 0 -187.5 58.5t-58.5 187.5zM123 1386v13q0 55 65 55h443q34 0 49.5 -13t15.5 -42v-13 q0 -29 -15.5 -42t-49.5 -13h-443q-34 0 -49.5 13t-15.5 42z" />
<glyph unicode="&#x4f0;" d="M82 594v758q0 43 19.5 62.5t62.5 19.5h-5h-4h-3h-3h-1h-2h-1h-1h1h1h1h2h1h1h2h1h2h2h2h2h2h3h3h3h3h3h4h4h5h6h7q43 0 62.5 -19.5t19.5 -62.5v-738q0 -43 19.5 -62.5t62.5 -19.5h82q38 0 41 33v787q0 43 19 62.5t62 19.5h41q43 0 62.5 -19.5t19.5 -62.5v-1045 q0 -36 -4 -65t-9.5 -50t-19.5 -40.5t-24.5 -31.5t-35 -28.5t-41 -26t-52 -29.5t-59.5 -34l-11 -6q-67 -43 -108 31l-19 32q-39 70 33 113l64 37q87 51 82 106q-3 33 -41 33h-123q-129 0 -187.5 58.5t-58.5 187.5zM205 1602v32q0 66 65 66h33q66 0 66 -66v-32q0 -66 -66 -66 h-33q-65 0 -65 66zM451 1602v32q0 66 65 66h33q65 0 65 -66v-32q0 -66 -65 -66h-33q-65 0 -65 66z" />
<glyph unicode="&#x4f1;" d="M102 246v901q0 43 19.5 62.5t62.5 19.5h-5h-4h-3h-3h-1h-2h-1h-1h1h1h1h2h1h1h2h1h2h2h2h2h2h3h3h3h3h3h4h4h5h6h7q43 0 62.5 -19.5t19.5 -62.5v-881q0 -43 19.5 -62.5t62.5 -19.5h82q38 0 41 33v930q0 43 19.5 62.5t62.5 19.5h41q43 0 62.5 -19.5t19.5 -62.5v-1188 q0 -36 -4 -65t-9.5 -50t-19.5 -40.5t-25 -31.5t-35 -28.5t-41 -26t-52.5 -29.5t-59.5 -34l-10 -6q-69 -43 -109 30l-18 33q-39 70 33 113l63 37q87 51 82 106q-3 33 -41 33h-123q-129 0 -187.5 58.5t-58.5 187.5zM205 1397v33q0 65 65 65h33q66 0 66 -65v-33q0 -66 -66 -66 h-33q-65 0 -65 66zM451 1397v33q0 65 65 65h33q65 0 65 -65v-33q0 -66 -65 -66h-33q-65 0 -65 66z" />
<glyph unicode="&#x4f4;" horiz-adv-x="778" d="M41 594v758q0 43 19.5 62.5t62.5 19.5h-5h-4h-3h-3h-1h-2h-1h-1h1h1h1h2h1h1h2h1h2h2h2h2h2h3h3h3h3h3h4h4h5h6h7q43 0 62.5 -19.5t19.5 -62.5v-738q0 -43 19.5 -62.5t62.5 -19.5h82q38 0 41 33v787q0 43 19 62.5t62 19.5h41q43 0 62.5 -19.5t19.5 -62.5v-1270 q0 -43 -19.5 -62.5t-62.5 -19.5h-41q-43 0 -62 19.5t-19 62.5v233q-3 33 -41 33h-123q-129 0 -187.5 58.5t-58.5 187.5zM184 1602v32q0 66 66 66h33q65 0 65 -66v-32q0 -66 -65 -66h-33q-66 0 -66 66zM430 1602v32q0 66 66 66h32q66 0 66 -66v-32q0 -66 -66 -66h-32 q-66 0 -66 66z" />
<glyph unicode="&#x4f5;" horiz-adv-x="757" d="M41 594v553q0 43 19.5 62.5t62.5 19.5h-5h-4h-3h-3h-1h-2h-1h-1h1h1h1h2h1h1h2h1h2h2h2h2h2h3h3h3h3h3h4h4h5h6h7q43 0 62.5 -19.5t19.5 -62.5v-533q0 -43 19.5 -62.5t62.5 -19.5h82q38 0 41 33v582q0 43 19 62.5t62 19.5h41q43 0 62.5 -19.5t19.5 -62.5v-1065 q0 -43 -19.5 -62.5t-62.5 -19.5h-41q-43 0 -62 19.5t-19 62.5v233q-3 33 -41 33h-123q-129 0 -187.5 58.5t-58.5 187.5zM174 1397v33q0 65 66 65h32q66 0 66 -65v-33q0 -66 -66 -66h-32q-66 0 -66 66zM420 1397v33q0 65 65 65h33q66 0 66 -65v-33q0 -66 -66 -66h-33 q-65 0 -65 66z" />
<glyph unicode="&#x4f8;" horiz-adv-x="1208" d="M123 82v1270q0 43 19.5 62.5t62.5 19.5h41q43 0 62.5 -19.5t19.5 -62.5v-420q0 -22 9.5 -31.5t31.5 -9.5h123q129 0 187 -58.5t58 -187.5v-399q0 -129 -58 -187.5t-187 -58.5h-287q-43 0 -62.5 19.5t-19.5 62.5zM328 225q0 -22 9.5 -31.5t31.5 -9.5h82q43 0 62 19.5 t19 62.5v359q0 43 -19 62.5t-62 19.5h-82q-38 0 -41 -33v-449zM399 1602v32q0 66 66 66h33q65 0 65 -66v-32q0 -66 -65 -66h-33q-66 0 -66 66zM645 1602v32q0 66 66 66h32q66 0 66 -66v-32q0 -66 -66 -66h-32q-66 0 -66 66zM881 82v1270q0 43 19.5 62.5t62.5 19.5h41 q43 0 62 -19.5t19 -62.5v-1270q0 -43 -19 -62.5t-62 -19.5h-41q-43 0 -62.5 19.5t-19.5 62.5z" />
<glyph unicode="&#x4f9;" horiz-adv-x="1146" d="M102 82v1065q0 43 19.5 62.5t62.5 19.5h41q43 0 62.5 -19.5t19.5 -62.5v-318q0 -22 9.5 -31.5t31.5 -9.5h123q129 0 187.5 -58t58.5 -187v-297q0 -129 -58.5 -187.5t-187.5 -58.5h-287q-43 0 -62.5 19.5t-19.5 62.5zM307 225q0 -22 9.5 -31.5t31.5 -9.5h82 q43 0 62.5 19.5t19.5 62.5v256q0 43 -19.5 62.5t-62.5 19.5h-82q-38 0 -41 -33v-346zM369 1397v33q0 65 65 65h33q65 0 65 -65v-33q0 -66 -65 -66h-33q-65 0 -65 66zM614 1397v33q0 65 66 65h33q65 0 65 -65v-33q0 -66 -65 -66h-33q-66 0 -66 66zM840 82v1065 q0 43 19.5 62.5t62.5 19.5h41q43 0 62 -19.5t19 -62.5v-1065q0 -43 -19 -62.5t-62 -19.5h-41q-43 0 -62.5 19.5t-19.5 62.5z" />
<glyph unicode="&#x2000;" horiz-adv-x="872" />
<glyph unicode="&#x2001;" horiz-adv-x="1745" />
<glyph unicode="&#x2002;" horiz-adv-x="872" />
<glyph unicode="&#x2003;" horiz-adv-x="1745" />
<glyph unicode="&#x2004;" horiz-adv-x="581" />
<glyph unicode="&#x2005;" horiz-adv-x="436" />
<glyph unicode="&#x2006;" horiz-adv-x="290" />
<glyph unicode="&#x2007;" horiz-adv-x="290" />
<glyph unicode="&#x2008;" horiz-adv-x="218" />
<glyph unicode="&#x2009;" horiz-adv-x="349" />
<glyph unicode="&#x200a;" horiz-adv-x="96" />
<glyph unicode="&#x2010;" horiz-adv-x="614" d="M123 748v102q0 22 9.5 31.5t31.5 9.5h287q22 0 31.5 -9.5t9.5 -31.5v-102q0 -22 -9.5 -31.5t-31.5 -9.5h-287q-22 0 -31.5 9.5t-9.5 31.5z" />
<glyph unicode="&#x2011;" horiz-adv-x="614" d="M123 748v102q0 22 9.5 31.5t31.5 9.5h287q22 0 31.5 -9.5t9.5 -31.5v-102q0 -22 -9.5 -31.5t-31.5 -9.5h-287q-22 0 -31.5 9.5t-9.5 31.5z" />
<glyph unicode="&#x2012;" horiz-adv-x="614" d="M123 748v102q0 22 9.5 31.5t31.5 9.5h287q22 0 31.5 -9.5t9.5 -31.5v-102q0 -22 -9.5 -31.5t-31.5 -9.5h-287q-22 0 -31.5 9.5t-9.5 31.5z" />
<glyph unicode="&#x2013;" d="M123 748v102q0 22 9.5 31.5t31.5 9.5h491q22 0 31.5 -9.5t9.5 -31.5v-102q0 -22 -9.5 -31.5t-31.5 -9.5h-491q-22 0 -31.5 9.5t-9.5 31.5z" />
<glyph unicode="&#x2014;" horiz-adv-x="1024" d="M123 748v102q0 22 9.5 31.5t31.5 9.5h696q22 0 31.5 -9.5t9.5 -31.5v-102q0 -22 -9.5 -31.5t-31.5 -9.5h-696q-22 0 -31.5 9.5t-9.5 31.5z" />
<glyph unicode="&#x2018;" horiz-adv-x="528" d="M127 965l92 389q12 46 27 64t55 18h21q90 0 81 -82l-18 -226v-163q-3 -44 -21.5 -63t-60.5 -19h-115q-34 0 -52 21.5t-9 60.5z" />
<glyph unicode="&#x2019;" horiz-adv-x="528" d="M125 965l18 225v164q3 44 21.5 63t60.5 19h115q34 0 52 -21.5t9 -60.5l-92 -389q-12 -46 -27 -64t-55 -18h-20q-91 0 -82 82z" />
<glyph unicode="&#x201a;" horiz-adv-x="528" d="M125 -225l18 225v164q3 44 21.5 63t60.5 19h115q34 0 52 -21.5t9 -60.5l-92 -389q-10 -45 -26 -63.5t-56 -18.5h-20q-88 0 -82 82z" />
<glyph unicode="&#x201c;" horiz-adv-x="856" d="M127 965l92 389q12 46 27 64t55 18h21q90 0 81 -82l-18 -226v-163q-3 -44 -21.5 -63t-60.5 -19h-115q-34 0 -52 21.5t-9 60.5zM455 965l92 389q10 45 26 63.5t56 18.5h20q88 0 82 -82l-18 -226v-163q-3 -44 -21.5 -63t-60.5 -19h-115q-34 0 -52 21.5t-9 60.5z" />
<glyph unicode="&#x201d;" horiz-adv-x="856" d="M125 965l18 225v164q3 44 21.5 63t60.5 19h115q34 0 52 -21.5t9 -60.5l-92 -389q-10 -45 -26 -63.5t-56 -18.5h-20q-88 0 -82 82zM453 965l18 225v164q3 44 21.5 63t60.5 19h115q34 0 52 -21.5t9 -60.5l-92 -389q-12 -46 -27 -64t-55 -18h-20q-91 0 -82 82z" />
<glyph unicode="&#x201e;" horiz-adv-x="856" d="M125 -225l18 225v164q3 44 21.5 63t60.5 19h115q34 0 52 -21.5t9 -60.5l-92 -389q-10 -45 -26 -63.5t-56 -18.5h-20q-88 0 -82 82zM453 -225l18 225v164q3 44 21.5 63t60.5 19h115q34 0 52 -21.5t9 -60.5l-92 -389q-12 -46 -27 -64t-55 -18h-20q-91 0 -82 82z" />
<glyph unicode="&#x2026;" horiz-adv-x="1372" d="M123 82v82q0 43 19.5 62.5t62.5 19.5h102q43 0 62.5 -19.5t19.5 -62.5v-82q0 -43 -19.5 -62.5t-62.5 -19.5h-102q-43 0 -62.5 19.5t-19.5 62.5zM553 82v82q0 43 19.5 62.5t62.5 19.5h102q43 0 62.5 -19.5t19.5 -62.5v-82q0 -43 -19.5 -62.5t-62.5 -19.5h-102 q-43 0 -62.5 19.5t-19.5 62.5zM983 82v82q0 43 19.5 62.5t62.5 19.5h102q43 0 62.5 -19.5t19.5 -62.5v-82q0 -43 -19.5 -62.5t-62.5 -19.5h-102q-43 0 -62.5 19.5t-19.5 62.5z" />
<glyph unicode="&#x202f;" horiz-adv-x="349" />
<glyph unicode="&#x2039;" horiz-adv-x="399" d="M47 410q-11 38 0 77l98 250q14 39 38.5 58.5t66.5 19.5h41q35 0 54.5 -22t6.5 -60l-98 -250q-12 -41 0 -69l98 -250q13 -38 -6.5 -60t-54.5 -22h-41q-42 0 -66.5 19.5t-38.5 58.5z" />
<glyph unicode="&#x203a;" horiz-adv-x="399" d="M47 164l98 250q12 28 0 69l-98 250q-13 37 7 59.5t55 22.5h41q42 0 66 -19.5t38 -58.5l98 -250q11 -39 0 -77l-98 -250q-14 -39 -38 -58.5t-66 -19.5h-41q-35 0 -55 22.5t-7 59.5z" />
<glyph unicode="&#x205f;" horiz-adv-x="436" />
<glyph unicode="&#x20ac;" horiz-adv-x="907" d="M63 481l11 62q3 22 13 31.5t32 9.5h51q20 0 20 20v103q0 20 -20 20h-70q-43 0 -37 41l11 61q3 22 13 31.5t32 9.5h51q20 0 20 21v297q0 129 58.5 187.5t187.5 58.5h123q129 0 187.5 -58.5t58.5 -187.5v-215q0 -43 -19.5 -62.5t-62.5 -19.5h-41q-43 0 -62.5 19.5 t-19.5 62.5v194q0 43 -19.5 62.5t-62.5 19.5h-41q-43 0 -62.5 -19.5t-19.5 -62.5v-276q0 -21 21 -21h131q43 0 37 -41l-11 -61q-3 -22 -13 -31.5t-32 -9.5h-112q-21 0 -21 -20v-103q0 -20 21 -20h131q43 0 37 -41l-11 -62q-3 -22 -13 -31.5t-32 -9.5h-112q-21 0 -21 -20 v-154q0 -43 19.5 -62.5t62.5 -19.5h225q43 0 62.5 -19.5t19.5 -62.5v-20q0 -43 -19.5 -62.5t-62.5 -19.5h-266q-129 0 -187.5 58.5t-58.5 187.5v174q0 20 -20 20h-70q-43 0 -37 41z" />
<glyph unicode="&#x2122;" horiz-adv-x="1034" d="M41 1362v51q0 21 20 21h267q20 0 20 -21v-51q0 -21 -20 -21h-62q-20 0 -20 -20v-563q0 -22 -9.5 -31.5t-31.5 -9.5h-21q-22 0 -31.5 9.5t-9.5 31.5v563q0 20 -20 20h-62q-20 0 -20 21zM420 758v635q0 22 9.5 31.5t31.5 9.5h20q43 0 51 -41l140 -402q2 -7 3.5 -9t3 0 t3.5 9l137 402q15 41 51 41h21q22 0 31.5 -9.5t9.5 -31.5v-635q0 -22 -9.5 -31.5t-31.5 -9.5h-21q-22 0 -31.5 9.5t-9.5 31.5v102q0 117 9 246l2 45q0 11 -0.5 11t-3.5 -9l-109 -336q-12 -39 -51 -39q-37 0 -51 39l-107 336q-6 18 -6 -2l4 -45q6 -129 6 -246v-102 q0 -22 -9.5 -31.5t-31.5 -9.5h-20q-22 0 -31.5 9.5t-9.5 31.5z" />
<glyph unicode="&#xe000;" horiz-adv-x="1228" d="M0 0v1229h1229v-1229h-1229z" />
</font>
</defs>
</svg>
