<?xml version="1.0" encoding="utf-8"?><svg version="1" xmlns="http://www.w3.org/2000/svg" width="494" height="126" viewBox="0 0 493.576 126.473" enable-background="new 0 0 493.576 126.473"><g fill="#DC3333"><path d="M22.48 119.322l5.005-41.65H52.97l-4.2 34.97 22.888-5.817 11.63-95.284H61.3l-5.83 47.975H29.983L35.48 11.54H13.826L0 124.81h.875zM106.406 97.996c-.16-5.967.845-15.262 2.534-29.652 3.997-35.648 4.997-40.313 16.324-40.313 11.824 0 11.992 4.664 7.827 40.314-1.207 10.286-2.16 17.96-3.193 23.683l22.502-5.72c.864-5.305 1.68-11.248 2.513-17.963 5.83-48.638-.166-58.47-26.816-58.47-30.15 0-35.147 9.832-40.98 58.47-1.882 15.17-2.565 26.542-1.802 35.012l21.09-5.36zM91.51 120.243c4.606 4.718 11.804 6.23 22.095 6.23 19.803 0 28.8-4.197 34.333-20.57l-56.428 14.34zM177.567 79.91l22.327-5.67 5.326-44.875h20.488l2.334-17.824h-62.134l-2.498 17.825h20.155zM175.307 98.948l-3.07 25.863h21.657l3.742-31.537zM251.758 61.057l3.77-32.522s5.66-.5 9.827-.5c10.018 0 11.426 4.075 8.982 27.286l22.336-5.675c1.916-30.13-4.637-39.77-30.82-39.77-15.822 0-30.148 1.666-30.148 1.666l-6.667 55.292 22.72-5.775zM272.116 74.347c-3.593 29.127-5.135 33.973-15.924 33.973-4.332 0-7.496-.332-9.828-.664l3.194-27.572-22.82 5.8-4.694 38.93s14.66 1.665 29.485 1.665c32.59 0 37.626-11.293 43.277-57.897l-22.69 5.764zM330.167 41.134c2.294-11.126 5.295-13.104 12.644-13.104 6.103 0 9.096 1.257 9.997 7.35l21.005-5.338c-2.35-16.04-10.938-20.167-28.166-20.167-25.04 0-32.73 6.806-37.96 36.972l22.48-5.713zM352.226 53.99c-.406 4.116-.944 8.866-1.585 14.353-4.164 35.478-5.33 39.976-16.993 39.976-11.324 0-11.324-4.5-7.16-39.977.323-2.886.628-5.552.917-8.047l-22.45 5.707-.29 2.34c-5.994 48.307.167 58.132 26.488 58.132 30.316 0 35.313-9.825 41.31-58.132.906-7.555 1.524-14.17 1.824-19.96l-22.06 5.606zM399.62 41.947l-9.836 82.864h21.655l10.51-88.538zM445.552 11.81l.04-.27h-62.134l-2.334 16.642z"/><circle cx="482" cy="12" r="12"/></g></svg>