<?xml version="1.0" encoding="utf-8"?><svg version="1" xmlns="http://www.w3.org/2000/svg" width="494" height="126" viewBox="0 0 493.576 126.473" enable-background="new 0 0 493.576 126.473"><g fill="#231F20"><path d="M13.825 11.54H35.48l-5.497 47.973H55.47l5.827-47.973h21.988L69.46 124.81H47.308l5.663-47.14H27.484l-5.663 47.14H0L13.825 11.54zM87.118 68.34c5.83-48.643 10.827-58.468 40.98-58.468 26.648 0 32.645 9.825 26.815 58.467-5.997 48.306-10.994 58.133-41.31 58.133-26.32 0-32.48-9.827-26.485-58.134zm45.973 0c4.165-35.647 4-40.314-7.826-40.314-11.327 0-12.326 4.665-16.324 40.313-4.165 35.478-4.165 39.978 7.163 39.978 11.658 0 12.824-4.5 16.988-39.98zM183.567 29.363H163.41l2.5-17.82h62.132l-2.332 17.82h-20.487l-11.327 95.446H172.24l11.327-95.447zM235.704 11.54s14.324-1.665 30.148-1.665c30.98 0 34.48 13.492 28.98 58.467-5.662 46.807-10.66 58.134-43.307 58.134-14.825 0-29.483-1.666-29.483-1.666l13.662-113.27zm20.487 96.78c11.495 0 12.494-5.497 16.658-39.98 4.164-34.813 4.164-40.312-7.496-40.312-4.164 0-9.827.5-9.827.5l-9.16 79.123c2.33.336 5.496.67 9.826.67zM304.628 68.342c5.834-48.64 10.836-58.467 41.008-58.467 26.67 0 32.672 9.827 26.838 58.467-6.002 48.307-11.002 58.134-41.34 58.134-26.342 0-32.506-9.828-26.506-58.134zm46.007 0c4.168-35.646 4-40.313-7.834-40.313-11.335 0-12.335 4.663-16.337 40.312-4.168 35.48-4.168 39.978 7.168 39.978 11.672 0 12.838-4.498 17.005-39.978zM401.075 29.363H380.91l2.5-17.82h62.16l-2.333 17.82H422.74l-11.333 95.447h-21.664l11.332-95.447z"/></g></svg>