<?xml version="1.0" encoding="utf-8"?><svg version="1" xmlns="http://www.w3.org/2000/svg" width="595" height="209" viewBox="0 0 595.28 208.773" enable-background="new 0 0 595.28 208.773"><path fill="#6E5D84" d="M156.087 95.454c3.772 0 6.83 3.06 6.83 6.83 0 3.772-3.058 6.83-6.83 6.83-3.772 0-6.83-3.058-6.83-6.83 0-3.77 3.057-6.83 6.83-6.83m0-4.222c-6.095 0-11.053 4.958-11.053 11.053 0 6.094 4.958 11.053 11.053 11.053 6.094 0 11.053-4.96 11.053-11.053 0-6.095-4.96-11.053-11.053-11.053zM144.894 113.917c.684 0 1.242.56 1.242 1.242v1.955c0 .683-.56 1.24-1.242 1.24h-10.896c-1.904 0-3.974-1.11-3.974-4.22V97.648c0-.684.56-1.242 1.242-1.242h1.956c.683 0 1.242.56 1.242 1.242V112.676c0 .683.56 1.242 1.242 1.242h9.189zM162.277 88.19c-.407 0-.805-.2-1.043-.567l-1.62-2.496h-6.952l-1.74 2.525c-.39.564-1.164.707-1.728.318-.564-.39-.707-1.163-.318-1.73l2.11-3.062c.233-.336.615-.537 1.023-.537h8.278c.42 0 .813.214 1.042.566l1.987 3.063c.374.575.21 1.344-.366 1.717-.208.138-.442.202-.673.202z"/><path fill="#fff" d="M191.248 98.227h-6.043v13.86h2.772v-5.73h3.28c3.227 0 4.84-1.38 4.84-4.14.002-2.658-1.615-3.99-4.85-3.99zm.61 5.544h-3.88v-2.948h3.908c1.096.04 1.66.514 1.69 1.424-.03.998-.603 1.505-1.72 1.525zm28.043 0h-6.457v-5.544h-2.772v13.86h2.773v-5.73h6.458v5.73l2.773-.01V98.218H219.9v5.55zm24.818-5.543c-1.97 0-3.62.662-4.943 1.987-1.325 1.323-1.986 2.972-1.986 4.944 0 1.964.66 3.61 1.985 4.938 1.324 1.326 2.972 1.99 4.943 1.99 1.97 0 3.618-.662 4.943-1.986s1.988-2.972 1.988-4.94c0-1.974-.662-3.622-1.987-4.945-1.324-1.326-2.97-1.988-4.942-1.988zm3.003 10.025c-.77.832-1.767 1.246-2.993 1.246-1.238 0-2.242-.414-3.012-1.246s-1.155-1.863-1.155-3.094c0-1.234.385-2.266 1.155-3.097s1.768-1.246 2.994-1.246c1.237 0 2.24.416 3.01 1.247.77.832 1.156 1.863 1.156 3.098 0 1.23-.385 2.262-1.155 3.094zm17.53-7.438h4.62v11.27h2.772v-11.27h4.62v-2.588H265.25v2.588zm32.54-2.587c-1.97 0-3.618.662-4.943 1.987-1.324 1.323-1.985 2.972-1.985 4.944 0 1.964.66 3.61 1.985 4.938 1.325 1.326 2.973 1.99 4.944 1.99 1.972 0 3.618-.662 4.944-1.986 1.324-1.324 1.984-2.972 1.984-4.94 0-1.974-.66-3.622-1.984-4.945-1.326-1.326-2.972-1.988-4.943-1.988zm3.003 10.025c-.77.832-1.768 1.246-2.994 1.246-1.238 0-2.242-.414-3.013-1.246-.77-.832-1.156-1.863-1.156-3.094 0-1.234.388-2.266 1.157-3.097.77-.83 1.767-1.246 2.994-1.246 1.24 0 2.243.416 3.013 1.247s1.156 1.863 1.156 3.098c0 1.23-.387 2.262-1.157 3.094zm25.1-7.262c1.22 0 2.303.37 3.242 1.11l1.85-2.026c-1.418-1.23-3.115-1.848-5.092-1.848-1.96 0-3.6.664-4.926 1.99-1.322 1.33-1.988 2.965-1.994 4.91 0 1.992.664 3.647 1.992 4.97 1.326 1.32 2.97 1.983 4.928 1.99 1.984 0 3.68-.616 5.092-1.85v-6.466h-4.62v2.587l1.85-.01v2.375c-.538.394-1.304.59-2.302.59-1.246 0-2.248-.377-3.012-1.136-.765-.758-1.15-1.78-1.155-3.066 0-1.2.38-2.187 1.14-2.957.76-.77 1.763-1.157 3.008-1.163zm31.69 1.23c0-2.66-1.618-3.993-4.85-3.993h-6.044v13.86h2.77v-5.73h2.53l3.317 5.73h3.18l-3.457-6.044c1.702-.548 2.552-1.822 2.552-3.824zm-4.24 1.55h-3.882v-2.948h3.91c1.095.04 1.66.514 1.69 1.424-.03.998-.605 1.505-1.718 1.525zm24.67-5.543l-5.546 13.86h2.957l.832-2.126h6.283l.83 2.126 2.948-.01-5.537-13.85h-2.768zm-.648 8.962l2.105-5.268 2.05 5.267h-4.155zm29.584-8.963h-6.042v13.86h2.768v-5.73h3.283c3.226 0 4.84-1.38 4.84-4.14 0-2.658-1.618-3.99-4.85-3.99zm.61 5.544h-3.884v-2.948h3.91c1.098.04 1.66.514 1.69 1.424-.03.998-.602 1.505-1.717 1.525zm28.042 0h-6.46v-5.544h-2.77v13.86h2.77v-5.73h6.46v5.73l2.77-.01V98.218h-2.77v5.55zm27.168-5.543l-3.29 4.527-3.214-4.527h-3.254l5.082 6.932v6.927h2.773v-6.928l5.082-6.933h-3.18z"/></svg>