<?xml version="1.0" standalone="no"?>
<!DOCTYPE svg PUBLIC "-//W3C//DTD SVG 1.1//EN" "http://www.w3.org/Graphics/SVG/1.1/DTD/svg11.dtd" >
<svg>
<metadata>
Created by FontForge 20110222 at Fri Dec  5 22:51:15 2014
 By deploy user
Copyright (c) 2003 - 2012 Linotype GmbH, www.linotype.com. All rights reserved. This font software may not be reproduced, modified, disclosed or transferred without the express written approval of Linotype GmbH. Avenir is a trademark of Linotype GmbH registered in the U.S. Patent and Trademark Office and may be registered in certain other jurisdictions. This typeface is original artwork of Adrian Frutiger and Akira Kobayashi. The design may be protected in certain jurisdictions.
</metadata>
<defs>
<font id="AvenirNextCyr-Medium" horiz-adv-x="250" >
  <font-face 
    font-family="Avenir Next Cyr Medium"
    font-weight="450"
    font-stretch="normal"
    units-per-em="1000"
    panose-1="2 11 6 3 2 2 2 2 2 4"
    ascent="756"
    descent="-244"
    x-height="474"
    cap-height="708"
    bbox="-210 -250 1054 951"
    underline-thickness="50"
    underline-position="125"
    unicode-range="U+000D-FB04"
  />
<missing-glyph horiz-adv-x="512" 
d="M278 117h-56v67h56v-67zM271 234h-46l-2 17q0 56 13 81q15 28 46 59q31 29 40.5 46t9.5 37q0 36 -22.5 60.5t-53.5 24.5q-71 0 -82 -95l-50 8q7 69 43 103t92 34q54 0 89 -36t35 -95q0 -34 -13 -60t-50 -60q-37 -33 -43 -52q-6 -20 -6 -72zM50 50h412v617h-412v-617z
M0 718h512v-718h-512v718z" />
    <glyph glyph-name="napostrophe" unicode="&#x22;n" horiz-adv-x="602" 
d="M97 474h89q4 -48 4 -78h3q18 39 61 65t93 26q87 0 132 -54t45 -139v-294h-94v263q0 145 -108 145q-56 0 -91.5 -43t-35.5 -113v-252h-94v372q0 61 -4 102zM145 708l-78 -190h-79l64 190h93z" />
    <glyph glyph-name="f_f" unicode="ff" horiz-adv-x="599" 
d="M593 474v-77h-110v-397h-94v397h-195v-397h-94v397h-94v77h94v99q0 89 43 142t134 53q34 0 59 -7l-11 -81q-25 7 -47 7q-84 0 -84 -114v-99h195v99q0 89 43 142t134 53q34 0 59 -7l-11 -81q-24 7 -47 7q-84 0 -84 -114v-99h110z" />
    <glyph glyph-name="fi" unicode="fi" horiz-adv-x="574" 
d="M304 474v-77h-110v-397h-94v397h-94v77h94v99q0 89 43 142t134 53q34 0 59 -7l-11 -81q-25 7 -47 7q-84 0 -84 -114v-99h110zM491 474v-474h-94v474h94zM507 645q0 -25 -18.5 -42.5t-44.5 -17.5t-44 17.5t-18 42.5t18 43t44 18t44.5 -17.5t18.5 -43.5z" />
    <glyph glyph-name="fl" unicode="fl" horiz-adv-x="574" 
d="M491 756v-756h-94v756h94zM304 474v-77h-110v-397h-94v397h-94v77h94v99q0 89 43 142t134 53q34 0 59 -7l-11 -81q-25 7 -47 7q-84 0 -84 -114v-99h110z" />
    <glyph glyph-name="f_f_i" unicode="ffi" horiz-adv-x="863" 
d="M593 474v-77h-110v-397h-94v397h-195v-397h-94v397h-94v77h94v99q0 89 43 142t134 53q34 0 59 -7l-11 -81q-25 7 -47 7q-84 0 -84 -114v-99h195v99q0 89 43 142t134 53q34 0 59 -7l-11 -81q-24 7 -47 7q-84 0 -84 -114v-99h110zM780 474v-474h-94v474h94zM796 645
q0 -25 -18.5 -42.5t-44.5 -17.5t-44 17.5t-18 42.5t18 43t44 18t44.5 -17.5t18.5 -43.5z" />
    <glyph glyph-name="f_f_l" unicode="ffl" horiz-adv-x="863" 
d="M780 756v-756h-94v756h94zM593 474v-77h-110v-397h-94v397h-195v-397h-94v397h-94v77h94v99q0 89 43 142t134 53q34 0 59 -7l-11 -81q-25 7 -47 7q-84 0 -84 -114v-99h195v99q0 89 43 142t134 53q34 0 59 -7l-11 -81q-24 7 -47 7q-84 0 -84 -114v-99h110z" />
    <glyph glyph-name=".notdef" horiz-adv-x="512" 
d="M278 117h-56v67h56v-67zM271 234h-46l-2 17q0 56 13 81q15 28 46 59q31 29 40.5 46t9.5 37q0 36 -22.5 60.5t-53.5 24.5q-71 0 -82 -95l-50 8q7 69 43 103t92 34q54 0 89 -36t35 -95q0 -34 -13 -60t-50 -60q-37 -33 -43 -52q-6 -20 -6 -72zM50 50h412v617h-412v-617z
M0 718h512v-718h-512v718z" />
    <glyph glyph-name=".null" horiz-adv-x="500" 
 />
    <glyph glyph-name=".null" horiz-adv-x="500" 
 />
    <glyph glyph-name="nonmarkingreturn" horiz-adv-x="333" 
 />
    <glyph glyph-name="CR" unicode="&#xd;" horiz-adv-x="0" 
 />
    <glyph glyph-name="space" unicode=" " 
 />
    <glyph glyph-name="exclam" unicode="!" horiz-adv-x="334" 
d="M216 708v-501h-99v501h99zM234 60q0 -27 -19.5 -46.5t-47.5 -19.5t-47.5 19.5t-19.5 45.5q0 27 19.5 46.5t47.5 19.5t47.5 -19t19.5 -46z" />
    <glyph glyph-name="quotedbl" unicode="&#x22;" horiz-adv-x="423" 
d="M90 458v250h82v-250h-82zM251 458v250h82v-250h-82z" />
    <glyph glyph-name="numbersign" unicode="#" horiz-adv-x="574" 
d="M107 0l30 211h-96v73h106l19 141h-98v73h109l29 210h75l-30 -210h118l29 210h75l-30 -210h90v-73h-100l-20 -141h93v-73h-102l-30 -211h-75l30 211h-118l-30 -211h-74zM241 425l-20 -141h118l19 141h-117z" />
    <glyph glyph-name="dollar" unicode="$" horiz-adv-x="595" 
d="M264 69v254q-44 13 -76 27.5t-62.5 37.5t-46.5 57.5t-16 79.5q0 84 58.5 136.5t142.5 57.5v70h51v-69q54 -1 107.5 -20.5t89.5 -55.5l-68 -63q-46 58 -129 60v-238q46 -15 77 -30t64 -39t50 -60.5t17 -83.5q0 -91 -60 -145t-148 -56v-72h-51v72q-137 3 -223 99l73 62
q26 -36 69 -58t81 -23zM315 309v-240q47 2 79.5 33t32.5 87q0 83 -112 120zM264 418v223q-45 -3 -75.5 -32.5t-30.5 -77.5q0 -82 106 -113z" />
    <glyph glyph-name="percent" unicode="%" horiz-adv-x="870" 
d="M475 165q0 73 51.5 125t125.5 52t125.5 -52t51.5 -125t-51.5 -125t-125.5 -52t-125.5 52t-51.5 125zM746 165q0 39 -27.5 66.5t-66.5 27.5t-66.5 -27.5t-27.5 -66.5t27.5 -66.5t66.5 -27.5t66.5 27.5t27.5 66.5zM41 543q0 73 51.5 125t125.5 52t125.5 -52t51.5 -125
t-51.5 -125t-125.5 -52t-125.5 52t-51.5 125zM312 543q0 39 -27.5 66.5t-66.5 27.5t-66.5 -27.5t-27.5 -66.5t27.5 -66.5t66.5 -27.5t66.5 27.5t27.5 66.5zM686 707l-433 -739l-68 33l434 739z" />
    <glyph glyph-name="ampersand" unicode="&#x26;" horiz-adv-x="723" 
d="M686 378l-136 -211l162 -167h-131l-88 93q-84 -106 -215 -106q-97 0 -163.5 53.5t-66.5 147.5q0 132 159 205q-81 85 -81 162q0 81 55 126t134 45q78 0 130.5 -44t52.5 -122q0 -115 -152 -187l141 -145l89 150h110zM407 558q0 38 -25.5 64t-65.5 26q-41 0 -68 -26
t-27 -68q0 -61 70 -123q116 51 116 127zM430 156l-168 176q-114 -48 -114 -142q0 -54 39.5 -88.5t92.5 -34.5q90 0 150 89z" />
    <glyph glyph-name="quotesingle" unicode="'" horiz-adv-x="262" 
d="M90 458v250h82v-250h-82z" />
    <glyph glyph-name="parenleft" unicode="(" horiz-adv-x="315" 
d="M119 288q0 -107 34.5 -212t94.5 -189l-68 -44q-68 91 -107 207t-39 238t39 238t107 207l68 -44q-60 -84 -94.5 -189t-34.5 -212z" />
    <glyph glyph-name="parenright" unicode=")" horiz-adv-x="315" 
d="M196 288q0 107 -34.5 212t-94.5 189l68 44q68 -91 107 -207t39 -238t-39 -238t-107 -207l-68 44q60 84 94.5 189t34.5 212z" />
    <glyph glyph-name="asterisk" unicode="*" horiz-adv-x="454" 
d="M262 579l127 41l27 -76l-127 -41l81 -109l-64 -48l-84 113l-84 -113l-64 48l81 109l-127 41l27 76l127 -41v129h80v-129z" />
    <glyph glyph-name="plus" unicode="+" horiz-adv-x="666" 
d="M374 566v-222h222v-82h-222v-222h-82v222h-222v82h222v222h82z" />
    <glyph glyph-name="comma" unicode="," horiz-adv-x="260" 
d="M197 117l-83 -250h-80l69 250h94z" />
    <glyph glyph-name="hyphen" unicode="-" horiz-adv-x="320" 
d="M276 284v-80h-232v80h232z" />
    <glyph glyph-name="period" unicode="." horiz-adv-x="260" 
d="M197 60q0 -27 -19.5 -46.5t-47.5 -19.5t-47.5 19.5t-19.5 45.5q0 27 19.5 46.5t47.5 19.5t47.5 -19t19.5 -46z" />
    <glyph glyph-name="slash" unicode="/" horiz-adv-x="380" 
d="M376 716l-307 -749l-71 24l307 751z" />
    <glyph glyph-name="zero" unicode="0" horiz-adv-x="595" 
d="M298 726q81 0 136.5 -51t80 -132.5t24.5 -188.5q0 -165 -60.5 -268.5t-180.5 -103.5q-121 0 -181.5 103.5t-60.5 268.5q0 107 24.5 188.5t80.5 132.5t137 51zM298 645q-42 0 -71.5 -28t-44 -74t-21 -92.5t-6.5 -96.5q0 -51 6.5 -97t21 -92t44 -73.5t71.5 -27.5
q41 0 70.5 27.5t44 73.5t21 92.5t6.5 96.5t-6.5 96.5t-21 92.5t-44 74t-70.5 28z" />
    <glyph glyph-name="one" unicode="1" horiz-adv-x="595" 
d="M379 708v-708h-97v590l-134 -112l-57 67l201 163h87z" />
    <glyph glyph-name="two" unicode="2" horiz-adv-x="595" 
d="M522 87v-87h-462v93l282 280q78 80 78 150q0 54 -36 88t-90 34q-53 0 -88.5 -34t-44.5 -89l-95 16q13 82 76 135t153 53q94 0 159 -53t65 -148q0 -62 -29 -110.5t-85 -103.5l-230 -224h347z" />
    <glyph glyph-name="three" unicode="3" horiz-adv-x="595" 
d="M213 330v80h31q69 0 113.5 27.5t44.5 90.5q0 52 -36.5 84.5t-88.5 32.5q-90 0 -124 -87l-88 31q26 64 83.5 100.5t132.5 36.5q93 0 155.5 -51t62.5 -141q0 -59 -35 -103t-90 -58v-2q64 -13 104 -59.5t40 -113.5q0 -101 -70 -158.5t-167 -57.5q-86 0 -149 39t-92 117
l90 30q16 -47 55.5 -75.5t93.5 -28.5q58 0 100 35.5t42 99.5q0 68 -52.5 99.5t-125.5 31.5h-30z" />
    <glyph glyph-name="four" unicode="4" horiz-adv-x="595" 
d="M451 708v-466h102v-83h-102v-159h-94v159h-326v88l301 461h119zM357 242v355h-2l-224 -355h226z" />
    <glyph glyph-name="five" unicode="5" horiz-adv-x="595" 
d="M490 708v-86h-292l-6 -186q38 13 91 13q104 0 170.5 -61t66.5 -162q0 -109 -70 -176.5t-177 -67.5q-81 0 -139 38t-87 104l88 35q17 -43 54 -69t84 -26q63 0 105.5 42.5t42.5 109.5q0 76 -47.5 115.5t-118.5 39.5q-82 0 -157 -39l10 376h382z" />
    <glyph glyph-name="six" unicode="6" horiz-adv-x="595" 
d="M421 708l-190 -285l1 -2q32 19 88 19q94 0 157.5 -63t63.5 -159q0 -105 -69.5 -170.5t-174.5 -65.5q-106 0 -175.5 66t-69.5 167q0 92 69 201l185 292h115zM150 214q0 -63 41 -106.5t106 -43.5t105.5 42.5t40.5 108.5q0 65 -40 106.5t-105 41.5q-66 0 -107 -41.5
t-41 -107.5z" />
    <glyph glyph-name="seven" unicode="7" horiz-adv-x="595" 
d="M515 708v-88l-284 -620h-111l295 622h-351v86h451z" />
    <glyph glyph-name="eight" unicode="8" horiz-adv-x="595" 
d="M401 373q58 -15 96 -64t38 -116q0 -96 -68.5 -153.5t-168.5 -57.5q-101 0 -169.5 57t-68.5 154q0 68 38 116t96 64v2q-49 17 -79 59t-30 99q0 86 61.5 139.5t151.5 53.5t151 -52.5t61 -138.5q0 -57 -30 -100.5t-79 -59.5v-2zM182 530q0 -49 33 -82t83 -33q48 0 82 33.5
t34 81.5q0 50 -34 83t-82 33q-50 0 -83 -32.5t-33 -83.5zM159 198q0 -60 38.5 -97.5t100.5 -37.5q60 0 99 37.5t39 97.5q0 58 -39 96t-99 38q-61 0 -100 -37.5t-39 -96.5z" />
    <glyph glyph-name="nine" unicode="9" horiz-adv-x="595" 
d="M175 0l190 286l-1 1q-15 -9 -41 -14q-27 -5 -48 -5q-94 0 -157.5 63t-63.5 159q0 105 69.5 170.5t175.5 65.5q105 0 174.5 -66.5t69.5 -166.5q0 -91 -68 -201l-185 -292h-115zM446 494q0 64 -41 107.5t-106 43.5t-106 -43t-41 -109q0 -65 40.5 -106.5t105.5 -41.5
q66 0 107 41.5t41 107.5z" />
    <glyph glyph-name="colon" unicode=":" horiz-adv-x="300" 
d="M217 415q0 -27 -19.5 -46.5t-47.5 -19.5t-47.5 19t-19.5 46t19.5 46.5t47.5 19.5t47.5 -19t19.5 -46zM217 60q0 -27 -19.5 -46.5t-47.5 -19.5t-47.5 19.5t-19.5 45.5q0 27 19.5 46.5t47.5 19.5t47.5 -19t19.5 -46z" />
    <glyph glyph-name="semicolon" unicode=";" horiz-adv-x="300" 
d="M217 415q0 -27 -19.5 -46.5t-47.5 -19.5t-47.5 19t-19.5 46t19.5 46.5t47.5 19.5t47.5 -19t19.5 -46zM206 117l-83 -250h-80l69 250h94z" />
    <glyph glyph-name="less" unicode="&#x3c;" horiz-adv-x="666" 
d="M589 564v-85l-385 -176l383 -176v-85l-508 231v60z" />
    <glyph glyph-name="equal" unicode="=" horiz-adv-x="666" 
d="M70 426h526v-81h-526v81zM70 261h526v-81h-526v81z" />
    <glyph glyph-name="greater" unicode="&#x3e;" horiz-adv-x="666" 
d="M79 479v85l508 -231v-60l-508 -231v85l383 176z" />
    <glyph glyph-name="question" unicode="?" horiz-adv-x="500" 
d="M301 236v-35h-94v48q0 49 17.5 81.5t55.5 67.5l37 35q51 44 51 99q0 48 -30.5 76.5t-78.5 28.5t-79 -31.5t-36 -78.5l-96 11q13 85 72 135t145 50q87 0 145 -49t58 -136q0 -58 -22.5 -93t-73.5 -78q-43 -37 -57 -60.5t-14 -70.5zM326 60q0 -27 -19.5 -46.5t-47.5 -19.5
t-47.5 19.5t-19.5 45.5q0 27 19.5 46.5t47.5 19.5t47.5 -19t19.5 -46z" />
    <glyph glyph-name="at" unicode="@" horiz-adv-x="800" 
d="M412 478q-50 0 -80 -49.5t-30 -108.5q0 -34 16.5 -61.5t55.5 -27.5q38 0 65 26.5t37 59t10 65.5q0 96 -74 96zM682 155l46 -53q-114 -120 -313 -120q-171 0 -276.5 103.5t-105.5 267.5q0 159 111.5 266t270.5 107q70 0 132.5 -20.5t112.5 -59t79.5 -101t29.5 -140.5
q0 -115 -57 -180t-139 -65q-40 0 -63.5 20t-23.5 50h-5q-14 -27 -47 -48.5t-76 -21.5q-67 0 -105.5 45t-38.5 118q0 89 56 157.5t142 68.5q37 0 64.5 -16t36.5 -41h2l9 42h76l-39 -188q-10 -45 -10 -71q0 -45 40 -45q44 0 72 47t28 120q0 122 -76.5 189.5t-200.5 67.5
q-130 0 -212 -86t-82 -217q0 -135 84 -216t219 -81q152 0 259 101z" />
    <glyph glyph-name="A" unicode="A" horiz-adv-x="711" 
d="M186 174l-71 -174h-110l307 708h90l304 -708h-112l-72 174h-336zM354 593l-133 -332h265z" />
    <glyph glyph-name="B" unicode="B" horiz-adv-x="642" 
d="M86 0v708h244q92 0 157 -43t65 -136q0 -57 -33.5 -98t-90.5 -56v-2q70 -8 113.5 -54t43.5 -118q0 -98 -74.5 -149.5t-191.5 -51.5h-233zM185 625v-216h129q61 0 100 27.5t39 82.5q0 106 -155 106h-113zM185 325v-241h124q47 0 84 10t64.5 38.5t27.5 73.5q0 119 -167 119
h-133z" />
    <glyph glyph-name="C" unicode="C" horiz-adv-x="708" 
d="M614 164l79 -54q-94 -128 -270 -128q-163 0 -268 105t-105 268q0 164 107 267.5t270 103.5q76 0 146 -29t108 -81l-78 -60q-26 37 -74 60t-102 23q-120 0 -194.5 -82t-74.5 -202q0 -122 73 -203.5t193 -81.5q125 0 190 94z" />
    <glyph glyph-name="D" unicode="D" horiz-adv-x="761" 
d="M86 0v708h243q71 0 136.5 -20.5t121.5 -61.5t90 -111.5t34 -160.5q0 -87 -34 -157t-89.5 -111.5t-122 -63.5t-136.5 -22h-243zM185 622v-535h124q131 0 213.5 71.5t82.5 195.5q0 128 -82 198t-214 70h-124z" />
    <glyph glyph-name="E" unicode="E" horiz-adv-x="601" 
d="M185 324v-236h370v-88h-469v708h454v-87h-355v-212h334v-85h-334z" />
    <glyph glyph-name="F" unicode="F" horiz-adv-x="568" 
d="M185 316v-316h-99v708h442v-87h-343v-220h321v-85h-321z" />
    <glyph glyph-name="G" unicode="G" horiz-adv-x="778" 
d="M689 634l-69 -72q-70 77 -192 77q-121 0 -195.5 -82t-74.5 -202q0 -122 74.5 -203t198.5 -81q100 0 165 35v197h-157v84h255v-343q-115 -62 -266 -62q-166 0 -272 104.5t-106 268.5t107 267.5t270 103.5q167 0 262 -92z" />
    <glyph glyph-name="H" unicode="H" horiz-adv-x="729" 
d="M86 0v708h99v-296h358v296h100v-708h-100v324h-358v-324h-99z" />
    <glyph glyph-name="I" unicode="I" horiz-adv-x="271" 
d="M185 708v-708h-99v708h99z" />
    <glyph glyph-name="J" unicode="J" horiz-adv-x="495" 
d="M15 132l92 26q8 -39 35.5 -63.5t66.5 -24.5q107 0 107 151v487h99v-491q0 -32 -5 -62t-18.5 -62.5t-35 -56t-58 -39t-84.5 -15.5q-79 0 -131 41t-68 109z" />
    <glyph glyph-name="K" unicode="K" horiz-adv-x="659" 
d="M185 708v-312h2l316 312h137l-344 -324l365 -384h-142l-332 366h-2v-366h-99v708h99z" />
    <glyph glyph-name="L" unicode="L" horiz-adv-x="511" 
d="M185 708v-620h316v-88h-415v708h99z" />
    <glyph glyph-name="M" unicode="M" horiz-adv-x="903" 
d="M240 708l212 -544h2l209 544h154v-708h-99v592h-2l-235 -592h-63l-234 592h-2v-592h-96v708h154z" />
    <glyph glyph-name="N" unicode="N" horiz-adv-x="772" 
d="M215 708l370 -566h2v566h99v-708h-125l-374 578h-2v-578h-99v708h129z" />
    <glyph glyph-name="O" unicode="O" horiz-adv-x="849" 
d="M800 355q0 -163 -106.5 -268t-269.5 -105q-162 0 -268 105t-106 268q0 164 105.5 267.5t268.5 103.5t269.5 -103.5t106.5 -267.5zM693 355q0 120 -74 202t-195 82q-119 0 -193 -82t-74 -202q0 -121 74 -202.5t193 -81.5q121 0 195 81.5t74 202.5z" />
    <glyph glyph-name="P" unicode="P" horiz-adv-x="595" 
d="M86 0v708h216q119 0 186 -48.5t67 -148.5q0 -102 -70.5 -151t-187.5 -49h-112v-311h-99zM185 624v-229h105q165 0 165 116q0 113 -163 113h-107z" />
    <glyph glyph-name="Q" unicode="Q" horiz-adv-x="846" 
d="M834 83v-83h-416q-163 0 -265.5 99.5t-102.5 263.5q0 159 104.5 261t264.5 102q158 0 262 -102t104 -261q0 -92 -39.5 -164t-106.5 -114v-2h195zM157 363q0 -119 72 -197.5t189 -78.5q115 0 188 79t73 197q0 117 -71.5 196.5t-188.5 79.5t-189.5 -80t-72.5 -196z" />
    <glyph glyph-name="R" unicode="R" horiz-adv-x="614" 
d="M185 315v-315h-99v708h227q112 0 182 -47t70 -149q0 -76 -47 -125t-125 -62l198 -325h-120l-180 315h-106zM185 624v-226h114q166 0 166 114q0 112 -159 112h-121z" />
    <glyph glyph-name="S" unicode="S" horiz-adv-x="569" 
d="M508 645l-70 -68q-22 30 -58.5 48t-79.5 18q-54 0 -96 -29.5t-42 -85.5q0 -28 10 -47.5t34 -34t43 -22t58 -20.5q39 -12 59.5 -19.5t53.5 -25.5t50.5 -37.5t31 -51.5t13.5 -73q0 -104 -71.5 -159.5t-173.5 -55.5q-69 0 -131.5 26.5t-101.5 76.5l77 65q25 -37 67.5 -60
t90.5 -23q56 0 99 31.5t43 89.5q0 25 -10 45t-22 32t-39 24.5t-43.5 18.5t-53.5 17q-40 13 -67.5 25.5t-57 35t-44.5 57.5t-15 81q0 67 37 114.5t90.5 67.5t115.5 20q61 0 115.5 -22t87.5 -59z" />
    <glyph glyph-name="T" unicode="T" horiz-adv-x="569" 
d="M334 621v-621h-99v621h-227v87h553v-87h-227z" />
    <glyph glyph-name="U" unicode="U" horiz-adv-x="712" 
d="M356 -18q-133 0 -204 81.5t-71 198.5v446h99v-440q0 -83 42.5 -140t133.5 -57t133.5 57t42.5 140v440h99v-446q0 -117 -71 -198.5t-204 -81.5z" />
    <glyph glyph-name="V" unicode="V" horiz-adv-x="642" 
d="M108 708l213 -580h3l213 580h107l-278 -708h-92l-276 708h110z" />
    <glyph glyph-name="W" unicode="W" horiz-adv-x="988" 
d="M117 708l156 -564h2l166 564h109l165 -564h2l156 564h105l-208 -708h-103l-172 569h-2l-172 -569h-103l-208 708h107z" />
    <glyph glyph-name="X" unicode="X" horiz-adv-x="668" 
d="M164 708l170 -264l168 264h116l-226 -335l257 -373h-125l-194 298l-190 -298h-122l253 375l-228 333h121z" />
    <glyph glyph-name="Y" unicode="Y" horiz-adv-x="624" 
d="M362 306v-306h-100v306l-265 402h122l196 -320l197 320h115z" />
    <glyph glyph-name="Z" unicode="Z" horiz-adv-x="592" 
d="M553 708v-87l-400 -533h406v-88h-526v87l399 534h-391v87h512z" />
    <glyph glyph-name="bracketleft" unicode="[" horiz-adv-x="315" 
d="M236 732v-66h-93v-756h93v-66h-177v888h177z" />
    <glyph glyph-name="backslash" unicode="\" horiz-adv-x="380" 
d="M311 -33l-307 749l70 26l308 -751z" />
    <glyph glyph-name="bracketright" unicode="]" horiz-adv-x="315" 
d="M79 -156v66h93v756h-93v66h177v-888h-177z" />
    <glyph glyph-name="asciicircum" unicode="^" horiz-adv-x="666" 
d="M74 309l226 399h66l226 -399h-91l-169 300l-167 -300h-91z" />
    <glyph glyph-name="underscore" unicode="_" horiz-adv-x="500" 
d="M0 -138v63h500v-63h-500z" />
    <glyph glyph-name="grave" unicode="`" 
d="M102 564l-136 144h113l100 -144h-77z" />
    <glyph glyph-name="a" unicode="a" horiz-adv-x="542" 
d="M376 294v13q0 51 -31.5 77.5t-85.5 26.5q-80 0 -135 -55l-50 60q74 71 194 71q98 0 148 -51.5t50 -134.5v-207q0 -62 7 -94h-85q-8 34 -8 68h-3q-53 -80 -159 -80q-30 0 -59 8t-55 24t-42 45.5t-16 68.5q0 41 19.5 71.5t49.5 47t76.5 26t88 12.5t96.5 3zM376 226h-23
q-211 0 -211 -90q0 -39 28 -56.5t69 -17.5q64 0 100.5 38.5t36.5 100.5v25z" />
    <glyph glyph-name="b" unicode="b" horiz-adv-x="636" 
d="M176 75h-2v-75h-91v756h94v-353h3q26 37 70 60.5t99 23.5q104 0 170.5 -71.5t66.5 -177.5q0 -107 -66 -179t-173 -72q-51 0 -97.5 23t-73.5 65zM489 238q0 71 -42 121t-116 50q-70 0 -115 -51t-45 -121t45 -120.5t115 -50.5q74 0 116 50.5t42 121.5z" />
    <glyph glyph-name="c" unicode="c" horiz-adv-x="494" 
d="M481 409l-68 -55q-15 24 -45.5 39t-63.5 15q-71 0 -113 -50t-42 -121t42.5 -121t113.5 -50q73 0 114 52l63 -57q-64 -74 -177 -74q-111 0 -183 69t-72 181q0 111 71.5 180.5t181.5 69.5q52 0 101 -20.5t77 -57.5z" />
    <glyph glyph-name="d" unicode="d" horiz-adv-x="635" 
d="M459 75q-26 -42 -72.5 -65t-98.5 -23q-107 0 -173 72t-66 179t66.5 178t171.5 71q55 0 98.5 -23.5t70.5 -60.5h2v353h94v-756h-91v75h-2zM147 238q0 -71 41.5 -121.5t115.5 -50.5q70 0 115 50.5t45 120.5t-45 121t-115 51q-74 0 -115.5 -50t-41.5 -121z" />
    <glyph glyph-name="e" unicode="e" horiz-adv-x="573" 
d="M146 279h282q-2 59 -36 96.5t-97 37.5q-60 0 -102 -39t-47 -95zM523 241q0 -21 -1 -32h-376q2 -61 47 -102.5t107 -41.5q89 0 138 72l66 -53q-75 -97 -204 -97q-109 0 -179.5 69t-70.5 180q0 110 70 180.5t175 70.5t166.5 -66.5t61.5 -179.5z" />
    <glyph glyph-name="f" unicode="f" horiz-adv-x="310" 
d="M304 474v-77h-110v-397h-94v397h-94v77h94v99q0 89 43 142t134 53q34 0 59 -7l-11 -81q-25 7 -47 7q-84 0 -84 -114v-99h110z" />
    <glyph glyph-name="g" unicode="g" horiz-adv-x="632" 
d="M58 -154l60 73q31 -35 78 -56t95 -21q167 0 167 175v61h-2q-26 -39 -71 -60.5t-96 -21.5q-107 0 -173 70t-66 174q0 105 66 176t172 71q53 0 99 -23t72 -66h2v76h91v-450q0 -54 -13.5 -99.5t-43 -83.5t-82 -59.5t-123.5 -21.5q-62 0 -125 23t-107 63zM147 242
q0 -69 43 -118t114 -49q72 0 116.5 47.5t44.5 119.5q0 69 -45.5 118t-115.5 49q-72 0 -114.5 -48t-42.5 -119z" />
    <glyph glyph-name="h" unicode="h" horiz-adv-x="584" 
d="M177 402h2q17 36 58.5 60.5t91.5 24.5q87 0 132 -54t45 -139v-294h-94v262q0 145 -107 145q-56 0 -92 -43t-36 -113v-251h-94v756h94v-354z" />
    <glyph glyph-name="i" unicode="i" horiz-adv-x="259" 
d="M176 474v-474h-94v474h94zM192 645q0 -25 -18.5 -42.5t-44.5 -17.5t-44 17.5t-18 42.5t18 43t44 18t44.5 -17.5t18.5 -43.5z" />
    <glyph glyph-name="j" unicode="j" horiz-adv-x="260" 
d="M-31 -234l10 80q20 -5 38 -5q39 0 52.5 26t13.5 75v532h94v-535q0 -179 -154 -179q-24 0 -54 6zM193 645q0 -25 -18.5 -42.5t-44.5 -17.5t-44.5 17.5t-18.5 42.5t18.5 43t44.5 18t44.5 -17.5t18.5 -43.5z" />
    <glyph glyph-name="k" unicode="k" horiz-adv-x="527" 
d="M177 756v-488h3l199 206h126l-222 -215l241 -259h-130l-214 246h-3v-246h-94v756h94z" />
    <glyph glyph-name="l" unicode="l" horiz-adv-x="260" 
d="M177 756v-756h-94v756h94z" />
    <glyph glyph-name="m" unicode="m" horiz-adv-x="887" 
d="M173 396q19 40 59 65.5t92 25.5q106 0 147 -95q24 45 67 70t94 25q87 0 132 -54t45 -139v-294h-94v263q0 145 -105 145q-60 0 -90 -45t-30 -107v-256h-94v282q0 126 -100 126q-52 0 -86.5 -43t-34.5 -113v-252h-94v372q0 61 -4 102h89q4 -48 4 -78h3z" />
    <glyph glyph-name="n" unicode="n" horiz-adv-x="582" 
d="M77 474h89q4 -48 4 -78h3q18 39 61 65t93 26q87 0 132 -54t45 -139v-294h-94v263q0 145 -108 145q-56 0 -91.5 -43t-35.5 -113v-252h-94v372q0 61 -4 102z" />
    <glyph glyph-name="o" unicode="o" horiz-adv-x="610" 
d="M561 238q0 -109 -73.5 -180t-182.5 -71t-182 71t-73 180t72.5 179t182.5 70t183 -70t73 -179zM463 238q0 71 -42.5 121t-115.5 50t-115.5 -50t-42.5 -121t42.5 -121.5t115.5 -50.5t115.5 50.5t42.5 121.5z" />
    <glyph glyph-name="p" unicode="p" horiz-adv-x="634" 
d="M175 71v-311h-94v714h92v-74h3q24 39 69 63t102 24q104 0 170.5 -71.5t66.5 -177.5q0 -107 -66 -179t-173 -72q-51 0 -96 22.5t-71 61.5h-3zM487 238q0 71 -42 121t-116 50q-70 0 -115 -51t-45 -121t45 -120.5t115 -50.5q74 0 116 50.5t42 121.5z" />
    <glyph glyph-name="q" unicode="q" horiz-adv-x="633" 
d="M458 71h-2q-26 -39 -71.5 -61.5t-96.5 -22.5q-107 0 -173 72t-66 179t66.5 178t171.5 71q56 0 101 -24t70 -63h3v74h91v-714h-94v311zM147 238q0 -71 41.5 -121.5t115.5 -50.5q70 0 115 50.5t45 120.5t-45 121t-115 51q-74 0 -115.5 -50t-41.5 -121z" />
    <glyph glyph-name="r" unicode="r" horiz-adv-x="362" 
d="M81 372q0 61 -4 102h89q4 -48 4 -80h3q20 42 59 67.5t86 25.5q22 0 37 -4l-4 -87q-20 5 -43 5q-64 0 -98.5 -44t-34.5 -108v-249h-94v372z" />
    <glyph glyph-name="s" unicode="s" horiz-adv-x="444" 
d="M402 409l-65 -55q-16 26 -45.5 42.5t-64.5 16.5q-36 0 -62 -15.5t-26 -46.5q0 -28 25 -43t83 -28q159 -35 159 -140q0 -78 -54.5 -115.5t-134.5 -37.5q-56 0 -107 22t-84 63l67 57q19 -29 53.5 -47.5t72.5 -18.5q40 0 67 16.5t27 52.5q0 31 -28.5 47t-95.5 32
q-28 7 -49 15t-43 22.5t-34 38t-12 55.5q0 72 52.5 108.5t126.5 36.5q52 0 99.5 -20.5t72.5 -57.5z" />
    <glyph glyph-name="t" unicode="t" horiz-adv-x="329" 
d="M313 474v-77h-126v-247q0 -43 16 -61.5t51 -18.5q31 0 55 12l3 -77q-36 -13 -80 -13q-67 0 -102.5 37.5t-35.5 110.5v257h-91v77h91v136h93v-136h126z" />
    <glyph glyph-name="u" unicode="u" horiz-adv-x="582" 
d="M504 0h-89q-4 48 -4 78h-2q-19 -39 -62 -65t-93 -26q-87 0 -132 54t-45 139v294h94v-262q0 -146 108 -146q57 0 92 43t35 113v252h94v-372q0 -61 4 -102z" />
    <glyph glyph-name="v" unicode="v" horiz-adv-x="504" 
d="M494 474l-190 -474h-102l-193 474h104l139 -373h2l140 373h100z" />
    <glyph glyph-name="w" unicode="w" horiz-adv-x="773" 
d="M14 474h102l107 -362h2l113 362h99l115 -362h2l107 362h99l-157 -474h-98l-117 356h-2l-116 -356h-98z" />
    <glyph glyph-name="x" unicode="x" horiz-adv-x="511" 
d="M7 0l190 249l-173 225h116l116 -163l117 163h110l-171 -224l191 -250h-117l-132 185l-134 -185h-113z" />
    <glyph glyph-name="y" unicode="y" horiz-adv-x="504" 
d="M114 474l147 -372h2l131 372h100l-230 -586q-25 -65 -61.5 -96.5t-102.5 -31.5q-33 0 -62 7l9 83q24 -8 47 -8q34 0 53 18.5t35 60.5l30 79l-203 474h105z" />
    <glyph glyph-name="z" unicode="z" horiz-adv-x="462" 
d="M419 474v-77l-270 -318h281v-79h-397v77l268 320h-255v77h373z" />
    <glyph glyph-name="braceleft" unicode="{" horiz-adv-x="315" 
d="M5 251v74q32 0 53 22.5t21 67.5v188q0 65 33.5 97t84.5 32h68v-69h-51q-51 0 -51 -72v-183q0 -57 -31 -85.5t-62 -33.5v-2q13 -1 26.5 -7t29.5 -19t26.5 -38t10.5 -58v-180q0 -72 51 -72h51v-69h-68q-51 0 -84.5 32t-33.5 97v184q0 47 -21 70.5t-53 23.5z" />
    <glyph glyph-name="bar" unicode="|" horiz-adv-x="222" 
d="M70 750h82v-1000h-82v1000z" />
    <glyph glyph-name="braceright" unicode="}" horiz-adv-x="315" 
d="M310 251q-32 0 -53 -23.5t-21 -70.5v-184q0 -65 -33.5 -97t-84.5 -32h-68v69h52q50 0 50 72v180q0 62 31 90.5t63 31.5v2q-32 5 -63 33.5t-31 85.5v183q0 72 -50 72h-52v69h68q51 0 84.5 -32t33.5 -97v-188q0 -45 21 -67.5t53 -22.5v-74z" />
    <glyph glyph-name="asciitilde" unicode="~" horiz-adv-x="666" 
d="M340 346q38 -24 57.5 -31.5t41.5 -7.5q50 0 87 68l59 -55q-58 -97 -144 -97q-54 0 -116 38q-37 23 -56.5 30.5t-41.5 7.5q-50 0 -87 -68l-59 55q59 98 144 98q56 0 115 -38z" />
    <glyph glyph-name="uni00A0" unicode="&#xa0;" 
 />
    <glyph glyph-name="exclamdown" unicode="&#xa1;" horiz-adv-x="334" 
d="M216 -221h-99v501h99v-501zM234 427q0 -27 -19.5 -46t-47.5 -19t-47.5 19.5t-19.5 46.5q0 26 19.5 45.5t47.5 19.5t47.5 -19.5t19.5 -46.5z" />
    <glyph glyph-name="cent" unicode="&#xa2;" horiz-adv-x="595" 
d="M299 71v332q-58 -11 -90.5 -56.5t-32.5 -109.5q0 -63 33 -108.5t90 -57.5zM350 404v-334q63 1 102 53l64 -60q-61 -70 -166 -75v-66h-51v67q-99 10 -157.5 79t-58.5 170t58 168t158 79v65h51v-64q107 -5 166 -75l-66 -60q-40 50 -100 53z" />
    <glyph glyph-name="sterling" unicode="&#xa3;" horiz-adv-x="595" 
d="M434 397v-72h-166v-241h263v-84h-461v84h100v241h-97v72h97v88q0 34 7 66.5t24 64.5t42.5 56t65.5 39t90 15q102 0 165 -60l-59 -67q-41 46 -108 46q-38 0 -65 -16t-40 -43t-18.5 -53t-5.5 -54v-82h166z" />
    <glyph glyph-name="currency" unicode="&#xa4;" horiz-adv-x="890" 
d="M661 465q48 -63 48 -156q0 -95 -51 -161l93 -93q-27 -29 -56 -56q-32 30 -96 94q-64 -47 -153 -47q-86 0 -154 49l-98 -96l-56 56l95 96q-49 65 -49 158q0 87 46 154l-92 92l57 56l93 -92q67 50 158 50t157 -49l91 91l57 -56zM446 478q-72 0 -117.5 -49t-45.5 -120
q0 -72 45 -121.5t118 -49.5t118.5 49.5t45.5 121.5q0 71 -45.5 120t-118.5 49z" />
    <glyph glyph-name="yen" unicode="&#xa5;" horiz-adv-x="595" 
d="M80 228h170v91h-170v66h145l-212 323h115l174 -294l170 294h110l-208 -323h141v-66h-170v-91h170v-66h-170v-162h-95v162h-170v66z" />
    <glyph glyph-name="brokenbar" unicode="&#xa6;" horiz-adv-x="222" 
d="M70 675h82v-350h-82v350zM70 175h82v-350h-82v350z" />
    <glyph glyph-name="section" unicode="&#xa7;" horiz-adv-x="595" 
d="M502 636l-71 -52q-15 28 -44.5 46t-66.5 18q-41 0 -70 -20.5t-29 -57.5q0 -38 29.5 -62t98.5 -52q82 -34 124 -72t42 -101q0 -43 -24 -78.5t-61 -51.5q61 -41 61 -120q0 -83 -60 -127.5t-143 -44.5q-68 0 -125.5 29t-87.5 85l83 46q16 -38 52 -58t78 -20q40 0 72.5 20.5
t32.5 63.5q0 40 -29 61.5t-115 58.5q-40 18 -62 29.5t-47 30.5t-36 44t-11 57q0 49 28 85t72 54q-69 44 -69 117q0 77 58 119.5t137 42.5q61 0 109.5 -24t73.5 -66zM334 369l-75 33q-74 -20 -74 -80q0 -18 6.5 -32t23.5 -26t27.5 -17.5t37.5 -18.5l84 -36q24 8 41.5 29
t17.5 49q0 20 -7 35.5t-21.5 27.5t-27 19t-33.5 17z" />
    <glyph glyph-name="dieresis" unicode="&#xa8;" 
d="M-34 645q0 25 18 43t44 18t44 -17.5t18 -43.5q0 -25 -18 -42.5t-44 -17.5t-44 18t-18 42zM160 645q0 25 18 43t44 18t44 -17.5t18 -43.5q0 -25 -18 -42.5t-44 -17.5t-44 18t-18 42z" />
    <glyph glyph-name="copyright" unicode="&#xa9;" horiz-adv-x="800" 
d="M20 353q0 157 111.5 267t269.5 110q157 0 268 -110t111 -267q0 -156 -111 -265.5t-268 -109.5q-158 0 -269.5 109.5t-111.5 265.5zM80 353q0 -132 94 -225.5t227 -93.5q132 0 225.5 93.5t93.5 225.5q0 133 -93.5 227t-225.5 94q-133 0 -227 -94t-94 -227zM573 519
l-58 -46q-33 44 -98 44q-66 0 -107.5 -44.5t-41.5 -112.5q0 -71 40 -115t106 -44q68 0 105 50l61 -43q-60 -76 -167 -76q-101 0 -165.5 63.5t-64.5 164.5q0 102 66 163.5t168 61.5q45 0 88.5 -17t67.5 -49z" />
    <glyph glyph-name="ordfeminine" unicode="&#xaa;" horiz-adv-x="380" 
d="M247 431v37h-1q-26 -44 -89 -44q-41 0 -73.5 21t-32.5 67q0 96 195 96v7q0 25 -18.5 38.5t-46.5 13.5q-44 0 -78 -32l-36 43q48 45 120 45q70 0 98.5 -34.5t28.5 -85.5v-172h-67zM246 550v10h-16q-108 0 -108 -47q0 -36 50 -36q36 0 55 19.5t19 53.5z" />
    <glyph glyph-name="guillemotleft" unicode="&#xab;" horiz-adv-x="500" 
d="M247 419l-115 -175l116 -175l-62 -43l-146 218l146 217zM450 419l-115 -175l115 -175l-61 -43l-146 218l146 217z" />
    <glyph glyph-name="logicalnot" unicode="&#xac;" horiz-adv-x="666" 
d="M596 426v-287h-81v206h-445v81h526z" />
    <glyph glyph-name="uni00AD" unicode="&#xad;" horiz-adv-x="320" 
d="M276 284v-80h-232v80h232z" />
    <glyph glyph-name="registered" unicode="&#xae;" horiz-adv-x="600" 
d="M264 511h47q14 0 25.5 9.5t11.5 23.5t-12 22t-25 8h-47v-63zM427 368h-72l-55 99h-36v-99h-61v256h110q41 0 69 -19t28 -61q0 -50 -51 -68zM72 493q0 94 66.5 160.5t161.5 66.5t161.5 -66.5t66.5 -160.5t-66.5 -159.5t-161.5 -65.5t-161.5 65.5t-66.5 159.5zM108 493
q0 -79 56.5 -135.5t135.5 -56.5t135.5 56.5t56.5 135.5t-56 135.5t-136 56.5t-136 -56.5t-56 -135.5z" />
    <glyph glyph-name="macron" unicode="&#xaf;" 
d="M273 664v-67h-296v67h296z" />
    <glyph glyph-name="degree" unicode="&#xb0;" horiz-adv-x="400" 
d="M355 565q0 -65 -45 -109.5t-110 -44.5t-110 44.5t-45 109.5t45 110t110 45t110 -45t45 -110zM291 565q0 38 -26.5 65t-64.5 27t-64.5 -27t-26.5 -65q0 -37 26.5 -64t64.5 -27t64.5 27t26.5 64z" />
    <glyph glyph-name="plusminus" unicode="&#xb1;" horiz-adv-x="666" 
d="M70 338v81h223v150h81v-150h222v-81h-222v-147h-81v147h-223zM70 40v81h526v-81h-526z" />
    <glyph glyph-name="twosuperior" unicode="&#xb2;" horiz-adv-x="385" 
d="M333 519v-69h-283v67l164 165q40 42 40 78q0 25 -17 40t-43 15q-27 0 -45 -18.5t-23 -49.5l-74 10q8 55 47.5 90.5t94.5 35.5q58 0 98 -32t40 -91q0 -38 -18 -67t-52 -62l-114 -112h185z" />
    <glyph glyph-name="threesuperior" unicode="&#xb3;" horiz-adv-x="385" 
d="M143 639v62h27q80 0 80 63q0 23 -18 38t-43 15q-46 0 -66 -51l-68 23q18 44 54.5 69t81.5 25q59 0 97 -30t38 -86q0 -32 -17.5 -56.5t-44.5 -36.5q32 -10 52.5 -37.5t20.5 -63.5q0 -62 -43 -96t-103 -34q-114 0 -151 105l71 22q20 -60 78 -60q30 0 51.5 16.5t21.5 48.5
q0 34 -27 49t-65 15h-27z" />
    <glyph glyph-name="acute" unicode="&#xb4;" 
d="M284 708l-136 -144h-77l100 144h113z" />
    <glyph glyph-name="mu" unicode="&#xb5;" horiz-adv-x="603" 
d="M562 73l6 -75q-30 -6 -58 -6q-90 0 -95 86h-2q-19 -39 -56.5 -65t-82.5 -26q-74 0 -97 40h-2v-267h-94v714h94v-262q0 -146 108 -146q57 0 92 43t35 113v252h94v-369q0 -35 32 -35q12 0 26 3z" />
    <glyph glyph-name="paragraph" unicode="&#xb6;" horiz-adv-x="600" 
d="M523 708v-834h-78v771h-115v-771h-79v453q-93 0 -152.5 52.5t-59.5 131.5q0 97 61.5 147t169.5 50h253z" />
    <glyph glyph-name="periodcentered" unicode="&#xb7;" horiz-adv-x="260" 
d="M198 303q0 -27 -19.5 -46.5t-47.5 -19.5t-48 19.5t-20 45.5q0 27 19.5 47t48.5 20q28 0 47.5 -19.5t19.5 -46.5z" />
    <glyph glyph-name="cedilla" unicode="&#xb8;" 
d="M167 0l-46 -69q9 2 27 2q39 0 66.5 -18.5t27.5 -59.5q0 -48 -38 -69t-89 -21q-57 0 -103 23l20 42q37 -17 77 -17q22 0 41.5 9.5t19.5 32.5q0 38 -54 38q-18 0 -41 -7l-20 20l62 94h50z" />
    <glyph glyph-name="onesuperior" unicode="&#xb9;" horiz-adv-x="385" 
d="M247 876v-426h-78v332l-68 -59l-46 51l125 102h67z" />
    <glyph glyph-name="ordmasculine" unicode="&#xba;" horiz-adv-x="380" 
d="M342 574q0 -64 -43 -106t-109 -42t-109 42t-43 106q0 65 43 106.5t109 41.5t109 -41.5t43 -106.5zM267 574q0 35 -20.5 58.5t-56.5 23.5t-56 -23.5t-20 -58.5q0 -34 20 -58t56 -24t56.5 24t20.5 58z" />
    <glyph glyph-name="guillemotright" unicode="&#xbb;" horiz-adv-x="500" 
d="M253 419l61 42l146 -217l-146 -218l-62 43l116 175zM50 419l61 42l146 -217l-146 -218l-61 43l115 175z" />
    <glyph glyph-name="onequarter" unicode="&#xbc;" horiz-adv-x="870" 
d="M746 426v-268h59v-67h-59v-91h-71v91h-189v64l177 271h83zM675 332h-3l-109 -174h112v174zM247 708v-426h-78v332l-68 -59l-46 51l125 102h67zM677 708l-450 -743l-58 31l451 743z" />
    <glyph glyph-name="onehalf" unicode="&#xbd;" horiz-adv-x="870" 
d="M247 708v-426h-78v332l-68 -59l-46 51l125 102h67zM811 69v-69h-283v67l164 165q40 42 40 78q0 25 -17 40t-43 15q-27 0 -45 -18.5t-23 -49.5l-74 10q8 55 47.5 90.5t94.5 35.5q58 0 98 -32t40 -91q0 -38 -18 -67t-52 -62l-114 -112h185zM677 708l-450 -743l-58 31
l451 743z" />
    <glyph glyph-name="threequarters" unicode="&#xbe;" horiz-adv-x="870" 
d="M746 426v-268h59v-67h-59v-91h-71v91h-189v64l177 271h83zM675 332h-3l-109 -174h112v174zM677 708l-450 -743l-58 31l451 743zM143 476v62h27q80 0 80 63q0 23 -18 38t-43 15q-46 0 -66 -51l-68 23q18 44 54.5 69t81.5 25q59 0 97 -30t38 -86q0 -32 -17.5 -56.5
t-44.5 -36.5q32 -10 52.5 -37.5t20.5 -63.5q0 -62 -43 -96t-103 -34q-114 0 -151 105l71 22q20 -60 78 -60q30 0 51.5 16.5t21.5 48.5q0 34 -27 49t-65 15h-27z" />
    <glyph glyph-name="questiondown" unicode="&#xbf;" horiz-adv-x="500" 
d="M205 251v35h94v-48q0 -49 -17.5 -81.5t-55.5 -67.5l-37 -35q-51 -44 -51 -99q0 -48 30.5 -76.5t78.5 -28.5t79 31.5t36 78.5l96 -11q-13 -85 -72 -135t-145 -50q-87 0 -145 49t-58 136q0 58 22.5 93t73.5 78q43 37 57 60.5t14 70.5zM180 427q0 27 19.5 46.5t47.5 19.5
t47.5 -19.5t19.5 -45.5q0 -27 -19.5 -46.5t-47.5 -19.5t-47.5 19t-19.5 46z" />
    <glyph glyph-name="Agrave" unicode="&#xc0;" horiz-adv-x="711" 
d="M186 174l-71 -174h-110l307 708h90l304 -708h-112l-72 174h-336zM354 593l-133 -332h265zM320 764l-137 144h114l100 -144h-77z" />
    <glyph glyph-name="Aacute" unicode="&#xc1;" horiz-adv-x="711" 
d="M186 174l-71 -174h-110l307 708h90l304 -708h-112l-72 174h-336zM354 593l-133 -332h265zM535 908l-137 -144h-76l99 144h114z" />
    <glyph glyph-name="Acircumflex" unicode="&#xc2;" horiz-adv-x="711" 
d="M186 174l-71 -174h-110l307 708h90l304 -708h-112l-72 174h-336zM354 593l-133 -332h265zM413 908l112 -144h-91l-75 99l-76 -99h-90l112 144h108z" />
    <glyph glyph-name="Atilde" unicode="&#xc3;" horiz-adv-x="711" 
d="M186 174l-71 -174h-110l307 708h90l304 -708h-112l-72 174h-336zM354 593l-133 -332h265zM240 772h-55q20 116 102 116q33 0 75 -20q48 -22 67 -22q34 0 48 46h54q-20 -116 -102 -116q-31 0 -77 21q-42 21 -65 21q-35 0 -47 -46z" />
    <glyph glyph-name="Adieresis" unicode="&#xc4;" horiz-adv-x="711" 
d="M186 174l-71 -174h-110l307 708h90l304 -708h-112l-72 174h-336zM354 593l-133 -332h265zM198 845q0 25 18 43t44 18t44 -17.5t18 -43.5q0 -25 -18 -42.5t-44 -17.5t-44 18t-18 42zM392 845q0 25 18 43t44 18t44 -17.5t18 -43.5q0 -25 -18 -42.5t-44 -17.5t-44 18t-18 42
z" />
    <glyph glyph-name="Aring" unicode="&#xc5;" horiz-adv-x="711" 
d="M186 174l-71 -174h-110l307 708h90l304 -708h-112l-72 174h-336zM354 593l-133 -332h265zM459 853q0 -42 -29.5 -70.5t-71.5 -28.5t-71 28t-29 70t29 70.5t71 28.5t71.5 -28t29.5 -70zM418 853q0 25 -17.5 41.5t-42.5 16.5t-42 -17t-17 -42q0 -24 17 -40.5t42 -16.5
t42.5 16.5t17.5 41.5z" />
    <glyph glyph-name="AE" unicode="&#xc6;" horiz-adv-x="1015" 
d="M623 324v-236h346v-88h-445v192h-283l-121 -192h-118l457 708h495v-87h-331v-212h310v-85h-310zM293 278h231v343h-14z" />
    <glyph glyph-name="Ccedilla" unicode="&#xc7;" horiz-adv-x="708" 
d="M614 164l79 -54q-89 -121 -256 -127l-34 -52q9 2 27 2q39 0 66.5 -18.5t27.5 -59.5q0 -48 -38 -69t-89 -21q-57 0 -103 23l20 42q37 -17 77 -17q22 0 41.5 9.5t19.5 32.5q0 38 -54 38q-18 0 -41 -7l-20 20l51 78q-150 12 -244 114.5t-94 256.5q0 164 107 267.5t270 103.5
q76 0 146 -29t108 -81l-78 -60q-26 37 -74 60t-102 23q-120 0 -194.5 -82t-74.5 -202q0 -122 73 -203.5t193 -81.5q125 0 190 94z" />
    <glyph glyph-name="Egrave" unicode="&#xc8;" horiz-adv-x="601" 
d="M185 324v-236h370v-88h-469v708h454v-87h-355v-212h334v-85h-334zM313 764l-137 144h114l100 -144h-77z" />
    <glyph glyph-name="Eacute" unicode="&#xc9;" horiz-adv-x="601" 
d="M185 324v-236h370v-88h-469v708h454v-87h-355v-212h334v-85h-334zM475 908l-137 -144h-76l99 144h114z" />
    <glyph glyph-name="Ecircumflex" unicode="&#xca;" horiz-adv-x="601" 
d="M185 324v-236h370v-88h-469v708h454v-87h-355v-212h334v-85h-334zM372 908l112 -144h-91l-75 99l-76 -99h-90l112 144h108z" />
    <glyph glyph-name="Edieresis" unicode="&#xcb;" horiz-adv-x="601" 
d="M185 324v-236h370v-88h-469v708h454v-87h-355v-212h334v-85h-334zM158 845q0 25 18 43t44 18t44 -17.5t18 -43.5q0 -25 -18 -42.5t-44 -17.5t-44 18t-18 42zM352 845q0 25 18 43t44 18t44 -17.5t18 -43.5q0 -25 -18 -42.5t-44 -17.5t-44 18t-18 42z" />
    <glyph glyph-name="Igrave" unicode="&#xcc;" horiz-adv-x="271" 
d="M185 708v-708h-99v708h99zM109 764l-137 144h114l100 -144h-77z" />
    <glyph glyph-name="Iacute" unicode="&#xcd;" horiz-adv-x="271" 
d="M185 708v-708h-99v708h99zM298 908l-137 -144h-76l99 144h114z" />
    <glyph glyph-name="Icircumflex" unicode="&#xce;" horiz-adv-x="271" 
d="M185 708v-708h-99v708h99zM188 908l112 -144h-91l-75 99l-76 -99h-90l112 144h108z" />
    <glyph glyph-name="Idieresis" unicode="&#xcf;" horiz-adv-x="271" 
d="M185 708v-708h-99v708h99zM-23 845q0 25 18 43t44 18t44 -17.5t18 -43.5q0 -25 -18 -42.5t-44 -17.5t-44 18t-18 42zM171 845q0 25 18 43t44 18t44 -17.5t18 -43.5q0 -25 -18 -42.5t-44 -17.5t-44 18t-18 42z" />
    <glyph glyph-name="Eth" unicode="&#xd0;" horiz-adv-x="761" 
d="M82 0v335h-69v70h69v303h258q69 0 133.5 -22.5t117 -65t84 -111.5t31.5 -155t-33.5 -155.5t-88.5 -111.5t-120 -64.5t-132 -22.5h-250zM182 335v-245h117q139 0 220 72t81 192q0 121 -77 192.5t-214 71.5h-127v-213h237v-70h-237z" />
    <glyph glyph-name="Ntilde" unicode="&#xd1;" horiz-adv-x="772" 
d="M215 708l370 -566h2v566h99v-708h-125l-374 578h-2v-578h-99v708h129zM266 772h-55q20 116 102 116q33 0 75 -20q48 -22 67 -22q34 0 48 46h54q-20 -116 -102 -116q-31 0 -77 21q-42 21 -65 21q-35 0 -47 -46z" />
    <glyph glyph-name="Ograve" unicode="&#xd2;" horiz-adv-x="849" 
d="M800 355q0 -163 -106.5 -268t-269.5 -105q-162 0 -268 105t-106 268q0 164 105.5 267.5t268.5 103.5t269.5 -103.5t106.5 -267.5zM693 355q0 120 -74 202t-195 82q-119 0 -193 -82t-74 -202q0 -121 74 -202.5t193 -81.5q121 0 195 81.5t74 202.5zM409 764l-137 144h114
l100 -144h-77z" />
    <glyph glyph-name="Oacute" unicode="&#xd3;" horiz-adv-x="849" 
d="M800 355q0 -163 -106.5 -268t-269.5 -105q-162 0 -268 105t-106 268q0 164 105.5 267.5t268.5 103.5t269.5 -103.5t106.5 -267.5zM693 355q0 120 -74 202t-195 82q-119 0 -193 -82t-74 -202q0 -121 74 -202.5t193 -81.5q121 0 195 81.5t74 202.5zM584 908l-137 -144h-76
l99 144h114z" />
    <glyph glyph-name="Ocircumflex" unicode="&#xd4;" horiz-adv-x="849" 
d="M800 355q0 -163 -106.5 -268t-269.5 -105q-162 0 -268 105t-106 268q0 164 105.5 267.5t268.5 103.5t269.5 -103.5t106.5 -267.5zM693 355q0 120 -74 202t-195 82q-119 0 -193 -82t-74 -202q0 -121 74 -202.5t193 -81.5q121 0 195 81.5t74 202.5zM478 908l112 -144h-91
l-75 99l-76 -99h-90l112 144h108z" />
    <glyph glyph-name="Otilde" unicode="&#xd5;" horiz-adv-x="849" 
d="M800 355q0 -163 -106.5 -268t-269.5 -105q-162 0 -268 105t-106 268q0 164 105.5 267.5t268.5 103.5t269.5 -103.5t106.5 -267.5zM693 355q0 120 -74 202t-195 82q-119 0 -193 -82t-74 -202q0 -121 74 -202.5t193 -81.5q121 0 195 81.5t74 202.5zM306 772h-55
q20 116 102 116q33 0 75 -20q48 -22 67 -22q34 0 48 46h54q-20 -116 -102 -116q-31 0 -77 21q-42 21 -65 21q-35 0 -47 -46z" />
    <glyph glyph-name="Odieresis" unicode="&#xd6;" horiz-adv-x="849" 
d="M800 355q0 -163 -106.5 -268t-269.5 -105q-162 0 -268 105t-106 268q0 164 105.5 267.5t268.5 103.5t269.5 -103.5t106.5 -267.5zM693 355q0 120 -74 202t-195 82q-119 0 -193 -82t-74 -202q0 -121 74 -202.5t193 -81.5q121 0 195 81.5t74 202.5zM265 845q0 25 18 43
t44 18t44 -17.5t18 -43.5q0 -25 -18 -42.5t-44 -17.5t-44 18t-18 42zM459 845q0 25 18 43t44 18t44 -17.5t18 -43.5q0 -25 -18 -42.5t-44 -17.5t-44 18t-18 42z" />
    <glyph glyph-name="multiply" unicode="&#xd7;" horiz-adv-x="666" 
d="M162 531l171 -171l170 171l57 -56l-170 -171l172 -173l-59 -58l-171 170l-170 -170l-58 58l172 170l-171 174z" />
    <glyph glyph-name="Oslash" unicode="&#xd8;" horiz-adv-x="849" 
d="M778 703l-79 -86q101 -103 101 -262q0 -162 -106.5 -266.5t-269.5 -106.5q-140 0 -238 79l-81 -87l-43 39l81 88q-93 99 -93 254q0 164 105.5 267.5t268.5 103.5q134 0 230 -71l81 87zM211 174l381 411q-64 55 -168 55q-122 0 -196 -82t-74 -203q0 -109 57 -181zM634 544
l-383 -414q69 -61 173 -61q122 0 197 82t75 204q0 113 -62 189z" />
    <glyph glyph-name="Ugrave" unicode="&#xd9;" horiz-adv-x="712" 
d="M356 -18q-133 0 -204 81.5t-71 198.5v446h99v-440q0 -83 42.5 -140t133.5 -57t133.5 57t42.5 140v440h99v-446q0 -117 -71 -198.5t-204 -81.5zM323 764l-137 144h114l100 -144h-77z" />
    <glyph glyph-name="Uacute" unicode="&#xda;" horiz-adv-x="712" 
d="M356 -18q-133 0 -204 81.5t-71 198.5v446h99v-440q0 -83 42.5 -140t133.5 -57t133.5 57t42.5 140v440h99v-446q0 -117 -71 -198.5t-204 -81.5zM508 908l-137 -144h-76l99 144h114z" />
    <glyph glyph-name="Ucircumflex" unicode="&#xdb;" horiz-adv-x="712" 
d="M356 -18q-133 0 -204 81.5t-71 198.5v446h99v-440q0 -83 42.5 -140t133.5 -57t133.5 57t42.5 140v440h99v-446q0 -117 -71 -198.5t-204 -81.5zM408 908l112 -144h-91l-75 99l-76 -99h-90l112 144h108z" />
    <glyph glyph-name="Udieresis" unicode="&#xdc;" horiz-adv-x="712" 
d="M356 -18q-133 0 -204 81.5t-71 198.5v446h99v-440q0 -83 42.5 -140t133.5 -57t133.5 57t42.5 140v440h99v-446q0 -117 -71 -198.5t-204 -81.5zM197 845q0 25 18 43t44 18t44 -17.5t18 -43.5q0 -25 -18 -42.5t-44 -17.5t-44 18t-18 42zM391 845q0 25 18 43t44 18t44 -17.5
t18 -43.5q0 -25 -18 -42.5t-44 -17.5t-44 18t-18 42z" />
    <glyph glyph-name="Yacute" unicode="&#xdd;" horiz-adv-x="624" 
d="M362 306v-306h-100v306l-265 402h122l196 -320l197 320h115zM482 908l-137 -144h-76l99 144h114z" />
    <glyph glyph-name="Thorn" unicode="&#xde;" horiz-adv-x="595" 
d="M86 0v708h99v-146h117q118 0 185.5 -50t67.5 -147q0 -103 -70 -151.5t-188 -48.5h-112v-165h-99zM185 477v-227h102q165 0 165 114q0 113 -163 113h-104z" />
    <glyph glyph-name="germandbls" unicode="&#xdf;" horiz-adv-x="612" 
d="M174 521v-521h-94v525q0 48 12 89.5t37.5 77t71 56t106.5 20.5q87 0 145 -52t58 -134q0 -55 -29.5 -96t-81.5 -58v-2q76 -11 121.5 -66.5t45.5 -137.5q0 -105 -66 -169.5t-177 -64.5q-34 0 -71 8v79q26 -7 59 -7q72 0 115 42.5t43 115.5q0 76 -47.5 115.5t-125.5 39.5
h-11v82h11q54 0 87 28.5t33 81.5q0 49 -31 80.5t-82 31.5q-38 0 -64.5 -15t-40 -41t-19 -52t-5.5 -56z" />
    <glyph glyph-name="agrave" unicode="&#xe0;" horiz-adv-x="542" 
d="M376 294v13q0 51 -31.5 77.5t-85.5 26.5q-80 0 -135 -55l-50 60q74 71 194 71q98 0 148 -51.5t50 -134.5v-207q0 -62 7 -94h-85q-8 34 -8 68h-3q-53 -80 -159 -80q-30 0 -59 8t-55 24t-42 45.5t-16 68.5q0 41 19.5 71.5t49.5 47t76.5 26t88 12.5t96.5 3zM376 226h-23
q-211 0 -211 -90q0 -39 28 -56.5t69 -17.5q64 0 100.5 38.5t36.5 100.5v25zM256 564l-136 144h113l100 -144h-77z" />
    <glyph glyph-name="aacute" unicode="&#xe1;" horiz-adv-x="542" 
d="M376 294v13q0 51 -31.5 77.5t-85.5 26.5q-80 0 -135 -55l-50 60q74 71 194 71q98 0 148 -51.5t50 -134.5v-207q0 -62 7 -94h-85q-8 34 -8 68h-3q-53 -80 -159 -80q-30 0 -59 8t-55 24t-42 45.5t-16 68.5q0 41 19.5 71.5t49.5 47t76.5 26t88 12.5t96.5 3zM376 226h-23
q-211 0 -211 -90q0 -39 28 -56.5t69 -17.5q64 0 100.5 38.5t36.5 100.5v25zM440 708l-136 -144h-77l100 144h113z" />
    <glyph glyph-name="acircumflex" unicode="&#xe2;" horiz-adv-x="542" 
d="M376 294v13q0 51 -31.5 77.5t-85.5 26.5q-80 0 -135 -55l-50 60q74 71 194 71q98 0 148 -51.5t50 -134.5v-207q0 -62 7 -94h-85q-8 34 -8 68h-3q-53 -80 -159 -80q-30 0 -59 8t-55 24t-42 45.5t-16 68.5q0 41 19.5 71.5t49.5 47t76.5 26t88 12.5t96.5 3zM376 226h-23
q-211 0 -211 -90q0 -39 28 -56.5t69 -17.5q64 0 100.5 38.5t36.5 100.5v25zM322 708l112 -144h-91l-75 99l-76 -99h-90l112 144h108z" />
    <glyph glyph-name="atilde" unicode="&#xe3;" horiz-adv-x="542" 
d="M376 294v13q0 51 -31.5 77.5t-85.5 26.5q-80 0 -135 -55l-50 60q74 71 194 71q98 0 148 -51.5t50 -134.5v-207q0 -62 7 -94h-85q-8 34 -8 68h-3q-53 -80 -159 -80q-30 0 -59 8t-55 24t-42 45.5t-16 68.5q0 41 19.5 71.5t49.5 47t76.5 26t88 12.5t96.5 3zM376 226h-23
q-211 0 -211 -90q0 -39 28 -56.5t69 -17.5q64 0 100.5 38.5t36.5 100.5v25zM150 572h-55q20 116 102 116q33 0 75 -20q48 -22 67 -22q34 0 48 46h54q-20 -116 -102 -116q-31 0 -77 21q-42 21 -65 21q-35 0 -47 -46z" />
    <glyph glyph-name="adieresis" unicode="&#xe4;" horiz-adv-x="542" 
d="M376 294v13q0 51 -31.5 77.5t-85.5 26.5q-80 0 -135 -55l-50 60q74 71 194 71q98 0 148 -51.5t50 -134.5v-207q0 -62 7 -94h-85q-8 34 -8 68h-3q-53 -80 -159 -80q-30 0 -59 8t-55 24t-42 45.5t-16 68.5q0 41 19.5 71.5t49.5 47t76.5 26t88 12.5t96.5 3zM376 226h-23
q-211 0 -211 -90q0 -39 28 -56.5t69 -17.5q64 0 100.5 38.5t36.5 100.5v25zM110 645q0 25 18 43t44 18t44 -17.5t18 -43.5q0 -25 -18 -42.5t-44 -17.5t-44 18t-18 42zM304 645q0 25 18 43t44 18t44 -17.5t18 -43.5q0 -25 -18 -42.5t-44 -17.5t-44 18t-18 42z" />
    <glyph glyph-name="aring" unicode="&#xe5;" horiz-adv-x="542" 
d="M376 294v13q0 51 -31.5 77.5t-85.5 26.5q-80 0 -135 -55l-50 60q74 71 194 71q98 0 148 -51.5t50 -134.5v-207q0 -62 7 -94h-85q-8 34 -8 68h-3q-53 -80 -159 -80q-30 0 -59 8t-55 24t-42 45.5t-16 68.5q0 41 19.5 71.5t49.5 47t76.5 26t88 12.5t96.5 3zM376 226h-23
q-211 0 -211 -90q0 -39 28 -56.5t69 -17.5q64 0 100.5 38.5t36.5 100.5v25zM369 653q0 -42 -29.5 -70.5t-71.5 -28.5t-71 28t-29 70t29 70.5t71 28.5t71.5 -28t29.5 -70zM327 653q0 24 -17.5 40t-41.5 16t-41 -16t-17 -40t17 -40.5t41 -16.5t41.5 16.5t17.5 40.5z" />
    <glyph glyph-name="ae" unicode="&#xe6;" horiz-adv-x="877" 
d="M374 209h-24q-49 0 -82.5 -2.5t-64.5 -10t-46 -23.5t-15 -40q0 -72 98 -72q65 0 99.5 33t34.5 90v25zM462 279h272q0 58 -34 96t-94 38q-57 0 -99 -39t-45 -95zM419 85q-52 -97 -201 -97q-68 0 -120 31.5t-52 101.5q0 41 16.5 70t42.5 46t71 26.5t90 12.5t110 3v11
q0 121 -117 121q-80 0 -135 -55l-50 60q74 71 194 71q128 0 166 -88q63 88 173 88q102 0 161.5 -66.5t59.5 -179.5q0 -21 -1 -32h-364q2 -61 45.5 -102.5t103.5 -41.5q85 0 134 72l63 -53q-72 -97 -197 -97q-63 0 -114 26t-79 72z" />
    <glyph glyph-name="ccedilla" unicode="&#xe7;" horiz-adv-x="494" 
d="M481 409l-68 -55q-15 24 -45.5 39t-63.5 15q-71 0 -113 -50t-42 -121t42.5 -121t113.5 -50q73 0 114 52l63 -57q-60 -70 -165 -74l-37 -56q9 2 27 2q39 0 66.5 -18.5t27.5 -59.5q0 -48 -38 -69t-89 -21q-57 0 -103 23l20 42q37 -17 77 -17q22 0 41.5 9.5t19.5 32.5
q0 38 -54 38q-18 0 -41 -7l-20 20l55 83q-97 11 -158 78.5t-61 169.5q0 111 71.5 180.5t181.5 69.5q52 0 101 -20.5t77 -57.5z" />
    <glyph glyph-name="egrave" unicode="&#xe8;" horiz-adv-x="573" 
d="M146 279h282q-2 59 -36 96.5t-97 37.5q-60 0 -102 -39t-47 -95zM523 241q0 -21 -1 -32h-376q2 -61 47 -102.5t107 -41.5q89 0 138 72l66 -53q-75 -97 -204 -97q-109 0 -179.5 69t-70.5 180q0 110 70 180.5t175 70.5t166.5 -66.5t61.5 -179.5zM270 564l-136 144h113
l100 -144h-77z" />
    <glyph glyph-name="eacute" unicode="&#xe9;" horiz-adv-x="573" 
d="M146 279h282q-2 59 -36 96.5t-97 37.5q-60 0 -102 -39t-47 -95zM523 241q0 -21 -1 -32h-376q2 -61 47 -102.5t107 -41.5q89 0 138 72l66 -53q-75 -97 -204 -97q-109 0 -179.5 69t-70.5 180q0 110 70 180.5t175 70.5t166.5 -66.5t61.5 -179.5zM458 708l-136 -144h-77
l100 144h113z" />
    <glyph glyph-name="ecircumflex" unicode="&#xea;" horiz-adv-x="573" 
d="M146 279h282q-2 59 -36 96.5t-97 37.5q-60 0 -102 -39t-47 -95zM523 241q0 -21 -1 -32h-376q2 -61 47 -102.5t107 -41.5q89 0 138 72l66 -53q-75 -97 -204 -97q-109 0 -179.5 69t-70.5 180q0 110 70 180.5t175 70.5t166.5 -66.5t61.5 -179.5zM355 708l112 -144h-91
l-75 99l-76 -99h-90l112 144h108z" />
    <glyph glyph-name="edieresis" unicode="&#xeb;" horiz-adv-x="573" 
d="M146 279h282q-2 59 -36 96.5t-97 37.5q-60 0 -102 -39t-47 -95zM523 241q0 -21 -1 -32h-376q2 -61 47 -102.5t107 -41.5q89 0 138 72l66 -53q-75 -97 -204 -97q-109 0 -179.5 69t-70.5 180q0 110 70 180.5t175 70.5t166.5 -66.5t61.5 -179.5zM141 645q0 25 18 43t44 18
t44 -17.5t18 -43.5q0 -25 -18 -42.5t-44 -17.5t-44 18t-18 42zM335 645q0 25 18 43t44 18t44 -17.5t18 -43.5q0 -25 -18 -42.5t-44 -17.5t-44 18t-18 42z" />
    <glyph glyph-name="igrave" unicode="&#xec;" horiz-adv-x="259" 
d="M176 474v-474h-94v474h94zM100 564l-136 144h113l100 -144h-77z" />
    <glyph glyph-name="iacute" unicode="&#xed;" horiz-adv-x="259" 
d="M176 474v-474h-94v474h94zM295 708l-136 -144h-77l100 144h113z" />
    <glyph glyph-name="icircumflex" unicode="&#xee;" horiz-adv-x="259" 
d="M176 474v-474h-94v474h94zM184 708l112 -144h-91l-75 99l-76 -99h-90l112 144h108z" />
    <glyph glyph-name="idieresis" unicode="&#xef;" horiz-adv-x="259" 
d="M176 474v-474h-94v474h94zM-29 645q0 25 18 43t44 18t44 -17.5t18 -43.5q0 -25 -18 -42.5t-44 -17.5t-44 18t-18 42zM165 645q0 25 18 43t44 18t44 -17.5t18 -43.5q0 -25 -18 -42.5t-44 -17.5t-44 18t-18 42z" />
    <glyph glyph-name="eth" unicode="&#xf0;" horiz-adv-x="610" 
d="M481 713l-110 -54q83 -84 134 -186t51 -211q0 -116 -65 -195.5t-190 -79.5q-111 0 -183 70.5t-72 179.5t72 179.5t179 70.5q75 0 130 -49l2 2q-59 111 -141 180l-110 -53l-48 47l110 53q-26 25 -89 70l77 47q59 -45 93 -78l108 53zM142 237q0 -71 43 -120.5t116 -49.5
t115.5 49.5t42.5 120.5t-42.5 120.5t-115.5 49.5t-116 -49.5t-43 -120.5z" />
    <glyph glyph-name="ntilde" unicode="&#xf1;" horiz-adv-x="582" 
d="M77 474h89q4 -48 4 -78h3q18 39 61 65t93 26q87 0 132 -54t45 -139v-294h-94v263q0 145 -108 145q-56 0 -91.5 -43t-35.5 -113v-252h-94v372q0 61 -4 102zM176 572h-55q20 116 102 116q33 0 75 -20q48 -22 67 -22q34 0 48 46h54q-20 -116 -102 -116q-31 0 -77 21
q-42 21 -65 21q-35 0 -47 -46z" />
    <glyph glyph-name="ograve" unicode="&#xf2;" horiz-adv-x="610" 
d="M561 238q0 -109 -73.5 -180t-182.5 -71t-182 71t-73 180t72.5 179t182.5 70t183 -70t73 -179zM463 238q0 71 -42.5 121t-115.5 50t-115.5 -50t-42.5 -121t42.5 -121.5t115.5 -50.5t115.5 50.5t42.5 121.5zM283 564l-136 144h113l100 -144h-77z" />
    <glyph glyph-name="oacute" unicode="&#xf3;" horiz-adv-x="610" 
d="M561 238q0 -109 -73.5 -180t-182.5 -71t-182 71t-73 180t72.5 179t182.5 70t183 -70t73 -179zM463 238q0 71 -42.5 121t-115.5 50t-115.5 -50t-42.5 -121t42.5 -121.5t115.5 -50.5t115.5 50.5t42.5 121.5zM461 708l-136 -144h-77l100 144h113z" />
    <glyph glyph-name="ocircumflex" unicode="&#xf4;" horiz-adv-x="610" 
d="M561 238q0 -109 -73.5 -180t-182.5 -71t-182 71t-73 180t72.5 179t182.5 70t183 -70t73 -179zM463 238q0 71 -42.5 121t-115.5 50t-115.5 -50t-42.5 -121t42.5 -121.5t115.5 -50.5t115.5 50.5t42.5 121.5zM360 708l112 -144h-91l-75 99l-76 -99h-90l112 144h108z" />
    <glyph glyph-name="otilde" unicode="&#xf5;" horiz-adv-x="610" 
d="M561 238q0 -109 -73.5 -180t-182.5 -71t-182 71t-73 180t72.5 179t182.5 70t183 -70t73 -179zM463 238q0 71 -42.5 121t-115.5 50t-115.5 -50t-42.5 -121t42.5 -121.5t115.5 -50.5t115.5 50.5t42.5 121.5zM188 572h-55q20 116 102 116q33 0 75 -20q48 -22 67 -22
q34 0 48 46h54q-20 -116 -102 -116q-31 0 -77 21q-42 21 -65 21q-35 0 -47 -46z" />
    <glyph glyph-name="odieresis" unicode="&#xf6;" horiz-adv-x="610" 
d="M561 238q0 -109 -73.5 -180t-182.5 -71t-182 71t-73 180t72.5 179t182.5 70t183 -70t73 -179zM463 238q0 71 -42.5 121t-115.5 50t-115.5 -50t-42.5 -121t42.5 -121.5t115.5 -50.5t115.5 50.5t42.5 121.5zM147 645q0 25 18 43t44 18t44 -17.5t18 -43.5q0 -25 -18 -42.5
t-44 -17.5t-44 18t-18 42zM341 645q0 25 18 43t44 18t44 -17.5t18 -43.5q0 -25 -18 -42.5t-44 -17.5t-44 18t-18 42z" />
    <glyph glyph-name="divide" unicode="&#xf7;" horiz-adv-x="666" 
d="M596 344v-82h-526v82h526zM398 132q0 -27 -19 -46t-46 -19t-46 19t-19 46q0 26 19 45.5t46 19.5t46 -19.5t19 -45.5zM398 469q0 -27 -19 -46t-46 -19t-46 19t-19 46q0 26 19 45.5t46 19.5t46 -19.5t19 -45.5z" />
    <glyph glyph-name="oslash" unicode="&#xf8;" horiz-adv-x="610" 
d="M568 471l-67 -70q60 -68 60 -164q0 -109 -73 -179.5t-183 -70.5q-92 0 -159 51l-68 -69l-36 36l66 68q-58 67 -58 164q0 109 73 179.5t182 70.5q93 0 158 -51l68 70zM172 136l234 241q-38 35 -101 35q-74 0 -117.5 -51.5t-43.5 -123.5q0 -64 28 -101zM438 338l-235 -240
q41 -35 101 -35q76 0 119.5 51.5t43.5 123.5q0 62 -29 100z" />
    <glyph glyph-name="ugrave" unicode="&#xf9;" horiz-adv-x="582" 
d="M504 0h-89q-4 48 -4 78h-2q-19 -39 -62 -65t-93 -26q-87 0 -132 54t-45 139v294h94v-262q0 -146 108 -146q57 0 92 43t35 113v252h94v-372q0 -61 4 -102zM267 564l-136 144h113l100 -144h-77z" />
    <glyph glyph-name="uacute" unicode="&#xfa;" horiz-adv-x="582" 
d="M504 0h-89q-4 48 -4 78h-2q-19 -39 -62 -65t-93 -26q-87 0 -132 54t-45 139v294h94v-262q0 -146 108 -146q57 0 92 43t35 113v252h94v-372q0 -61 4 -102zM452 708l-136 -144h-77l100 144h113z" />
    <glyph glyph-name="ucircumflex" unicode="&#xfb;" horiz-adv-x="582" 
d="M504 0h-89q-4 48 -4 78h-2q-19 -39 -62 -65t-93 -26q-87 0 -132 54t-45 139v294h94v-262q0 -146 108 -146q57 0 92 43t35 113v252h94v-372q0 -61 4 -102zM345 708l112 -144h-91l-75 99l-76 -99h-90l112 144h108z" />
    <glyph glyph-name="udieresis" unicode="&#xfc;" horiz-adv-x="582" 
d="M504 0h-89q-4 48 -4 78h-2q-19 -39 -62 -65t-93 -26q-87 0 -132 54t-45 139v294h94v-262q0 -146 108 -146q57 0 92 43t35 113v252h94v-372q0 -61 4 -102zM131 645q0 25 18 43t44 18t44 -17.5t18 -43.5q0 -25 -18 -42.5t-44 -17.5t-44 18t-18 42zM325 645q0 25 18 43
t44 18t44 -17.5t18 -43.5q0 -25 -18 -42.5t-44 -17.5t-44 18t-18 42z" />
    <glyph glyph-name="yacute" unicode="&#xfd;" horiz-adv-x="504" 
d="M114 474l147 -372h2l131 372h100l-230 -586q-25 -65 -61.5 -96.5t-102.5 -31.5q-33 0 -62 7l9 83q24 -8 47 -8q34 0 53 18.5t35 60.5l30 79l-203 474h105zM422 708l-136 -144h-77l100 144h113z" />
    <glyph glyph-name="thorn" unicode="&#xfe;" horiz-adv-x="636" 
d="M175 71v-311h-93v996h93v-356h3q23 39 67.5 63t101.5 24q104 0 170.5 -71.5t66.5 -177.5q0 -107 -66 -179t-173 -72q-51 0 -96 22.5t-71 61.5h-3zM487 238q0 71 -42 121t-116 50q-70 0 -115 -51t-45 -121t45 -120.5t115 -50.5q74 0 116 50.5t42 121.5z" />
    <glyph glyph-name="ydieresis" unicode="&#xff;" horiz-adv-x="504" 
d="M114 474l147 -372h2l131 372h100l-230 -586q-25 -65 -61.5 -96.5t-102.5 -31.5q-33 0 -62 7l9 83q24 -8 47 -8q34 0 53 18.5t35 60.5l30 79l-203 474h105zM101 645q0 25 18 43t44 18t44 -17.5t18 -43.5q0 -25 -18 -42.5t-44 -17.5t-44 18t-18 42zM295 645q0 25 18 43
t44 18t44 -17.5t18 -43.5q0 -25 -18 -42.5t-44 -17.5t-44 18t-18 42z" />
    <glyph glyph-name="Amacron" unicode="&#x100;" horiz-adv-x="711" 
d="M186 174l-71 -174h-110l307 708h90l304 -708h-112l-72 174h-336zM354 593l-133 -332h265zM502 864v-67h-296v67h296z" />
    <glyph glyph-name="amacron" unicode="&#x101;" horiz-adv-x="542" 
d="M376 294v13q0 51 -31.5 77.5t-85.5 26.5q-80 0 -135 -55l-50 60q74 71 194 71q98 0 148 -51.5t50 -134.5v-207q0 -62 7 -94h-85q-8 34 -8 68h-3q-53 -80 -159 -80q-30 0 -59 8t-55 24t-42 45.5t-16 68.5q0 41 19.5 71.5t49.5 47t76.5 26t88 12.5t96.5 3zM376 226h-23
q-211 0 -211 -90q0 -39 28 -56.5t69 -17.5q64 0 100.5 38.5t36.5 100.5v25zM418 664v-67h-296v67h296z" />
    <glyph glyph-name="Abreve" unicode="&#x102;" horiz-adv-x="711" 
d="M186 174l-71 -174h-110l307 708h90l304 -708h-112l-72 174h-336zM354 593l-133 -332h265zM458 908h55q-6 -67 -48.5 -102.5t-110.5 -35.5q-69 0 -112 35.5t-47 102.5h56q6 -36 34.5 -54t68.5 -18q88 0 104 72z" />
    <glyph glyph-name="abreve" unicode="&#x103;" horiz-adv-x="542" 
d="M376 294v13q0 51 -31.5 77.5t-85.5 26.5q-80 0 -135 -55l-50 60q74 71 194 71q98 0 148 -51.5t50 -134.5v-207q0 -62 7 -94h-85q-8 34 -8 68h-3q-53 -80 -159 -80q-30 0 -59 8t-55 24t-42 45.5t-16 68.5q0 41 19.5 71.5t49.5 47t76.5 26t88 12.5t96.5 3zM376 226h-23
q-211 0 -211 -90q0 -39 28 -56.5t69 -17.5q64 0 100.5 38.5t36.5 100.5v25zM373 708h55q-6 -67 -48.5 -102.5t-110.5 -35.5q-69 0 -112 35.5t-47 102.5h56q6 -36 34.5 -54t68.5 -18q88 0 104 72z" />
    <glyph glyph-name="Aogonek" unicode="&#x104;" horiz-adv-x="711" 
d="M671 -144l22 -45q-44 -37 -95 -37q-39 0 -68 24t-29 63q0 71 91 142l-70 171h-336l-71 -174h-110l307 708h90l304 -708h-63q-73 -71 -73 -119q0 -19 14 -33t34 -14q29 0 53 22zM354 593l-133 -332h265z" />
    <glyph glyph-name="aogonek" unicode="&#x105;" horiz-adv-x="542" 
d="M465 -144l22 -45q-44 -37 -95 -37q-39 0 -68 24t-29 63q0 72 92 142q-7 28 -7 65h-3q-53 -80 -159 -80q-30 0 -59 8t-55 24t-42 45.5t-16 68.5q0 41 19.5 71.5t49.5 47t76.5 26t88 12.5t96.5 3v13q0 51 -31.5 77.5t-85.5 26.5q-80 0 -135 -55l-50 60q74 71 194 71
q98 0 148 -51.5t50 -134.5v-207q0 -62 7 -94h-36q-73 -71 -73 -119q0 -19 14 -33t34 -14q29 0 53 22zM376 226h-23q-211 0 -211 -90q0 -39 28 -56.5t69 -17.5q64 0 100.5 38.5t36.5 100.5v25z" />
    <glyph glyph-name="Cacute" unicode="&#x106;" horiz-adv-x="708" 
d="M614 164l79 -54q-94 -128 -270 -128q-163 0 -268 105t-105 268q0 164 107 267.5t270 103.5q76 0 146 -29t108 -81l-78 -60q-26 37 -74 60t-102 23q-120 0 -194.5 -82t-74.5 -202q0 -122 73 -203.5t193 -81.5q125 0 190 94zM568 908l-137 -144h-76l99 144h114z" />
    <glyph glyph-name="cacute" unicode="&#x107;" horiz-adv-x="494" 
d="M481 409l-68 -55q-15 24 -45.5 39t-63.5 15q-71 0 -113 -50t-42 -121t42.5 -121t113.5 -50q73 0 114 52l63 -57q-64 -74 -177 -74q-111 0 -183 69t-72 181q0 111 71.5 180.5t181.5 69.5q52 0 101 -20.5t77 -57.5zM456 708l-136 -144h-77l100 144h113z" />
    <glyph glyph-name="Ccircumflex" unicode="&#x108;" horiz-adv-x="708" 
d="M614 164l79 -54q-94 -128 -270 -128q-163 0 -268 105t-105 268q0 164 107 267.5t270 103.5q76 0 146 -29t108 -81l-78 -60q-26 37 -74 60t-102 23q-120 0 -194.5 -82t-74.5 -202q0 -122 73 -203.5t193 -81.5q125 0 190 94zM477 908l112 -144h-91l-75 99l-76 -99h-90
l112 144h108z" />
    <glyph glyph-name="ccircumflex" unicode="&#x109;" horiz-adv-x="494" 
d="M481 409l-68 -55q-15 24 -45.5 39t-63.5 15q-71 0 -113 -50t-42 -121t42.5 -121t113.5 -50q73 0 114 52l63 -57q-64 -74 -177 -74q-111 0 -183 69t-72 181q0 111 71.5 180.5t181.5 69.5q52 0 101 -20.5t77 -57.5zM357 708l112 -144h-91l-75 99l-76 -99h-90l112 144h108z
" />
    <glyph glyph-name="Cdotaccent" unicode="&#x10a;" horiz-adv-x="708" 
d="M614 164l79 -54q-94 -128 -270 -128q-163 0 -268 105t-105 268q0 164 107 267.5t270 103.5q76 0 146 -29t108 -81l-78 -60q-26 37 -74 60t-102 23q-120 0 -194.5 -82t-74.5 -202q0 -122 73 -203.5t193 -81.5q125 0 190 94zM486 845q0 -25 -18.5 -42.5t-44.5 -17.5
t-44 17.5t-18 42.5t18 43t44 18t44.5 -17.5t18.5 -43.5z" />
    <glyph glyph-name="cdotaccent" unicode="&#x10b;" horiz-adv-x="494" 
d="M481 409l-68 -55q-15 24 -45.5 39t-63.5 15q-71 0 -113 -50t-42 -121t42.5 -121t113.5 -50q73 0 114 52l63 -57q-64 -74 -177 -74q-111 0 -183 69t-72 181q0 111 71.5 180.5t181.5 69.5q52 0 101 -20.5t77 -57.5zM363 645q0 -25 -18.5 -42.5t-44.5 -17.5t-44 17.5
t-18 42.5t18 43t44 18t44.5 -17.5t18.5 -43.5z" />
    <glyph glyph-name="Ccaron" unicode="&#x10c;" horiz-adv-x="708" 
d="M614 164l79 -54q-94 -128 -270 -128q-163 0 -268 105t-105 268q0 164 107 267.5t270 103.5q76 0 146 -29t108 -81l-78 -60q-26 37 -74 60t-102 23q-120 0 -194.5 -82t-74.5 -202q0 -122 73 -203.5t193 -81.5q125 0 190 94zM588 908l-112 -144h-107l-111 144h90l76 -99
l76 99h88z" />
    <glyph glyph-name="ccaron" unicode="&#x10d;" horiz-adv-x="494" 
d="M481 409l-68 -55q-15 24 -45.5 39t-63.5 15q-71 0 -113 -50t-42 -121t42.5 -121t113.5 -50q73 0 114 52l63 -57q-64 -74 -177 -74q-111 0 -183 69t-72 181q0 111 71.5 180.5t181.5 69.5q52 0 101 -20.5t77 -57.5zM469 708l-112 -144h-107l-111 144h90l76 -99l76 99h88z
" />
    <glyph glyph-name="Dcaron" unicode="&#x10e;" horiz-adv-x="761" 
d="M86 0v708h243q71 0 136.5 -20.5t121.5 -61.5t90 -111.5t34 -160.5q0 -87 -34 -157t-89.5 -111.5t-122 -63.5t-136.5 -22h-243zM185 622v-535h124q131 0 213.5 71.5t82.5 195.5q0 128 -82 198t-214 70h-124zM509 908l-112 -144h-107l-111 144h90l76 -99l76 99h88z" />
    <glyph glyph-name="dcaron" unicode="&#x10f;" horiz-adv-x="697" 
d="M459 75q-26 -42 -72.5 -65t-98.5 -23q-107 0 -173 72t-66 179t66.5 178t171.5 71q55 0 98.5 -23.5t70.5 -60.5h2v353h94v-756h-91v75h-2zM147 238q0 -71 41.5 -121.5t115.5 -50.5q70 0 115 50.5t45 120.5t-45 121t-115 51q-74 0 -115.5 -50t-41.5 -121zM743 708l-78 -190
h-79l64 190h93z" />
    <glyph glyph-name="Dcroat" unicode="&#x110;" horiz-adv-x="761" 
d="M82 0v335h-69v70h69v303h258q69 0 133.5 -22.5t117 -65t84 -111.5t31.5 -155t-33.5 -155.5t-88.5 -111.5t-120 -64.5t-132 -22.5h-250zM182 335v-245h117q139 0 220 72t81 192q0 121 -77 192.5t-214 71.5h-127v-213h237v-70h-237z" />
    <glyph glyph-name="dcroat" unicode="&#x111;" horiz-adv-x="635" 
d="M295 633h163v123h94v-123h56v-63h-56v-570h-91v75h-2q-26 -42 -72.5 -65t-98.5 -23q-107 0 -173 72t-66 179t66.5 178t171.5 71q55 0 98.5 -23.5t70.5 -60.5h2v167h-163v63zM147 238q0 -71 41.5 -121.5t115.5 -50.5q70 0 115 50.5t45 120.5t-45 121t-115 51
q-74 0 -115.5 -50t-41.5 -121z" />
    <glyph glyph-name="Emacron" unicode="&#x112;" horiz-adv-x="601" 
d="M185 324v-236h370v-88h-469v708h454v-87h-355v-212h334v-85h-334zM462 864v-67h-296v67h296z" />
    <glyph glyph-name="emacron" unicode="&#x113;" horiz-adv-x="573" 
d="M146 279h282q-2 59 -36 96.5t-97 37.5q-60 0 -102 -39t-47 -95zM523 241q0 -21 -1 -32h-376q2 -61 47 -102.5t107 -41.5q89 0 138 72l66 -53q-75 -97 -204 -97q-109 0 -179.5 69t-70.5 180q0 110 70 180.5t175 70.5t166.5 -66.5t61.5 -179.5zM444 664v-67h-296v67h296z
" />
    <glyph glyph-name="Ebreve" unicode="&#x114;" horiz-adv-x="601" 
d="M185 324v-236h370v-88h-469v708h454v-87h-355v-212h334v-85h-334zM421 908h55q-6 -67 -48.5 -102.5t-110.5 -35.5q-69 0 -112 35.5t-47 102.5h56q6 -36 34.5 -54t68.5 -18q88 0 104 72z" />
    <glyph glyph-name="ebreve" unicode="&#x115;" horiz-adv-x="573" 
d="M146 279h282q-2 59 -36 96.5t-97 37.5q-60 0 -102 -39t-47 -95zM523 241q0 -21 -1 -32h-376q2 -61 47 -102.5t107 -41.5q89 0 138 72l66 -53q-75 -97 -204 -97q-109 0 -179.5 69t-70.5 180q0 110 70 180.5t175 70.5t166.5 -66.5t61.5 -179.5zM403 708h55
q-6 -67 -48.5 -102.5t-110.5 -35.5q-69 0 -112 35.5t-47 102.5h56q6 -36 34.5 -54t68.5 -18q88 0 104 72z" />
    <glyph glyph-name="Edotaccent" unicode="&#x116;" horiz-adv-x="601" 
d="M185 324v-236h370v-88h-469v708h454v-87h-355v-212h334v-85h-334zM377 845q0 -25 -18.5 -42.5t-44.5 -17.5t-44 17.5t-18 42.5t18 43t44 18t44.5 -17.5t18.5 -43.5z" />
    <glyph glyph-name="edotaccent" unicode="&#x117;" horiz-adv-x="573" 
d="M146 279h282q-2 59 -36 96.5t-97 37.5q-60 0 -102 -39t-47 -95zM523 241q0 -21 -1 -32h-376q2 -61 47 -102.5t107 -41.5q89 0 138 72l66 -53q-75 -97 -204 -97q-109 0 -179.5 69t-70.5 180q0 110 70 180.5t175 70.5t166.5 -66.5t61.5 -179.5zM359 645q0 -25 -18.5 -42.5
t-44.5 -17.5t-44 17.5t-18 42.5t18 43t44 18t44.5 -17.5t18.5 -43.5z" />
    <glyph glyph-name="Eogonek" unicode="&#x118;" horiz-adv-x="601" 
d="M568 -144l22 -45q-44 -37 -95 -37q-39 0 -68 24t-29 63q0 67 87 139h-399v708h454v-87h-355v-212h334v-85h-334v-236h370v-88h-15q-73 -71 -73 -119q0 -19 14 -33t34 -14q29 0 53 22z" />
    <glyph glyph-name="eogonek" unicode="&#x119;" horiz-adv-x="573" 
d="M378 -144l22 -45q-44 -37 -95 -37q-39 0 -68 24t-29 63q0 62 73 127q-102 6 -166.5 74t-64.5 174q0 110 70 180.5t175 70.5t166.5 -66.5t61.5 -179.5q0 -21 -1 -32h-376q2 -61 47 -102.5t107 -41.5q89 0 138 72l66 -53q-64 -82 -164 -94q-63 -65 -63 -109q0 -19 14 -33
t34 -14q29 0 53 22zM146 279h282q-2 59 -36 96.5t-97 37.5q-60 0 -102 -39t-47 -95z" />
    <glyph glyph-name="Ecaron" unicode="&#x11a;" horiz-adv-x="601" 
d="M185 324v-236h370v-88h-469v708h454v-87h-355v-212h334v-85h-334zM482 908l-112 -144h-107l-111 144h90l76 -99l76 99h88z" />
    <glyph glyph-name="ecaron" unicode="&#x11b;" horiz-adv-x="573" 
d="M146 279h282q-2 59 -36 96.5t-97 37.5q-60 0 -102 -39t-47 -95zM523 241q0 -21 -1 -32h-376q2 -61 47 -102.5t107 -41.5q89 0 138 72l66 -53q-75 -97 -204 -97q-109 0 -179.5 69t-70.5 180q0 110 70 180.5t175 70.5t166.5 -66.5t61.5 -179.5zM461 708l-112 -144h-107
l-111 144h90l76 -99l76 99h88z" />
    <glyph glyph-name="Gcircumflex" unicode="&#x11c;" horiz-adv-x="778" 
d="M689 634l-69 -72q-70 77 -192 77q-121 0 -195.5 -82t-74.5 -202q0 -122 74.5 -203t198.5 -81q100 0 165 35v197h-157v84h255v-343q-115 -62 -266 -62q-166 0 -272 104.5t-106 268.5t107 267.5t270 103.5q167 0 262 -92zM481 908l112 -144h-91l-75 99l-76 -99h-90l112 144
h108z" />
    <glyph glyph-name="gcircumflex" unicode="&#x11d;" horiz-adv-x="632" 
d="M58 -154l60 73q31 -35 78 -56t95 -21q167 0 167 175v61h-2q-26 -39 -71 -60.5t-96 -21.5q-107 0 -173 70t-66 174q0 105 66 176t172 71q53 0 99 -23t72 -66h2v76h91v-450q0 -54 -13.5 -99.5t-43 -83.5t-82 -59.5t-123.5 -21.5q-62 0 -125 23t-107 63zM147 242
q0 -69 43 -118t114 -49q72 0 116.5 47.5t44.5 119.5q0 69 -45.5 118t-115.5 49q-72 0 -114.5 -48t-42.5 -119zM364 708l112 -144h-91l-75 99l-76 -99h-90l112 144h108z" />
    <glyph glyph-name="Gbreve" unicode="&#x11e;" horiz-adv-x="778" 
d="M689 634l-69 -72q-70 77 -192 77q-121 0 -195.5 -82t-74.5 -202q0 -122 74.5 -203t198.5 -81q100 0 165 35v197h-157v84h255v-343q-115 -62 -266 -62q-166 0 -272 104.5t-106 268.5t107 267.5t270 103.5q167 0 262 -92zM531 908h55q-6 -67 -48.5 -102.5t-110.5 -35.5
q-69 0 -112 35.5t-47 102.5h56q6 -36 34.5 -54t68.5 -18q88 0 104 72z" />
    <glyph glyph-name="gbreve" unicode="&#x11f;" horiz-adv-x="632" 
d="M58 -154l60 73q31 -35 78 -56t95 -21q167 0 167 175v61h-2q-26 -39 -71 -60.5t-96 -21.5q-107 0 -173 70t-66 174q0 105 66 176t172 71q53 0 99 -23t72 -66h2v76h91v-450q0 -54 -13.5 -99.5t-43 -83.5t-82 -59.5t-123.5 -21.5q-62 0 -125 23t-107 63zM147 242
q0 -69 43 -118t114 -49q72 0 116.5 47.5t44.5 119.5q0 69 -45.5 118t-115.5 49q-72 0 -114.5 -48t-42.5 -119zM410 708h55q-6 -67 -48.5 -102.5t-110.5 -35.5q-69 0 -112 35.5t-47 102.5h56q6 -36 34.5 -54t68.5 -18q88 0 104 72z" />
    <glyph glyph-name="Gdotaccent" unicode="&#x120;" horiz-adv-x="778" 
d="M689 634l-69 -72q-70 77 -192 77q-121 0 -195.5 -82t-74.5 -202q0 -122 74.5 -203t198.5 -81q100 0 165 35v197h-157v84h255v-343q-115 -62 -266 -62q-166 0 -272 104.5t-106 268.5t107 267.5t270 103.5q167 0 262 -92zM489 845q0 -25 -18.5 -42.5t-44.5 -17.5t-44 17.5
t-18 42.5t18 43t44 18t44.5 -17.5t18.5 -43.5z" />
    <glyph glyph-name="gdotaccent" unicode="&#x121;" horiz-adv-x="632" 
d="M58 -154l60 73q31 -35 78 -56t95 -21q167 0 167 175v61h-2q-26 -39 -71 -60.5t-96 -21.5q-107 0 -173 70t-66 174q0 105 66 176t172 71q53 0 99 -23t72 -66h2v76h91v-450q0 -54 -13.5 -99.5t-43 -83.5t-82 -59.5t-123.5 -21.5q-62 0 -125 23t-107 63zM147 242
q0 -69 43 -118t114 -49q72 0 116.5 47.5t44.5 119.5q0 69 -45.5 118t-115.5 49q-72 0 -114.5 -48t-42.5 -119zM380 645q0 -25 -18.5 -42.5t-44.5 -17.5t-44 17.5t-18 42.5t18 43t44 18t44.5 -17.5t18.5 -43.5z" />
    <glyph glyph-name="Gcommaaccent" unicode="&#x122;" horiz-adv-x="778" 
d="M689 634l-69 -72q-70 77 -192 77q-121 0 -195.5 -82t-74.5 -202q0 -122 74.5 -203t198.5 -81q100 0 165 35v197h-157v84h255v-343q-115 -62 -266 -62q-166 0 -272 104.5t-106 268.5t107 267.5t270 103.5q167 0 262 -92zM490 -45l-78 -190h-79l64 190h93z" />
    <glyph glyph-name="gcommaaccent" unicode="&#x123;" horiz-adv-x="632" 
d="M58 -154l60 73q31 -35 78 -56t95 -21q167 0 167 175v61h-2q-26 -39 -71 -60.5t-96 -21.5q-107 0 -173 70t-66 174q0 105 66 176t172 71q53 0 99 -23t72 -66h2v76h91v-450q0 -54 -13.5 -99.5t-43 -83.5t-82 -59.5t-123.5 -21.5q-62 0 -125 23t-107 63zM147 242
q0 -69 43 -118t114 -49q72 0 116.5 47.5t44.5 119.5q0 69 -45.5 118t-115.5 49q-72 0 -114.5 -48t-42.5 -119zM272 564l78 190h79l-64 -190h-93z" />
    <glyph glyph-name="Hcircumflex" unicode="&#x124;" horiz-adv-x="729" 
d="M86 0v708h99v-296h358v296h100v-708h-100v324h-358v-324h-99zM418 908l112 -144h-91l-75 99l-76 -99h-90l112 144h108z" />
    <glyph glyph-name="hcircumflex" unicode="&#x125;" horiz-adv-x="584" 
d="M177 402h2q17 36 58.5 60.5t91.5 24.5q87 0 132 -54t45 -139v-294h-94v262q0 145 -107 145q-56 0 -92 -43t-36 -113v-251h-94v756h94v-354zM349 940l112 -144h-91l-75 99l-76 -99h-90l112 144h108z" />
    <glyph glyph-name="Hbar" unicode="&#x126;" horiz-adv-x="729" 
d="M86 0v708h99v-145h358v145h100v-708h-100v324h-358v-324h-99zM185 412h358v88h-358v-88z" />
    <glyph glyph-name="hbar" unicode="&#x127;" horiz-adv-x="584" 
d="M29 633h54v123h94v-123h164v-63h-164v-168h2q17 36 58.5 60.5t91.5 24.5q87 0 132.5 -54.5t45.5 -138.5v-294h-95v262q0 145 -107 145q-56 0 -92 -43t-36 -113v-251h-94v570h-54v63z" />
    <glyph glyph-name="Itilde" unicode="&#x128;" horiz-adv-x="271" 
d="M185 708v-708h-99v708h99zM17 772h-55q20 116 102 116q33 0 75 -20q48 -22 67 -22q34 0 48 46h54q-20 -116 -102 -116q-31 0 -77 21q-42 21 -65 21q-35 0 -47 -46z" />
    <glyph glyph-name="itilde" unicode="&#x129;" horiz-adv-x="259" 
d="M176 474v-474h-94v474h94zM13 572h-55q20 116 102 116q33 0 75 -20q48 -22 67 -22q34 0 48 46h54q-20 -116 -102 -116q-31 0 -77 21q-42 21 -65 21q-35 0 -47 -46z" />
    <glyph glyph-name="Imacron" unicode="&#x12a;" horiz-adv-x="271" 
d="M185 708v-708h-99v708h99zM282 864v-67h-296v67h296z" />
    <glyph glyph-name="imacron" unicode="&#x12b;" horiz-adv-x="259" 
d="M176 474v-474h-94v474h94zM278 664v-67h-296v67h296z" />
    <glyph glyph-name="Ibreve" unicode="&#x12c;" horiz-adv-x="271" 
d="M185 708v-708h-99v708h99zM239 908h55q-6 -67 -48.5 -102.5t-110.5 -35.5q-69 0 -112 35.5t-47 102.5h56q6 -36 34.5 -54t68.5 -18q88 0 104 72z" />
    <glyph glyph-name="ibreve" unicode="&#x12d;" horiz-adv-x="259" 
d="M176 474v-474h-94v474h94zM233 708h55q-6 -67 -48.5 -102.5t-110.5 -35.5q-69 0 -112 35.5t-47 102.5h56q6 -36 34.5 -54t68.5 -18q88 0 104 72z" />
    <glyph glyph-name="Iogonek" unicode="&#x12e;" horiz-adv-x="271" 
d="M205 -144l22 -45q-44 -37 -95 -37q-39 0 -68 24t-29 63q0 67 87 139h-36v708h99v-708h-8q-73 -71 -73 -119q0 -19 14 -33t34 -14q29 0 53 22z" />
    <glyph glyph-name="iogonek" unicode="&#x12f;" horiz-adv-x="259" 
d="M193 -144l22 -45q-44 -37 -95 -37q-39 0 -68 24t-29 63q0 67 87 139h-28v474h94v-474h-11q-73 -71 -73 -119q0 -19 14 -33t34 -14q29 0 53 22zM192 645q0 -25 -18.5 -42.5t-44.5 -17.5t-44 17.5t-18 42.5t18 43t44 18t44.5 -17.5t18.5 -43.5z" />
    <glyph glyph-name="Idotaccent" unicode="&#x130;" horiz-adv-x="271" 
d="M185 708v-708h-99v708h99zM200 845q0 -25 -18.5 -42.5t-44.5 -17.5t-44 17.5t-18 42.5t18 43t44 18t44.5 -17.5t18.5 -43.5z" />
    <glyph glyph-name="dotlessi" unicode="&#x131;" horiz-adv-x="259" 
d="M176 474v-474h-94v474h94z" />
    <glyph glyph-name="IJ" unicode="&#x132;" horiz-adv-x="758" 
d="M185 708v-708h-99v708h99zM278 132l92 26q8 -39 35.5 -63.5t66.5 -24.5q107 0 107 151v487h99v-491q0 -32 -5 -62t-18.5 -62.5t-35 -56t-58 -39t-84.5 -15.5q-79 0 -131 41t-68 109z" />
    <glyph glyph-name="ij" unicode="&#x133;" horiz-adv-x="515" 
d="M176 474v-474h-94v474h94zM192 645q0 -25 -18.5 -42.5t-44.5 -17.5t-44 17.5t-18 42.5t18 43t44 18t44.5 -17.5t18.5 -43.5zM224 -234l10 80q20 -5 38 -5q39 0 52.5 26t13.5 75v532h94v-535q0 -179 -154 -179q-24 0 -54 6zM448 645q0 -25 -18.5 -42.5t-44.5 -17.5
t-44.5 17.5t-18.5 42.5t18.5 43t44.5 18t44.5 -17.5t18.5 -43.5z" />
    <glyph glyph-name="Jcircumflex" unicode="&#x134;" horiz-adv-x="495" 
d="M15 132l92 26q8 -39 35.5 -63.5t66.5 -24.5q107 0 107 151v487h99v-491q0 -32 -5 -62t-18.5 -62.5t-35 -56t-58 -39t-84.5 -15.5q-79 0 -131 41t-68 109zM419 908l112 -144h-91l-75 99l-76 -99h-90l112 144h108z" />
    <glyph glyph-name="jcircumflex" unicode="&#x135;" horiz-adv-x="260" 
d="M-31 -234l10 80q20 -5 38 -5q39 0 52.5 26t13.5 75v532h94v-535q0 -179 -154 -179q-24 0 -54 6zM182 708l112 -144h-91l-75 99l-76 -99h-90l112 144h108z" />
    <glyph glyph-name="Kcommaaccent" unicode="&#x136;" horiz-adv-x="659" 
d="M185 708v-312h2l316 312h137l-344 -324l365 -384h-142l-332 366h-2v-366h-99v708h99zM400 -45l-78 -190h-79l64 190h93z" />
    <glyph glyph-name="kcommaaccent" unicode="&#x137;" horiz-adv-x="527" 
d="M177 756v-488h3l199 206h126l-222 -215l241 -259h-130l-214 246h-3v-246h-94v756h94zM333 -45l-78 -190h-79l64 190h93z" />
    <glyph glyph-name="kgreenlandic" unicode="&#x138;" horiz-adv-x="527" 
d="M177 474v-206h3l199 206h126l-222 -215l241 -259h-130l-214 246h-3v-246h-94v474h94z" />
    <glyph glyph-name="Lacute" unicode="&#x139;" horiz-adv-x="511" 
d="M185 708v-620h316v-88h-415v708h99zM303 908l-137 -144h-76l99 144h114z" />
    <glyph glyph-name="lacute" unicode="&#x13a;" horiz-adv-x="260" 
d="M177 756v-756h-94v756h94zM296 936l-136 -144h-77l100 144h113z" />
    <glyph glyph-name="Lcommaaccent" unicode="&#x13b;" horiz-adv-x="511" 
d="M185 708v-620h316v-88h-415v708h99zM355 -45l-78 -190h-79l64 190h93z" />
    <glyph glyph-name="lcommaaccent" unicode="&#x13c;" horiz-adv-x="260" 
d="M177 756v-756h-94v756h94zM193 -45l-78 -190h-79l64 190h93z" />
    <glyph glyph-name="Lcaron" unicode="&#x13d;" horiz-adv-x="511" 
d="M185 708v-620h316v-88h-415v708h99zM386 708l-78 -190h-79l64 190h93z" />
    <glyph glyph-name="lcaron" unicode="&#x13e;" horiz-adv-x="323" 
d="M177 756v-756h-94v756h94zM369 708l-78 -190h-79l64 190h93z" />
    <glyph glyph-name="Ldot" unicode="&#x13f;" horiz-adv-x="511" 
d="M185 708v-620h316v-88h-415v708h99zM411 425q0 -25 -18.5 -42.5t-44.5 -17.5t-44 17.5t-18 42.5t18 43t44 18t44.5 -17.5t18.5 -43.5z" />
    <glyph glyph-name="ldot" unicode="&#x140;" horiz-adv-x="350" 
d="M177 756v-756h-94v756h94zM350 455q0 -25 -18.5 -42.5t-44.5 -17.5t-44 17.5t-18 42.5t18 43t44 18t44.5 -17.5t18.5 -43.5z" />
    <glyph glyph-name="Lslash" unicode="&#x141;" horiz-adv-x="511" 
d="M185 708v-323l211 184v-90l-211 -184v-207h316v-88h-415v221l-76 -66v91l76 65v397h99z" />
    <glyph glyph-name="lslash" unicode="&#x142;" horiz-adv-x="260" 
d="M176 756v-276l75 76v-90l-75 -75v-391h-93v314l-75 -76v92l75 75v351h93z" />
    <glyph glyph-name="Nacute" unicode="&#x143;" horiz-adv-x="772" 
d="M215 708l370 -566h2v566h99v-708h-125l-374 578h-2v-578h-99v708h129zM528 908l-137 -144h-76l99 144h114z" />
    <glyph glyph-name="nacute" unicode="&#x144;" horiz-adv-x="582" 
d="M77 474h89q4 -48 4 -78h3q18 39 61 65t93 26q87 0 132 -54t45 -139v-294h-94v263q0 145 -108 145q-56 0 -91.5 -43t-35.5 -113v-252h-94v372q0 61 -4 102zM446 708l-136 -144h-77l100 144h113z" />
    <glyph glyph-name="Ncommaaccent" unicode="&#x145;" horiz-adv-x="772" 
d="M215 708l370 -566h2v566h99v-708h-125l-374 578h-2v-578h-99v708h129zM455 -45l-78 -190h-79l64 190h93z" />
    <glyph glyph-name="ncommaaccent" unicode="&#x146;" horiz-adv-x="582" 
d="M77 474h89q4 -48 4 -78h3q18 39 61 65t93 26q87 0 132 -54t45 -139v-294h-94v263q0 145 -108 145q-56 0 -91.5 -43t-35.5 -113v-252h-94v372q0 61 -4 102zM355 -45l-78 -190h-79l64 190h93z" />
    <glyph glyph-name="Ncaron" unicode="&#x147;" horiz-adv-x="772" 
d="M215 708l370 -566h2v566h99v-708h-125l-374 578h-2v-578h-99v708h129zM554 908l-112 -144h-107l-111 144h90l76 -99l76 99h88z" />
    <glyph glyph-name="ncaron" unicode="&#x148;" horiz-adv-x="582" 
d="M77 474h89q4 -48 4 -78h3q18 39 61 65t93 26q87 0 132 -54t45 -139v-294h-94v263q0 145 -108 145q-56 0 -91.5 -43t-35.5 -113v-252h-94v372q0 61 -4 102zM457 708l-112 -144h-107l-111 144h90l76 -99l76 99h88z" />
    <glyph glyph-name="Eng" unicode="&#x14a;" horiz-adv-x="772" 
d="M478 -234l10 80q20 -5 38 -5q39 0 52.5 26t13.5 75v48l-405 588h-2v-578h-99v708h129l370 -537h2v537h99v-769q0 -179 -154 -179q-24 0 -54 6z" />
    <glyph glyph-name="eng" unicode="&#x14b;" horiz-adv-x="582" 
d="M296 -234l10 80q20 -5 38 -5q39 0 52.5 26t13.5 75v321q0 145 -108 145q-56 0 -91.5 -43t-35.5 -113v-252h-94v372q0 61 -4 102h89q4 -48 4 -78h3q18 39 61 65t93 26q87 0 132 -54t45 -139v-355q0 -179 -154 -179q-24 0 -54 6z" />
    <glyph glyph-name="Omacron" unicode="&#x14c;" horiz-adv-x="849" 
d="M800 355q0 -163 -106.5 -268t-269.5 -105q-162 0 -268 105t-106 268q0 164 105.5 267.5t268.5 103.5t269.5 -103.5t106.5 -267.5zM693 355q0 120 -74 202t-195 82q-119 0 -193 -82t-74 -202q0 -121 74 -202.5t193 -81.5q121 0 195 81.5t74 202.5zM573 864v-67h-296v67
h296z" />
    <glyph glyph-name="omacron" unicode="&#x14d;" horiz-adv-x="610" 
d="M561 238q0 -109 -73.5 -180t-182.5 -71t-182 71t-73 180t72.5 179t182.5 70t183 -70t73 -179zM463 238q0 71 -42.5 121t-115.5 50t-115.5 -50t-42.5 -121t42.5 -121.5t115.5 -50.5t115.5 50.5t42.5 121.5zM454 664v-67h-296v67h296z" />
    <glyph glyph-name="Obreve" unicode="&#x14e;" horiz-adv-x="849" 
d="M800 355q0 -163 -106.5 -268t-269.5 -105q-162 0 -268 105t-106 268q0 164 105.5 267.5t268.5 103.5t269.5 -103.5t106.5 -267.5zM693 355q0 120 -74 202t-195 82q-119 0 -193 -82t-74 -202q0 -121 74 -202.5t193 -81.5q121 0 195 81.5t74 202.5zM528 908h55
q-6 -67 -48.5 -102.5t-110.5 -35.5q-69 0 -112 35.5t-47 102.5h56q6 -36 34.5 -54t68.5 -18q88 0 104 72z" />
    <glyph glyph-name="obreve" unicode="&#x14f;" horiz-adv-x="610" 
d="M561 238q0 -109 -73.5 -180t-182.5 -71t-182 71t-73 180t72.5 179t182.5 70t183 -70t73 -179zM463 238q0 71 -42.5 121t-115.5 50t-115.5 -50t-42.5 -121t42.5 -121.5t115.5 -50.5t115.5 50.5t42.5 121.5zM410 708h55q-6 -67 -48.5 -102.5t-110.5 -35.5q-69 0 -112 35.5
t-47 102.5h56q6 -36 34.5 -54t68.5 -18q88 0 104 72z" />
    <glyph glyph-name="Ohungarumlaut" unicode="&#x150;" horiz-adv-x="849" 
d="M800 355q0 -163 -106.5 -268t-269.5 -105q-162 0 -268 105t-106 268q0 164 105.5 267.5t268.5 103.5t269.5 -103.5t106.5 -267.5zM693 355q0 120 -74 202t-195 82q-119 0 -193 -82t-74 -202q0 -121 74 -202.5t193 -81.5q121 0 195 81.5t74 202.5zM500 908l-137 -144h-77
l100 144h114zM682 908l-136 -144h-77l100 144h113z" />
    <glyph glyph-name="ohungarumlaut" unicode="&#x151;" horiz-adv-x="610" 
d="M561 238q0 -109 -73.5 -180t-182.5 -71t-182 71t-73 180t72.5 179t182.5 70t183 -70t73 -179zM463 238q0 71 -42.5 121t-115.5 50t-115.5 -50t-42.5 -121t42.5 -121.5t115.5 -50.5t115.5 50.5t42.5 121.5zM386 708l-137 -144h-77l100 144h114zM568 708l-136 -144h-77
l100 144h113z" />
    <glyph glyph-name="OE" unicode="&#x152;" horiz-adv-x="1003" 
d="M432 708h510v-87h-331v-212h310v-85h-310v-236h346v-88h-525q-70 0 -136.5 22t-122 63.5t-89.5 111.5t-34 157q0 90 34 160.5t90 111.5t121.5 61.5t136.5 20.5zM452 621q-133 0 -214.5 -69.5t-81.5 -197.5q0 -124 82.5 -195t213.5 -71h60v533h-60z" />
    <glyph glyph-name="oe" unicode="&#x153;" horiz-adv-x="975" 
d="M698 487q106 0 167 -66.5t61 -179.5q0 -21 -1 -32h-377q4 -61 48.5 -102.5t106.5 -41.5q91 0 138 72l65 -53q-75 -97 -204 -97q-65 0 -116.5 27t-82.5 75q-31 -47 -83.5 -74.5t-117.5 -27.5q-109 0 -180.5 71t-71.5 180t71.5 179t180.5 70q65 0 118 -27.5t84 -75.5
q32 47 82 75t112 28zM463 238q0 71 -42.5 121t-115.5 50t-116 -50t-43 -121t43 -121.5t116 -50.5t115.5 50.5t42.5 121.5zM549 279h283q-2 59 -36.5 96.5t-97.5 37.5q-60 0 -102 -39t-47 -95z" />
    <glyph glyph-name="Racute" unicode="&#x154;" horiz-adv-x="614" 
d="M185 315v-315h-99v708h227q112 0 182 -47t70 -149q0 -76 -47 -125t-125 -62l198 -325h-120l-180 315h-106zM185 624v-226h114q166 0 166 114q0 112 -159 112h-121zM435 908l-137 -144h-76l99 144h114z" />
    <glyph glyph-name="racute" unicode="&#x155;" horiz-adv-x="362" 
d="M81 372q0 61 -4 102h89q4 -48 4 -80h3q20 42 59 67.5t86 25.5q22 0 37 -4l-4 -87q-20 5 -43 5q-64 0 -98.5 -44t-34.5 -108v-249h-94v372zM317 708l-136 -144h-77l100 144h113z" />
    <glyph glyph-name="Rcommaaccent" unicode="&#x156;" horiz-adv-x="614" 
d="M185 315v-315h-99v708h227q112 0 182 -47t70 -149q0 -76 -47 -125t-125 -62l198 -325h-120l-180 315h-106zM185 624v-226h114q166 0 166 114q0 112 -159 112h-121zM379 -45l-78 -190h-79l64 190h93z" />
    <glyph glyph-name="rcommaaccent" unicode="&#x157;" horiz-adv-x="362" 
d="M81 372q0 61 -4 102h89q4 -48 4 -80h3q20 42 59 67.5t86 25.5q22 0 37 -4l-4 -87q-20 5 -43 5q-64 0 -98.5 -44t-34.5 -108v-249h-94v372zM192 -45l-78 -190h-79l64 190h93z" />
    <glyph glyph-name="Rcaron" unicode="&#x158;" horiz-adv-x="614" 
d="M185 315v-315h-99v708h227q112 0 182 -47t70 -149q0 -76 -47 -125t-125 -62l198 -325h-120l-180 315h-106zM185 624v-226h114q166 0 166 114q0 112 -159 112h-121zM459 908l-112 -144h-107l-111 144h90l76 -99l76 99h88z" />
    <glyph glyph-name="rcaron" unicode="&#x159;" horiz-adv-x="362" 
d="M81 372q0 61 -4 102h89q4 -48 4 -80h3q20 42 59 67.5t86 25.5q22 0 37 -4l-4 -87q-20 5 -43 5q-64 0 -98.5 -44t-34.5 -108v-249h-94v372zM378 708l-112 -144h-107l-111 144h90l76 -99l76 99h88z" />
    <glyph glyph-name="Sacute" unicode="&#x15a;" horiz-adv-x="569" 
d="M508 645l-70 -68q-22 30 -58.5 48t-79.5 18q-54 0 -96 -29.5t-42 -85.5q0 -28 10 -47.5t34 -34t43 -22t58 -20.5q39 -12 59.5 -19.5t53.5 -25.5t50.5 -37.5t31 -51.5t13.5 -73q0 -104 -71.5 -159.5t-173.5 -55.5q-69 0 -131.5 26.5t-101.5 76.5l77 65q25 -37 67.5 -60
t90.5 -23q56 0 99 31.5t43 89.5q0 25 -10 45t-22 32t-39 24.5t-43.5 18.5t-53.5 17q-40 13 -67.5 25.5t-57 35t-44.5 57.5t-15 81q0 67 37 114.5t90.5 67.5t115.5 20q61 0 115.5 -22t87.5 -59zM443 908l-137 -144h-76l99 144h114z" />
    <glyph glyph-name="sacute" unicode="&#x15b;" horiz-adv-x="444" 
d="M402 409l-65 -55q-16 26 -45.5 42.5t-64.5 16.5q-36 0 -62 -15.5t-26 -46.5q0 -28 25 -43t83 -28q159 -35 159 -140q0 -78 -54.5 -115.5t-134.5 -37.5q-56 0 -107 22t-84 63l67 57q19 -29 53.5 -47.5t72.5 -18.5q40 0 67 16.5t27 52.5q0 31 -28.5 47t-95.5 32
q-28 7 -49 15t-43 22.5t-34 38t-12 55.5q0 72 52.5 108.5t126.5 36.5q52 0 99.5 -20.5t72.5 -57.5zM372 708l-136 -144h-77l100 144h113z" />
    <glyph glyph-name="Scircumflex" unicode="&#x15c;" horiz-adv-x="569" 
d="M508 645l-70 -68q-22 30 -58.5 48t-79.5 18q-54 0 -96 -29.5t-42 -85.5q0 -28 10 -47.5t34 -34t43 -22t58 -20.5q39 -12 59.5 -19.5t53.5 -25.5t50.5 -37.5t31 -51.5t13.5 -73q0 -104 -71.5 -159.5t-173.5 -55.5q-69 0 -131.5 26.5t-101.5 76.5l77 65q25 -37 67.5 -60
t90.5 -23q56 0 99 31.5t43 89.5q0 25 -10 45t-22 32t-39 24.5t-43.5 18.5t-53.5 17q-40 13 -67.5 25.5t-57 35t-44.5 57.5t-15 81q0 67 37 114.5t90.5 67.5t115.5 20q61 0 115.5 -22t87.5 -59zM357 908l112 -144h-91l-75 99l-76 -99h-90l112 144h108z" />
    <glyph glyph-name="scircumflex" unicode="&#x15d;" horiz-adv-x="444" 
d="M402 409l-65 -55q-16 26 -45.5 42.5t-64.5 16.5q-36 0 -62 -15.5t-26 -46.5q0 -28 25 -43t83 -28q159 -35 159 -140q0 -78 -54.5 -115.5t-134.5 -37.5q-56 0 -107 22t-84 63l67 57q19 -29 53.5 -47.5t72.5 -18.5q40 0 67 16.5t27 52.5q0 31 -28.5 47t-95.5 32
q-28 7 -49 15t-43 22.5t-34 38t-12 55.5q0 72 52.5 108.5t126.5 36.5q52 0 99.5 -20.5t72.5 -57.5zM287 708l112 -144h-91l-75 99l-76 -99h-90l112 144h108z" />
    <glyph glyph-name="Scedilla" unicode="&#x15e;" horiz-adv-x="569" 
d="M508 645l-70 -68q-22 30 -58.5 48t-79.5 18q-54 0 -96 -29.5t-42 -85.5q0 -28 10 -47.5t34 -34t43 -22t58 -20.5q39 -12 59.5 -19.5t53.5 -25.5t50.5 -37.5t31 -51.5t13.5 -73q0 -94 -58 -148.5t-148 -64.5l-35 -53q9 2 27 2q39 0 66.5 -18.5t27.5 -59.5q0 -48 -38 -69
t-89 -21q-57 0 -103 23l20 42q37 -17 77 -17q22 0 41.5 9.5t19.5 32.5q0 38 -54 38q-18 0 -41 -7l-20 20l50 76q-66 2 -125 29t-96 74l77 65q25 -37 67.5 -60t90.5 -23q56 0 99 31.5t43 89.5q0 25 -10 45t-22 32t-39 24.5t-43.5 18.5t-53.5 17q-40 13 -67.5 25.5t-57 35
t-44.5 57.5t-15 81q0 67 37 114.5t90.5 67.5t115.5 20q61 0 115.5 -22t87.5 -59z" />
    <glyph glyph-name="scedilla" unicode="&#x15f;" horiz-adv-x="444" 
d="M402 409l-65 -55q-16 26 -45.5 42.5t-64.5 16.5q-36 0 -62 -15.5t-26 -46.5q0 -28 25 -43t83 -28q159 -35 159 -140q0 -72 -46.5 -109t-117.5 -43l-38 -57q9 2 27 2q39 0 66.5 -18.5t27.5 -59.5q0 -48 -38 -69t-89 -21q-57 0 -103 23l20 42q37 -17 77 -17q22 0 41.5 9.5
t19.5 32.5q0 38 -54 38q-18 0 -41 -7l-20 20l54 83q-107 8 -166 83l67 57q19 -29 53.5 -47.5t72.5 -18.5q40 0 67 16.5t27 52.5q0 31 -28.5 47t-95.5 32q-28 7 -49 15t-43 22.5t-34 38t-12 55.5q0 72 52.5 108.5t126.5 36.5q52 0 99.5 -20.5t72.5 -57.5z" />
    <glyph glyph-name="Scaron" unicode="&#x160;" horiz-adv-x="569" 
d="M508 645l-70 -68q-22 30 -58.5 48t-79.5 18q-54 0 -96 -29.5t-42 -85.5q0 -28 10 -47.5t34 -34t43 -22t58 -20.5q39 -12 59.5 -19.5t53.5 -25.5t50.5 -37.5t31 -51.5t13.5 -73q0 -104 -71.5 -159.5t-173.5 -55.5q-69 0 -131.5 26.5t-101.5 76.5l77 65q25 -37 67.5 -60
t90.5 -23q56 0 99 31.5t43 89.5q0 25 -10 45t-22 32t-39 24.5t-43.5 18.5t-53.5 17q-40 13 -67.5 25.5t-57 35t-44.5 57.5t-15 81q0 67 37 114.5t90.5 67.5t115.5 20q61 0 115.5 -22t87.5 -59zM463 908l-112 -144h-107l-111 144h90l76 -99l76 99h88z" />
    <glyph glyph-name="scaron" unicode="&#x161;" horiz-adv-x="444" 
d="M402 409l-65 -55q-16 26 -45.5 42.5t-64.5 16.5q-36 0 -62 -15.5t-26 -46.5q0 -28 25 -43t83 -28q159 -35 159 -140q0 -78 -54.5 -115.5t-134.5 -37.5q-56 0 -107 22t-84 63l67 57q19 -29 53.5 -47.5t72.5 -18.5q40 0 67 16.5t27 52.5q0 31 -28.5 47t-95.5 32
q-28 7 -49 15t-43 22.5t-34 38t-12 55.5q0 72 52.5 108.5t126.5 36.5q52 0 99.5 -20.5t72.5 -57.5zM396 708l-112 -144h-107l-111 144h90l76 -99l76 99h88z" />
    <glyph glyph-name="uni0162" unicode="&#x162;" horiz-adv-x="569" 
d="M334 621v-621h-99v621h-227v87h553v-87h-227zM347 -45l-78 -190h-79l64 190h93z" />
    <glyph glyph-name="uni0163" unicode="&#x163;" horiz-adv-x="329" 
d="M313 474v-77h-126v-247q0 -43 16 -61.5t51 -18.5q31 0 55 12l3 -77q-36 -13 -80 -13q-67 0 -102.5 37.5t-35.5 110.5v257h-91v77h91v136h93v-136h126zM261 -45l-78 -190h-79l64 190h93z" />
    <glyph glyph-name="Tcaron" unicode="&#x164;" horiz-adv-x="569" 
d="M334 621v-621h-99v621h-227v87h553v-87h-227zM448 908l-112 -144h-107l-111 144h90l76 -99l76 99h88z" />
    <glyph glyph-name="tcaron" unicode="&#x165;" horiz-adv-x="342" 
d="M313 474v-77h-126v-247q0 -43 16 -61.5t51 -18.5q31 0 55 12l3 -77q-36 -13 -80 -13q-67 0 -102.5 37.5t-35.5 110.5v257h-91v77h91v136h93v-136h126zM375 731l-78 -190h-79l64 190h93z" />
    <glyph glyph-name="Tbar" unicode="&#x166;" horiz-adv-x="569" 
d="M72 525h163v96h-227v87h553v-87h-227v-96h163v-63h-163v-462h-99v462h-163v63z" />
    <glyph glyph-name="tbar" unicode="&#x167;" horiz-adv-x="329" 
d="M12 304h82v93h-91v77h91v136h93v-136h126v-77h-126v-93h112v-63h-112v-91q0 -43 16 -61.5t51 -18.5q31 0 55 12l3 -77q-36 -13 -80 -13q-67 0 -102.5 37.5t-35.5 110.5v101h-82v63z" />
    <glyph glyph-name="Utilde" unicode="&#x168;" horiz-adv-x="712" 
d="M356 -18q-133 0 -204 81.5t-71 198.5v446h99v-440q0 -83 42.5 -140t133.5 -57t133.5 57t42.5 140v440h99v-446q0 -117 -71 -198.5t-204 -81.5zM234 772h-55q20 116 102 116q33 0 75 -20q48 -22 67 -22q34 0 48 46h54q-20 -116 -102 -116q-31 0 -77 21q-42 21 -65 21
q-35 0 -47 -46z" />
    <glyph glyph-name="utilde" unicode="&#x169;" horiz-adv-x="582" 
d="M504 0h-89q-4 48 -4 78h-2q-19 -39 -62 -65t-93 -26q-87 0 -132 54t-45 139v294h94v-262q0 -146 108 -146q57 0 92 43t35 113v252h94v-372q0 -61 4 -102zM171 572h-55q20 116 102 116q33 0 75 -20q48 -22 67 -22q34 0 48 46h54q-20 -116 -102 -116q-31 0 -77 21
q-42 21 -65 21q-35 0 -47 -46z" />
    <glyph glyph-name="Umacron" unicode="&#x16a;" horiz-adv-x="712" 
d="M356 -18q-133 0 -204 81.5t-71 198.5v446h99v-440q0 -83 42.5 -140t133.5 -57t133.5 57t42.5 140v440h99v-446q0 -117 -71 -198.5t-204 -81.5zM500 864v-67h-296v67h296z" />
    <glyph glyph-name="umacron" unicode="&#x16b;" horiz-adv-x="582" 
d="M504 0h-89q-4 48 -4 78h-2q-19 -39 -62 -65t-93 -26q-87 0 -132 54t-45 139v294h94v-262q0 -146 108 -146q57 0 92 43t35 113v252h94v-372q0 -61 4 -102zM437 664v-67h-296v67h296z" />
    <glyph glyph-name="Ubreve" unicode="&#x16c;" horiz-adv-x="712" 
d="M356 -18q-133 0 -204 81.5t-71 198.5v446h99v-440q0 -83 42.5 -140t133.5 -57t133.5 57t42.5 140v440h99v-446q0 -117 -71 -198.5t-204 -81.5zM461 908h55q-6 -67 -48.5 -102.5t-110.5 -35.5q-69 0 -112 35.5t-47 102.5h56q6 -36 34.5 -54t68.5 -18q88 0 104 72z" />
    <glyph glyph-name="ubreve" unicode="&#x16d;" horiz-adv-x="582" 
d="M504 0h-89q-4 48 -4 78h-2q-19 -39 -62 -65t-93 -26q-87 0 -132 54t-45 139v294h94v-262q0 -146 108 -146q57 0 92 43t35 113v252h94v-372q0 -61 4 -102zM394 708h55q-6 -67 -48.5 -102.5t-110.5 -35.5q-69 0 -112 35.5t-47 102.5h56q6 -36 34.5 -54t68.5 -18
q88 0 104 72z" />
    <glyph glyph-name="Uring" unicode="&#x16e;" horiz-adv-x="712" 
d="M356 -18q-133 0 -204 81.5t-71 198.5v446h99v-440q0 -83 42.5 -140t133.5 -57t133.5 57t42.5 140v440h99v-446q0 -117 -71 -198.5t-204 -81.5zM453 853q0 -42 -29.5 -70.5t-71.5 -28.5t-71 28t-29 70t29 70.5t71 28.5t71.5 -28t29.5 -70zM412 853q0 25 -17.5 41.5
t-42.5 16.5t-42 -17t-17 -42q0 -24 17 -40.5t42 -16.5t42.5 16.5t17.5 41.5z" />
    <glyph glyph-name="uring" unicode="&#x16f;" horiz-adv-x="582" 
d="M504 0h-89q-4 48 -4 78h-2q-19 -39 -62 -65t-93 -26q-87 0 -132 54t-45 139v294h94v-262q0 -146 108 -146q57 0 92 43t35 113v252h94v-372q0 -61 4 -102zM389 653q0 -42 -29.5 -70.5t-71.5 -28.5t-71 28t-29 70t29 70.5t71 28.5t71.5 -28t29.5 -70zM347 653
q0 24 -17.5 40t-41.5 16t-41 -16t-17 -40t17 -40.5t41 -16.5t41.5 16.5t17.5 40.5z" />
    <glyph glyph-name="Uhungarumlaut" unicode="&#x170;" horiz-adv-x="712" 
d="M356 -18q-133 0 -204 81.5t-71 198.5v446h99v-440q0 -83 42.5 -140t133.5 -57t133.5 57t42.5 140v440h99v-446q0 -117 -71 -198.5t-204 -81.5zM428 908l-137 -144h-77l100 144h114zM610 908l-136 -144h-77l100 144h113z" />
    <glyph glyph-name="uhungarumlaut" unicode="&#x171;" horiz-adv-x="582" 
d="M504 0h-89q-4 48 -4 78h-2q-19 -39 -62 -65t-93 -26q-87 0 -132 54t-45 139v294h94v-262q0 -146 108 -146q57 0 92 43t35 113v252h94v-372q0 -61 4 -102zM368 708l-137 -144h-77l100 144h114zM550 708l-136 -144h-77l100 144h113z" />
    <glyph glyph-name="Uogonek" unicode="&#x172;" horiz-adv-x="712" 
d="M448 -144l22 -45q-44 -37 -95 -37q-39 0 -68 24t-29 63q0 57 67 122q-128 4 -196 84t-68 195v446h99v-440q0 -83 42.5 -140t133.5 -57t133.5 57t42.5 140v440h99v-446q0 -105 -58 -183t-167 -93q-59 -63 -59 -105q0 -19 14 -33t34 -14q29 0 53 22z" />
    <glyph glyph-name="uogonek" unicode="&#x173;" horiz-adv-x="582" 
d="M489 -144l22 -45q-44 -37 -95 -37q-39 0 -68 24t-29 63q0 70 95 145q-3 34 -3 72h-2q-19 -39 -62 -65t-93 -26q-87 0 -132 54t-45 139v294h94v-262q0 -146 108 -146q57 0 92 43t35 113v252h94v-372q0 -61 4 -102h-43q-73 -71 -73 -119q0 -19 14 -33t34 -14q29 0 53 22z
" />
    <glyph glyph-name="Wcircumflex" unicode="&#x174;" horiz-adv-x="988" 
d="M117 708l156 -564h2l166 564h109l165 -564h2l156 564h105l-208 -708h-103l-172 569h-2l-172 -569h-103l-208 708h107zM550 908l112 -144h-91l-75 99l-76 -99h-90l112 144h108z" />
    <glyph glyph-name="wcircumflex" unicode="&#x175;" horiz-adv-x="773" 
d="M14 474h102l107 -362h2l113 362h99l115 -362h2l107 362h99l-157 -474h-98l-117 356h-2l-116 -356h-98zM440 708l112 -144h-91l-75 99l-76 -99h-90l112 144h108z" />
    <glyph glyph-name="Ycircumflex" unicode="&#x176;" horiz-adv-x="624" 
d="M362 306v-306h-100v306l-265 402h122l196 -320l197 320h115zM368 908l112 -144h-91l-75 99l-76 -99h-90l112 144h108z" />
    <glyph glyph-name="ycircumflex" unicode="&#x177;" horiz-adv-x="504" 
d="M114 474l147 -372h2l131 372h100l-230 -586q-25 -65 -61.5 -96.5t-102.5 -31.5q-33 0 -62 7l9 83q24 -8 47 -8q34 0 53 18.5t35 60.5l30 79l-203 474h105zM314 708l112 -144h-91l-75 99l-76 -99h-90l112 144h108z" />
    <glyph glyph-name="Ydieresis" unicode="&#x178;" horiz-adv-x="624" 
d="M362 306v-306h-100v306l-265 402h122l196 -320l197 320h115zM156 845q0 25 18 43t44 18t44 -17.5t18 -43.5q0 -25 -18 -42.5t-44 -17.5t-44 18t-18 42zM350 845q0 25 18 43t44 18t44 -17.5t18 -43.5q0 -25 -18 -42.5t-44 -17.5t-44 18t-18 42z" />
    <glyph glyph-name="Zacute" unicode="&#x179;" horiz-adv-x="592" 
d="M553 708v-87l-400 -533h406v-88h-526v87l399 534h-391v87h512zM439 908l-137 -144h-76l99 144h114z" />
    <glyph glyph-name="zacute" unicode="&#x17a;" horiz-adv-x="462" 
d="M419 474v-77l-270 -318h281v-79h-397v77l268 320h-255v77h373zM377 708l-136 -144h-77l100 144h113z" />
    <glyph glyph-name="Zdotaccent" unicode="&#x17b;" horiz-adv-x="592" 
d="M553 708v-87l-400 -533h406v-88h-526v87l399 534h-391v87h512zM359 845q0 -25 -18.5 -42.5t-44.5 -17.5t-44 17.5t-18 42.5t18 43t44 18t44.5 -17.5t18.5 -43.5z" />
    <glyph glyph-name="zdotaccent" unicode="&#x17c;" horiz-adv-x="462" 
d="M419 474v-77l-270 -318h281v-79h-397v77l268 320h-255v77h373zM301 645q0 -25 -18.5 -42.5t-44.5 -17.5t-44 17.5t-18 42.5t18 43t44 18t44.5 -17.5t18.5 -43.5z" />
    <glyph glyph-name="Zcaron" unicode="&#x17d;" horiz-adv-x="592" 
d="M553 708v-87l-400 -533h406v-88h-526v87l399 534h-391v87h512zM463 908l-112 -144h-107l-111 144h90l76 -99l76 99h88z" />
    <glyph glyph-name="zcaron" unicode="&#x17e;" horiz-adv-x="462" 
d="M419 474v-77l-270 -318h281v-79h-397v77l268 320h-255v77h373zM402 708l-112 -144h-107l-111 144h90l76 -99l76 99h88z" />
    <glyph glyph-name="florin" unicode="&#x192;" horiz-adv-x="595" 
d="M472 423v-73h-129l-62 -319q-32 -170 -171 -170q-52 0 -92 24l38 71q22 -14 50 -14q39 0 56 27t27 78l58 303h-111v73h125l25 127q32 170 166 170q55 0 106 -30l-40 -71q-29 17 -56 17q-29 0 -48 -20t-25.5 -39.5t-11.5 -49.5l-20 -104h115z" />
    <glyph glyph-name="Scommaaccent" unicode="&#x218;" horiz-adv-x="569" 
d="M508 645l-70 -68q-22 30 -58.5 48t-79.5 18q-54 0 -96 -29.5t-42 -85.5q0 -28 10 -47.5t34 -34t43 -22t58 -20.5q39 -12 59.5 -19.5t53.5 -25.5t50.5 -37.5t31 -51.5t13.5 -73q0 -104 -71.5 -159.5t-173.5 -55.5q-69 0 -131.5 26.5t-101.5 76.5l77 65q25 -37 67.5 -60
t90.5 -23q56 0 99 31.5t43 89.5q0 25 -10 45t-22 32t-39 24.5t-43.5 18.5t-53.5 17q-40 13 -67.5 25.5t-57 35t-44.5 57.5t-15 81q0 67 37 114.5t90.5 67.5t115.5 20q61 0 115.5 -22t87.5 -59zM345 -45l-78 -190h-79l64 190h93z" />
    <glyph glyph-name="scommaaccent" unicode="&#x219;" horiz-adv-x="444" 
d="M402 409l-65 -55q-16 26 -45.5 42.5t-64.5 16.5q-36 0 -62 -15.5t-26 -46.5q0 -28 25 -43t83 -28q159 -35 159 -140q0 -78 -54.5 -115.5t-134.5 -37.5q-56 0 -107 22t-84 63l67 57q19 -29 53.5 -47.5t72.5 -18.5q40 0 67 16.5t27 52.5q0 31 -28.5 47t-95.5 32
q-28 7 -49 15t-43 22.5t-34 38t-12 55.5q0 72 52.5 108.5t126.5 36.5q52 0 99.5 -20.5t72.5 -57.5zM282 -45l-78 -190h-79l64 190h93z" />
    <glyph glyph-name="uni021A" unicode="&#x21a;" horiz-adv-x="569" 
d="M334 621v-621h-99v621h-227v87h553v-87h-227zM347 -45l-78 -190h-79l64 190h93z" />
    <glyph glyph-name="uni021B" unicode="&#x21b;" horiz-adv-x="329" 
d="M313 474v-77h-126v-247q0 -43 16 -61.5t51 -18.5q31 0 55 12l3 -77q-36 -13 -80 -13q-67 0 -102.5 37.5t-35.5 110.5v257h-91v77h91v136h93v-136h126zM261 -45l-78 -190h-79l64 190h93z" />
    <glyph glyph-name="dotlessj" unicode="&#x237;" horiz-adv-x="260" 
d="M-31 -234l10 80q20 -5 38 -5q39 0 52.5 26t13.5 75v532h94v-535q0 -179 -154 -179q-24 0 -54 6z" />
    <glyph glyph-name="circumflex" unicode="&#x2c6;" 
d="M179 708l112 -144h-91l-75 99l-76 -99h-90l112 144h108z" />
    <glyph glyph-name="caron" unicode="&#x2c7;" 
d="M290 708l-112 -144h-107l-111 144h90l76 -99l76 99h88z" />
    <glyph glyph-name="uni02C9" unicode="&#x2c9;" 
d="M273 864v-67h-296v67h296z" />
    <glyph glyph-name="breve" unicode="&#x2d8;" 
d="M229 708h55q-6 -67 -48.5 -102.5t-110.5 -35.5q-69 0 -112 35.5t-47 102.5h56q6 -36 34.5 -54t68.5 -18q88 0 104 72z" />
    <glyph glyph-name="dotaccent" unicode="&#x2d9;" 
d="M188 645q0 -25 -18.5 -42.5t-44.5 -17.5t-44 17.5t-18 42.5t18 43t44 18t44.5 -17.5t18.5 -43.5z" />
    <glyph glyph-name="ring" unicode="&#x2da;" 
d="M226 653q0 -42 -29.5 -70.5t-71.5 -28.5t-71 28t-29 70t29 70.5t71 28.5t71.5 -28t29.5 -70zM184 653q0 24 -17.5 40t-41.5 16t-41 -16t-17 -40t17 -40.5t41 -16.5t41.5 16.5t17.5 40.5z" />
    <glyph glyph-name="ogonek" unicode="&#x2db;" 
d="M184 -144l22 -45q-44 -37 -95 -37q-39 0 -68 24t-29 63q0 70 95 145h54q-80 -78 -80 -125q0 -19 14 -33t34 -14q29 0 53 22z" />
    <glyph glyph-name="tilde" unicode="&#x2dc;" 
d="M7 572h-55q20 116 102 116q33 0 75 -20q48 -22 67 -22q34 0 48 46h54q-20 -116 -102 -116q-31 0 -77 21q-42 21 -65 21q-35 0 -47 -46z" />
    <glyph glyph-name="hungarumlaut" unicode="&#x2dd;" 
d="M176 708l-137 -144h-77l100 144h114zM358 708l-136 -144h-77l100 144h113z" />
    <glyph glyph-name="uni0394" unicode="&#x394;" horiz-adv-x="706" 
d="M681 0h-656v65l284 643h90l282 -643v-65zM560 88l-209 505l-208 -505h417z" />
    <glyph glyph-name="uni03A9" unicode="&#x3a9;" horiz-adv-x="774" 
d="M713 0h-275v172q85 21 131 80.5t46 153.5q0 41 -12 80t-37.5 74t-71.5 56.5t-107 21.5q-113 0 -170.5 -69t-57.5 -163q0 -97 47 -155.5t130 -78.5v-172h-275v82h198v25q-102 34 -153 114t-51 183q0 146 96 233.5t236 87.5q145 0 238.5 -89.5t93.5 -230.5
q0 -108 -52.5 -186.5t-151.5 -111.5v-25h198v-82z" />
    <glyph glyph-name="uni03BC" unicode="&#x3bc;" horiz-adv-x="603" 
d="M562 73l6 -75q-30 -6 -58 -6q-90 0 -95 86h-2q-19 -39 -56.5 -65t-82.5 -26q-74 0 -97 40h-2v-267h-94v714h94v-262q0 -146 108 -146q57 0 92 43t35 113v252h94v-369q0 -35 32 -35q12 0 26 3z" />
    <glyph glyph-name="pi" unicode="&#x3c0;" horiz-adv-x="637" 
d="M391 131v262h-156l-59 -393h-87l63 393h-117v81h557v-81h-111v-275q0 -48 45 -48q19 0 31 3l6 -75q-27 -6 -52 -6q-66 0 -93 31t-27 108z" />
    <glyph glyph-name="uni0400" unicode="&#x400;" horiz-adv-x="601" 
d="M86 0v708h454v-87h-355v-212h334v-85h-334v-236h370v-88h-469zM300 764l-137 144h114l100 -144h-77z" />
    <glyph glyph-name="uni0401" unicode="&#x401;" horiz-adv-x="601" 
d="M86 0v708h454v-87h-355v-212h334v-85h-334v-236h370v-88h-469zM158 845q0 25 18 43t44 18t44 -17.5t18 -43.5q0 -25 -18 -42.5t-44 -17.5t-44 18t-18 42zM352 845q0 25 18 43t44 18t44 -17.5t18 -43.5q0 -25 -18 -42.5t-44 -17.5t-44 18t-18 42z" />
    <glyph glyph-name="uni0402" unicode="&#x402;" horiz-adv-x="798" 
d="M508 -10q-46 0 -89 9l12 83q30 -7 62 -7q164 0 164 127q0 65 -44 99.5t-131 34.5q-88 0 -148 -24v-312h-99v621h-227v87h552v-87h-226v-225q77 22 165 22q122 0 190.5 -56t68.5 -161q0 -103 -68.5 -157t-181.5 -54z" />
    <glyph glyph-name="uni0403" unicode="&#x403;" horiz-adv-x="507" 
d="M445 908l-137 -144h-76l99 144h114zM86 0v708h413v-87h-314v-621h-99z" />
    <glyph glyph-name="uni0404" unicode="&#x404;" horiz-adv-x="708" 
d="M422 -18q-161 0 -266.5 105t-105.5 267q0 165 105.5 268.5t266.5 103.5q80 0 149.5 -29t108.5 -79l-73 -62q-24 35 -74 59t-111 24q-106 0 -176.5 -65.5t-85.5 -164.5h329v-85h-331q6 -109 78.5 -181.5t185.5 -72.5q128 0 195 94l76 -54q-39 -57 -110 -92.5t-161 -35.5z
" />
    <glyph glyph-name="uni0405" unicode="&#x405;" horiz-adv-x="569" 
d="M270 -18q-69 0 -131.5 26.5t-101.5 76.5l77 65q25 -37 67.5 -60t90.5 -23q56 0 99 31.5t43 89.5q0 25 -10 45t-22 32t-39 24.5t-43.5 18.5t-53.5 17q-40 13 -67.5 25.5t-57 35t-44.5 57.5t-15 81q0 67 37 114.5t90.5 67.5t115.5 20q61 0 115.5 -22t87.5 -59l-70 -68
q-22 30 -58.5 48t-79.5 18q-54 0 -96 -29.5t-42 -85.5q0 -28 10 -47.5t34 -34t43 -22t58 -20.5q39 -12 59.5 -19.5t53.5 -25.5t50.5 -37.5t31 -51.5t13.5 -73q0 -104 -71.5 -159.5t-173.5 -55.5z" />
    <glyph glyph-name="uni0406" unicode="&#x406;" horiz-adv-x="271" 
d="M86 0v708h99v-708h-99z" />
    <glyph glyph-name="uni0407" unicode="&#x407;" horiz-adv-x="271" 
d="M86 0v708h99v-708h-99zM-24 845q0 25 18 43t44 18t44 -17.5t18 -43.5q0 -25 -18 -42.5t-44 -17.5t-44 18t-18 42zM170 845q0 25 18 43t44 18t44 -17.5t18 -43.5q0 -25 -18 -42.5t-44 -17.5t-44 18t-18 42z" />
    <glyph glyph-name="uni0408" unicode="&#x408;" horiz-adv-x="495" 
d="M214 -18q-79 0 -131 41t-68 109l92 26q8 -39 35.5 -63.5t66.5 -24.5q107 0 107 151v487h99v-491q0 -32 -5 -62t-18.5 -62.5t-35 -56t-58 -39t-84.5 -15.5z" />
    <glyph glyph-name="uni0409" unicode="&#x409;" horiz-adv-x="1089" 
d="M85 -7q-40 0 -76 9l13 88q21 -7 43 -7q82 0 117.5 101t35.5 346v178h456v-294h114q119 0 190 -52t71 -155q0 -102 -70.5 -154.5t-188.5 -52.5h-215v621h-261v-117q0 -266 -52 -388.5t-177 -122.5zM674 84h106q169 0 169 122q0 60 -44 92t-125 32h-106v-246z" />
    <glyph glyph-name="uni040A" unicode="&#x40a;" horiz-adv-x="1059" 
d="M86 0v708h99v-296h358v296h99v-296h118q118 0 188.5 -52t70.5 -154t-70 -154t-187 -52h-219v329h-358v-329h-99zM642 84h109q168 0 168 121q0 60 -43.5 92t-124.5 32h-109v-245z" />
    <glyph glyph-name="uni040B" unicode="&#x40b;" horiz-adv-x="802" 
d="M235 0v621h-227v87h552v-87h-226v-224q77 22 163 22q118 0 174 -47.5t56 -147.5v-224h-99v205q0 127 -142 127q-104 0 -152 -21v-311h-99z" />
    <glyph glyph-name="uni040C" unicode="&#x40c;" horiz-adv-x="659" 
d="M498 908l-137 -144h-76l99 144h114zM86 0v708h99v-312h2l316 312h137l-344 -324l365 -384h-142l-332 366h-2v-366h-99z" />
    <glyph glyph-name="uni040D" unicode="&#x40d;" horiz-adv-x="739" 
d="M86 0v708h99v-561h2l357 561h109v-708h-99v561h-2l-357 -561h-109zM341 764l-137 144h114l100 -144h-77z" />
    <glyph glyph-name="uni040E" unicode="&#x40e;" horiz-adv-x="637" 
d="M137 -9q-42 0 -77 7l14 90q24 -8 55 -8q37 0 60 19t46 62l35 64l-274 483h115l214 -388l206 388h110l-312 -570q-41 -75 -82 -111t-110 -36zM325 770q-63 0 -105 35.5t-49 97.5l57 11q6 -36 32.5 -57t64.5 -21t64.5 21t32.5 57l57 -11q-7 -62 -49 -97.5t-105 -35.5z" />
    <glyph glyph-name="uni040F" unicode="&#x40f;" horiz-adv-x="725" 
d="M317 -168v168h-231v708h99v-620h355v620h99v-708h-231v-168h-91z" />
    <glyph glyph-name="uni0410" unicode="&#x410;" horiz-adv-x="711" 
d="M5 0l307 708h90l304 -708h-112l-72 174h-336l-71 -174h-110zM221 261h265l-132 332z" />
    <glyph glyph-name="uni0411" unicode="&#x411;" horiz-adv-x="633" 
d="M86 0v708h442v-85h-343v-213h133q118 0 188 -51.5t70 -153.5t-69.5 -153.5t-187.5 -51.5h-233zM185 84h123q168 0 168 120q0 60 -43.5 91t-124.5 31h-123v-242z" />
    <glyph glyph-name="uni0412" unicode="&#x412;" horiz-adv-x="642" 
d="M86 0v708h244q92 0 157 -43t65 -136q0 -57 -33.5 -98t-90.5 -56v-2q70 -8 113.5 -54t43.5 -118q0 -98 -74.5 -149.5t-191.5 -51.5h-233zM185 84h124q47 0 84 10t64.5 38.5t27.5 73.5q0 119 -167 119h-133v-241zM185 409h129q61 0 100 27.5t39 82.5q0 106 -155 106h-113
v-216z" />
    <glyph glyph-name="uni0413" unicode="&#x413;" horiz-adv-x="507" 
d="M86 0v708h413v-87h-314v-621h-99z" />
    <glyph glyph-name="uni0414" unicode="&#x414;" horiz-adv-x="764" 
d="M15 -168v256h58q116 125 116 433v187h465v-620h80v-256h-90v168h-539v-168h-90zM190 88h365v533h-270v-107q0 -293 -95 -426z" />
    <glyph glyph-name="uni0415" unicode="&#x415;" horiz-adv-x="601" 
d="M86 0v708h454v-87h-355v-212h334v-85h-334v-236h370v-88h-469z" />
    <glyph glyph-name="uni0416" unicode="&#x416;" horiz-adv-x="997" 
d="M-2 0l341 386l-323 322h132l300 -312h1v312h99v-312h1l299 312h133l-323 -322l341 -386h-136l-314 364h-1v-364h-99v364h-1l-314 -364h-136z" />
    <glyph glyph-name="uni0417" unicode="&#x417;" horiz-adv-x="590" 
d="M279 -18q-160 0 -247 104l73 65q60 -85 171 -85q69 0 114 36.5t45 98.5q0 124 -181 124h-46v84h47q160 0 160 121q0 50 -37 81.5t-99 31.5q-100 0 -153 -69l-67 61q73 91 219 91q107 0 170 -50.5t63 -140.5q0 -61 -35 -104t-90 -58v-2q66 -14 108.5 -60t42.5 -114
q0 -99 -75.5 -157t-182.5 -58z" />
    <glyph glyph-name="uni0418" unicode="&#x418;" horiz-adv-x="739" 
d="M86 0v708h99v-561h2l357 561h109v-708h-99v561h-2l-357 -561h-109z" />
    <glyph glyph-name="uni0419" unicode="&#x419;" horiz-adv-x="739" 
d="M86 0v708h99v-561h2l357 561h109v-708h-99v561h-2l-357 -561h-109zM367 770q-63 0 -105 35.5t-49 97.5l57 11q6 -36 32.5 -57t64.5 -21t64.5 21t32.5 57l57 -11q-7 -62 -49 -97.5t-105 -35.5z" />
    <glyph glyph-name="uni041A" unicode="&#x41a;" horiz-adv-x="659" 
d="M86 0v708h99v-312h2l316 312h137l-344 -324l365 -384h-142l-332 366h-2v-366h-99z" />
    <glyph glyph-name="uni041B" unicode="&#x41b;" horiz-adv-x="760" 
d="M85 -7q-46 0 -76 9l13 88q21 -7 43 -7q55 0 88 41.5t49 139.5t16 266v178h456v-708h-99v621h-261v-117q0 -266 -52 -388.5t-177 -122.5z" />
    <glyph glyph-name="uni041C" unicode="&#x41c;" horiz-adv-x="903" 
d="M86 0v708h154l212 -544h2l209 544h154v-708h-99v592h-2l-235 -592h-63l-234 592h-2v-592h-96z" />
    <glyph glyph-name="uni041D" unicode="&#x41d;" horiz-adv-x="729" 
d="M86 0v708h99v-296h359v296h99v-708h-99v324h-359v-324h-99z" />
    <glyph glyph-name="uni041E" unicode="&#x41e;" horiz-adv-x="849" 
d="M424 -18q-162 0 -268 105t-106 268q0 164 105.5 267.5t268.5 103.5t269.5 -103.5t106.5 -267.5q0 -163 -106.5 -268t-269.5 -105zM424 71q121 0 195 81.5t74 202.5q0 120 -74 202t-195 82q-119 0 -193 -82t-74 -202q0 -121 74 -202.5t193 -81.5z" />
    <glyph glyph-name="uni041F" unicode="&#x41f;" horiz-adv-x="725" 
d="M86 0v708h553v-708h-99v621h-355v-621h-99z" />
    <glyph glyph-name="uni0420" unicode="&#x420;" horiz-adv-x="595" 
d="M86 0v708h216q119 0 186 -48.5t67 -148.5q0 -102 -70.5 -151t-187.5 -49h-112v-311h-99zM185 395h105q165 0 165 116q0 113 -163 113h-107v-229z" />
    <glyph glyph-name="uni0421" unicode="&#x421;" horiz-adv-x="708" 
d="M423 -18q-163 0 -268 105t-105 268q0 164 107 267.5t270 103.5q76 0 146 -29t108 -81l-78 -60q-26 37 -74 60t-102 23q-120 0 -194.5 -82t-74.5 -202q0 -122 73 -203.5t193 -81.5q125 0 190 94l79 -54q-94 -128 -270 -128z" />
    <glyph glyph-name="uni0422" unicode="&#x422;" horiz-adv-x="569" 
d="M235 0v621h-227v87h553v-87h-227v-621h-99z" />
    <glyph glyph-name="uni0423" unicode="&#x423;" horiz-adv-x="637" 
d="M137 -9q-42 0 -77 7l14 90q24 -8 55 -8q37 0 60 19t46 62l35 64l-274 483h115l214 -388l206 388h110l-312 -570q-41 -75 -82 -111t-110 -36z" />
    <glyph glyph-name="uni0424" unicode="&#x424;" horiz-adv-x="854" 
d="M376 -18v85q-147 2 -239 84.5t-92 213.5q0 137 90.5 215t240.5 82v64h101v-64q151 -4 241.5 -82t90.5 -215q0 -131 -92 -213.5t-240 -84.5v-85h-101zM376 154v422q-109 -6 -167 -63.5t-58 -148.5q0 -93 57 -147.5t168 -62.5zM477 154q112 8 169 62.5t57 147.5
q0 91 -58 148.5t-168 63.5v-422z" />
    <glyph glyph-name="uni0425" unicode="&#x425;" horiz-adv-x="668" 
d="M18 0l253 375l-228 333h121l170 -264l168 264h116l-226 -335l257 -373h-125l-194 298l-190 -298h-122z" />
    <glyph glyph-name="uni0426" unicode="&#x426;" horiz-adv-x="748" 
d="M628 -168v168h-542v708h99v-620h355v620h99v-620h79v-256h-90z" />
    <glyph glyph-name="uni0427" unicode="&#x427;" horiz-adv-x="650" 
d="M465 0v286q-77 -22 -162 -22q-118 0 -174.5 47.5t-56.5 147.5v249h99v-231q0 -127 143 -127q100 0 151 21v337h99v-708h-99z" />
    <glyph glyph-name="uni0428" unicode="&#x428;" horiz-adv-x="1061" 
d="M86 0v708h99v-620h296v620h99v-620h296v620h99v-708h-889z" />
    <glyph glyph-name="uni0429" unicode="&#x429;" horiz-adv-x="1084" 
d="M964 -168v168h-878v708h99v-620h296v620h99v-620h296v620h99v-620h79v-256h-90z" />
    <glyph glyph-name="uni042A" unicode="&#x42a;" horiz-adv-x="697" 
d="M182 0v621h-172v87h271v-294h115q119 0 190 -52t71 -155q0 -102 -70.5 -154.5t-188.5 -52.5h-216zM281 84h107q169 0 169 122q0 60 -44 92t-125 32h-107v-246z" />
    <glyph glyph-name="uni042B" unicode="&#x42b;" horiz-adv-x="848" 
d="M86 0v708h99v-294h114q119 0 190 -52t71 -155q0 -102 -70.5 -154.5t-188.5 -52.5h-215zM185 84h106q169 0 169 122q0 60 -44 92t-125 32h-106v-246zM663 0v708h99v-708h-99z" />
    <glyph glyph-name="uni042C" unicode="&#x42c;" horiz-adv-x="600" 
d="M86 0v708h99v-294h114q119 0 190 -52t71 -155q0 -102 -70.5 -154.5t-188.5 -52.5h-215zM185 84h106q169 0 169 122q0 60 -44 92t-125 32h-106v-246z" />
    <glyph glyph-name="uni042D" unicode="&#x42d;" horiz-adv-x="708" 
d="M286 -18q-91 0 -161.5 35t-109.5 93l75 54q67 -94 196 -94q113 0 185.5 73t77.5 181h-331v85h329q-14 99 -85 164.5t-176 65.5q-62 0 -111.5 -24t-73.5 -59l-73 62q38 50 108 79t150 29q159 0 265.5 -105t106.5 -267t-105.5 -267t-266.5 -105z" />
    <glyph glyph-name="uni042E" unicode="&#x42e;" horiz-adv-x="1072" 
d="M673 -19q-148 0 -243.5 96t-104.5 247h-140v-324h-99v708h99v-296h142q16 138 111 226t235 88q154 0 251.5 -106t97.5 -266q0 -159 -97.5 -266t-251.5 -107zM673 71q111 0 176.5 83t65.5 200q0 118 -65.5 201t-176.5 83q-112 0 -177.5 -83t-65.5 -201t65.5 -200.5
t177.5 -82.5z" />
    <glyph glyph-name="uni042F" unicode="&#x42f;" horiz-adv-x="615" 
d="M29 0l191 306q-79 18 -122.5 68t-43.5 129q0 103 69 154t191 51h215v-708h-99v295h-107l-174 -295h-120zM324 377h106v247h-108q-169 0 -169 -122q0 -61 45 -93t126 -32z" />
    <glyph glyph-name="uni0430" unicode="&#x430;" horiz-adv-x="542" 
d="M218 -12q-30 0 -59 8t-55 24t-42 45.5t-16 68.5q0 41 19.5 71.5t49.5 47t76.5 26t88 12.5t96.5 3v13q0 51 -31.5 77.5t-85.5 26.5q-80 0 -135 -55l-50 60q74 71 194 71q98 0 148 -51.5t50 -134.5v-207q0 -62 7 -94h-85q-8 34 -8 68h-3q-53 -80 -159 -80zM239 62
q64 0 100.5 38.5t36.5 100.5v25h-23q-211 0 -211 -90q0 -39 28 -56.5t69 -17.5z" />
    <glyph glyph-name="uni0431" unicode="&#x431;" horiz-adv-x="619" 
d="M315 -13q-132 0 -202 90q-55 71 -55 230q0 74 4.5 126.5t17.5 104t37 84t64 55.5t97 30l133 16q39 5 59 15t26 32l68 -20q-12 -49 -40 -72t-83 -31l-131 -17q-65 -8 -101 -30t-57 -76.5t-23 -152.5h3q58 114 203 114q101 0 167.5 -69.5t66.5 -178.5q0 -110 -72 -180
t-182 -70zM314 66q72 0 115.5 49.5t43.5 122.5t-43.5 122.5t-116.5 49.5q-71 0 -114 -49.5t-43 -122.5t43 -122.5t115 -49.5z" />
    <glyph glyph-name="uni0432" unicode="&#x432;" horiz-adv-x="546" 
d="M81 0v474h233q24 0 45.5 -3.5t43 -12t37 -22t25 -35.5t9.5 -50q0 -37 -22.5 -64.5t-59.5 -35.5v-2q46 -6 75 -36.5t29 -79.5q0 -62 -48.5 -97.5t-129.5 -35.5h-237zM175 75h128q97 0 97 66q0 67 -92 67h-133v-133zM175 279h131q32 0 54 15t22 46q0 61 -86 61h-121v-122z
" />
    <glyph glyph-name="uni0433" unicode="&#x433;" horiz-adv-x="424" 
d="M81 0v474h323v-77h-229v-397h-94z" />
    <glyph glyph-name="uni0434" unicode="&#x434;" horiz-adv-x="607" 
d="M18 -145v223h52q71 91 71 272v124h365v-396h73v-223h-82v145h-397v-145h-82zM172 78h241v319h-182v-72q0 -143 -59 -247z" />
    <glyph glyph-name="uni0435" unicode="&#x435;" horiz-adv-x="573" 
d="M300 -13q-109 0 -179.5 69t-70.5 180q0 110 70 180.5t175 70.5t166.5 -66.5t61.5 -179.5q0 -21 -1 -32h-376q2 -61 47 -102.5t107 -41.5q89 0 138 72l66 -53q-75 -97 -204 -97zM146 279h282q-2 59 -36 96.5t-97 37.5q-60 0 -102 -39t-47 -95z" />
    <glyph glyph-name="uni0436" unicode="&#x436;" horiz-adv-x="764" 
d="M2 0l226 248l-206 226h123l187 -220h3v220h94v-220h3l187 220h123l-207 -226l227 -248h-124l-206 234h-3v-234h-94v234h-3l-206 -234h-124z" />
    <glyph glyph-name="uni0437" unicode="&#x437;" horiz-adv-x="472" 
d="M227 -14q-135 0 -205 89l64 55q19 -29 56.5 -49t79.5 -20q105 0 105 74t-125 74h-35v70h34q112 0 112 72q0 62 -95 62q-34 0 -66 -16.5t-51 -43.5l-60 51q26 39 75.5 61t109.5 22q81 0 131.5 -34.5t50.5 -94.5q0 -40 -27.5 -70t-69.5 -39v-2q50 -9 80.5 -39.5t30.5 -76.5
q0 -68 -55 -106.5t-140 -38.5z" />
    <glyph glyph-name="uni0438" unicode="&#x438;" horiz-adv-x="603" 
d="M81 0v474h94v-342h1l243 342h103v-474h-94v343h-2l-242 -343h-103z" />
    <glyph glyph-name="uni0439" unicode="&#x439;" horiz-adv-x="603" 
d="M297 570q-64 0 -103.5 36t-47.5 98l55 8q6 -36 32 -56t64 -20t64 20t32 56l55 -11q-8 -61 -47.5 -96t-103.5 -35zM81 0v474h94v-342h1l243 342h103v-474h-94v343h-2l-242 -343h-103z" />
    <glyph glyph-name="uni043A" unicode="&#x43a;" horiz-adv-x="526" 
d="M82 0v474h94v-217h3l200 217h125l-220 -225l240 -249h-127l-218 232h-3v-232h-94z" />
    <glyph glyph-name="uni043B" unicode="&#x43b;" horiz-adv-x="598" 
d="M73 -6q-35 0 -61 7l8 79q15 -5 32 -5q51 0 76 52.5t25 181.5v165h364v-474h-94v397h-179v-113q0 -144 -40.5 -217t-130.5 -73z" />
    <glyph glyph-name="uni043C" unicode="&#x43c;" horiz-adv-x="740" 
d="M81 0v474h133l156 -346h1l154 346h134v-474h-93v363h-2l-167 -363h-57l-165 364h-1v-364h-93z" />
    <glyph glyph-name="uni043D" unicode="&#x43d;" horiz-adv-x="585" 
d="M81 0v474h94v-188h235v188h94v-474h-94v209h-235v-209h-94z" />
    <glyph glyph-name="uni043E" unicode="&#x43e;" horiz-adv-x="610" 
d="M305 -13q-109 0 -182 71t-73 180t72.5 179t182.5 70t183 -70t73 -179t-73.5 -180t-182.5 -71zM305 66q73 0 115.5 50.5t42.5 121.5t-42.5 121t-115.5 50t-115.5 -50t-42.5 -121t42.5 -121.5t115.5 -50.5z" />
    <glyph glyph-name="uni043F" unicode="&#x43f;" horiz-adv-x="582" 
d="M81 0v474h420v-474h-94v397h-232v-397h-94z" />
    <glyph glyph-name="uni0440" unicode="&#x440;" horiz-adv-x="634" 
d="M81 -240v714h92v-74h3q24 39 69 63t102 24q104 0 170.5 -71.5t66.5 -177.5q0 -107 -66 -179t-173 -72q-51 0 -96 22.5t-71 61.5h-3v-311h-94zM329 66q74 0 116 50.5t42 121.5t-42 121t-116 50q-70 0 -115 -51t-45 -121t45 -120.5t115 -50.5z" />
    <glyph glyph-name="uni0441" unicode="&#x441;" horiz-adv-x="494" 
d="M305 -13q-111 0 -183 69t-72 181q0 111 71.5 180.5t181.5 69.5q52 0 101 -20.5t77 -57.5l-68 -55q-15 24 -45.5 39t-63.5 15q-71 0 -113 -50t-42 -121t42.5 -121t113.5 -50q73 0 114 52l63 -57q-64 -74 -177 -74z" />
    <glyph glyph-name="uni0442" unicode="&#x442;" horiz-adv-x="456" 
d="M181 0v397h-161v77h416v-77h-161v-397h-94z" />
    <glyph glyph-name="uni0443" unicode="&#x443;" horiz-adv-x="504" 
d="M100 -240q-33 0 -62 7l9 83q24 -8 47 -8q34 0 53 18.5t35 60.5l30 79l-203 474h105l147 -372h2l131 372h100l-230 -586q-25 -65 -61.5 -96.5t-102.5 -31.5z" />
    <glyph glyph-name="uni0444" unicode="&#x444;" horiz-adv-x="743" 
d="M324 -240v225q-129 1 -202.5 68.5t-73.5 181.5q0 115 73.5 181.5t202.5 67.5v272h94v-272q129 -1 203 -67.5t74 -181.5q0 -114 -74 -181.5t-203 -68.5v-225h-94zM324 63v343q-86 -1 -132 -46t-46 -124q0 -81 46 -126.5t132 -46.5zM418 63q87 1 133 46.5t46 126.5
q0 79 -46.5 124t-132.5 46v-343z" />
    <glyph glyph-name="uni0445" unicode="&#x445;" horiz-adv-x="511" 
d="M7 0l190 249l-173 225h116l116 -163l117 163h110l-171 -224l191 -250h-117l-132 185l-134 -185h-113z" />
    <glyph glyph-name="uni0446" unicode="&#x446;" horiz-adv-x="600" 
d="M492 -145v145h-411v474h94v-395h232v395h94v-395h72v-224h-81z" />
    <glyph glyph-name="uni0447" unicode="&#x447;" horiz-adv-x="533" 
d="M358 0v185q-58 -16 -132 -16q-162 0 -162 150v155h92v-134q0 -55 24 -75t74 -20t104 15v214h94v-474h-94z" />
    <glyph glyph-name="uni0448" unicode="&#x448;" horiz-adv-x="852" 
d="M81 0v474h94v-395h203v395h94v-395h202v395h94v-474h-687z" />
    <glyph glyph-name="uni0449" unicode="&#x449;" horiz-adv-x="868" 
d="M759 -144v144h-678v474h94v-395h203v395h94v-395h202v395h94v-395h73v-223h-82z" />
    <glyph glyph-name="uni044A" unicode="&#x44a;" horiz-adv-x="586" 
d="M154 0v397h-134v77h228v-172h109q88 0 138.5 -38.5t50.5 -112.5q0 -73 -50.5 -112t-138.5 -39h-203zM248 75h97q106 0 106 75q0 78 -106 78h-97v-153z" />
    <glyph glyph-name="uni044B" unicode="&#x44b;" horiz-adv-x="736" 
d="M81 0v474h94v-172h108q88 0 138.5 -38.5t50.5 -112.5q0 -73 -50 -112t-138 -39h-203zM175 75h97q105 0 105 75q0 78 -105 78h-97v-153zM561 0v474h94v-474h-94z" />
    <glyph glyph-name="uni044C" unicode="&#x44c;" horiz-adv-x="507" 
d="M81 0v474h94v-172h108q88 0 138.5 -38.5t50.5 -112.5q0 -73 -50 -112t-138 -39h-203zM175 75h97q105 0 105 75q0 78 -105 78h-97v-153z" />
    <glyph glyph-name="uni044D" unicode="&#x44d;" horiz-adv-x="500" 
d="M195 -13q-118 0 -183 75l59 57q47 -54 122 -54q67 0 109.5 39t49.5 104h-207v77h204q-8 53 -50.5 89t-98.5 36q-79 0 -125 -54q-11 11 -32 31t-28 27q29 34 78 53.5t103 19.5q114 0 184 -69.5t70 -181.5t-70 -180.5t-185 -68.5z" />
    <glyph glyph-name="uni044E" unicode="&#x44e;" horiz-adv-x="814" 
d="M516 -14q-99 0 -167 62t-78 161h-96v-209h-94v474h94v-188h98q15 90 82 145.5t161 55.5q107 0 177.5 -70.5t70.5 -179.5q0 -110 -70.5 -180.5t-177.5 -70.5zM516 66q69 0 110 48.5t41 122.5t-41 122.5t-110 48.5t-110 -48.5t-41 -122.5t41.5 -122.5t109.5 -48.5z" />
    <glyph glyph-name="uni044F" unicode="&#x44f;" horiz-adv-x="547" 
d="M48 0l123 186q-111 28 -111 139q0 73 50.5 111t134.5 38h221v-474h-94v177h-101l-108 -177h-115zM261 250h111v150h-111q-109 0 -109 -75t109 -75z" />
    <glyph glyph-name="uni0450" unicode="&#x450;" horiz-adv-x="573" 
d="M260 564l-136 144h113l100 -144h-77zM300 -13q-109 0 -179.5 69t-70.5 180q0 110 70 180.5t175 70.5t166.5 -66.5t61.5 -179.5q0 -21 -1 -32h-376q2 -61 47 -102.5t107 -41.5q89 0 138 72l66 -53q-75 -97 -204 -97zM146 279h282q-2 59 -36 96.5t-97 37.5q-60 0 -102 -39
t-47 -95z" />
    <glyph glyph-name="uni0451" unicode="&#x451;" horiz-adv-x="573" 
d="M140 645q0 25 18 43t44 18t44 -17.5t18 -43.5q0 -25 -18 -42.5t-44 -17.5t-44 18t-18 42zM334 645q0 25 18 43t44 18t44 -17.5t18 -43.5q0 -25 -18 -42.5t-44 -17.5t-44 18t-18 42zM300 -13q-109 0 -179.5 69t-70.5 180q0 110 70 180.5t175 70.5t166.5 -66.5t61.5 -179.5
q0 -21 -1 -32h-376q2 -61 47 -102.5t107 -41.5q89 0 138 72l66 -53q-75 -97 -204 -97zM146 279h282q-2 59 -36 96.5t-97 37.5q-60 0 -102 -39t-47 -95z" />
    <glyph glyph-name="uni0452" unicode="&#x452;" horiz-adv-x="584" 
d="M337 -240q-36 0 -65 8l12 78q26 -6 44 -6q48 0 66 29t18 83v306q0 145 -107 145q-56 0 -92 -43t-36 -113v-247h-94v564h-79v72h79v120h94v-120h151v-72h-151v-166h2q17 36 58.5 60.5t91.5 24.5q87 0 132 -54t45 -139v-345q0 -87 -42.5 -136t-126.5 -49z" />
    <glyph glyph-name="uni0453" unicode="&#x453;" horiz-adv-x="424" 
d="M388 708l-136 -144h-77l100 144h113zM81 0v474h323v-77h-229v-397h-94z" />
    <glyph glyph-name="uni0454" unicode="&#x454;" horiz-adv-x="500" 
d="M305 -13q-115 0 -185 68.5t-70 180.5t70 181.5t184 69.5q54 0 103 -19.5t78 -53.5q-7 -7 -28 -27t-32 -31q-46 54 -125 54q-56 0 -98.5 -36t-50.5 -89h204v-77h-207q7 -65 49.5 -104t109.5 -39q75 0 122 54l59 -57q-65 -75 -183 -75z" />
    <glyph glyph-name="uni0455" unicode="&#x455;" horiz-adv-x="444" 
d="M217 -13q-56 0 -107 22t-84 63l67 57q19 -29 53.5 -47.5t72.5 -18.5q40 0 67 16.5t27 52.5q0 31 -28.5 47t-95.5 32q-28 7 -49 15t-43 22.5t-34 38t-12 55.5q0 72 52.5 108.5t126.5 36.5q52 0 99.5 -20.5t72.5 -57.5l-65 -55q-16 26 -45.5 42.5t-64.5 16.5
q-36 0 -62 -15.5t-26 -46.5q0 -28 25 -43t83 -28q159 -35 159 -140q0 -78 -54.5 -115.5t-134.5 -37.5z" />
    <glyph glyph-name="uni0456" unicode="&#x456;" horiz-adv-x="259" 
d="M82 0v474h94v-474h-94zM129 585q-26 0 -44 17.5t-18 42.5t18 43t44 18t44.5 -17.5t18.5 -43.5q0 -25 -18.5 -42.5t-44.5 -17.5z" />
    <glyph glyph-name="uni0457" unicode="&#x457;" horiz-adv-x="259" 
d="M-30 645q0 25 18 43t44 18t44 -17.5t18 -43.5q0 -25 -18 -42.5t-44 -17.5t-44 18t-18 42zM164 645q0 25 18 43t44 18t44 -17.5t18 -43.5q0 -25 -18 -42.5t-44 -17.5t-44 18t-18 42zM176 474v-474h-94v474h94z" />
    <glyph glyph-name="uni0458" unicode="&#x458;" horiz-adv-x="260" 
d="M23 -240q-24 0 -54 6l10 80q20 -5 38 -5q39 0 52.5 26t13.5 75v532h94v-535q0 -179 -154 -179zM130 585q-26 0 -44.5 17.5t-18.5 42.5t18.5 43t44.5 18t44.5 -17.5t18.5 -43.5q0 -25 -18.5 -42.5t-44.5 -17.5z" />
    <glyph glyph-name="uni0459" unicode="&#x459;" horiz-adv-x="850" 
d="M73 -6q-35 0 -61 7l8 79q15 -5 32 -5q51 0 76 52.5t25 181.5v165h364v-172h109q88 0 138.5 -38.5t50.5 -112.5q0 -73 -50.5 -112t-138.5 -39h-203v397h-179v-113q0 -144 -40.5 -217t-130.5 -73zM517 75h97q106 0 106 75q0 78 -106 78h-97v-153z" />
    <glyph glyph-name="uni045A" unicode="&#x45a;" horiz-adv-x="839" 
d="M81 0v474h94v-182h235v182h94v-182h110q89 0 139.5 -36.5t50.5 -110.5q0 -72 -50 -108.5t-139 -36.5h-205v219h-235v-219h-94zM504 74h106q98 0 98 71q0 74 -98 74h-106v-145z" />
    <glyph glyph-name="uni045B" unicode="&#x45b;" horiz-adv-x="584" 
d="M83 0v564h-79v72h79v120h94v-120h151v-72h-151v-166h2q17 36 58.5 60.5t91.5 24.5q87 0 132 -54t45 -139v-290h-94v258q0 145 -107 145q-56 0 -92 -43t-36 -113v-247h-94z" />
    <glyph glyph-name="uni045C" unicode="&#x45c;" horiz-adv-x="526" 
d="M452 708l-136 -144h-77l100 144h113zM82 0v474h94v-217h3l200 217h125l-220 -225l240 -249h-127l-218 232h-3v-232h-94z" />
    <glyph glyph-name="uni045D" unicode="&#x45d;" horiz-adv-x="603" 
d="M271 564l-136 144h113l100 -144h-77zM81 0v474h94v-342h1l243 342h103v-474h-94v343h-2l-242 -343h-103z" />
    <glyph glyph-name="uni045E" unicode="&#x45e;" horiz-adv-x="504" 
d="M260 570q-64 0 -103.5 36t-47.5 98l55 8q6 -36 32 -56t64 -20t64 20t32 56l55 -11q-8 -61 -47.5 -96t-103.5 -35zM100 -240q-33 0 -62 7l9 83q24 -8 47 -8q34 0 53 18.5t35 60.5l30 79l-203 474h105l147 -372h2l131 372h100l-230 -586q-25 -65 -61.5 -96.5t-102.5 -31.5z
" />
    <glyph glyph-name="uni045F" unicode="&#x45f;" horiz-adv-x="582" 
d="M249 -145v145h-168v474h94v-395h232v395h94v-474h-170v-145h-82z" />
    <glyph glyph-name="uni0490" unicode="&#x490;" horiz-adv-x="507" 
d="M86 0v708h326v140h87v-227h-314v-621h-99z" />
    <glyph glyph-name="uni0491" unicode="&#x491;" horiz-adv-x="424" 
d="M81 0v474h244v121h79v-198h-229v-397h-94z" />
    <glyph glyph-name="Wgrave" unicode="&#x1e80;" horiz-adv-x="988" 
d="M117 708l156 -564h2l166 564h109l165 -564h2l156 564h105l-208 -708h-103l-172 569h-2l-172 -569h-103l-208 708h107zM465 764l-137 144h114l100 -144h-77z" />
    <glyph glyph-name="wgrave" unicode="&#x1e81;" horiz-adv-x="773" 
d="M14 474h102l107 -362h2l113 362h99l115 -362h2l107 362h99l-157 -474h-98l-117 356h-2l-116 -356h-98zM352 564l-136 144h113l100 -144h-77z" />
    <glyph glyph-name="Wacute" unicode="&#x1e82;" horiz-adv-x="988" 
d="M117 708l156 -564h2l166 564h109l165 -564h2l156 564h105l-208 -708h-103l-172 569h-2l-172 -569h-103l-208 708h107zM662 908l-137 -144h-76l99 144h114z" />
    <glyph glyph-name="wacute" unicode="&#x1e83;" horiz-adv-x="773" 
d="M14 474h102l107 -362h2l113 362h99l115 -362h2l107 362h99l-157 -474h-98l-117 356h-2l-116 -356h-98zM559 708l-136 -144h-77l100 144h113z" />
    <glyph glyph-name="Wdieresis" unicode="&#x1e84;" horiz-adv-x="988" 
d="M117 708l156 -564h2l166 564h109l165 -564h2l156 564h105l-208 -708h-103l-172 569h-2l-172 -569h-103l-208 708h107zM335 845q0 25 18 43t44 18t44 -17.5t18 -43.5q0 -25 -18 -42.5t-44 -17.5t-44 18t-18 42zM529 845q0 25 18 43t44 18t44 -17.5t18 -43.5
q0 -25 -18 -42.5t-44 -17.5t-44 18t-18 42z" />
    <glyph glyph-name="wdieresis" unicode="&#x1e85;" horiz-adv-x="773" 
d="M14 474h102l107 -362h2l113 362h99l115 -362h2l107 362h99l-157 -474h-98l-117 356h-2l-116 -356h-98zM228 645q0 25 18 43t44 18t44 -17.5t18 -43.5q0 -25 -18 -42.5t-44 -17.5t-44 18t-18 42zM422 645q0 25 18 43t44 18t44 -17.5t18 -43.5q0 -25 -18 -42.5t-44 -17.5
t-44 18t-18 42z" />
    <glyph glyph-name="Ygrave" unicode="&#x1ef2;" horiz-adv-x="624" 
d="M362 306v-306h-100v306l-265 402h122l196 -320l197 320h115zM288 764l-137 144h114l100 -144h-77z" />
    <glyph glyph-name="ygrave" unicode="&#x1ef3;" horiz-adv-x="504" 
d="M114 474l147 -372h2l131 372h100l-230 -586q-25 -65 -61.5 -96.5t-102.5 -31.5q-33 0 -62 7l9 83q24 -8 47 -8q34 0 53 18.5t35 60.5l30 79l-203 474h105zM228 564l-136 144h113l100 -144h-77z" />
    <glyph glyph-name="uni2010" unicode="&#x2010;" horiz-adv-x="320" 
d="M276 284v-80h-232v80h232z" />
    <glyph glyph-name="endash" unicode="&#x2013;" horiz-adv-x="400" 
d="M370 282v-75h-340v75h340z" />
    <glyph glyph-name="emdash" unicode="&#x2014;" horiz-adv-x="600" 
d="M570 282v-75h-540v75h540z" />
    <glyph glyph-name="quoteleft" unicode="&#x2018;" horiz-adv-x="246" 
d="M42 458l83 250h79l-68 -250h-94z" />
    <glyph glyph-name="quoteright" unicode="&#x2019;" horiz-adv-x="246" 
d="M204 708l-83 -250h-79l69 250h93z" />
    <glyph glyph-name="quotesinglbase" unicode="&#x201a;" horiz-adv-x="246" 
d="M204 117l-83 -250h-79l69 250h93z" />
    <glyph glyph-name="quotedblleft" unicode="&#x201c;" horiz-adv-x="426" 
d="M42 458l83 250h79l-68 -250h-94zM222 458l83 250h79l-68 -250h-94z" />
    <glyph glyph-name="quotedblright" unicode="&#x201d;" horiz-adv-x="426" 
d="M384 708l-83 -250h-79l69 250h93zM204 708l-83 -250h-79l69 250h93z" />
    <glyph glyph-name="quotedblbase" unicode="&#x201e;" horiz-adv-x="426" 
d="M384 117l-83 -250h-79l69 250h93zM204 117l-83 -250h-79l69 250h93z" />
    <glyph glyph-name="dagger" unicode="&#x2020;" horiz-adv-x="575" 
d="M332 708v-203h202v-79h-202v-552h-90v552h-201v79h201v203h90z" />
    <glyph glyph-name="daggerdbl" unicode="&#x2021;" horiz-adv-x="575" 
d="M332 708v-188h194v-79h-194v-300h194v-78h-194v-189h-90v189h-194v78h194v300h-194v79h194v188h90z" />
    <glyph glyph-name="bullet" unicode="&#x2022;" horiz-adv-x="500" 
d="M73 354q0 74 51.5 125.5t125.5 51.5t125.5 -51.5t51.5 -125.5t-51.5 -125.5t-125.5 -51.5t-125.5 51.5t-51.5 125.5z" />
    <glyph glyph-name="ellipsis" unicode="&#x2026;" horiz-adv-x="1000" 
d="M87 70q0 32 23.5 55t56.5 23t56.5 -22t23.5 -54t-23.5 -55t-56.5 -23q-32 0 -56 22t-24 54zM420 70q0 32 23.5 55t56.5 23t56.5 -22t23.5 -54t-23.5 -55t-56.5 -23q-32 0 -56 22t-24 54zM753 70q0 32 23.5 55t56.5 23t56.5 -22t23.5 -54t-23.5 -55t-56.5 -23
q-32 0 -56 22t-24 54z" />
    <glyph glyph-name="perthousand" unicode="&#x2030;" horiz-adv-x="1048" 
d="M39 563q0 66 46.5 112.5t112.5 46.5q67 0 113.5 -46.5t46.5 -112.5t-46.5 -112.5t-113.5 -46.5q-66 0 -112.5 46.5t-46.5 112.5zM283 563q0 35 -25 59.5t-60 24.5t-59.5 -24.5t-24.5 -59.5t24.5 -60t59.5 -25t60 25t25 60zM344 148q0 66 46.5 112.5t112.5 46.5
q67 0 113.5 -46.5t46.5 -112.5t-46.5 -112.5t-113.5 -46.5q-66 0 -112.5 46.5t-46.5 112.5zM588 148q0 35 -25 59.5t-60 24.5t-59.5 -24.5t-24.5 -59.5t24.5 -60t59.5 -25t60 25t25 60zM696 148q0 66 46.5 112.5t112.5 46.5q67 0 113.5 -46.5t46.5 -112.5t-46.5 -112.5
t-113.5 -46.5q-66 0 -112.5 46.5t-46.5 112.5zM940 148q0 35 -25 59.5t-60 24.5t-59.5 -24.5t-24.5 -59.5t24.5 -60t59.5 -25t60 25t25 60zM612 707l-469 -739l-56 32l470 739z" />
    <glyph glyph-name="guilsinglleft" unicode="&#x2039;" horiz-adv-x="298" 
d="M133 244l115 -175l-62 -43l-146 218l146 217l62 -42z" />
    <glyph glyph-name="guilsinglright" unicode="&#x203a;" horiz-adv-x="298" 
d="M166 243l-116 176l62 42l146 -218l-146 -217l-61 43z" />
    <glyph glyph-name="interrobang" unicode="&#x203d;" horiz-adv-x="500" 
d="M300 200h-90l-1 323h88l-4 -142h1q6 8 20.5 24.5t21.5 24.5q41 48 41 101q0 50 -32 80t-85 30q-52 0 -84.5 -31.5t-37.5 -82.5l-90 11q13 86 71.5 135.5t144.5 49.5q87 0 145.5 -49.5t58.5 -135.5q0 -56 -23 -94.5t-71 -82.5q-43 -39 -58.5 -63.5t-15.5 -65.5v-32z
M325 60q0 -27 -19.5 -46.5t-47.5 -19.5t-47.5 19t-19.5 46t19.5 46.5t47.5 19.5t47.5 -19t19.5 -46z" />
    <glyph glyph-name="fraction" unicode="&#x2044;" horiz-adv-x="100" 
d="M288 707l-432 -739l-66 33l434 739z" />
    <glyph glyph-name="zero.superior" unicode="&#x2070;" horiz-adv-x="385" 
d="M342 664q0 -99 -36.5 -160t-112.5 -61q-77 0 -114 61t-37 160q0 98 37.5 158.5t113.5 60.5q75 0 112 -60.5t37 -158.5zM265 664q0 62 -17 107t-55 45q-27 0 -44.5 -24.5t-23.5 -56.5t-6 -71q0 -40 6 -72.5t23.5 -57t44.5 -24.5q38 0 55 45t17 109z" />
    <glyph glyph-name="four.superior" unicode="&#x2074;" horiz-adv-x="385" 
d="M291 876v-268h59v-67h-59v-91h-71v91h-189v64l177 271h83zM220 782h-3l-109 -174h112v174z" />
    <glyph glyph-name="five.superior" unicode="&#x2075;" horiz-adv-x="385" 
d="M335 592q0 -67 -42.5 -108t-107.5 -41q-106 0 -143 96l68 25q24 -54 75 -54q33 0 54 21t21 56q0 37 -23.5 57.5t-61.5 20.5q-47 0 -100 -30l5 241h239v-68h-166l-3 -85q20 6 42 6q64 0 103.5 -37.5t39.5 -99.5z" />
    <glyph glyph-name="six.superior" unicode="&#x2076;" horiz-adv-x="385" 
d="M342 588q0 -64 -42.5 -104.5t-106.5 -40.5t-107 41t-43 103q0 56 40 119l108 170h91l-104 -155l1 -1q12 4 29 4q56 0 95 -38.5t39 -97.5zM267 586q0 32 -20.5 53.5t-53.5 21.5t-54 -21t-21 -54q0 -31 21 -53.5t53 -22.5q33 0 54 21.5t21 54.5z" />
    <glyph glyph-name="seven.superior" unicode="&#x2077;" horiz-adv-x="385" 
d="M167 450h-86l169 358h-193v68h277v-60z" />
    <glyph glyph-name="eight.superior" unicode="&#x2078;" horiz-adv-x="385" 
d="M337 572q0 -59 -42 -94t-103 -35t-103 35t-42 94q0 71 64 102v1q-52 28 -52 90q0 53 38.5 85.5t94.5 32.5t94.5 -32t38.5 -85q0 -60 -51 -91v-1q29 -13 46 -40t17 -62zM192 818q-24 0 -40.5 -16t-16.5 -40t16.5 -40.5t40.5 -16.5q23 0 40 16.5t17 40.5t-16.5 40t-40.5 16
zM192 642q-30 0 -50 -19t-20 -48t20 -47.5t50 -18.5t50 18.5t20 47.5t-20 48t-50 19z" />
    <glyph glyph-name="nine.superior" unicode="&#x2079;" horiz-adv-x="385" 
d="M43 738q0 64 42.5 104.5t106.5 40.5t107 -41t43 -103q0 -56 -40 -119l-108 -170h-91l104 155l-1 1q-12 -4 -29 -4q-56 0 -95 38.5t-39 97.5zM118 740q0 -32 20.5 -53t53.5 -21q34 0 54.5 21t20.5 53q0 31 -21 53.5t-53 22.5q-33 0 -54 -21.5t-21 -54.5z" />
    <glyph glyph-name="zero.inferior" unicode="&#x2080;" horiz-adv-x="385" 
d="M342 74q0 -99 -36.5 -160t-112.5 -61q-77 0 -114 61t-37 160q0 98 37.5 158.5t113.5 60.5q75 0 112 -60.5t37 -158.5zM265 74q0 62 -17 107t-55 45q-27 0 -44.5 -24.5t-23.5 -56.5t-6 -71q0 -40 6 -72.5t23.5 -57t44.5 -24.5q38 0 55 45t17 109z" />
    <glyph glyph-name="one.inferior" unicode="&#x2081;" horiz-adv-x="385" 
d="M247 286v-426h-78v332l-68 -59l-46 51l125 102h67z" />
    <glyph glyph-name="two.inferior" unicode="&#x2082;" horiz-adv-x="385" 
d="M333 -71v-69h-283v67l164 165q40 42 40 78q0 25 -17 40t-43 15q-27 0 -45 -18.5t-23 -49.5l-74 10q8 55 47.5 90.5t94.5 35.5q58 0 98 -32t40 -91q0 -38 -18 -67t-52 -62l-114 -112h185z" />
    <glyph glyph-name="three.inferior" unicode="&#x2083;" horiz-adv-x="385" 
d="M143 49v62h27q80 0 80 63q0 23 -18 38t-43 15q-46 0 -66 -51l-68 23q18 44 54.5 69t81.5 25q59 0 97 -30t38 -86q0 -32 -17.5 -56.5t-44.5 -36.5q32 -10 52.5 -37.5t20.5 -63.5q0 -62 -43 -96t-103 -34q-114 0 -151 105l71 22q20 -60 78 -60q30 0 51.5 16.5t21.5 48.5
q0 34 -27 49t-65 15h-27z" />
    <glyph glyph-name="four.inferior" unicode="&#x2084;" horiz-adv-x="385" 
d="M291 286v-268h59v-67h-59v-91h-71v91h-189v64l177 271h83zM220 192h-3l-109 -174h112v174z" />
    <glyph glyph-name="five.inferior" unicode="&#x2085;" horiz-adv-x="385" 
d="M335 2q0 -67 -42.5 -108t-107.5 -41q-106 0 -143 96l68 25q24 -54 75 -54q33 0 54 21t21 56q0 37 -23.5 57.5t-61.5 20.5q-47 0 -100 -30l5 241h239v-68h-166l-3 -85q20 6 42 6q64 0 103.5 -37.5t39.5 -99.5z" />
    <glyph glyph-name="six.inferior" unicode="&#x2086;" horiz-adv-x="385" 
d="M342 -2q0 -64 -42.5 -104.5t-106.5 -40.5t-107 41t-43 103q0 56 40 119l108 170h91l-104 -155l1 -1q12 4 29 4q56 0 95 -38.5t39 -97.5zM267 -4q0 32 -20.5 53.5t-53.5 21.5t-54 -21t-21 -54q0 -31 21 -53.5t53 -22.5q33 0 54 21.5t21 54.5z" />
    <glyph glyph-name="seven.inferior" unicode="&#x2087;" horiz-adv-x="385" 
d="M167 -140h-86l169 358h-193v68h277v-60z" />
    <glyph glyph-name="eight.inferior" unicode="&#x2088;" horiz-adv-x="385" 
d="M337 -18q0 -59 -42 -94t-103 -35t-103 35t-42 94q0 71 64 102v1q-52 28 -52 90q0 53 38.5 85.5t94.5 32.5t94.5 -32t38.5 -85q0 -60 -51 -91v-1q29 -13 46 -40t17 -62zM192 228q-24 0 -40.5 -16t-16.5 -40t16.5 -40.5t40.5 -16.5q23 0 40 16.5t17 40.5t-16.5 40t-40.5 16
zM192 52q-30 0 -50 -19t-20 -48t20 -47.5t50 -18.5t50 18.5t20 47.5t-20 48t-50 19z" />
    <glyph glyph-name="nine.inferior" unicode="&#x2089;" horiz-adv-x="385" 
d="M43 148q0 64 42.5 104.5t106.5 40.5t107 -41t43 -103q0 -56 -40 -119l-108 -170h-91l104 155l-1 1q-12 -4 -29 -4q-56 0 -95 38.5t-39 97.5zM118 150q0 -32 20.5 -53t53.5 -21q34 0 54.5 21t20.5 53q0 31 -21 53.5t-53 22.5q-33 0 -54 -21.5t-21 -54.5z" />
    <glyph glyph-name="Euro" unicode="&#x20ac;" horiz-adv-x="595" 
d="M527 613q-50 29 -128 29q-74 0 -129.5 -44t-75.5 -120h294l-23 -71h-285q-4 -23 -4 -57q0 -28 3 -50h256l-23 -71h-222q14 -72 71.5 -117t136.5 -45q78 0 134 36l35 -76q-67 -45 -175 -45q-122 0 -199 70.5t-99 176.5h-80l24 71h47q-2 28 -2 50q0 34 3 57h-70l25 71h56
q28 115 110.5 181.5t196.5 66.5q93 0 154 -33z" />
    <glyph glyph-name="afii61248" unicode="&#x2105;" horiz-adv-x="890" 
d="M690 707l-433 -739l-68 33l434 739zM842 166q0 -78 -52 -128t-131 -50q-78 0 -130 50.5t-52 127.5t52 126.5t130 49.5q79 0 131 -49.5t52 -126.5zM752 166q0 42 -25 71.5t-68 29.5q-42 0 -67 -29.5t-25 -71.5t25 -72.5t67 -30.5q43 0 68 30t25 73zM359 662l-65 -53
q-27 37 -70 37q-42 0 -66.5 -29.5t-24.5 -72.5q0 -42 25 -72t66 -30t76 40l60 -53q-55 -62 -136 -62q-79 0 -131 49t-52 128q0 78 51.5 127.5t130.5 49.5q90 0 136 -59z" />
    <glyph glyph-name="afii61289" unicode="&#x2113;" horiz-adv-x="500" 
d="M428 44q-65 -58 -143 -58q-63 0 -100.5 35t-37.5 99v91l-58 -57h-2l-33 48l92 85v253q0 82 41 131.5t104 49.5q55 0 88.5 -36.5t33.5 -98.5q0 -143 -177 -314v-138q0 -44 20.5 -62.5t49.5 -18.5q43 0 88 38h2zM339 580q0 35 -14 57.5t-35 22.5q-23 0 -38.5 -27.5
t-15.5 -77.5v-205q103 118 103 230z" />
    <glyph glyph-name="uni2116" unicode="&#x2116;" horiz-adv-x="1045" 
d="M86 0v708h119l311 -556h3v556h97v-708h-119l-311 557h-2v-557h-98zM720 297v65h285v-65h-285zM862 420q-66 0 -109 42t-43 106q0 65 43 106.5t109 41.5t109 -41.5t43 -106.5q0 -64 -43 -106t-109 -42zM862 486q36 0 56.5 24t20.5 58q0 35 -20.5 58.5t-56.5 23.5
t-56 -23.5t-20 -58.5q0 -34 20 -58t56 -24z" />
    <glyph glyph-name="published" unicode="&#x2117;" horiz-adv-x="800" 
d="M20 353q0 157 111.5 267t269.5 110q157 0 268 -110t111 -267q0 -156 -111 -265.5t-268 -109.5q-158 0 -269.5 109.5t-111.5 265.5zM80 353q0 -132 94 -225.5t227 -93.5q132 0 225.5 93.5t93.5 225.5q0 133 -93.5 227t-225.5 94q-133 0 -227 -94t-94 -227zM272 129v438
h163q78 0 122.5 -37t44.5 -103t-46 -103.5t-122 -37.5h-81v-157h-81zM353 354h81q87 0 87 73q0 72 -86 72h-82v-145z" />
    <glyph glyph-name="trademark" unicode="&#x2122;" horiz-adv-x="1000" 
d="M393 708v-72h-127v-340h-81v340h-129v72h337zM937 708v-412h-82v307h-2l-119 -307h-55l-120 307h-2v-307h-81v412h118l113 -292l113 292h117z" />
    <glyph glyph-name="Omega" unicode="&#x2126;" horiz-adv-x="774" 
d="M713 0h-275v172q85 21 131 80.5t46 153.5q0 41 -12 80t-37.5 74t-71.5 56.5t-107 21.5q-113 0 -170.5 -69t-57.5 -163q0 -97 47 -155.5t130 -78.5v-172h-275v82h198v25q-102 34 -153 114t-51 183q0 146 96 233.5t236 87.5q145 0 238.5 -89.5t93.5 -230.5
q0 -108 -52.5 -186.5t-151.5 -111.5v-25h198v-82z" />
    <glyph glyph-name="estimated" unicode="&#x212e;" horiz-adv-x="500" 
d="M561 259h-404v-181q59 -59 145 -59q122 0 193 120l35 -21q-46 -72 -98 -103.5t-130 -31.5q-115 0 -186.5 79t-71.5 197q0 119 71 197.5t187 78.5q115 0 186.5 -77t72.5 -199zM157 295h291v145q-63 60 -147 60t-144 -60v-145z" />
    <glyph glyph-name="partialdiff" unicode="&#x2202;" horiz-adv-x="523" 
d="M481 360q0 -52 -5.5 -99.5t-21 -99t-41 -88.5t-69.5 -61t-101 -24q-94 0 -151 65t-57 160q0 93 55.5 154.5t147.5 61.5q89 0 156 -70q0 6 0.5 20t0.5 21q0 43 -8 84t-26 80t-52.5 63t-80.5 24q-57 0 -116 -47l-47 55q78 62 159 62q71 0 123.5 -32.5t80 -87t40.5 -114.5
t13 -127zM391 271q-23 42 -60.5 66t-81.5 24q-62 0 -96.5 -44t-34.5 -108q0 -62 33 -108.5t94 -46.5q49 0 83.5 37.5t48 84t14.5 95.5z" />
    <glyph glyph-name="Delta" unicode="&#x2206;" horiz-adv-x="706" 
d="M681 0h-656v65l284 643h90l282 -643v-65zM560 88l-209 505l-208 -505h417z" />
    <glyph glyph-name="product" unicode="&#x220f;" horiz-adv-x="726" 
d="M660 -214h-90v917h-413v-917h-91v1000h594v-1000z" />
    <glyph glyph-name="summation" unicode="&#x2211;" horiz-adv-x="626" 
d="M601 -214h-576v72l316 433l-303 422v73h551v-83h-432l292 -412l-311 -423h463v-82z" />
    <glyph glyph-name="minus" unicode="&#x2212;" horiz-adv-x="666" 
d="M596 344v-82h-526v82h526z" />
    <glyph glyph-name="uni2215" unicode="&#x2215;" horiz-adv-x="100" 
d="M288 707l-432 -739l-66 33l434 739z" />
    <glyph glyph-name="uni2219" unicode="&#x2219;" horiz-adv-x="260" 
d="M198 303q0 -27 -19.5 -46.5t-47.5 -19.5t-48 19.5t-20 45.5q0 27 19.5 47t48.5 20q28 0 47.5 -19.5t19.5 -46.5z" />
    <glyph glyph-name="radical" unicode="&#x221a;" horiz-adv-x="515" 
d="M526 786l-211 -1000h-86l-158 328l-48 -23l-33 70l124 58l144 -302l178 869h90z" />
    <glyph glyph-name="infinity" unicode="&#x221e;" horiz-adv-x="778" 
d="M681 260q0 38 -22 63.5t-60 25.5q-25 0 -54.5 -17t-45.5 -31.5t-43 -41.5q26 -25 43.5 -40t46.5 -29.5t56 -14.5q37 0 58 24t21 61zM361 259q-28 26 -44.5 40.5t-47 31.5t-55.5 17q-35 0 -56.5 -26t-21.5 -62q0 -38 22 -61.5t60 -23.5q61 0 143 84zM754 263
q0 -75 -43.5 -124.5t-117.5 -49.5q-54 0 -96.5 28t-88.5 79q-33 -35 -53.5 -54t-55.5 -35.5t-74 -16.5q-74 0 -119 48.5t-45 123.5q0 73 43.5 122t116.5 49q56 0 98.5 -29.5t88.5 -84.5q30 36 52.5 57t58.5 39.5t75 18.5q72 0 116 -49t44 -122z" />
    <glyph glyph-name="integral" unicode="&#x222b;" horiz-adv-x="574" 
d="M442 723q0 -19 -12.5 -30.5t-31.5 -11.5q-16 0 -26.5 8.5t-14.5 19t-9.5 19t-12.5 8.5q-26 0 -26 -86q0 -19 1 -48.5t1 -37.5v-568q0 -41 -5 -73t-18 -65.5t-40.5 -52t-68.5 -18.5q-32 0 -57.5 14.5t-25.5 45.5q0 17 12.5 29t29.5 12q16 0 26 -8.5t13.5 -18.5t9 -18.5
t12.5 -8.5q25 0 25 89q0 15 -1 37t-1 28q0 2 0.5 6t0.5 6v499q0 10 -0.5 35.5t-0.5 39.5q0 34 2 60t10 56.5t22 50t39 32.5t59 13q29 0 58.5 -16.5t29.5 -46.5z" />
    <glyph glyph-name="approxequal" unicode="&#x2248;" horiz-adv-x="666" 
d="M599 440q-7 -67 -40.5 -111t-96.5 -44q-44 0 -140 36q-99 35 -125 35q-29 0 -47.5 -22t-23.5 -52h-59q8 66 41 111t95 45q47 0 136 -35q97 -35 132 -35q57 0 70 72h58zM599 240q-7 -67 -40.5 -111t-96.5 -44q-44 0 -140 36q-99 35 -125 35q-29 0 -47.5 -22t-23.5 -52h-59
q8 66 41 111t95 45q47 0 136 -35q97 -35 132 -35q57 0 70 72h58z" />
    <glyph glyph-name="notequal" unicode="&#x2260;" horiz-adv-x="666" 
d="M552 108h-286l-77 -149l-73 38l58 111h-134v84h177l63 123h-240v84h284l77 149l74 -37l-59 -112h136v-84h-179l-64 -123h243v-84z" />
    <glyph glyph-name="lessequal" unicode="&#x2264;" horiz-adv-x="666" 
d="M589 130l-512 179v86l512 183v-89l-397 -137l397 -134v-88zM589 8h-512v84h512v-84z" />
    <glyph glyph-name="greaterequal" unicode="&#x2265;" horiz-adv-x="666" 
d="M589 309l-512 -179v88l397 134l-397 137v89l512 -183v-86zM589 8h-512v84h512v-84z" />
    <glyph glyph-name="lozenge" unicode="&#x25ca;" horiz-adv-x="593" 
d="M511 356l-174 -391h-82l-173 391l173 391h82zM424 356l-128 305l-127 -305l127 -305z" />
    <glyph glyph-name="f_i" unicode="&#xf001;" horiz-adv-x="574" 
d="M304 474v-77h-110v-397h-94v397h-94v77h94v99q0 89 43 142t134 53q34 0 59 -7l-11 -81q-25 7 -47 7q-84 0 -84 -114v-99h110zM491 474v-474h-94v474h94zM507 645q0 -25 -18.5 -42.5t-44.5 -17.5t-44 17.5t-18 42.5t18 43t44 18t44.5 -17.5t18.5 -43.5z" />
    <glyph glyph-name="f_l" unicode="&#xf002;" horiz-adv-x="574" 
d="M304 474v-77h-110v-397h-94v397h-94v77h94v99q0 89 43 142t134 53q34 0 59 -7l-11 -81q-25 7 -47 7q-84 0 -84 -114v-99h110zM491 756v-756h-94v756h94z" />
    <glyph glyph-name="uniF8FF" unicode="&#xf8ff;" horiz-adv-x="512" 
d="M278 117h-56v67h56v-67zM271 234h-46l-2 17q0 56 13 81q15 28 46 59q31 29 40.5 46t9.5 37q0 36 -22.5 60.5t-53.5 24.5q-71 0 -82 -95l-50 8q7 69 43 103t92 34q54 0 89 -36t35 -95q0 -34 -13 -60t-50 -60q-37 -33 -43 -52q-6 -20 -6 -72zM50 50h412v617h-412v-617z
M0 718h512v-718h-512v718z" />
    <glyph glyph-name="grave.cap" 
d="M114 764l-137 144h114l100 -144h-77z" />
    <glyph glyph-name="acute.cap" 
d="M273 908l-137 -144h-76l99 144h114z" />
    <glyph glyph-name="circumflex.cap" 
d="M179 908l112 -144h-91l-75 99l-76 -99h-90l112 144h108z" />
    <glyph glyph-name="caron.cap" 
d="M290 908l-112 -144h-107l-111 144h90l76 -99l76 99h88z" />
    <glyph glyph-name="caron.alt" 
d="M228 708l-78 -190h-79l64 190h93z" />
    <glyph glyph-name="tilde.cap" 
d="M7 772h-55q20 116 102 116q33 0 75 -20q48 -22 67 -22q34 0 48 46h54q-20 -116 -102 -116q-31 0 -77 21q-42 21 -65 21q-35 0 -47 -46z" />
    <glyph glyph-name="dieresis.cap" 
d="M-34 845q0 25 18 43t44 18t44 -17.5t18 -43.5q0 -25 -18 -42.5t-44 -17.5t-44 18t-18 42zM160 845q0 25 18 43t44 18t44 -17.5t18 -43.5q0 -25 -18 -42.5t-44 -17.5t-44 18t-18 42z" />
    <glyph glyph-name="macron.cap" 
d="M273 864v-67h-296v67h296z" />
    <glyph glyph-name="breve.cap" 
d="M229 908h55q-6 -67 -48.5 -102.5t-110.5 -35.5q-69 0 -112 35.5t-47 102.5h56q6 -36 34.5 -54t68.5 -18q88 0 104 72z" />
    <glyph glyph-name="ring.cap" 
d="M226 853q0 -42 -29.5 -70.5t-71.5 -28.5t-71 28t-29 70t29 70.5t71 28.5t71.5 -28t29.5 -70zM185 853q0 25 -17.5 41.5t-42.5 16.5t-42 -17t-17 -42q0 -24 17 -40.5t42 -16.5t42.5 16.5t17.5 41.5z" />
    <glyph glyph-name="hungarumlaut.cap" 
d="M176 908l-137 -144h-77l100 144h114zM358 908l-136 -144h-77l100 144h113z" />
    <glyph glyph-name="dotaccent.cap" 
d="M188 845q0 -25 -18.5 -42.5t-44.5 -17.5t-44 17.5t-18 42.5t18 43t44 18t44.5 -17.5t18.5 -43.5z" />
    <glyph glyph-name="commaaccent" 
d="M202 -45l-78 -190h-79l64 190h93z" />
    <glyph glyph-name="commaaccent.alt" 
d="M70 564l78 190h79l-64 -190h-93z" />
    <glyph glyph-name="zero.denominator" horiz-adv-x="385" 
d="M342 214q0 -99 -36.5 -160t-112.5 -61q-77 0 -114 61t-37 160q0 98 37.5 158.5t113.5 60.5q75 0 112 -60.5t37 -158.5zM265 214q0 62 -17 107t-55 45q-27 0 -44.5 -24.5t-23.5 -56.5t-6 -71q0 -40 6 -72.5t23.5 -57t44.5 -24.5q38 0 55 45t17 109z" />
    <glyph glyph-name="one.denominator" horiz-adv-x="385" 
d="M247 426v-426h-78v332l-68 -59l-46 51l125 102h67z" />
    <glyph glyph-name="two.denominator" horiz-adv-x="385" 
d="M333 69v-69h-283v67l164 165q40 42 40 78q0 25 -17 40t-43 15q-27 0 -45 -18.5t-23 -49.5l-74 10q8 55 47.5 90.5t94.5 35.5q58 0 98 -32t40 -91q0 -38 -18 -67t-52 -62l-114 -112h185z" />
    <glyph glyph-name="three.denominator" horiz-adv-x="385" 
d="M143 189v62h27q80 0 80 63q0 23 -18 38t-43 15q-46 0 -66 -51l-68 23q18 44 54.5 69t81.5 25q59 0 97 -30t38 -86q0 -32 -17.5 -56.5t-44.5 -36.5q32 -10 52.5 -37.5t20.5 -63.5q0 -62 -43 -96t-103 -34q-114 0 -151 105l71 22q20 -60 78 -60q30 0 51.5 16.5t21.5 48.5
q0 34 -27 49t-65 15h-27z" />
    <glyph glyph-name="four.denominator" horiz-adv-x="385" 
d="M291 426v-268h59v-67h-59v-91h-71v91h-189v64l177 271h83zM220 332h-3l-109 -174h112v174z" />
    <glyph glyph-name="five.denominator" horiz-adv-x="385" 
d="M335 142q0 -67 -42.5 -108t-107.5 -41q-106 0 -143 96l68 25q24 -54 75 -54q33 0 54 21t21 56q0 37 -23.5 57.5t-61.5 20.5q-47 0 -100 -30l5 241h239v-68h-166l-3 -85q20 6 42 6q64 0 103.5 -37.5t39.5 -99.5z" />
    <glyph glyph-name="six.denominator" horiz-adv-x="385" 
d="M342 138q0 -64 -42.5 -104.5t-106.5 -40.5t-107 41t-43 103q0 56 40 119l108 170h91l-104 -155l1 -1q12 4 29 4q56 0 95 -38.5t39 -97.5zM267 136q0 32 -20.5 53.5t-53.5 21.5t-54 -21t-21 -54q0 -31 21 -53.5t53 -22.5q33 0 54 21.5t21 54.5z" />
    <glyph glyph-name="seven.denominator" horiz-adv-x="385" 
d="M167 0h-86l169 358h-193v68h277v-60z" />
    <glyph glyph-name="eight.denominator" horiz-adv-x="385" 
d="M337 122q0 -59 -42 -94t-103 -35t-103 35t-42 94q0 71 64 102v1q-52 28 -52 90q0 53 38.5 85.5t94.5 32.5t94.5 -32t38.5 -85q0 -60 -51 -91v-1q29 -13 46 -40t17 -62zM192 368q-24 0 -40.5 -16t-16.5 -40t16.5 -40.5t40.5 -16.5q23 0 40 16.5t17 40.5t-16.5 40t-40.5 16
zM192 192q-30 0 -50 -19t-20 -48t20 -47.5t50 -18.5t50 18.5t20 47.5t-20 48t-50 19z" />
    <glyph glyph-name="nine.denominator" horiz-adv-x="385" 
d="M43 288q0 64 42.5 104.5t106.5 40.5t107 -41t43 -103q0 -56 -40 -119l-108 -170h-91l104 155l-1 1q-12 -4 -29 -4q-56 0 -95 38.5t-39 97.5zM118 290q0 -32 20.5 -53t53.5 -21q34 0 54.5 21t20.5 53q0 31 -21 53.5t-53 22.5q-33 0 -54 -21.5t-21 -54.5z" />
    <glyph glyph-name="zero.numerator" horiz-adv-x="385" 
d="M342 496q0 -99 -36.5 -160t-112.5 -61q-77 0 -114 61t-37 160q0 98 37.5 158.5t113.5 60.5q75 0 112 -60.5t37 -158.5zM265 496q0 62 -17 107t-55 45q-27 0 -44.5 -24.5t-23.5 -56.5t-6 -71q0 -40 6 -72.5t23.5 -57t44.5 -24.5q38 0 55 45t17 109z" />
    <glyph glyph-name="one.numerator" horiz-adv-x="385" 
d="M247 708v-426h-78v332l-68 -59l-46 51l125 102h67z" />
    <glyph glyph-name="two.numerator" horiz-adv-x="385" 
d="M333 351v-69h-283v67l164 165q40 42 40 78q0 25 -17 40t-43 15q-27 0 -45 -18.5t-23 -49.5l-74 10q8 55 47.5 90.5t94.5 35.5q58 0 98 -32t40 -91q0 -38 -18 -67t-52 -62l-114 -112h185z" />
    <glyph glyph-name="three.numerator" horiz-adv-x="385" 
d="M143 471v62h27q80 0 80 63q0 23 -18 38t-43 15q-46 0 -66 -51l-68 23q18 44 54.5 69t81.5 25q59 0 97 -30t38 -86q0 -32 -17.5 -56.5t-44.5 -36.5q32 -10 52.5 -37.5t20.5 -63.5q0 -62 -43 -96t-103 -34q-114 0 -151 105l71 22q20 -60 78 -60q30 0 51.5 16.5t21.5 48.5
q0 34 -27 49t-65 15h-27z" />
    <glyph glyph-name="four.numerator" horiz-adv-x="385" 
d="M291 708v-268h59v-67h-59v-91h-71v91h-189v64l177 271h83zM220 614h-3l-109 -174h112v174z" />
    <glyph glyph-name="five.numerator" horiz-adv-x="385" 
d="M335 424q0 -67 -42.5 -108t-107.5 -41q-106 0 -143 96l68 25q24 -54 75 -54q33 0 54 21t21 56q0 37 -23.5 57.5t-61.5 20.5q-47 0 -100 -30l5 241h239v-68h-166l-3 -85q20 6 42 6q64 0 103.5 -37.5t39.5 -99.5z" />
    <glyph glyph-name="six.numerator" horiz-adv-x="385" 
d="M342 420q0 -64 -42.5 -104.5t-106.5 -40.5t-107 41t-43 103q0 56 40 119l108 170h91l-104 -155l1 -1q12 4 29 4q56 0 95 -38.5t39 -97.5zM267 418q0 32 -20.5 53.5t-53.5 21.5t-54 -21t-21 -54q0 -31 21 -53.5t53 -22.5q33 0 54 21.5t21 54.5z" />
    <glyph glyph-name="seven.numerator" horiz-adv-x="385" 
d="M167 282h-86l169 358h-193v68h277v-60z" />
    <glyph glyph-name="eight.numerator" horiz-adv-x="385" 
d="M337 404q0 -59 -42 -94t-103 -35t-103 35t-42 94q0 71 64 102v1q-52 28 -52 90q0 53 38.5 85.5t94.5 32.5t94.5 -32t38.5 -85q0 -60 -51 -91v-1q29 -13 46 -40t17 -62zM192 650q-24 0 -40.5 -16t-16.5 -40t16.5 -40.5t40.5 -16.5q23 0 40 16.5t17 40.5t-16.5 40t-40.5 16
zM192 474q-30 0 -50 -19t-20 -48t20 -47.5t50 -18.5t50 18.5t20 47.5t-20 48t-50 19z" />
    <glyph glyph-name="nine.numerator" horiz-adv-x="385" 
d="M43 570q0 64 42.5 104.5t106.5 40.5t107 -41t43 -103q0 -56 -40 -119l-108 -170h-91l104 155l-1 1q-12 -4 -29 -4q-56 0 -95 38.5t-39 97.5zM118 572q0 -32 20.5 -53t53.5 -21q34 0 54.5 21t20.5 53q0 31 -21 53.5t-53 22.5q-33 0 -54 -21.5t-21 -54.5z" />
    <glyph glyph-name="cyrbreve" 
d="M125 570q-64 0 -103.5 36t-47.5 98l55 8q6 -36 32 -56t64 -20t64 20t32 56l55 -11q-8 -61 -47.5 -96t-103.5 -35z" />
    <glyph glyph-name="cyrbreve.cap" 
d="M125 770q-63 0 -105 35.5t-49 97.5l57 11q6 -36 32.5 -57t64.5 -21t64.5 21t32.5 57l57 -11q-7 -62 -49 -97.5t-105 -35.5z" />
    <glyph glyph-name="exclam.sc" horiz-adv-x="320" 
d="M208 536v-363h-96v363h96zM226 59q0 -27 -19 -46t-47 -19q-27 0 -46.5 19t-19.5 45t19 45.5t47 19.5t47 -19t19 -45z" />
    <glyph glyph-name="dollar.sc" horiz-adv-x="504" 
d="M229 76v166q-79 23 -116 57t-37 93q0 62 41.5 100.5t111.5 43.5v61h48v-61q79 -3 143 -58l-60 -62q-38 41 -83 44v-149q157 -45 157 -160q0 -64 -42.5 -106t-114.5 -45v-63h-48v63q-106 5 -169 77l68 60q43 -59 101 -61zM277 229v-153q31 3 49 22t18 49q0 57 -67 82z
M229 325v135q-29 -2 -46.5 -19t-17.5 -45t15.5 -44.5t48.5 -26.5z" />
    <glyph glyph-name="percent.sc" horiz-adv-x="706" 
d="M45 412q0 60 40 96t100 36q62 0 101.5 -36t39.5 -96q0 -59 -40 -96.5t-101 -37.5q-60 0 -100 37.5t-40 96.5zM126 412q0 -28 16.5 -45.5t42.5 -17.5q27 0 43.5 17.5t16.5 45.5t-16 45t-44 17q-26 0 -42.5 -17t-16.5 -45zM384 122q0 60 40 96t100 36q62 0 101.5 -36
t39.5 -96q0 -59 -40 -96.5t-101 -37.5q-60 0 -100 37.5t-40 96.5zM465 122q0 -28 16.5 -45.5t42.5 -17.5q27 0 43.5 17.5t16.5 45.5t-16 45t-44 17q-26 0 -42.5 -17t-16.5 -45zM550 528l-327 -558l-64 36l328 559z" />
    <glyph glyph-name="ampersand.sc" horiz-adv-x="619" 
d="M565 284l-100 -157l125 -127h-127l-52 55q-58 -69 -160 -69q-76 0 -128.5 40.5t-52.5 115.5q0 101 111 156q-53 61 -53 117q0 61 43.5 98t105.5 37t104 -35t42 -95q0 -86 -110 -141l91 -93l56 98h105zM334 419q0 24 -15.5 38.5t-40.5 14.5t-41.5 -16.5t-16.5 -41.5
q0 -36 42 -81q72 33 72 86zM352 115l-119 124q-67 -28 -67 -96q0 -35 23.5 -57t60.5 -22q66 0 102 51z" />
    <glyph glyph-name="parenleft.sc" horiz-adv-x="258" 
d="M107 268q0 -158 100 -296l-65 -43q-116 158 -116 339q0 183 116 339l65 -42q-100 -138 -100 -297z" />
    <glyph glyph-name="parenright.sc" horiz-adv-x="258" 
d="M232 268q0 -181 -116 -339l-65 43q100 138 100 296t-100 296l65 43q116 -158 116 -339z" />
    <glyph glyph-name="bracketleft.sc" horiz-adv-x="258" 
d="M198 -66h-153v668h153v-65h-72v-538h72v-65z" />
    <glyph glyph-name="backslash.sc" horiz-adv-x="306" 
d="M305 -2l-71 -25l-233 565l70 26z" />
    <glyph glyph-name="bracketright.sc" horiz-adv-x="258" 
d="M60 602h153v-668h-153v65h72v538h-72v65z" />
    <glyph glyph-name="braceleft.sc" horiz-adv-x="258" 
d="M219 -66h-62q-42 0 -69.5 26t-27.5 78v127q0 67 -55 67v73q55 0 55 66v128q0 52 27.5 77.5t69.5 25.5h62v-66h-47q-31 0 -31 -42v-114q0 -91 -75 -111v-2q75 -18 75 -110v-115q0 -42 31 -42h47v-66z" />
    <glyph glyph-name="slash.sc" horiz-adv-x="306" 
d="M72 -27l-70 25l233 566l70 -26z" />
    <glyph glyph-name="braceright.sc" horiz-adv-x="258" 
d="M101 -66h-62v66h47q31 0 31 42v115q0 92 75 110v2q-75 20 -75 111v114q0 42 -31 42h-47v66h62q42 0 69.5 -25.5t27.5 -77.5v-128q0 -66 55 -66v-73q-55 0 -55 -67v-127q0 -52 -27.5 -78t-69.5 -26z" />
    <glyph glyph-name="zero.sc" horiz-adv-x="504" 
d="M252 548q95 0 144.5 -77.5t49.5 -203.5t-49.5 -203.5t-144.5 -77.5q-96 0 -145 77.5t-49 203.5t49 203.5t145 77.5zM252 462q-48 0 -72 -56t-24 -139q0 -84 23.5 -139.5t72.5 -55.5t72.5 55.5t23.5 139.5q0 83 -24 139t-72 56z" />
    <glyph glyph-name="one.sc" horiz-adv-x="504" 
d="M333 536v-536h-95v417l-92 -79l-56 65l161 133h82z" />
    <glyph glyph-name="two.sc" horiz-adv-x="504" 
d="M429 81v-81h-356v83l196 195q58 58 58 115q0 31 -20.5 53t-55.5 22q-71 0 -87 -84l-91 16q11 68 59.5 109t118.5 41q75 0 124 -40t49 -114q0 -86 -89 -173l-147 -142h241z" />
    <glyph glyph-name="three.sc" horiz-adv-x="504" 
d="M188 241v77h36q45 0 73 18.5t28 59.5q0 32 -23 52.5t-56 20.5q-60 0 -83 -64l-85 31q22 55 66.5 84.5t104.5 29.5q73 0 121.5 -39.5t48.5 -109.5q0 -41 -23 -72.5t-64 -46.5v-1q46 -12 73 -46t27 -81q0 -78 -54 -123t-130 -45q-140 0 -188 128l88 30q28 -76 99 -76
q37 0 64 22.5t27 63.5q0 44 -32 65.5t-83 21.5h-35z" />
    <glyph glyph-name="four.sc" horiz-adv-x="504" 
d="M384 536v-342h73v-80h-73v-114h-92v114h-239v77l215 345h116zM292 194v234h-3l-136 -234h139z" />
    <glyph glyph-name="five.sc" horiz-adv-x="504" 
d="M410 536v-80h-212l-4 -116q27 8 55 8q83 0 134 -47t51 -127q0 -83 -54.5 -135.5t-141.5 -52.5q-64 0 -111.5 30t-69.5 88l83 37q26 -74 99 -74q44 0 72 28t28 74q0 51 -30.5 77t-77.5 26q-59 0 -130 -38l8 302h301z" />
    <glyph glyph-name="six.sc" horiz-adv-x="504" 
d="M158 165q0 -44 27.5 -71.5t68.5 -27.5t68 28.5t27 71.5t-26 70.5t-69 27.5q-42 0 -69 -28t-27 -71zM221 328l1 -1q25 11 52 11q74 0 122 -46t48 -123q0 -81 -54 -132t-136 -51q-83 0 -137 50t-54 128q0 75 60 169l127 203h112z" />
    <glyph glyph-name="seven.sc" horiz-adv-x="504" 
d="M426 536v-76l-211 -460h-109l219 451h-253v85h354z" />
    <glyph glyph-name="eight.sc" horiz-adv-x="504" 
d="M419 401q0 -39 -21 -70.5t-59 -46.5v-2q47 -16 73.5 -50.5t26.5 -81.5q0 -76 -53.5 -120t-133.5 -44q-81 0 -134.5 44t-53.5 120q0 47 25.5 81.5t71.5 50.5v2q-35 14 -56 45t-21 70q0 68 48.5 109.5t119.5 41.5t119 -40.5t48 -108.5zM160 153q0 -40 25.5 -64t66.5 -24
q40 0 65.5 24.5t25.5 63.5t-26 65t-65 26q-40 0 -66 -26t-26 -65zM176 394q0 -33 22 -53.5t54 -20.5q31 0 53 20.5t22 53.5q0 34 -22 55.5t-53 21.5q-33 0 -54.5 -21.5t-21.5 -55.5z" />
    <glyph glyph-name="nine.sc" horiz-adv-x="504" 
d="M348 374q0 43 -27.5 69.5t-69.5 26.5q-41 0 -67.5 -27t-26.5 -70t26 -70.5t69 -27.5q42 0 69 28t27 71zM285 211l-1 1q-25 -11 -52 -11q-74 0 -122 46t-48 123q0 81 53.5 130.5t135.5 49.5q83 0 137 -50t54 -128q0 -75 -60 -169l-127 -203h-112z" />
    <glyph glyph-name="question.sc" horiz-adv-x="440" 
d="M263 194v-21h-92v26q0 58 38 92l24 21q31 27 43 46.5t12 43.5q0 26 -17 45t-50 19q-61 0 -73 -71l-93 12q10 69 55.5 106t116.5 37q78 0 118.5 -43t40.5 -104q0 -71 -70 -127q-32 -25 -42.5 -42t-10.5 -40zM285 58q0 -27 -18.5 -45.5t-46.5 -18.5t-47 18t-19 45t19 45.5
t47 18.5t46.5 -18.5t18.5 -44.5z" />
    <glyph glyph-name="a.sc" horiz-adv-x="550" 
d="M155 124l-51 -124h-101l228 536h89l227 -536h-104l-50 124h-238zM274 426l-90 -225h179z" />
    <glyph glyph-name="b.sc" horiz-adv-x="539" 
d="M84 0v536h199q73 0 121.5 -33.5t48.5 -104.5q0 -82 -77 -115v-2q47 -12 74 -44t27 -82q0 -78 -58.5 -116.5t-147.5 -38.5h-187zM178 456v-141h89q40 0 65 19t25 55q0 67 -97 67h-82zM178 238v-157h90q112 0 112 80q0 77 -104 77h-98z" />
    <glyph glyph-name="c.sc" horiz-adv-x="566" 
d="M472 140l76 -53q-83 -101 -213 -101q-126 0 -204.5 78t-78.5 205q0 125 82 203t207 78q60 0 112.5 -23t84.5 -64l-75 -59q-43 61 -124 61q-83 0 -133.5 -55.5t-50.5 -140.5q0 -82 52 -140t128 -58q87 0 137 69z" />
    <glyph glyph-name="d.sc" horiz-adv-x="619" 
d="M84 0v536h193q56 0 106 -15t92.5 -45.5t67 -83.5t24.5 -123q0 -88 -44 -151t-108 -90.5t-140 -27.5h-191zM180 456v-375h80q91 0 148 49.5t57 138.5q0 95 -56.5 141t-148.5 46h-80z" />
    <glyph glyph-name="e.sc" horiz-adv-x="507" 
d="M179 238v-157h273v-81h-368v536h356v-80h-261v-141h247v-77h-247z" />
    <glyph glyph-name="f.sc" horiz-adv-x="476" 
d="M180 228v-228h-96v536h347v-80h-251v-150h236v-78h-236z" />
    <glyph glyph-name="g.sc" horiz-adv-x="625" 
d="M544 478l-67 -69q-51 56 -137 56q-84 0 -134.5 -56t-50.5 -140t52 -141t137 -57q63 0 108 21v132h-113v78h209v-268q-91 -48 -206 -48q-128 0 -209 79.5t-81 203.5q0 125 81.5 203t205.5 78q128 0 205 -72z" />
    <glyph glyph-name="h.sc" horiz-adv-x="607" 
d="M84 0v536h96v-220h247v220h96v-536h-96v237h-247v-237h-96z" />
    <glyph glyph-name="i.sc" horiz-adv-x="264" 
d="M180 536v-536h-96v536h96z" />
    <glyph glyph-name="j.sc" horiz-adv-x="407" 
d="M15 112l90 26q18 -66 66 -66q62 0 62 99v365h96v-367q0 -49 -14 -88.5t-51 -67t-93 -27.5q-60 0 -101.5 35.5t-54.5 90.5z" />
    <glyph glyph-name="k.sc" horiz-adv-x="543" 
d="M180 536v-229h2l219 229h128l-251 -247l265 -289h-131l-230 265h-2v-265h-96v536h96z" />
    <glyph glyph-name="l.sc" horiz-adv-x="420" 
d="M180 536v-455h230v-81h-326v536h96z" />
    <glyph glyph-name="m.sc" horiz-adv-x="737" 
d="M226 536l145 -383h2l142 383h138v-536h-94v409h-2l-157 -409h-64l-156 409h-2v-409h-94v536h142z" />
    <glyph glyph-name="n.sc" horiz-adv-x="618" 
d="M200 536l239 -406h2v406h93v-536h-114l-241 404h-2v-404h-93v536h116z" />
    <glyph glyph-name="o.sc" horiz-adv-x="681" 
d="M629 269q0 -123 -82.5 -203t-207.5 -80q-123 0 -205 80t-82 203q0 125 81.5 203t205.5 78q126 0 208 -78t82 -203zM526 269q0 85 -51.5 140.5t-135.5 55.5q-83 0 -133.5 -55.5t-50.5 -140.5q0 -86 50.5 -142t133.5 -56q84 0 135.5 56t51.5 142z" />
    <glyph glyph-name="p.sc" horiz-adv-x="505" 
d="M84 0v536h186q93 0 146 -43t53 -121q0 -81 -54.5 -125t-147.5 -44h-87v-203h-96zM180 456v-175h81q52 0 82 22.5t30 66.5q0 42 -28 64t-80 22h-85z" />
    <glyph glyph-name="q.sc" horiz-adv-x="687" 
d="M653 81v-81h-318q-127 0 -205 74.5t-78 200.5q0 120 80.5 197.5t202.5 77.5q123 0 202.5 -75.5t79.5 -195.5q0 -126 -94 -195v-3h130zM155 275q0 -85 50 -139.5t130 -54.5t130.5 54.5t50.5 139.5q0 81 -51 136t-130 55q-78 0 -129 -55t-51 -136z" />
    <glyph glyph-name="r.sc" horiz-adv-x="525" 
d="M180 226v-226h-96v536h191q196 0 196 -149q0 -57 -31.5 -95t-85.5 -52l139 -240h-111l-125 226h-77zM180 456v-152h83q111 0 111 80q0 72 -105 72h-89z" />
    <glyph glyph-name="s.sc" horiz-adv-x="465" 
d="M408 483l-61 -64q-39 49 -105 49q-37 0 -62 -19.5t-25 -52.5q0 -34 22 -49.5t75 -33.5q34 -11 57 -21.5t49 -28.5t39 -46t13 -64q0 -82 -53.5 -124.5t-135.5 -42.5q-56 0 -106 22t-81 61l66 61q45 -60 123 -60q40 0 66.5 18.5t26.5 52.5q0 37 -27.5 57.5t-89.5 39.5
q-66 21 -102.5 53t-36.5 98q0 78 55.5 119.5t132.5 41.5q100 0 160 -67z" />
    <glyph glyph-name="t.sc" horiz-adv-x="442" 
d="M268 456v-456h-96v456h-164v80h426v-80h-166z" />
    <glyph glyph-name="u.sc" horiz-adv-x="595" 
d="M297 -14q-102 0 -160.5 60t-58.5 154v336h96v-329q0 -59 30 -97t93 -38t93.5 38t30.5 97v329h96v-336q0 -94 -59 -154t-161 -60z" />
    <glyph glyph-name="v.sc" horiz-adv-x="504" 
d="M102 536l150 -410h3l150 410h101l-212 -536h-86l-210 536h104z" />
    <glyph glyph-name="w.sc" horiz-adv-x="796" 
d="M6 536h105l115 -409h2l118 409h104l121 -409h2l115 409h102l-165 -536h-103l-123 402h-2l-122 -402h-103z" />
    <glyph glyph-name="x.sc" horiz-adv-x="508" 
d="M137 536l118 -185l116 185h111l-171 -253l195 -283h-119l-135 210l-135 -210h-115l192 283l-172 253h115z" />
    <glyph glyph-name="y.sc" horiz-adv-x="473" 
d="M284 216v-216h-96v216l-194 320h108l137 -243l137 243h103z" />
    <glyph glyph-name="z.sc" horiz-adv-x="496" 
d="M446 536v-80l-281 -375h285v-81h-404v79l282 377h-278v80h396z" />
    <glyph glyph-name="agrave.sc" horiz-adv-x="550" 
d="M155 124l-51 -124h-101l228 536h89l227 -536h-104l-50 124h-238zM274 426l-90 -225h179zM242 594l-136 144h113l100 -144h-77z" />
    <glyph glyph-name="aacute.sc" horiz-adv-x="550" 
d="M155 124l-51 -124h-101l228 536h89l227 -536h-104l-50 124h-238zM274 426l-90 -225h179zM447 738l-136 -144h-77l100 144h113z" />
    <glyph glyph-name="acircumflex.sc" horiz-adv-x="550" 
d="M155 124l-51 -124h-101l228 536h89l227 -536h-104l-50 124h-238zM274 426l-90 -225h179zM328 738l112 -144h-91l-75 99l-76 -99h-90l112 144h108z" />
    <glyph glyph-name="atilde.sc" horiz-adv-x="550" 
d="M155 124l-51 -124h-101l228 536h89l227 -536h-104l-50 124h-238zM274 426l-90 -225h179zM157 602h-55q20 116 102 116q33 0 75 -20q48 -22 67 -22q34 0 48 46h54q-20 -116 -102 -116q-31 0 -77 21q-42 21 -65 21q-35 0 -47 -46z" />
    <glyph glyph-name="adieresis.sc" horiz-adv-x="550" 
d="M155 124l-51 -124h-101l228 536h89l227 -536h-104l-50 124h-238zM274 426l-90 -225h179zM116 675q0 25 18 43t44 18t44 -17.5t18 -43.5q0 -25 -18 -42.5t-44 -17.5t-44 18t-18 42zM310 675q0 25 18 43t44 18t44 -17.5t18 -43.5q0 -25 -18 -42.5t-44 -17.5t-44 18t-18 42z
" />
    <glyph glyph-name="amacron.sc" horiz-adv-x="550" 
d="M155 124l-51 -124h-101l228 536h89l227 -536h-104l-50 124h-238zM274 426l-90 -225h179zM422 694v-67h-296v67h296z" />
    <glyph glyph-name="abreve.sc" horiz-adv-x="550" 
d="M155 124l-51 -124h-101l228 536h89l227 -536h-104l-50 124h-238zM274 426l-90 -225h179zM378 738h55q-6 -67 -48.5 -102.5t-110.5 -35.5q-69 0 -112 35.5t-47 102.5h56q6 -36 34.5 -54t68.5 -18q88 0 104 72z" />
    <glyph glyph-name="aring.sc" horiz-adv-x="550" 
d="M155 124l-51 -124h-101l228 536h89l227 -536h-104l-50 124h-238zM274 426l-90 -225h179zM376 683q0 -42 -29.5 -70.5t-71.5 -28.5t-71 28t-29 70t29 70.5t71 28.5t71.5 -28t29.5 -70zM334 683q0 24 -17.5 40t-41.5 16t-41 -16t-17 -40t17 -40.5t41 -16.5t41.5 16.5
t17.5 40.5z" />
    <glyph glyph-name="aogonek.sc" horiz-adv-x="550" 
d="M518 -150l22 -45q-44 -37 -95 -37q-39 0 -68 24t-29 63q0 70 95 145l-50 124h-238l-51 -124h-101l228 536h89l227 -536h-50q-80 -78 -80 -125q0 -19 14 -33t34 -14q29 0 53 22zM274 426l-90 -225h179z" />
    <glyph glyph-name="ae.sc" horiz-adv-x="840" 
d="M513 238v-157h272v-81h-368v134h-215l-83 -134h-115l345 536h424v-80h-260v-141h246v-77h-246zM407 462l-157 -251h167v251h-10z" />
    <glyph glyph-name="cacute.sc" horiz-adv-x="566" 
d="M472 140l76 -53q-83 -101 -213 -101q-126 0 -204.5 78t-78.5 205q0 125 82 203t207 78q60 0 112.5 -23t84.5 -64l-75 -59q-43 61 -124 61q-83 0 -133.5 -55.5t-50.5 -140.5q0 -82 52 -140t128 -58q87 0 137 69zM475 738l-136 -144h-77l100 144h113z" />
    <glyph glyph-name="ccircumflex.sc" horiz-adv-x="566" 
d="M472 140l76 -53q-83 -101 -213 -101q-126 0 -204.5 78t-78.5 205q0 125 82 203t207 78q60 0 112.5 -23t84.5 -64l-75 -59q-43 61 -124 61q-83 0 -133.5 -55.5t-50.5 -140.5q0 -82 52 -140t128 -58q87 0 137 69zM394 738l112 -144h-91l-75 99l-76 -99h-90l112 144h108z
" />
    <glyph glyph-name="ccaron.sc" horiz-adv-x="566" 
d="M472 140l76 -53q-83 -101 -213 -101q-126 0 -204.5 78t-78.5 205q0 125 82 203t207 78q60 0 112.5 -23t84.5 -64l-75 -59q-43 61 -124 61q-83 0 -133.5 -55.5t-50.5 -140.5q0 -82 52 -140t128 -58q87 0 137 69zM505 738l-112 -144h-107l-111 144h90l76 -99l76 99h88z" />
    <glyph glyph-name="cdotaccent.sc" horiz-adv-x="566" 
d="M472 140l76 -53q-83 -101 -213 -101q-126 0 -204.5 78t-78.5 205q0 125 82 203t207 78q60 0 112.5 -23t84.5 -64l-75 -59q-43 61 -124 61q-83 0 -133.5 -55.5t-50.5 -140.5q0 -82 52 -140t128 -58q87 0 137 69zM402 675q0 -25 -18.5 -42.5t-44.5 -17.5t-44 17.5t-18 42.5
t18 43t44 18t44.5 -17.5t18.5 -43.5z" />
    <glyph glyph-name="ccedilla.sc" horiz-adv-x="566" 
d="M472 140l76 -53q-77 -93 -192 -100l-37 -56q9 2 27 2q39 0 66.5 -18.5t27.5 -59.5q0 -48 -38 -69t-89 -21q-57 0 -103 23l20 42q37 -17 77 -17q22 0 41.5 9.5t19.5 32.5q0 38 -54 38q-18 0 -41 -7l-20 20l53 82q-115 9 -184.5 85t-69.5 196q0 125 82 203t207 78
q60 0 112.5 -23t84.5 -64l-75 -59q-43 61 -124 61q-83 0 -133.5 -55.5t-50.5 -140.5q0 -82 52 -140t128 -58q87 0 137 69z" />
    <glyph glyph-name="dcaron.sc" horiz-adv-x="619" 
d="M84 0v536h193q56 0 106 -15t92.5 -45.5t67 -83.5t24.5 -123q0 -88 -44 -151t-108 -90.5t-140 -27.5h-191zM180 456v-375h80q91 0 148 49.5t57 138.5q0 95 -56.5 141t-148.5 46h-80zM465 738l-112 -144h-107l-111 144h90l76 -99l76 99h88z" />
    <glyph glyph-name="dcroat.sc" horiz-adv-x="619" 
d="M84 0v244h-69v70h69v222h193q56 0 106 -15t92.5 -45.5t67 -83.5t24.5 -123q0 -88 -44 -151t-108 -90.5t-140 -27.5h-191zM180 456v-142h131v-70h-131v-163h80q91 0 148 49.5t57 138.5q0 95 -56.5 141t-148.5 46h-80z" />
    <glyph glyph-name="eth.sc" horiz-adv-x="619" 
d="M84 0v244h-69v70h69v222h193q56 0 106 -15t92.5 -45.5t67 -83.5t24.5 -123q0 -88 -44 -151t-108 -90.5t-140 -27.5h-191zM180 456v-142h131v-70h-131v-163h80q91 0 148 49.5t57 138.5q0 95 -56.5 141t-148.5 46h-80z" />
    <glyph glyph-name="egrave.sc" horiz-adv-x="507" 
d="M179 238v-157h273v-81h-368v536h356v-80h-261v-141h247v-77h-247zM242 594l-136 144h113l100 -144h-77z" />
    <glyph glyph-name="eacute.sc" horiz-adv-x="507" 
d="M179 238v-157h273v-81h-368v536h356v-80h-261v-141h247v-77h-247zM428 738l-136 -144h-77l100 144h113z" />
    <glyph glyph-name="ecircumflex.sc" horiz-adv-x="507" 
d="M179 238v-157h273v-81h-368v536h356v-80h-261v-141h247v-77h-247zM316 738l112 -144h-91l-75 99l-76 -99h-90l112 144h108z" />
    <glyph glyph-name="ecaron.sc" horiz-adv-x="507" 
d="M179 238v-157h273v-81h-368v536h356v-80h-261v-141h247v-77h-247zM428 738l-112 -144h-107l-111 144h90l76 -99l76 99h88z" />
    <glyph glyph-name="edieresis.sc" horiz-adv-x="507" 
d="M179 238v-157h273v-81h-368v536h356v-80h-261v-141h247v-77h-247zM103 675q0 25 18 43t44 18t44 -17.5t18 -43.5q0 -25 -18 -42.5t-44 -17.5t-44 18t-18 42zM297 675q0 25 18 43t44 18t44 -17.5t18 -43.5q0 -25 -18 -42.5t-44 -17.5t-44 18t-18 42z" />
    <glyph glyph-name="emacron.sc" horiz-adv-x="507" 
d="M179 238v-157h273v-81h-368v536h356v-80h-261v-141h247v-77h-247zM408 694v-67h-296v67h296z" />
    <glyph glyph-name="ebreve.sc" horiz-adv-x="507" 
d="M179 238v-157h273v-81h-368v536h356v-80h-261v-141h247v-77h-247zM364 738h55q-6 -67 -48.5 -102.5t-110.5 -35.5q-69 0 -112 35.5t-47 102.5h56q6 -36 34.5 -54t68.5 -18q88 0 104 72z" />
    <glyph glyph-name="edotaccent.sc" horiz-adv-x="507" 
d="M179 238v-157h273v-81h-368v536h356v-80h-261v-141h247v-77h-247zM328 675q0 -25 -18.5 -42.5t-44.5 -17.5t-44 17.5t-18 42.5t18 43t44 18t44.5 -17.5t18.5 -43.5z" />
    <glyph glyph-name="eogonek.sc" horiz-adv-x="507" 
d="M440 -150l22 -45q-44 -37 -95 -37q-39 0 -68 24t-29 63q0 70 95 145h-281v536h356v-80h-261v-141h247v-77h-247v-157h273v-81h-33q-80 -78 -80 -125q0 -19 14 -33t34 -14q29 0 53 22z" />
    <glyph glyph-name="gcircumflex.sc" horiz-adv-x="625" 
d="M544 478l-67 -69q-51 56 -137 56q-84 0 -134.5 -56t-50.5 -140t52 -141t137 -57q63 0 108 21v132h-113v78h209v-268q-91 -48 -206 -48q-128 0 -209 79.5t-81 203.5q0 125 81.5 203t205.5 78q128 0 205 -72zM397 738l112 -144h-91l-75 99l-76 -99h-90l112 144h108z" />
    <glyph glyph-name="gbreve.sc" horiz-adv-x="625" 
d="M544 478l-67 -69q-51 56 -137 56q-84 0 -134.5 -56t-50.5 -140t52 -141t137 -57q63 0 108 21v132h-113v78h209v-268q-91 -48 -206 -48q-128 0 -209 79.5t-81 203.5q0 125 81.5 203t205.5 78q128 0 205 -72zM446 738h55q-6 -67 -48.5 -102.5t-110.5 -35.5q-69 0 -112 35.5
t-47 102.5h56q6 -36 34.5 -54t68.5 -18q88 0 104 72z" />
    <glyph glyph-name="gdotaccent.sc" horiz-adv-x="625" 
d="M544 478l-67 -69q-51 56 -137 56q-84 0 -134.5 -56t-50.5 -140t52 -141t137 -57q63 0 108 21v132h-113v78h209v-268q-91 -48 -206 -48q-128 0 -209 79.5t-81 203.5q0 125 81.5 203t205.5 78q128 0 205 -72zM403 675q0 -25 -18.5 -42.5t-44.5 -17.5t-44 17.5t-18 42.5
t18 43t44 18t44.5 -17.5t18.5 -43.5z" />
    <glyph glyph-name="gcommaaccent.sc" horiz-adv-x="625" 
d="M544 478l-67 -69q-51 56 -137 56q-84 0 -134.5 -56t-50.5 -140t52 -141t137 -57q63 0 108 21v132h-113v78h209v-268q-91 -48 -206 -48q-128 0 -209 79.5t-81 203.5q0 125 81.5 203t205.5 78q128 0 205 -72zM395 -45l-78 -190h-79l64 190h93z" />
    <glyph glyph-name="kgreenlandic.sc" horiz-adv-x="543" 
d="M180 536v-229h2l219 229h128l-251 -247l265 -289h-131l-230 265h-2v-265h-96v536h96z" />
    <glyph glyph-name="hcircumflex.sc" horiz-adv-x="607" 
d="M84 0v536h96v-220h247v220h96v-536h-96v237h-247v-237h-96zM359 738l112 -144h-91l-75 99l-76 -99h-90l112 144h108z" />
    <glyph glyph-name="hbar.sc" horiz-adv-x="607" 
d="M84 0v536h96v-93h247v93h96v-536h-96v237h-247v-237h-96zM180 310h247v80h-247v-80z" />
    <glyph glyph-name="igrave.sc" horiz-adv-x="264" 
d="M180 536v-536h-96v536h96zM103 594l-136 144h113l100 -144h-77z" />
    <glyph glyph-name="iacute.sc" horiz-adv-x="264" 
d="M180 536v-536h-96v536h96zM300 738l-136 -144h-77l100 144h113z" />
    <glyph glyph-name="ibreve.sc" horiz-adv-x="264" 
d="M180 536v-536h-96v536h96zM236 738h55q-6 -67 -48.5 -102.5t-110.5 -35.5q-69 0 -112 35.5t-47 102.5h56q6 -36 34.5 -54t68.5 -18q88 0 104 72z" />
    <glyph glyph-name="icircumflex.sc" horiz-adv-x="264" 
d="M180 536v-536h-96v536h96zM186 738l112 -144h-91l-75 99l-76 -99h-90l112 144h108z" />
    <glyph glyph-name="itilde.sc" horiz-adv-x="264" 
d="M180 536v-536h-96v536h96zM14 602h-55q20 116 102 116q33 0 75 -20q48 -22 67 -22q34 0 48 46h54q-20 -116 -102 -116q-31 0 -77 21q-42 21 -65 21q-35 0 -47 -46z" />
    <glyph glyph-name="idieresis.sc" horiz-adv-x="264" 
d="M180 536v-536h-96v536h96zM-26 675q0 25 18 43t44 18t44 -17.5t18 -43.5q0 -25 -18 -42.5t-44 -17.5t-44 18t-18 42zM168 675q0 25 18 43t44 18t44 -17.5t18 -43.5q0 -25 -18 -42.5t-44 -17.5t-44 18t-18 42z" />
    <glyph glyph-name="imacron.sc" horiz-adv-x="264" 
d="M180 536v-536h-96v536h96zM280 694v-67h-296v67h296z" />
    <glyph glyph-name="idotaccent.sc" horiz-adv-x="264" 
d="M180 536v-536h-96v536h96zM194 675q0 -25 -18.5 -42.5t-44.5 -17.5t-44 17.5t-18 42.5t18 43t44 18t44.5 -17.5t18.5 -43.5z" />
    <glyph glyph-name="iogonek.sc" horiz-adv-x="264" 
d="M201 -150l22 -45q-44 -37 -95 -37q-39 0 -68 24t-29 63q0 70 95 145h-42v536h96v-536q-80 -78 -80 -125q0 -19 14 -33t34 -14q29 0 53 22z" />
    <glyph glyph-name="jcircumflex.sc" horiz-adv-x="407" 
d="M15 112l90 26q18 -66 66 -66q62 0 62 99v365h96v-367q0 -49 -14 -88.5t-51 -67t-93 -27.5q-60 0 -101.5 35.5t-54.5 90.5zM336 738l112 -144h-91l-75 99l-76 -99h-90l112 144h108z" />
    <glyph glyph-name="kcommaaccent.sc" horiz-adv-x="543" 
d="M180 536v-229h2l219 229h128l-251 -247l265 -289h-131l-230 265h-2v-265h-96v536h96zM348 -45l-78 -190h-79l64 190h93z" />
    <glyph glyph-name="lacute.sc" horiz-adv-x="420" 
d="M180 536v-455h230v-81h-326v536h96zM305 738l-136 -144h-77l100 144h113z" />
    <glyph glyph-name="lcaron.sc" horiz-adv-x="420" 
d="M180 536v-455h230v-81h-326v536h96zM391 536l-78 -190h-79l64 190h93z" />
    <glyph glyph-name="lcommaaccent.sc" horiz-adv-x="420" 
d="M180 536v-455h230v-81h-326v536h96zM310 -45l-78 -190h-79l64 190h93z" />
    <glyph glyph-name="lslash.sc" horiz-adv-x="420" 
d="M180 536v-146l110 92v-90l-110 -93v-218h230v-81h-326v219l-76 -64v91l76 63v227h96z" />
    <glyph glyph-name="ldot.sc" horiz-adv-x="420" 
d="M180 536v-455h230v-81h-326v536h96zM375 315q0 -25 -18.5 -42.5t-44.5 -17.5t-44 17.5t-18 42.5t18 43t44 18t44.5 -17.5t18.5 -43.5z" />
    <glyph glyph-name="nacute.sc" horiz-adv-x="618" 
d="M200 536l239 -406h2v406h93v-536h-114l-241 404h-2v-404h-93v536h116zM451 738l-136 -144h-77l100 144h113z" />
    <glyph glyph-name="ncaron.sc" horiz-adv-x="618" 
d="M200 536l239 -406h2v406h93v-536h-114l-241 404h-2v-404h-93v536h116zM472 738l-112 -144h-107l-111 144h90l76 -99l76 99h88z" />
    <glyph glyph-name="ntilde.sc" horiz-adv-x="618" 
d="M200 536l239 -406h2v406h93v-536h-114l-241 404h-2v-404h-93v536h116zM188 602h-55q20 116 102 116q33 0 75 -20q48 -22 67 -22q34 0 48 46h54q-20 -116 -102 -116q-31 0 -77 21q-42 21 -65 21q-35 0 -47 -46z" />
    <glyph glyph-name="ncommaaccent.sc" horiz-adv-x="618" 
d="M200 536l239 -406h2v406h93v-536h-114l-241 404h-2v-404h-93v536h116zM370 -45l-78 -190h-79l64 190h93z" />
    <glyph glyph-name="ograve.sc" horiz-adv-x="681" 
d="M629 269q0 -123 -82.5 -203t-207.5 -80q-123 0 -205 80t-82 203q0 125 81.5 203t205.5 78q126 0 208 -78t82 -203zM526 269q0 85 -51.5 140.5t-135.5 55.5q-83 0 -133.5 -55.5t-50.5 -140.5q0 -86 50.5 -142t133.5 -56q84 0 135.5 56t51.5 142zM314 594l-136 144h113
l100 -144h-77z" />
    <glyph glyph-name="oacute.sc" horiz-adv-x="681" 
d="M629 269q0 -123 -82.5 -203t-207.5 -80q-123 0 -205 80t-82 203q0 125 81.5 203t205.5 78q126 0 208 -78t82 -203zM526 269q0 85 -51.5 140.5t-135.5 55.5q-83 0 -133.5 -55.5t-50.5 -140.5q0 -86 50.5 -142t133.5 -56q84 0 135.5 56t51.5 142zM501 738l-136 -144h-77
l100 144h113z" />
    <glyph glyph-name="ocircumflex.sc" horiz-adv-x="681" 
d="M629 269q0 -123 -82.5 -203t-207.5 -80q-123 0 -205 80t-82 203q0 125 81.5 203t205.5 78q126 0 208 -78t82 -203zM526 269q0 85 -51.5 140.5t-135.5 55.5q-83 0 -133.5 -55.5t-50.5 -140.5q0 -86 50.5 -142t133.5 -56q84 0 135.5 56t51.5 142zM394 738l112 -144h-91
l-75 99l-76 -99h-90l112 144h108z" />
    <glyph glyph-name="otilde.sc" horiz-adv-x="681" 
d="M629 269q0 -123 -82.5 -203t-207.5 -80q-123 0 -205 80t-82 203q0 125 81.5 203t205.5 78q126 0 208 -78t82 -203zM526 269q0 85 -51.5 140.5t-135.5 55.5q-83 0 -133.5 -55.5t-50.5 -140.5q0 -86 50.5 -142t133.5 -56q84 0 135.5 56t51.5 142zM222 602h-55
q20 116 102 116q33 0 75 -20q48 -22 67 -22q34 0 48 46h54q-20 -116 -102 -116q-31 0 -77 21q-42 21 -65 21q-35 0 -47 -46z" />
    <glyph glyph-name="odieresis.sc" horiz-adv-x="681" 
d="M629 269q0 -123 -82.5 -203t-207.5 -80q-123 0 -205 80t-82 203q0 125 81.5 203t205.5 78q126 0 208 -78t82 -203zM526 269q0 85 -51.5 140.5t-135.5 55.5q-83 0 -133.5 -55.5t-50.5 -140.5q0 -86 50.5 -142t133.5 -56q84 0 135.5 56t51.5 142zM180 675q0 25 18 43t44 18
t44 -17.5t18 -43.5q0 -25 -18 -42.5t-44 -17.5t-44 18t-18 42zM374 675q0 25 18 43t44 18t44 -17.5t18 -43.5q0 -25 -18 -42.5t-44 -17.5t-44 18t-18 42z" />
    <glyph glyph-name="omacron.sc" horiz-adv-x="681" 
d="M629 269q0 -123 -82.5 -203t-207.5 -80q-123 0 -205 80t-82 203q0 125 81.5 203t205.5 78q126 0 208 -78t82 -203zM526 269q0 85 -51.5 140.5t-135.5 55.5q-83 0 -133.5 -55.5t-50.5 -140.5q0 -86 50.5 -142t133.5 -56q84 0 135.5 56t51.5 142zM487 694v-67h-296v67h296z
" />
    <glyph glyph-name="obreve.sc" horiz-adv-x="681" 
d="M629 269q0 -123 -82.5 -203t-207.5 -80q-123 0 -205 80t-82 203q0 125 81.5 203t205.5 78q126 0 208 -78t82 -203zM526 269q0 85 -51.5 140.5t-135.5 55.5q-83 0 -133.5 -55.5t-50.5 -140.5q0 -86 50.5 -142t133.5 -56q84 0 135.5 56t51.5 142zM444 738h55
q-6 -67 -48.5 -102.5t-110.5 -35.5q-69 0 -112 35.5t-47 102.5h56q6 -36 34.5 -54t68.5 -18q88 0 104 72z" />
    <glyph glyph-name="ohungarumlaut.sc" horiz-adv-x="681" 
d="M629 269q0 -123 -82.5 -203t-207.5 -80q-123 0 -205 80t-82 203q0 125 81.5 203t205.5 78q126 0 208 -78t82 -203zM526 269q0 85 -51.5 140.5t-135.5 55.5q-83 0 -133.5 -55.5t-50.5 -140.5q0 -86 50.5 -142t133.5 -56q84 0 135.5 56t51.5 142zM418 738l-137 -144h-77
l100 144h114zM600 738l-136 -144h-77l100 144h113z" />
    <glyph glyph-name="oslash.sc" horiz-adv-x="681" 
d="M629 529l-69 -71q69 -77 69 -189q0 -124 -82.5 -203.5t-207.5 -79.5q-104 0 -181 58l-73 -75l-36 36l72 74q-69 75 -69 190q0 125 81.5 203t205.5 78q106 0 183 -58l70 72zM525 269q0 67 -34 118l-268 -276q47 -39 116 -39q83 0 134.5 56t51.5 141zM156 269
q0 -69 33 -119l267 275q-49 39 -117 39q-82 0 -132.5 -55.5t-50.5 -139.5z" />
    <glyph glyph-name="oe.sc" horiz-adv-x="808" 
d="M481 238v-157h272v-81h-399q-125 0 -209 73.5t-84 194.5q0 123 83.5 195.5t209.5 72.5h387v-80h-260v-141h246v-77h-246zM165 268q0 -83 52.5 -132.5t136.5 -49.5h31v364h-31q-84 0 -136.5 -50t-52.5 -132z" />
    <glyph glyph-name="racute.sc" horiz-adv-x="525" 
d="M180 226v-226h-96v536h191q196 0 196 -149q0 -57 -31.5 -95t-85.5 -52l139 -240h-111l-125 226h-77zM180 456v-152h83q111 0 111 80q0 72 -105 72h-89zM405 738l-136 -144h-77l100 144h113z" />
    <glyph glyph-name="rcaron.sc" horiz-adv-x="525" 
d="M180 226v-226h-96v536h191q196 0 196 -149q0 -57 -31.5 -95t-85.5 -52l139 -240h-111l-125 226h-77zM180 456v-152h83q111 0 111 80q0 72 -105 72h-89zM426 738l-112 -144h-107l-111 144h90l76 -99l76 99h88z" />
    <glyph glyph-name="rcommaaccent.sc" horiz-adv-x="525" 
d="M180 226v-226h-96v536h191q196 0 196 -149q0 -57 -31.5 -95t-85.5 -52l139 -240h-111l-125 226h-77zM180 456v-152h83q111 0 111 80q0 72 -105 72h-89zM332 -45l-78 -190h-79l64 190h93z" />
    <glyph glyph-name="sacute.sc" horiz-adv-x="465" 
d="M408 483l-61 -64q-39 49 -105 49q-37 0 -62 -19.5t-25 -52.5q0 -34 22 -49.5t75 -33.5q34 -11 57 -21.5t49 -28.5t39 -46t13 -64q0 -82 -53.5 -124.5t-135.5 -42.5q-56 0 -106 22t-81 61l66 61q45 -60 123 -60q40 0 66.5 18.5t26.5 52.5q0 37 -27.5 57.5t-89.5 39.5
q-66 21 -102.5 53t-36.5 98q0 78 55.5 119.5t132.5 41.5q100 0 160 -67zM390 738l-136 -144h-77l100 144h113z" />
    <glyph glyph-name="scircumflex.sc" horiz-adv-x="465" 
d="M408 483l-61 -64q-39 49 -105 49q-37 0 -62 -19.5t-25 -52.5q0 -34 22 -49.5t75 -33.5q34 -11 57 -21.5t49 -28.5t39 -46t13 -64q0 -82 -53.5 -124.5t-135.5 -42.5q-56 0 -106 22t-81 61l66 61q45 -60 123 -60q40 0 66.5 18.5t26.5 52.5q0 37 -27.5 57.5t-89.5 39.5
q-66 21 -102.5 53t-36.5 98q0 78 55.5 119.5t132.5 41.5q100 0 160 -67zM302 738l112 -144h-91l-75 99l-76 -99h-90l112 144h108z" />
    <glyph glyph-name="scaron.sc" horiz-adv-x="465" 
d="M408 483l-61 -64q-39 49 -105 49q-37 0 -62 -19.5t-25 -52.5q0 -34 22 -49.5t75 -33.5q34 -11 57 -21.5t49 -28.5t39 -46t13 -64q0 -82 -53.5 -124.5t-135.5 -42.5q-56 0 -106 22t-81 61l66 61q45 -60 123 -60q40 0 66.5 18.5t26.5 52.5q0 37 -27.5 57.5t-89.5 39.5
q-66 21 -102.5 53t-36.5 98q0 78 55.5 119.5t132.5 41.5q100 0 160 -67zM413 738l-112 -144h-107l-111 144h90l76 -99l76 99h88z" />
    <glyph glyph-name="scedilla.sc" horiz-adv-x="465" 
d="M408 483l-61 -64q-39 49 -105 49q-37 0 -62 -19.5t-25 -52.5q0 -34 22 -49.5t75 -33.5q34 -11 57 -21.5t49 -28.5t39 -46t13 -64q0 -72 -42 -113.5t-110 -50.5l-38 -58q9 2 27 2q39 0 66.5 -18.5t27.5 -59.5q0 -48 -38 -69t-89 -21q-57 0 -103 23l20 42q37 -17 77 -17
q22 0 41.5 9.5t19.5 32.5q0 38 -54 38q-18 0 -41 -7l-20 20l53 81q-113 5 -173 82l66 61q45 -60 123 -60q40 0 66.5 18.5t26.5 52.5q0 37 -27.5 57.5t-89.5 39.5q-66 21 -102.5 53t-36.5 98q0 78 55.5 119.5t132.5 41.5q100 0 160 -67z" />
    <glyph glyph-name="scommaaccent.sc" horiz-adv-x="465" 
d="M408 483l-61 -64q-39 49 -105 49q-37 0 -62 -19.5t-25 -52.5q0 -34 22 -49.5t75 -33.5q34 -11 57 -21.5t49 -28.5t39 -46t13 -64q0 -82 -53.5 -124.5t-135.5 -42.5q-56 0 -106 22t-81 61l66 61q45 -60 123 -60q40 0 66.5 18.5t26.5 52.5q0 37 -27.5 57.5t-89.5 39.5
q-66 21 -102.5 53t-36.5 98q0 78 55.5 119.5t132.5 41.5q100 0 160 -67zM281 -45l-78 -190h-79l64 190h93z" />
    <glyph glyph-name="tcaron.sc" horiz-adv-x="442" 
d="M268 456v-456h-96v456h-164v80h426v-80h-166zM385 738l-112 -144h-107l-111 144h90l76 -99l76 99h88z" />
    <glyph glyph-name="tcommaaccent.sc" horiz-adv-x="442" 
d="M268 456v-456h-96v456h-164v80h426v-80h-166zM284 -45l-78 -190h-79l64 190h93z" />
    <glyph glyph-name="tbar.sc" horiz-adv-x="442" 
d="M374 290h-106v-290h-96v290h-105v63h105v103h-164v80h426v-80h-166v-103h106v-63z" />
    <glyph glyph-name="thorn.sc" horiz-adv-x="505" 
d="M84 0v536h96v-95h92q197 0 197 -152q0 -73 -53.5 -115.5t-149.5 -42.5h-86v-131h-96zM180 361v-152h80q111 0 111 80q0 37 -24.5 54.5t-83.5 17.5h-83z" />
    <glyph glyph-name="ugrave.sc" horiz-adv-x="595" 
d="M297 -14q-102 0 -160.5 60t-58.5 154v336h96v-329q0 -59 30 -97t93 -38t93.5 38t30.5 97v329h96v-336q0 -94 -59 -154t-161 -60zM270 594l-136 144h113l100 -144h-77z" />
    <glyph glyph-name="uacute.sc" horiz-adv-x="595" 
d="M297 -14q-102 0 -160.5 60t-58.5 154v336h96v-329q0 -59 30 -97t93 -38t93.5 38t30.5 97v329h96v-336q0 -94 -59 -154t-161 -60zM470 738l-136 -144h-77l100 144h113z" />
    <glyph glyph-name="ucircumflex.sc" horiz-adv-x="595" 
d="M297 -14q-102 0 -160.5 60t-58.5 154v336h96v-329q0 -59 30 -97t93 -38t93.5 38t30.5 97v329h96v-336q0 -94 -59 -154t-161 -60zM355 738l112 -144h-91l-75 99l-76 -99h-90l112 144h108z" />
    <glyph glyph-name="utilde.sc" horiz-adv-x="595" 
d="M297 -14q-102 0 -160.5 60t-58.5 154v336h96v-329q0 -59 30 -97t93 -38t93.5 38t30.5 97v329h96v-336q0 -94 -59 -154t-161 -60zM181 602h-55q20 116 102 116q33 0 75 -20q48 -22 67 -22q34 0 48 46h54q-20 -116 -102 -116q-31 0 -77 21q-42 21 -65 21q-35 0 -47 -46z
" />
    <glyph glyph-name="udieresis.sc" horiz-adv-x="595" 
d="M297 -14q-102 0 -160.5 60t-58.5 154v336h96v-329q0 -59 30 -97t93 -38t93.5 38t30.5 97v329h96v-336q0 -94 -59 -154t-161 -60zM142 675q0 25 18 43t44 18t44 -17.5t18 -43.5q0 -25 -18 -42.5t-44 -17.5t-44 18t-18 42zM336 675q0 25 18 43t44 18t44 -17.5t18 -43.5
q0 -25 -18 -42.5t-44 -17.5t-44 18t-18 42z" />
    <glyph glyph-name="umacron.sc" horiz-adv-x="595" 
d="M297 -14q-102 0 -160.5 60t-58.5 154v336h96v-329q0 -59 30 -97t93 -38t93.5 38t30.5 97v329h96v-336q0 -94 -59 -154t-161 -60zM447 694v-67h-296v67h296z" />
    <glyph glyph-name="ubreve.sc" horiz-adv-x="595" 
d="M297 -14q-102 0 -160.5 60t-58.5 154v336h96v-329q0 -59 30 -97t93 -38t93.5 38t30.5 97v329h96v-336q0 -94 -59 -154t-161 -60zM401 738h55q-6 -67 -48.5 -102.5t-110.5 -35.5q-69 0 -112 35.5t-47 102.5h56q6 -36 34.5 -54t68.5 -18q88 0 104 72z" />
    <glyph glyph-name="uring.sc" horiz-adv-x="595" 
d="M297 -14q-102 0 -160.5 60t-58.5 154v336h96v-329q0 -59 30 -97t93 -38t93.5 38t30.5 97v329h96v-336q0 -94 -59 -154t-161 -60zM400 683q0 -42 -29.5 -70.5t-71.5 -28.5t-71 28t-29 70t29 70.5t71 28.5t71.5 -28t29.5 -70zM358 683q0 24 -17.5 40t-41.5 16t-41 -16
t-17 -40t17 -40.5t41 -16.5t41.5 16.5t17.5 40.5z" />
    <glyph glyph-name="uhungarumlaut.sc" horiz-adv-x="595" 
d="M297 -14q-102 0 -160.5 60t-58.5 154v336h96v-329q0 -59 30 -97t93 -38t93.5 38t30.5 97v329h96v-336q0 -94 -59 -154t-161 -60zM364 738l-137 -144h-77l100 144h114zM546 738l-136 -144h-77l100 144h113z" />
    <glyph glyph-name="uogonek.sc" horiz-adv-x="595" 
d="M376 -150l22 -45q-44 -37 -95 -37q-39 0 -68 24t-29 63q0 63 78 131q-96 4 -151 63.5t-55 150.5v336h96v-329q0 -59 30 -97t93 -38t93.5 38t30.5 97v329h96v-336q0 -82 -46 -139.5t-127 -70.5q-69 -69 -69 -115q0 -19 14 -33t34 -14q29 0 53 22z" />
    <glyph glyph-name="wacute.sc" horiz-adv-x="796" 
d="M6 536h105l115 -409h2l118 409h104l121 -409h2l115 409h102l-165 -536h-103l-123 402h-2l-122 -402h-103zM567 738l-136 -144h-77l100 144h113z" />
    <glyph glyph-name="wcircumflex.sc" horiz-adv-x="796" 
d="M6 536h105l115 -409h2l118 409h104l121 -409h2l115 409h102l-165 -536h-103l-123 402h-2l-122 -402h-103zM453 738l112 -144h-91l-75 99l-76 -99h-90l112 144h108z" />
    <glyph glyph-name="wdieresis.sc" horiz-adv-x="796" 
d="M6 536h105l115 -409h2l118 409h104l121 -409h2l115 409h102l-165 -536h-103l-123 402h-2l-122 -402h-103zM239 675q0 25 18 43t44 18t44 -17.5t18 -43.5q0 -25 -18 -42.5t-44 -17.5t-44 18t-18 42zM433 675q0 25 18 43t44 18t44 -17.5t18 -43.5q0 -25 -18 -42.5
t-44 -17.5t-44 18t-18 42z" />
    <glyph glyph-name="wgrave.sc" horiz-adv-x="796" 
d="M6 536h105l115 -409h2l118 409h104l121 -409h2l115 409h102l-165 -536h-103l-123 402h-2l-122 -402h-103zM365 594l-136 144h113l100 -144h-77z" />
    <glyph glyph-name="yacute.sc" horiz-adv-x="473" 
d="M284 216v-216h-96v216l-194 320h108l137 -243l137 243h103zM397 738l-136 -144h-77l100 144h113z" />
    <glyph glyph-name="ycircumflex.sc" horiz-adv-x="473" 
d="M284 216v-216h-96v216l-194 320h108l137 -243l137 243h103zM293 738l112 -144h-91l-75 99l-76 -99h-90l112 144h108z" />
    <glyph glyph-name="ydieresis.sc" horiz-adv-x="473" 
d="M284 216v-216h-96v216l-194 320h108l137 -243l137 243h103zM81 675q0 25 18 43t44 18t44 -17.5t18 -43.5q0 -25 -18 -42.5t-44 -17.5t-44 18t-18 42zM275 675q0 25 18 43t44 18t44 -17.5t18 -43.5q0 -25 -18 -42.5t-44 -17.5t-44 18t-18 42z" />
    <glyph glyph-name="ygrave.sc" horiz-adv-x="473" 
d="M284 216v-216h-96v216l-194 320h108l137 -243l137 243h103zM217 594l-136 144h113l100 -144h-77z" />
    <glyph glyph-name="zacute.sc" horiz-adv-x="496" 
d="M446 536v-80l-281 -375h285v-81h-404v79l282 377h-278v80h396zM380 738l-136 -144h-77l100 144h113z" />
    <glyph glyph-name="zcaron.sc" horiz-adv-x="496" 
d="M446 536v-80l-281 -375h285v-81h-404v79l282 377h-278v80h396zM414 738l-112 -144h-107l-111 144h90l76 -99l76 99h88z" />
    <glyph glyph-name="zdotaccent.sc" horiz-adv-x="496" 
d="M446 536v-80l-281 -375h285v-81h-404v79l282 377h-278v80h396zM315 675q0 -25 -18.5 -42.5t-44.5 -17.5t-44 17.5t-18 42.5t18 43t44 18t44.5 -17.5t18.5 -43.5z" />
    <glyph glyph-name="ij.sc" horiz-adv-x="670" 
d="M180 536v-536h-96v536h96zM278 112l90 26q18 -66 66 -66q62 0 62 99v365h96v-367q0 -49 -14 -88.5t-51 -67t-93 -27.5q-60 0 -101.5 35.5t-54.5 90.5z" />
    <glyph glyph-name="germandbls.sc" horiz-adv-x="930" 
d="M408 481l-61 -64q-39 49 -105 49q-37 0 -62 -19t-25 -51q0 -34 22 -49.5t75 -33.5q34 -11 57 -21.5t49 -28.5t39 -46t13 -64q0 -82 -53.5 -124.5t-135.5 -42.5q-56 0 -106 22t-81 61l66 61q45 -60 123 -60q40 0 66.5 18.5t26.5 52.5q0 37 -27.5 57.5t-89.5 39.5
q-66 21 -102.5 53t-36.5 98q0 77 55.5 118t132.5 41q100 0 160 -67zM873 481l-61 -64q-39 49 -105 49q-37 0 -62 -19t-25 -51q0 -34 22 -49.5t75 -33.5q34 -11 57 -21.5t49 -28.5t39 -46t13 -64q0 -82 -53.5 -124.5t-135.5 -42.5q-56 0 -106 22t-81 61l66 61q45 -60 123 -60
q40 0 66.5 18.5t26.5 52.5q0 37 -27.5 57.5t-89.5 39.5q-66 21 -102.5 53t-36.5 98q0 77 55.5 118t132.5 41q100 0 160 -67z" />
    <glyph glyph-name="eng.sc" horiz-adv-x="618" 
d="M326 -234l10 80q20 -5 38 -5q39 0 52.5 26t13.5 75v48l-261 414h-2v-404h-93v536h116l239 -372h2v372h93v-597q0 -179 -154 -179q-24 0 -54 6z" />
    <glyph glyph-name="grave.sc" 
d="M102 594l-136 144h113l100 -144h-77z" />
    <glyph glyph-name="acute.sc" 
d="M284 738l-136 -144h-77l100 144h113z" />
    <glyph glyph-name="circumflex.sc" 
d="M179 738l112 -144h-91l-75 99l-76 -99h-90l112 144h108z" />
    <glyph glyph-name="caron.sc" 
d="M290 738l-112 -144h-107l-111 144h90l76 -99l76 99h88z" />
    <glyph glyph-name="tilde.sc" 
d="M7 602h-55q20 116 102 116q33 0 75 -20q48 -22 67 -22q34 0 48 46h54q-20 -116 -102 -116q-31 0 -77 21q-42 21 -65 21q-35 0 -47 -46z" />
    <glyph glyph-name="dieresis.sc" 
d="M-34 675q0 25 18 43t44 18t44 -17.5t18 -43.5q0 -25 -18 -42.5t-44 -17.5t-44 18t-18 42zM160 675q0 25 18 43t44 18t44 -17.5t18 -43.5q0 -25 -18 -42.5t-44 -17.5t-44 18t-18 42z" />
    <glyph glyph-name="macron.sc" 
d="M273 694v-67h-296v67h296z" />
    <glyph glyph-name="breve.sc" 
d="M229 738h55q-6 -67 -48.5 -102.5t-110.5 -35.5q-69 0 -112 35.5t-47 102.5h56q6 -36 34.5 -54t68.5 -18q88 0 104 72z" />
    <glyph glyph-name="ring.sc" 
d="M226 683q0 -42 -29.5 -70.5t-71.5 -28.5t-71 28t-29 70t29 70.5t71 28.5t71.5 -28t29.5 -70zM184 683q0 24 -17.5 40t-41.5 16t-41 -16t-17 -40t17 -40.5t41 -16.5t41.5 16.5t17.5 40.5z" />
    <glyph glyph-name="hungarumlaut.sc" 
d="M176 738l-137 -144h-77l100 144h114zM358 738l-136 -144h-77l100 144h113z" />
    <glyph glyph-name="dotaccent.sc" 
d="M188 675q0 -25 -18.5 -42.5t-44.5 -17.5t-44 17.5t-18 42.5t18 43t44 18t44.5 -17.5t18.5 -43.5z" />
    <glyph glyph-name="exclamdown.sc" horiz-adv-x="320" 
d="M208 0h-96v363h96v-363zM226 477q0 -26 -19 -45t-47 -19t-47 19.5t-19 45.5t19.5 45t46.5 19q28 0 47 -19t19 -46z" />
    <glyph glyph-name="questiondown.sc" horiz-adv-x="440" 
d="M177 342v21h92v-26q0 -58 -38 -92l-24 -21q-31 -27 -43 -46.5t-12 -43.5q0 -26 17 -45t50 -19q61 0 73 71l93 -12q-10 -69 -55.5 -106t-116.5 -37q-78 0 -118.5 43t-40.5 104q0 71 70 127q32 25 42.5 42t10.5 40zM155 478q0 27 18.5 45.5t46.5 18.5t47 -18t19 -45
t-19 -45.5t-47 -18.5t-46.5 18.5t-18.5 44.5z" />
    <glyph glyph-name="Euro.sc" horiz-adv-x="504" 
d="M468 521l-31 -78q-43 25 -97 25q-48 0 -85.5 -27.5t-52.5 -76.5h211l-21 -66h-201q-3 -18 -3 -36q0 -14 2 -30h184l-22 -67h-149q12 -45 48.5 -71.5t82.5 -26.5q54 0 100 30l34 -73q-57 -38 -136 -38q-86 0 -145.5 48.5t-76.5 130.5h-70l23 67h36q-1 9 -1 32q0 20 2 34
h-57l23 66h44q22 87 84.5 136.5t148.5 49.5q67 0 125 -29z" />
    <glyph glyph-name="cent.sc" horiz-adv-x="504" 
d="M274 71v332q-58 -11 -90.5 -56.5t-32.5 -109.5q0 -63 33 -108.5t90 -57.5zM325 404v-334q63 1 102 53l64 -60q-61 -70 -166 -75v-66h-51v67q-99 10 -157.5 79t-58.5 170t58 168t158 79v65h51v-64q107 -5 166 -75l-66 -60q-40 50 -100 53z" />
    <glyph glyph-name="sterling.sc" horiz-adv-x="504" 
d="M355 307v-70h-114v-156h187v-81h-347v81h65v156h-62v70h62v61q0 77 47.5 128.5t130.5 51.5q75 0 130 -47l-57 -64q-31 32 -75 32q-37 0 -59 -27t-22 -79v-56h114z" />
    <glyph glyph-name="florin.sc" horiz-adv-x="504" 
d="M377 340v-70h-92l-44 -224q-26 -132 -146 -132q-42 0 -77 21l30 71q16 -13 43 -13q48 0 61 68l39 209h-79v70h91l13 73q24 137 133 137q57 0 92 -29l-41 -69q-21 16 -46 16q-35 0 -45 -58l-12 -70h80z" />
    <glyph glyph-name="yen.sc" horiz-adv-x="504" 
d="M86 168h119v60h-119v64h99l-161 244h108l124 -208l120 208h103l-157 -244h96v-64h-120v-60h120v-64h-120v-104h-93v104h-119v64z" />
    <glyph glyph-name="perthousand.sc" horiz-adv-x="1020" 
d="M45 412q0 60 40 96t100 36q62 0 101.5 -36t39.5 -96q0 -59 -40 -96.5t-101 -37.5q-60 0 -100 37.5t-40 96.5zM126 412q0 -28 16.5 -45.5t42.5 -17.5q27 0 43.5 17.5t16.5 45.5t-16 45t-44 17q-26 0 -42.5 -17t-16.5 -45zM385 122q0 60 40 96t100 36q62 0 101.5 -36
t39.5 -96q0 -59 -40 -96.5t-101 -37.5q-60 0 -100 37.5t-40 96.5zM466 122q0 -28 16.5 -45.5t42.5 -17.5q27 0 43.5 17.5t16.5 45.5t-16 45t-44 17q-26 0 -42.5 -17t-16.5 -45zM700 122q0 60 40 96t100 36q62 0 101.5 -36t39.5 -96q0 -59 -40 -96.5t-101 -37.5
q-60 0 -100 37.5t-40 96.5zM781 122q0 -28 16.5 -45.5t42.5 -17.5q27 0 43.5 17.5t16.5 45.5t-16 45t-44 17q-26 0 -42.5 -17t-16.5 -45zM550 528l-327 -558l-64 36l328 559z" />
    <glyph glyph-name="zero.onum" horiz-adv-x="697" 
d="M637 270q0 -123 -82.5 -203t-207.5 -80q-123 0 -205 80t-82 203q0 124 81.5 202t205.5 78q126 0 208 -77.5t82 -202.5zM534 270q0 85 -51.5 140t-135.5 55q-83 0 -133.5 -55t-50.5 -140q0 -86 50.5 -142t133.5 -56q84 0 135.5 56t51.5 142z" />
    <glyph glyph-name="one.onum" horiz-adv-x="400" 
d="M280 536v-536h-95v417l-92 -79l-56 65l161 133h82z" />
    <glyph glyph-name="two.onum" horiz-adv-x="540" 
d="M479 83v-83h-411v85l57 38q153 102 193 139q59 55 59 111q0 43 -29 69t-85 26q-89 0 -135 -83l-71 50q33 53 88.5 84t119.5 31q98 0 153 -46t55 -128q0 -33 -14 -65t-30.5 -53.5t-54 -52t-58.5 -45t-71 -47.5l-42 -27v-3h276z" />
    <glyph glyph-name="three.onum" horiz-adv-x="550" 
d="M456 449q-76 -73 -218 -175v-4q12 3 32 3q93 0 153.5 -56.5t60.5 -140.5q0 -114 -80 -180t-210 -66q-69 0 -108 9l14 84q37 -10 91 -10q94 0 144.5 41t50.5 116q0 60 -42.5 96.5t-124.5 36.5q-42 0 -102 -15l-19 71q158 116 241 192v4h-263v81h380v-87z" />
    <glyph glyph-name="four.onum" horiz-adv-x="586" 
d="M411 550l-276 -461h217v236h92v-236h112v-83h-112v-176h-92v176h-312v86l270 458h101z" />
    <glyph glyph-name="five.onum" horiz-adv-x="544" 
d="M208 214q-60 0 -121 -18l40 340h350v-86h-271l-23 -165q29 6 61 6q99 0 162.5 -57.5t63.5 -155.5q0 -119 -76 -183.5t-202 -64.5q-67 0 -112 9l13 84q41 -11 91 -11q190 0 190 162q0 69 -46 104.5t-120 35.5z" />
    <glyph glyph-name="six.onum" horiz-adv-x="609" 
d="M158 213q0 -63 41 -106.5t106 -43.5t105.5 42.5t40.5 108.5q0 65 -40 106.5t-105 41.5q-66 0 -107 -41.5t-41 -107.5zM373 715l76 -53q-71 -52 -135.5 -119.5t-101.5 -132.5l3 -2q39 31 113 31q94 0 157.5 -63t63.5 -159q0 -105 -69.5 -170.5t-174.5 -65.5
q-108 0 -176.5 66.5t-68.5 179.5t93 251t220 237z" />
    <glyph glyph-name="seven.onum" horiz-adv-x="530" 
d="M480 448q-173 -345 -287 -631l-98 26q145 328 287 607h-338v86h436v-88z" />
    <glyph glyph-name="eight.onum" horiz-adv-x="595" 
d="M401 373q58 -15 96 -64t38 -116q0 -96 -68.5 -153.5t-168.5 -57.5q-101 0 -169.5 57t-68.5 154q0 68 38 116t96 64v2q-49 17 -79 59t-30 99q0 86 61.5 139.5t151.5 53.5t151 -52.5t61 -138.5q0 -57 -30 -100.5t-79 -59.5v-2zM182 530q0 -49 33 -82t83 -33q48 0 82 33.5
t34 81.5q0 50 -34 83t-82 33q-50 0 -83 -32.5t-33 -83.5zM159 198q0 -60 38.5 -97.5t100.5 -37.5q60 0 99 37.5t39 97.5q0 58 -39 96t-99 38q-61 0 -100 -37.5t-39 -96.5z" />
    <glyph glyph-name="nine.onum" horiz-adv-x="609" 
d="M451 318q0 63 -41 106.5t-106 43.5t-105.5 -42.5t-40.5 -108.5q0 -65 40 -106.5t105 -41.5q66 0 107 41.5t41 107.5zM236 -184l-76 53q71 52 135.5 119.5t101.5 132.5l-3 2q-39 -31 -113 -31q-94 0 -157.5 63t-63.5 159q0 105 69.5 170.5t174.5 65.5q108 0 176.5 -66.5
t68.5 -179.5t-93 -251t-220 -237z" />
    <glyph glyph-name="napostrophe.sc" horiz-adv-x="683" 
d="M265 536l239 -406h2v406h93v-536h-114l-241 404h-2v-404h-93v536h116zM123 536l-78 -190h-79l64 190h93z" />
    <glyph glyph-name="ordfeminine.sc" horiz-adv-x="380" 
d="M30 431l127 293h69l126 -293h-80l-25 62h-114l-24 -62h-79zM152 544h75l-37 96z" />
    <glyph glyph-name="fi.sc" horiz-adv-x="740" 
d="M180 228v-228h-96v536h347v-80h-251v-150h236v-78h-236zM656 536v-536h-96v536h96z" />
    <glyph glyph-name="fl.sc" horiz-adv-x="896" 
d="M180 228v-228h-96v536h347v-80h-251v-150h236v-78h-236zM656 536v-455h230v-81h-326v536h96z" />
    </font>
</defs>
</svg>
