<?xml version="1.0" encoding="utf-8"?><svg viewBox="0 0 450 420" version="1" xmlns="http://www.w3.org/2000/svg"><path fill="#fff" d="M292.667 352.247l-22.22-12.972-22.222 7.046-22.22-18.78-22.222-8.386-22.225 22.343-22.225 3.672-13.806-22.792-14.508-13.807 11.044-26.323 2.553-21.41 11.574 21.067 4.55 17.334 7.927.685 22.93 40.346 22.933-42.665 22.932 14.91 22.936-6.146 22.935-10.806-8.876 3.674-9.278-24.95 6.92-24.95 21.7-24.952 9.767-24.95-29.44-24.953-1.618-24.956 24.127-24.956-13.304-41.853-22.93.777-22.933 52.355-22.932-22.3-22.936 24.1-22.935 2-21.83-15.08-11.475 23.397 37.454 23.396-15.044 23.398-32.16 23.4 10.466 23.402 12.203 35.287 6.018-34.946-46.33-25.33 14.053-25.332-9.726-25.333 37.915-25.337 15.682-25.335-16.735-10.177 10.176-29.405 22.22 15.816 22.222-.848 22.22-7.17 22.222-17.61 22.225-3.83 22.225 30.923 21.483.82-18.135 21.483 23.787 24.162-.345 24.163-34.086 24.166 24.777 24.166-12.94 24.166 38.87 24.167-30.228 24.17-10.412 24.17 12.206 14.978zM266 170.456l-26.664-5.017-26.668 6.617L186 151.197l-10.565.707L186 133.668l26.664 11.743 26.668-6.843L266 148.254l19.186 3.65zM266 194.78l-26.664-1.962-26.668 9.52L186 210.85l-9.483-18.948L186 194.54l26.664-4.666 26.668-17.89L266 188.903l9.313 3zM266 239.144l-25 1.917-25 9.135-12.32-18.29 12.32-11.12 25 3.636 25-11.435 14.69 18.92z"/><path fill="none" stroke="#fff" stroke-miterlimit="10" d="M292.667 360.634l-22.22-1.173-22.222-2.505-22.22-30.197-22.222-6.24-22.225 1.534-22.225-.284-6.115-7.082-21.61-6.115-5.982-26.323 18.122-34.843 35.214 34.5-9.3 17.334-.995 16.42 22.93 22.948 22.933-12.234 22.932 14.634 22.936-56.56 22.935 9.63-6.72 5.162 27.21-24.95 14.002-24.95-47.622-24.952 41.124-24.95-43.888-24.953 30.58-24.956-21.786-24.956 7.1 8.226-22.932-38.11-22.932 29.268-22.932 2.078-22.936-41.31-22.935 56.518-22.868-16.67 4.2 23.397 9.118 23.396-9.817 23.398 23.355 23.4 13.606 23.402-39.156 17.096 7.183-16.754-2.06-25.33-10.667-25.332-34.6-25.333 29.488-25.337 9.92-25.335 2.91-10.056 10.055-1.354 22.22-7.3 22.222-24.86 22.22 48.745 22.222-59.318 22.225 27.708 22.225 1.217 33.996-8.778-.466 33.996 5.08 24.162-36.382 24.163 12.795 24.166-17.897 24.166 29.447 24.166 9.318 24.167 12.76 24.17 2.117 24.17-56.132-5.362zM266 165.99l-26.664-6.283-26.668 8.778L186 157.92l.352-6.016L186 138.34l26.664-2.717 26.668 7.434L266 141.984l1.053 9.92zM266 194.685l-26.664 12.882-26.668-4.667L186 189.223l-7.828 2.68L186 174.752l26.664 12.31 26.668-1.05L266 194.34l14.226-2.436zM266 244.472l-25 5.89-25-10.44-9.437-8.018L216 217.832l25 2.53 25 2.887 18.772 8.654z"/></svg>