<?xml version="1.0" encoding="utf-8"?><svg viewBox="0 0 450 420" version="1" xmlns="http://www.w3.org/2000/svg"><path fill="#fff" d="M292.667 299.213l-22.22 56.445-22.222-8.546-22.22 22.71-22.222-82.4-22.225-19.35-22.225 57.448 25.63-45.578-1.9 25.63-3.288-26.325-31.736 31.47 51.884-31.813-11.632 17.334-19.625 63.358 22.93-3.462 22.933-2.205 22.932-17.12 22.936 30.17 22.935-68.098.527-2.644-20.613-24.95 82.047-24.95-43.63-24.952-23.29-24.95 79.42-24.953-102.043-24.956-7.723-24.956 35.306-68.16-22.93 35.938-22.933-24.513-22.932 15.323-22.936 49.883-22.935-10.797-4.67 2.328-61.332 23.397 78.394 23.396-24.555 23.398-50.294 23.4 8.38 23.402 35.458 62.598-76.433-62.256 40.003-25.33L195.3 188.24l-33.342-25.333-9.796-25.337-42.623-25.335 33.576-16.218 16.217 23.2 22.22-68.763 22.222 56.967 22.22-19.603 22.222 26.414 22.225-38.03 22.225 38.377 8.9-11.243 70.956 8.9L265.445 136.4l56.426 24.163L292.1 184.73l79.343 24.166-2.337 24.166-107.486 24.167 2.068 24.17 58.41 24.17-5.8 23.63zM266 147.67l-26.664 29.652-26.668-2.487-26.668-3.83 1.187-22.1L186 121.19l26.664 17.596 26.668 21.73L266 128.585l21.317 20.318zM266 188.766l-26.664 27.397-26.668-20.116L186 200.343l-25.083-11.44 25.083 8.61 26.664-42.724 26.668.063L266 157.137l-14.738 31.767zM266 238.81l-25-10.472-25 17.31 1.44-16.744-1.44-21.72 25-3.616 25 8.67-4.697 16.666z"/><path fill="none" stroke="#fff" stroke-miterlimit="10" d="M292.667 315.103l-22.22 32.16-22.222-18.003-22.22 50.83-22.222-38.524-22.225-6.612-22.225-26.565-9.398 6.58 5.556-9.4 1.525-26.323-7.75 50.41 67.158-50.753-113.31 17.333 65.554 72.272 22.93-83.107 22.933 30.203 22.932 1.062 22.936-25.994 22.935 28.5-27.684-22.936 46.503-24.95-21.363-24.95 1.638-24.952 6.265-24.95-33.56-24.953 48.22-24.956 11.696-24.956-31.717-11.552-22.93 3.622-22.933 15.12-22.932 42.09-22.936-5.796-22.935-82.043 16.48 38.56 30.313 23.397-74.53 23.396-35.207 23.398 80.14 23.4-75.432 23.402 35.438-2-14.52 2.342 5.713-25.33-14.602-25.332 17.17-25.333-59.355-25.337 104.595-25.335-49.713-24.18 24.178-34.565 22.22 83.32 22.222-53.475 22.22-42.208 22.222 99.525 22.225-76.947 22.225 71.87 35.38-58.72 11.584 35.38 36.835 24.162-45.624 24.163-1.603 24.166-15.726 24.166-42.47 24.166 90.198 24.167-5.325 24.17-79.453 24.17 48.115 31.91zM266 167.532l-26.664-1.638-26.668-13.942L186 145.79l-28.202 3.114 28.202-7.95 26.664-10.934 26.668-14.953L266 125.06l9.618 23.844zM266 212.086l-26.664-20.778-26.668-9.495L186 206.12l-34.097-17.216L186 165.39l26.664 25.357 26.668 1.484L266 177.698l35.124 11.207zM266 246.162l-25 9.283-25-17.435 3.793-9.106L216 224.7l25-1.065 25-6.127 11.85 11.396z"/></svg>