<?xml version="1.0" encoding="utf-8"?><svg viewBox="0 0 450 420" version="1" xmlns="http://www.w3.org/2000/svg"><path fill="#fff" d="M289.667 317.528l-7.015 3.004-7.014 16.384-7.016-8.917-7.015 1.14-7.016 8.717-7.017-19.39-7.016 4.085-7.017-1.725-7.017-2.26-7.02 2.722-7.013 7.705-7.016 11.84-7.017-4.633-7.017-1.817-7.02-14.287-7.014 1.987-7.02-4.977-7.027 8.697-7.027-7.1-3.468-.674-5.88 2.212-5.047-2.424-15.635-.696-5.928-9.756 23.804-6.575 2.587-6.58-11.836-6.584-2.047-6.584 11.734.94-2.29-11.364 2.768 7.84 6.442 2.24 15.185 8.668-21.53 8.666 21.693-.718-11.828 19.08 10.61-1.875 7.163 6.246 7.165-15.138 7.166 3.514 7.166 9.975 7.165-16.536 7.167 1.796 7.167 15.188 7.163-14.173 7.165-1.792 7.166 11.903 7.165-15.316 7.168-.036 7.164 4.928 7.17 12.768 7.175-.986 7.173 3.446-.862-23.738.495 1.24 14.133.226 9.044-7.273.7-7.277-1.882-7.272-11.583-7.276-3.347-7.274 17.704-7.275.634-7.276-3.502-7.278.702-7.275-22.345-7.278 11.32-7.28-1.876-7.277 8.82-7.278-7.947-7.278 1.89-7.28-2.244-7.275-7.9-7.278-2.58-7.277 17.89-7.278 9.514-7.28-15.784-7.284-10.637-7.28 24.388-7.285-11.07-7.284 7.98-12.515-18.856 7.655-2.8-15.38-7.162 19.917-7.165-20.467-7.166 11.16-7.166-10.998-7.165-6.41-7.167 17.34-7.167-15.063-7.163 9.505-7.165-11.278-7.166 27.008-7.165-1.263-7.168 2.248-7.164-10.263-7.17-.584-7.175-16.164-7.173 11.796-13.068-8.853-5.62 11.81 1.48 10.8 18.9 7.307-16.095 7.31 15.333 7.312-6.205 7.31-7.536 7.31-12.232 7.312-.277 7.312 15.8 7.307-1.144 7.31-10.897 7.312 17.59 7.31-5.082 7.312-9.35 7.316 3.872 7.313 2.66 7.318-6.78 7.318 13.74 16.228-17.956-19.258.382 3.182-6.98.19-8.353-7.032 15.824-7.036-13.407-7.034 14.11-7.036-21.606-7.036 1.767-7.036 1.59-7.036 2.414-7.037-6.386-7.038-2.49-7.033 8.815-7.036-3.82-7.036 4.192-7.036-7.03-7.038-1.497-7.035 23.69-7.04-1.118-7.045-3.968-7.046-17.715-11.408 13.05-4.63 12.134 2.355-.754-19.217 10.687 2.44 7.015 10.342 7.014-2.832 7.016 2.74 7.015 3.847 7.016-10.747 7.017-7.888 7.016 5.87 7.017-7.662 7.017 14.8 7.02 2.725 7.013-1.85 7.016.132 7.017 5.763 7.017-16.238 7.02 12.547 7.014-4.353 7.02-7.425 7.027.803 7.027 18.978 6.207-8.196 10.93-4.477-3.645 13.784 6.15 3.412 10.572 6.382 4.66 7.156-23.683 7.16 19.597 7.154-18.926 7.156 4.614 7.16 20.123 7.155-25.747 7.16 1.794 7.157 24.853 7.16-10.74 7.158-2.31 7.16 1.835 7.16-.083 7.16 9.895 7.16-4.4 7.162.347 7.16-6.305 7.163.313 7.163-1.14 7.158-8.69 7.16-1.338 7.162-1.057 7.16 13.05 7.164-7.082 7.16-3.215 7.165 13.376 7.17-16.148 7.17-2.85 3.565 2.332 6.086 8.333 20.096-17.824-18.062zM263 156.117l-7.27 1.128-7.274-.77-7.267 8.65-7.272-.777-7.27-7.56-7.27 8.853-7.274-9.553-7.275 10.586-7.274-10.848-7.278 3.44-7.278 5.77-7.403-6.933-3.344-7.403-.04-10.788L183 135.545l7.27 6.233 7.274 1.905 7.267 2.6 7.272-3.728 7.27-5.12 7.27 1.977 7.274.005 7.275 2.96 7.274 2.11 7.278-1.884L263 139.85l5.832 5.017 3.085 5.832-6.074 2.842zM263 197.96l-7.27-1.158-7.274.14-7.267 8.064-7.272 1.44-7.27-5.982-7.27-5.478-7.274.305-7.275 3.314-7.274 2.205-7.278 4.136-7.278 1.648-4.51-11.386-5.186-4.51 1.76-7.936 7.936 3.27 7.27.232 7.274-4.45 7.267 4.405 7.272-6.604 7.27 3.48 7.27.14 7.274-7.646 7.275.38 7.274 1.602 7.278-.66 7.278 4.005 3.034 6.748 4.16 3.034-1.67 5.524zM263 239.458l-7.14-2.396-7.14 5.816-7.14-5.548-7.14 3.193-7.142.835-7.15-3.817-7.148 2.237-5.08-4-2.3-5.078.264-7.117 7.116-5.616 7.14 3.004 7.14-3.236 7.14 5.492 7.14-5.036 7.142.016 7.15 3.885 7.148 2.22 8.013-1.624-1.746 8.013 1.386 7.652z"/><path fill="none" stroke="#fff" stroke-miterlimit="10" d="M289.667 334.85l-7.015 8.158-7.014-17.158-7.016 5.412-7.015-4.315-7.016 9.486-7.017-7.922-7.016-.298-7.017-1.084-7.017-8.91-7.02 22.326-7.013-3.76-7.016 3.088-7.017-12.04-7.017 12.058-7.02-12.885-7.014 3.212-7.02-11.444-7.027 11.386-7.027 3.835-8.88.707 1.65-17.368-4.92-1.15-17.893.942 19.458-9.76-6.378-6.575 5.29-6.58-24.873-6.584 7.086-6.584 1.89-13.11 14.07 10.49 5.18-3.083 16.31 5.36-24.852 8.666 4.372 8.666 14.255 4.366 2.007 5.273 5.563-.565 7.163 8.153 7.165 7.1 7.166-24.948 7.166 18.008 7.165-5.38 7.167 7.763 7.167-16.568 7.163 5.702 7.165 3.235 7.166 9.674 7.165 5.07 7.168-27.118 7.164.374 7.17 18.153 7.175.82 7.173-2.767 12.458 5.21-.59-14.7 7.463-6.854 3.642-7.273-.243-7.277-23.758-7.272 26.98-7.276-24.912-7.274 8.67-7.275-5.957-7.276 13.738-7.278 6.273-7.275-20.348-7.278 7.325-7.28 14.223-7.277-12.445-7.278 13.603-7.278-10.618-7.28 8.716-7.275 2.83-7.278-18.592-7.277 2.875-7.278-4.02-7.28 19.318-7.284-23.553-7.28 6.735-7.285-8.174-7.284 8.866-6.062-5.998-1.745-4.503-12.804-7.163-.868-7.165 17.095-7.166-13.44-7.166 3.03-7.165 6.063-7.167-11.396-7.167 5.886-7.163-11.29-7.165 18.885-7.166-12.544-7.165-4.81-7.168 16.64-7.164-11.17-7.17 5.48-7.175 13.872-7.173-11.87-12.856-11.196-4.89 11.99 9.63 10.254.96 7.308-12.546 7.31 16.908 7.312.962 7.31-.04 7.31-3.088 7.312-6.455 7.312 12.972 7.307-10.055 7.31 9.168 7.312-18.877 7.31 3.144 7.312 15.253 7.316-17.866 7.313 10.897 7.318-5.927 7.318-.248 9.1-8.78 5.365.877-16.05-5.598 1.93-.592-7.034-1.776-7.036-14.546-7.034.198-7.036 21.084-7.036-.507-7.036-20.397-7.036 6.766-7.037 3.38-7.038 10.88-7.033-13.236-7.036 12.364-7.036-9.232-7.036-12.98-7.038 25.314-7.035-3.088-7.04-.6-7.045-23.123-7.046 25.67-3.753 4.014-1.704-6.148-13.37 9.78 6.835 3.897-3.546 7.015-6.217 7.014-7.364 7.016 17.644 7.015-8.11 7.016-16.437 7.017 23.994 7.016-20.09 7.017 8.966 7.017 6.915 7.02-7.058 7.013 9.03 7.016-10.417 7.017-6.713 7.017 10.603 7.02 3.484 7.014-1.654 7.02 8.06 7.027-26.094 7.027 13.756 5.3 6.93 4.31 3.07 7.793.6 8.935 4.083-11.057 8.557 14.363 7.156-19.092 7.16 20.52 7.154-7.155 7.156 4.68 7.16-5.444 7.155-5.908 7.16 9.136 7.157-13.575 7.16 6.895 7.158 1.57 7.16 14.667 7.16-5.105 7.16-17.04 7.16 14.274 7.162 4.988 7.16-17.766 7.163-4.63 7.163 23.34 7.158-23.5 7.16 13.87 7.162 11.49 7.16-22.72 7.164 9.64 7.16 11.08 7.165-19.882 7.17 19.896 7.17-.006 11.003-15.93 2.03-6.072 3.304-.38 19.016zM263 164.688l-7.27-2.464-7.274 3.68-7.267-2.25-7.272 1.854-7.27-8.956-7.27 9.032-7.274-1.094-7.275-7.152-7.274.862-7.278 6.213L183 157.59l-5.253-1.638-2.354-5.253.578-7.03 7.03-6.93 7.27 1.71 7.274 5.416 7.267 1.942 7.272-6.165 7.27-4.438 7.27 4.14 7.274.737 7.275-.242 7.274 3.797 7.278-3.498 7.278-.874 11.185.248.666 11.185-4.49 7.358zM263 196.96l-7.27 6.033-7.274-6.208-7.267 1.17-7.272-1.458-7.27 5.57-7.27-.703-7.274-6.388-7.275 5.566-7.274 5.865-7.278-8.708-7.278.103-4.986-2.118-4.813-4.986 4.798-5.003 5.002-9.904 7.27 3.54 7.274 4.3 7.267-.863 7.272.102 7.27-.14 7.27-.2 7.274-6.493 7.275-.613 7.274 9.13 7.278-1.087 7.278-.5 6.224 1.505 1.164 6.224 3.132 10.52zM263 243.43l-7.14-1.117-7.14-5.772-7.14 6.31-7.14-4.908-7.142-1.21-7.15-.11-7.148 4.06-4.77-5.214-4.698-4.77 5.33-4.137 4.138-4.51 7.14-1.632 7.14-3.86 7.14 5.477 7.14-.905 7.142.21 7.15.416 7.148-1.36 6.918 3.385 3.316 6.92-5.977 4.256z"/></svg>