<?xml version="1.0" encoding="utf-8"?><svg viewBox="0 0 450 420" version="1" xmlns="http://www.w3.org/2000/svg"><path fill="#fff" d="M291.667 314.703l-22.22 6.582-22.222-.142-22.22 44.614-22.222-39.927-22.225 1.048-22.225-27.844 4.5 2.038-51.908 4.5 27.32-26.325 5.92-12.922 3.59 12.58 8.058 17.333 11.854 13.713 22.93-31.79 22.933 33.415 22.932 36.857 22.936-70.41 22.935 13.416 35.893 4.8-45.122-24.95 58.52-24.95-63.404-24.952 63.92-24.95 1.9-24.953-7.3-24.956-8.474-24.956-35.933-29.504-22.93 39.693-22.933 1.66-22.932-17.382-22.936 20.425-22.935-7.94 24.544-6.952-41.554 23.397-19.646 23.396 23.92 23.398-29.932 23.4 9.433 23.402 9.27-20.064-33.97 20.406 21.36-25.33-11.847-25.332-17.906-25.333 60.63-25.337 13.063-25.335-43.738-27.04 27.04-3.435 22.222 5.636 22.22-36.945 22.22 1.213 22.223 64.347 22.225-13.196 22.225-4.536 42.702-28.75 21.11 42.704-9.985 24.162-30.636 24.163 35.25 24.166-31.81 24.166 32.614 24.166-55.97 24.167 48.57 24.17-23.45 24.17 4.934 33.332zM265 159.334l-26.664 9.117-26.668-.13L185 150.5l-14.083-1.596L185 142.542l26.664-11.8 26.668-7.838L265 144.527l24.875 4.377zM265 194.44l-26.664 6.765-26.668-16.22L185 195.21l-25.377-6.304L185 169.356l26.664 8.09 26.668 9.677L265 179.37l25.86 9.534zM265 231.778l-25 11.66-25-14.176-15.433-.358L215 210.56l25-1.317 25 15.147 1.485 4.514z"/><path fill="none" stroke="#fff" stroke-miterlimit="10" d="M291.667 310.68l-22.22-14.816-22.222 20.88-22.22 10.762-22.222-2.39-22.225 44.573-22.225-76.994-33.31 46.185 49.557-33.31-76.513-26.323 43.67-50.477 36.758 50.134-2.473 17.334-8.355-2.822 22.93 9.488 22.933 27.752 22.932 7.82 22.936-12.415 22.935-45.22 13.35 15.398 16.175-24.95-6.644-24.95-7.782-24.952 31.838-24.95-36.856-24.953-19.36-24.956 36.135-24.956-26.857-53.125-22.93 14.564-22.933 17.007-22.932 36.77-22.936 5.25L167.667 86.9l.944 34.67 8.206 23.397-17.06 23.396 5.436 23.398-31.573 23.4 22.243 23.402-8.956 29.507-26.793-29.166 35.016-25.33-36.525-25.332-23.922-25.333 42.004-25.337 37.522-25.335-11.594 4.282-4.283-18.637 22.22-20.96 22.222 28.663 22.22-40.478 22.222 9.97 22.225 16.1 22.225 37.657 43.692-60.29 17.175 43.693L332.33 136.4l-2.076 24.163-24.522 24.166 8.87 24.166-38.106 24.166 26.178 24.167-13.086 24.17 17.56 24.17-2.334 13.148zM265 145.634l-26.664 25.41-26.668-10.87L185 156.03l-17.615-7.126L185 144.74l26.664-1.766 26.668-14.796L265 153.798l6.79-4.894zM265 187.292l-26.664 1.983-26.668 21.733L185 184.72l-23.38 4.184 23.38-21.68 26.664 25.39 26.668-20.63L265 184.837l3.295 4.066zM265 244.814l-25 5.04-25-11.397-5.93-9.553 5.93-10.696 25-.175 25 7.852 2.965 3.02z"/></svg>