<?xml version="1.0" encoding="utf-8"?><svg viewBox="0 0 450 420" version="1" xmlns="http://www.w3.org/2000/svg"><path fill="#fff" d="M289.667 339.25l-22.22 7.105-22.222-1.728-22.22-20.427-22.222 6.24-22.225 10.218-22.225-.59-22.31-9.125 12.62-22.31-21.078-26.324 16.296-17.637-5.06 17.293 15.38 17.334 13.487 6.474 22.93 10.426 22.933-20.294 22.932 23.43 22.936 4.647 22.935.602 5.086-25.285 6.697-24.95 13.14-24.95-13.857-24.95 15.502-24.953-3.932-24.952-16.922-24.956 1.328-24.957-7.043 1.778-22.93-3.094-22.933-26.03-22.932 5.895-22.936 15.643-22.935-14.988-26.74 20.798 16.268 23.396-16.113 23.396 8.787 23.397-.565 23.4 18.61 23.4-22.99-1.114 4.7 1.456-6.51-25.33-19.653-25.332 27.56-25.333-16.516-25.334-6.19-25.336 22.866-7.15 7.15-7.482 22.222-3.532 22.22-.444 22.22-8.71 22.223 19.82 22.225-7.898 22.225-5.997 17.872 3.52 8.738 17.873 11.216 24.162-29.346 24.164 15.19 24.166 1.423 24.166-16.92 24.166 18.012 24.168 10.416 24.17-4.793 24.17-6.163 25.647zM263 155.46l-26.664 7.723-26.668-7.322L183 166.84l-11.96-14.874 11.96-3.373 26.664-3.083 26.668-9.902 26.668 5.86 7.2 10.498zM263 197.863l-26.664-2.558-26.668 7.51L183 204.523l-8.415-12.556 8.415-6.36 26.664-7.122 26.668.433L263 187.78l12.46 4.186zM263 242.39l-25-2.303-25-.543-10.284-7.578L213 218.093l25 6.448 25-6.104 5.74 13.53z"/><path fill="none" stroke="#fff" stroke-miterlimit="10" d="M289.667 333.22l-22.22-4.092-22.222 10.363-22.22-13.29-22.222 1.744-22.225 14.623-22.225-25.32-14.256 5.642-1.573-14.257 6.1-26.324-3.946-5.326 9.766 4.982-.984 17.334 14.227-4.127 22.93 31.702 22.933-24.698 22.932 26.087 22.936-31.505 22.935-1.363 2.993 3.903 1.018-24.95 2.278-24.95 3.907-24.95 11.427-24.953 3.22-24.952-5.112-24.956-18.62-24.957-1.112-12.948-22.93-6.66-22.933 2.736-22.932 3.205-22.936-13.11-22.935 15.176-3.63 11.603-14.88 23.396-10.817 23.396 5.997 23.397 7.004 23.4 15.14 23.4-19.934 23.936-2.486-23.594-14.664-25.33-3.38-25.332 7.026-25.333-2.24-25.334 13.002-25.336-2.22-16.75 16.75-14.5 22.22 1.787 22.22 14.418 22.22-15.04 22.223-9.85 22.225 17.296 22.225 15.45 7.942-.752 11.693 7.942 8.63 24.162-11.802 24.164 16.668 24.166-4.104 24.166-6.63 24.166-15.506 24.168 32.277 24.17-.38 24.17-17.244 21.546zM263 166.95l-26.664-10.824-26.668 11.35-26.668-.7-4.354-14.81 4.354-12.85 26.664 5.294 26.668.317L263 147.43l14.998 4.536zM263 205.443l-26.664 2.965-26.668-6.705-26.668-2.13-10.41-7.607L183 181.454l26.664 4.62 26.668.03 26.668.644 6.035 5.218zM263 242.03l-25 2.547-25-.634-9.29-11.977 9.29-14.38 25 9.272 25-7.272 8.614 12.38z"/></svg>