<?xml version="1.0" encoding="utf-8"?><svg viewBox="0 0 450 420" version="1" xmlns="http://www.w3.org/2000/svg"><path fill="#fff" d="M291.667 336.527l-22.22-11.552-22.222 6.242-22.22 4.25-22.222-6.505-22.225 3.79-22.225-5.365-20.096.28-7.932-20.096 2.994-26.323 10.82-13.64 9.873 13.297-1.935 17.334 15.61 10.452 22.93-.847 22.932 3.94 22.932-2.028 22.936 2.55 22.935-3.965 12.623-10.102-1.05-24.95-1.67-24.95 9.31-24.952-9.846-24.95 3.44-24.953-1.417-24.956-2.494-24.956-8.897-7.694-22.93 2.14-22.933-1.597-22.932-5.008-22.936-2.254-22.935 6.794-7.246 7.62-5.567 23.395-6.588 23.396.18 23.398 12.08 23.4-5.146 23.402-9.33 16.25-17.453-15.908 8.517-25.33 2.65-25.332-8.645-25.333 3.47-25.337 7.423-25.335 3.072-13.25 13.248-15.857 22.22 9.997 22.222-10.692 22.22 3.243 22.222-2.245 22.225 8.75 22.225 3.62 15.04 1.394 12.043 15.04-3.65 24.163.196 24.163 1.655 24.166 4.064 24.166.884 24.166-7.136 24.167 1.865 24.17-6.24 24.17-1.6 17.12zM265 161.004l-26.664 1.965-26.668-2.185L185 157.988l-8.16-7.084 8.16-12.29 26.664 3.905 26.668-1.457L265 138.93l10.816 11.974zM265 199.994l-26.664.632-26.668 3.01L185 201.67l-10.37-10.766 10.37-9.17 26.664-3.77 26.668 1.394 26.668 3.19 7.903 8.356zM265 239.484l-25 .86-25-1.204-10.218-8.236L215 220.06l25-.86 25-.142 7.92 11.846z"/><path fill="none" stroke="#fff" stroke-miterlimit="10" d="M291.667 334.55l-22.22-5.852-22.222-3.527-22.22 7.708-22.222 1.505-22.225-4.117-22.225.594-12.995-10.294-16.968-12.995.27-26.323 15.32-16.09 9.852 15.747-1.44 17.334 15.295 14.94 22.93.065 22.933 1.05 22.932-4.402 22.936-1.38 22.935-3.276 7.368-6.996 2.147-24.95 4.02-24.95 5.295-24.952-2.823-24.95 3.376-24.953-13.052-24.956 2.22-24.956-8.55-8.192-22.932-6.28-22.932-3.23-22.932 10.99-22.936-9.49-22.935 10.127-13.133 6.076 5.027 23.397.26 23.396-8.793 23.398 6.754 23.4.48 23.402-13 4.06-17.03-3.718 9.124-25.33-.97-25.332-2.104-25.333 2.266-25.337-5.39-25.335 5.74-21.438 21.437-3.463 22.22 5.787 22.222-.475 22.22-2.463 22.222-7.984 22.225 6.805 22.225 2.29 15.012 5.927 5.568 15.013 1.685 24.162 5.737 24.163-11.25 24.166 13.69 24.166-6.394 24.166-.28 24.167 5.274 24.17-3.357 24.17-6.694 18.993zM265 161.134l-26.664-3.156-26.668 2.425L185 162.555l-8.81-11.65 8.81-9.053 26.664 1.922 26.668-3.845 26.668.03 9.493 10.944zM265 201.75l-26.664 1.942-26.668-3.44-26.668.466-11.342-9.814L185 180.396l26.664.95 26.668-3.334L265 182.57l11.307 8.334zM265 241.46l-25-1.924-25 1.537-8.092-10.17L215 219.79l25-.466 25 .53 11.096 11.05z"/></svg>