<?xml version="1.0" encoding="utf-8"?><svg viewBox="0 0 85 115" version="1" xmlns="http://www.w3.org/2000/svg"><g fill="#fff"><path d="M73.433 112.426H12.567c-5.883 0-10.65-4.77-10.65-10.65V89.757c0-2.43 1.834-4.554 4.26-4.71 2.66-.173 4.87 1.933 4.87 4.554v7.913c0 3.193 2.588 5.782 5.78 5.782h52.345c3.193 0 5.782-2.59 5.782-5.782V17.78c0-3.193-2.59-5.782-5.782-5.782H16.828c-3.193 0-5.782 2.59-5.782 5.782v53.405c0 2.43-1.835 4.554-4.26 4.71-2.66.173-4.87-1.933-4.87-4.554V13.52c0-5.883 4.77-10.65 10.65-10.65h60.866c5.883 0 10.65 4.768 10.65 10.65v88.255c.002 5.882-4.767 10.65-10.65 10.65zM61.26 34.823H24.74c-2.52 0-4.565-2.044-4.565-4.565s2.044-4.565 4.565-4.565h36.52c2.52 0 4.565 2.044 4.565 4.565s-2.044 4.565-4.565 4.565zM61.26 53.082H24.74c-2.52 0-4.565-2.044-4.565-4.565 0-2.52 2.044-4.565 4.565-4.565h36.52c2.52 0 4.565 2.044 4.565 4.565 0 2.52-2.044 4.565-4.565 4.565zM61.26 71.342H38.435c-2.52 0-4.565-2.044-4.565-4.565 0-2.52 2.044-4.565 4.565-4.565H61.26c2.52 0 4.565 2.044 4.565 4.565 0 2.52-2.044 4.565-4.565 4.565z"/></g></svg>