<?xml version="1.0" standalone="no"?>
<!DOCTYPE svg PUBLIC "-//W3C//DTD SVG 1.1//EN" "http://www.w3.org/Graphics/SVG/1.1/DTD/svg11.dtd" >
<svg xmlns="http://www.w3.org/2000/svg">
<metadata></metadata>
<defs>
<font id="directrgregular" horiz-adv-x="1208" >
<font-face units-per-em="2048" ascent="1638" descent="-410" />
<missing-glyph horiz-adv-x="471" />
<glyph unicode="fi" horiz-adv-x="1347" d="M61 864v203h177v74q0 89 27.5 159.5t74 116t111.5 75t135.5 42t150.5 12.5q96 0 200 -9t160 -19l56 -9v-223q-58 19 -185 34t-235 15q-54 0 -99 -11t-84.5 -35.5t-62 -70.5t-22.5 -110v-41h688v-1067h-229v864h-457v-864h-229v864h-177z" />
<glyph unicode=" "  horiz-adv-x="471" />
<glyph unicode="&#x09;" horiz-adv-x="471" />
<glyph unicode="&#xa0;" horiz-adv-x="471" />
<glyph unicode="!" horiz-adv-x="622" d="M174 127q0 59 40.5 100t98.5 41q59 0 100.5 -41.5t41.5 -99.5t-41.5 -98.5t-100.5 -40.5t-99 40t-40 99zM188 1534h250l-37 -1108h-174z" />
<glyph unicode="&#x22;" horiz-adv-x="804" d="M41 942l102 594h306l-267 -594h-141zM459 942l104 594h303l-264 -594h-143z" />
<glyph unicode="#" horiz-adv-x="1251" d="M61 418v174h236l49 276h-244v176h269l63 349h187l-56 -349h193l59 349h193l-60 -349h240v-176h-266l-47 -276h262v-174h-289l-64 -363h-188l57 363h-190l-64 -363h-190l61 363h-211zM492 592h190l45 276h-186z" />
<glyph unicode="$" horiz-adv-x="1095" d="M45 1047q0 164 104.5 270.5t307.5 124.5v127h192v-125q82 -6 164.5 -22t124.5 -29l41 -13l-14 -264q-141 89 -316 107v-424q52 -21 83 -34t80.5 -38t80 -47t67.5 -56.5t57.5 -70.5t35 -84.5t14.5 -103.5q0 -155 -116 -255t-302 -114v-146h-192v144q-182 10 -367 82v276 q66 -55 162 -94t205 -51v414q-188 64 -300 172.5t-112 253.5zM276 1053q0 -60 47.5 -102.5t133.5 -82.5v355q-101 -18 -141 -58t-40 -112zM649 207q82 5 134.5 43t52.5 115q0 62 -42 104.5t-145 87.5v-350z" />
<glyph unicode="%" horiz-adv-x="1652" d="M94 1108q0 143 98 243.5t240 100.5t243 -101t101 -243t-101.5 -242t-244.5 -100q-142 0 -239 99.5t-97 242.5zM274 1106q0 -73 45 -124.5t115 -51.5q69 0 114.5 52t45.5 124q0 73 -45 123.5t-115 50.5q-71 0 -115.5 -50t-44.5 -124zM313 0l783 1434h229l-786 -1434h-226z M877 334q0 143 99 243.5t241 100.5t242 -100.5t100 -243.5q0 -142 -101 -242t-244 -100q-142 0 -239.5 99.5t-97.5 242.5zM1059 332q0 -73 45 -123.5t115 -50.5q71 0 115 50t44 124q0 73 -44.5 124.5t-114.5 51.5q-69 0 -114.5 -52t-45.5 -124z" />
<glyph unicode="&#x26;" horiz-adv-x="1288" d="M92 365q0 122 66 218.5t180 188.5q-127 198 -127 346q0 92 41.5 169t127 126t200.5 49q78 0 140.5 -27.5t101 -74t59 -102.5t20.5 -117q0 -62 -22 -118t-66 -107t-86 -88.5t-106 -86.5q96 -116 251 -282q61 137 84 325h203q-26 -276 -143 -473q154 -157 313 -311h-295 q-25 22 -48.5 45t-54 54.5t-42.5 43.5q-163 -157 -375 -157q-122 0 -215.5 40t-150 127t-56.5 212zM309 381q0 -88 55.5 -143.5t159.5 -55.5q128 0 230 99q-198 204 -299 331q-71 -61 -108.5 -115.5t-37.5 -115.5zM422 1124q0 -96 84 -227q60 45 96.5 78.5t63 77.5t26.5 88 q0 50 -35 86.5t-92 36.5q-61 0 -102 -40t-41 -100z" />
<glyph unicode="'" horiz-adv-x="417" d="M61 942l105 594h303l-264 -594h-144z" />
<glyph unicode="(" horiz-adv-x="647" d="M82 612q0 130 25.5 258t66 228.5t89.5 191.5t97.5 156t89 113.5t66.5 72.5l25 23l147 -133l-22.5 -22.5t-55.5 -64.5t-78 -103.5t-83 -136.5t-78.5 -167.5t-55 -192t-22.5 -214.5q0 -126 21 -245.5t55 -210.5t75 -171.5t82.5 -136t75.5 -96t55 -59.5l21 -19l-133 -140 q-10 7 -26.5 21.5t-64.5 65.5t-92 109t-97 153t-91.5 196.5t-65 239.5t-26.5 284z" />
<glyph unicode=")" horiz-adv-x="647" d="M-41 1522l147 133q10 -8 26.5 -24t64 -70.5t91 -114.5t96.5 -155t91 -193t64 -227t26 -259q0 -114 -16 -224t-42.5 -199t-61.5 -171t-73 -145.5t-76.5 -118t-73.5 -93t-61.5 -65.5t-42.5 -40l-16 -13l-127 135q8 7 21.5 20t53 59t75.5 98t79.5 136t75 173.5t53 210 t21.5 246.5q0 107 -22 214t-56.5 193.5t-77 166t-84.5 138t-76.5 102t-56.5 65.5z" />
<glyph unicode="*" horiz-adv-x="1052" d="M61 1110l66 180l356 -121l-6 371h195l-17 -369l361 115l57 -184l-366 -98l239 -324l-158 -111l-223 336l-217 -334l-160 119l236 318z" />
<glyph unicode="+" d="M39 604v223h450v420h230v-420h450v-223h-450v-459h-230v459h-450z" />
<glyph unicode="," horiz-adv-x="352" d="M-20 -348l96 588h284l-247 -588h-133z" />
<glyph unicode="-" horiz-adv-x="1048" d="M184 584v229h680v-229h-680z" />
<glyph unicode="." horiz-adv-x="485" d="M102 127q0 59 41 100t99 41t99.5 -41t41.5 -100q0 -58 -41 -98.5t-100 -40.5t-99.5 40.5t-40.5 98.5z" />
<glyph unicode="/" horiz-adv-x="860" d="M0 -102l719 1638h223l-719 -1638h-223z" />
<glyph unicode="0" d="M92 713q0 371 140 560t386 189q498 0 498 -749q0 -367 -138 -555.5t-386 -188.5q-239 0 -369.5 188t-130.5 556zM319 707q0 -268 67.5 -403.5t211.5 -135.5q141 0 216 138.5t75 400.5q0 274 -66.5 408t-216.5 134t-218.5 -135t-68.5 -407z" />
<glyph unicode="1" d="M207 971v200q177 52 303.5 119.5t282.5 198.5v-1270h251v-219h-835v219h354v848z" />
<glyph unicode="2" d="M129 0v199q92 80 150.5 132t130.5 118.5t116 111.5t93.5 99.5t78 97t53.5 88.5t35.5 88t10.5 84q0 102 -55 163.5t-179 61.5q-220 0 -399 -256v313q186 154 436 154q204 0 323 -105.5t119 -297.5q0 -93 -41 -193t-104.5 -187.5t-150.5 -174.5t-169.5 -154t-170.5 -127 h679v-215h-956z" />
<glyph unicode="3" d="M133 86v246q51 -47 165 -99.5t226 -52.5q139 0 220 66.5t81 179.5q0 71 -30.5 124t-83 82.5t-114.5 43.5t-134 14q-127 0 -201 -18l422 567q-276 0 -379 -8t-147 -41v244h927l-446 -582q88 -10 159 -36t131 -73.5t93 -126t33 -182.5q0 -71 -19.5 -136t-61.5 -123.5 t-102 -101.5t-146.5 -68t-190.5 -25q-95 0 -191 24.5t-138.5 44t-72.5 37.5z" />
<glyph unicode="4" d="M51 283v225l582 930h309v-946h184v-211h-184v-281h-227v283h-664zM270 492h445v712h-8z" />
<glyph unicode="5" d="M188 70v256q7 -6 19 -16t50.5 -36t78.5 -46t97.5 -36t111.5 -16q158 0 231.5 83.5t73.5 215.5q0 130 -77 191t-202 61q-53 0 -107 -10.5t-95 -26t-73.5 -30.5t-53.5 -26.5t-23 -12.5v813h807v-224h-598v-307q85 33 227 33q82 0 156.5 -26t137 -78t99.5 -141t37 -204 q0 -78 -16 -149t-55 -137.5t-98 -114.5t-151 -77t-208 -29q-90 0 -180.5 21t-137.5 41.5t-51 27.5z" />
<glyph unicode="6" horiz-adv-x="1232" d="M113 659q0 114 17.5 219.5t63.5 212.5t116.5 185.5t185 128t260.5 49.5q147 0 268 -45v-276q-66 59 -130 84.5t-169 25.5q-163 0 -258.5 -104t-122.5 -303q39 41 121.5 78.5t189.5 37.5q197 0 327 -125.5t130 -343.5q0 -97 -28 -180t-76 -141.5t-112.5 -100t-136.5 -61.5 t-149 -20q-80 0 -147.5 16.5t-134 62.5t-112.5 120t-74.5 196.5t-28.5 283.5zM338 600q0 -85 14 -157t44.5 -135t87 -99.5t134.5 -36.5q90 0 153.5 45.5t91.5 114.5t28 153q0 125 -75.5 191.5t-192.5 66.5q-99 0 -173 -40t-112 -87v-16z" />
<glyph unicode="7" d="M152 1178v256h976l-606 -1434h-248q0 -4 134 303.5t268 616.5l133 309q-330 0 -456.5 -10.5t-200.5 -40.5z" />
<glyph unicode="8" d="M119 348q0 72 15.5 127.5t53 104t83 87t120.5 91.5q-235 130 -235 338q0 368 460 368q233 0 338 -98t105 -270q0 -95 -65 -179t-193 -169q148 -75 218.5 -163t70.5 -223q0 -79 -33 -149.5t-93.5 -125t-153 -86.5t-204.5 -32q-230 0 -358.5 94t-128.5 285zM348 373 q0 -104 75.5 -156.5t192.5 -52.5q98 0 170 55.5t72 155.5q0 25 -7.5 48.5t-18 42t-30 38.5t-37 33.5t-46 31.5t-48.5 29.5t-54 30.5t-54 30q-113 -81 -164 -145t-51 -141zM381 1090q0 -70 58 -125.5t186 -120.5q109 60 155.5 118t46.5 125q0 193 -219 193 q-106 0 -166.5 -50.5t-60.5 -139.5z" />
<glyph unicode="9" d="M106 944q0 153 66.5 270.5t176 178.5t243.5 61q89 0 161.5 -19t137.5 -65.5t109.5 -119.5t70 -187t25.5 -262q0 -821 -604 -821q-190 0 -306 43v268q58 -55 131 -80t175 -25q177 0 268 106t100 294q-37 -39 -121 -75t-192 -36q-195 0 -318 123.5t-123 345.5zM324 956 q0 -134 73.5 -204t182.5 -70q101 0 174.5 35.5t111.5 79.5v67q0 67 -7.5 122t-27 106.5t-51 86t-81 55.5t-115.5 21q-67 0 -119 -26.5t-82 -70.5t-44.5 -95.5t-14.5 -106.5z" />
<glyph unicode=":" horiz-adv-x="485" d="M102 270q0 59 41 100.5t99 41.5t99.5 -41.5t41.5 -100.5q0 -58 -41 -98.5t-100 -40.5t-99.5 40.5t-40.5 98.5zM102 977q0 59 41 100t99 41t99.5 -41t41.5 -100q0 -58 -41 -98.5t-100 -40.5t-99.5 40.5t-40.5 98.5z" />
<glyph unicode=";" horiz-adv-x="485" d="M27 -184l92 532h272l-237 -532h-127zM102 977q0 59 41 100t99 41t99.5 -41t41.5 -100q0 -58 -41 -98.5t-100 -40.5t-99.5 40.5t-40.5 98.5z" />
<glyph unicode="&#x3c;" d="M47 664q948 628 950 628l127 -153l-745 -480l747 -479l-127 -153z" />
<glyph unicode="=" d="M0 367v229h1208v-229h-1208zM0 776v230h1208v-230h-1208z" />
<glyph unicode="&#x3e;" d="M82 180l747 479l-745 480l127 153l950 -628v-7q-950 -630 -952 -630z" />
<glyph unicode="?" horiz-adv-x="915" d="M53 1186v268q158 92 371 92q180 0 290.5 -98.5t110.5 -282.5q0 -70 -23.5 -136.5t-61 -120t-82.5 -104t-90 -96t-82.5 -87.5t-61 -87.5t-23.5 -87.5l2 -18h-198q-4 24 -4 45q0 58 29.5 121t73 116.5t95 112.5t95 109.5t73 107t29.5 105.5q0 88 -55.5 140t-145.5 52 q-209 0 -342 -151zM168 127q0 59 40.5 100t98.5 41q59 0 100.5 -41.5t41.5 -99.5t-41.5 -98.5t-100.5 -40.5t-99 40t-40 99z" />
<glyph unicode="@" horiz-adv-x="2179" d="M92 485q0 175 46.5 335t137 292t216 229t291.5 151t354 54q164 0 301.5 -34.5t233.5 -91t171 -135t120 -160.5t74 -174.5t39.5 -170.5t10.5 -153q0 -279 -119 -460t-293 -181q-137 0 -210 83t-89 222q-4 -11 -16.5 -37t-46 -74.5t-75 -89t-108.5 -71.5t-141 -31 q-143 0 -243 66t-146.5 176.5t-46.5 256.5q0 130 43.5 239t117.5 182t172.5 113t209.5 40q45 0 90.5 -9t77.5 -21t57.5 -24.5t38 -20.5t12.5 -7q0 2 39 14.5t78 24.5l39 12l31 -2q-2 -79 -16.5 -232.5t-14.5 -246.5q0 -113 11 -188.5t34.5 -116.5t53.5 -57.5t73 -16.5 q58 0 103.5 68.5t67 162.5t21.5 187q0 126 -28 239.5t-88.5 212t-148.5 169.5t-215.5 112t-281.5 41q-184 0 -342 -69t-265 -186t-167.5 -272.5t-60.5 -326.5q0 -187 57 -333.5t156 -237t226 -137t274 -46.5q275 0 516 107v-183q-247 -106 -525 -106q-172 0 -318.5 45.5 t-254 128t-183.5 196t-113.5 251t-37.5 292.5zM750 492q0 -83 21.5 -147t57 -101t76 -55.5t84.5 -18.5q139 0 240.5 168t118.5 442q-2 1 -25.5 17t-40 25t-45.5 22t-63 19.5t-72 6.5q-163 0 -257.5 -104.5t-94.5 -273.5z" />
<glyph unicode="A" horiz-adv-x="1284" d="M-10 0l581 1436h164l559 -1436h-252l-118 293h-572l-110 -293h-252zM422 489h438l-211 605h-8z" />
<glyph unicode="B" horiz-adv-x="1333" d="M195 0v1434q395 10 471 10q142 0 246 -25t164.5 -72t89 -106.5t28.5 -134.5q0 -132 -62.5 -219.5t-179.5 -126.5q37 -6 74 -18.5t79 -38.5t73 -61t52 -90t21 -122q0 -70 -15.5 -131t-56 -119t-104 -99t-165.5 -66t-234 -25q-178 0 -481 10zM430 199q167 -9 248 -9 q145 0 230 63t85 171q0 96 -86.5 151.5t-240.5 55.5h-236v-432zM430 834h182q330 0 330 225q0 84 -71 132t-212 48q-44 0 -229 -10v-395z" />
<glyph unicode="C" horiz-adv-x="1243" d="M82 711q0 166 46.5 303t134.5 236t223 153.5t305 54.5q178 0 376 -78l-34 -309q-55 88 -146 133t-207 45q-204 0 -328 -143.5t-124 -398.5q0 -105 28.5 -197.5t82.5 -165t140.5 -114.5t194.5 -42q69 0 136.5 12.5t114 30.5t84 35.5t55.5 29.5l18 13v-229 q-206 -100 -422 -100q-333 0 -505.5 191.5t-172.5 539.5z" />
<glyph unicode="D" horiz-adv-x="1415" d="M195 0v1434h444q349 0 521.5 -184.5t172.5 -516.5q0 -344 -176.5 -538.5t-529.5 -194.5h-432zM432 207h195q225 0 342.5 130t117.5 380q0 256 -118.5 375.5t-356.5 119.5h-180v-1005z" />
<glyph unicode="E" horiz-adv-x="1155" d="M195 0v1434h903v-213h-666v-390h567v-208h-567v-410h692v-213h-929z" />
<glyph unicode="F" horiz-adv-x="1079" d="M195 0v1434h864v-215h-627v-388h576v-208h-576v-623h-237z" />
<glyph unicode="G" horiz-adv-x="1423" d="M84 711q0 164 54.5 303t151.5 236.5t236.5 152.5t304.5 55q100 0 217 -22.5t201 -55.5l-35 -301q-131 170 -401 170q-213 0 -349 -144.5t-136 -397.5q0 -141 54.5 -258t167 -191t265.5 -74q127 0 242 43v332q-157 0 -303 -22v227h526v-678q-90 -44 -220.5 -75t-258.5 -31 q-337 0 -527 195.5t-190 535.5z" />
<glyph unicode="H" horiz-adv-x="1533" d="M195 0v1434h237v-609h670v609h237v-1434h-237v616h-670v-616h-237z" />
<glyph unicode="I" horiz-adv-x="628" d="M195 0v1434h237v-1434h-237z" />
<glyph unicode="J" horiz-adv-x="831" d="M33 231q11 -4 45.5 -19t63.5 -21.5t69 -6.5q94 0 141 83.5t47 264.5v902h238v-869q0 -165 -29.5 -280.5t-87 -181t-132.5 -94.5t-175 -29q-35 0 -76.5 4.5t-65.5 9.5l-24 4z" />
<glyph unicode="K" horiz-adv-x="1277" d="M195 0v1434h237v-621h33q16 0 33 10t41 36.5t41.5 48t52.5 67.5l354 459h289l-557 -689l610 -745h-317l-361 465q-10 13 -39 50.5t-42 53t-34 39t-36 32.5t-27 9h-41v-649h-237z" />
<glyph unicode="L" horiz-adv-x="1040" d="M195 0v1434h237v-1235h195q372 0 444 22v-221h-876z" />
<glyph unicode="M" horiz-adv-x="1888" d="M123 0l149 1434h256l410 -1022h18l410 1022h256l143 -1434h-243l-54 725l-8 379h-8l-451 -1120h-118l-449 1124h-8l-8 -383l-62 -725h-233z" />
<glyph unicode="N" horiz-adv-x="1533" d="M195 0v1432h247l684 -1070h9l-29 316v754h233v-1432h-223l-715 1110h-10l37 -342v-768h-233z" />
<glyph unicode="O" horiz-adv-x="1415" d="M82 733q0 217 77 383t222 258t338 92q614 0 614 -733q0 -128 -24.5 -241t-76 -207.5t-125 -163t-177.5 -106.5t-228 -38q-155 0 -275 58.5t-194.5 162t-112.5 239t-38 296.5zM322 741q0 -162 41 -285.5t130 -197.5t216 -74q98 0 173 41.5t120.5 116t68.5 171.5t23 214 q0 162 -38 277t-126.5 183t-224.5 68q-122 0 -210 -68.5t-130.5 -183t-42.5 -262.5z" />
<glyph unicode="P" horiz-adv-x="1193" d="M195 0v1432q17 0 87 3t157 5t194 2q122 0 218 -26t170 -81.5t113.5 -149t39.5 -220.5q0 -110 -33 -197.5t-87.5 -144t-129 -94t-153 -53t-163.5 -15.5q-135 0 -176 4v-465h-237zM432 680q120 -10 178 -10q158 0 242 75.5t84 217.5q0 132 -85 207t-241 75q-49 0 -178 -6 v-559z" />
<glyph unicode="Q" horiz-adv-x="1404" d="M82 733q0 217 77 383t222 258t338 92q614 0 614 -733q0 -210 -69 -379t-201 -266q31 -85 81 -124.5t144 -39.5q39 0 107 10l-11 -200q-73 -13 -131 -13q-141 0 -242 68.5t-145 206.5q-78 -19 -164 -19q-155 0 -274.5 56t-194.5 157.5t-113 238.5t-38 304zM322 741 q0 -159 46 -284.5t135 -199t206 -73.5q98 0 173 41.5t120.5 116t68.5 171.5t23 214q0 242 -99.5 385t-289.5 143q-122 0 -210 -68.5t-130.5 -183t-42.5 -262.5z" />
<glyph unicode="R" horiz-adv-x="1312" d="M195 0v1432q17 0 92 3t161 5t183 2q129 0 231 -25t179 -77t118 -137.5t41 -201.5q0 -83 -28.5 -157.5t-74 -126.5t-95.5 -87.5t-99 -51.5l379 -578h-289l-327 518q-58 -8 -140 -8q-14 0 -94 8v-518h-237zM432 721q114 -4 172 -4q154 0 251 69t97 203q0 126 -81.5 191 t-239.5 65q-70 0 -199 -6v-518z" />
<glyph unicode="S" horiz-adv-x="1095" d="M78 1053q0 182 125 291.5t350 109.5q102 0 201.5 -15t148.5 -31l49 -15l-34 -279q-172 119 -359 119q-110 0 -179 -41.5t-69 -130.5q0 -33 9.5 -60t32 -50t46 -40t66.5 -37t76.5 -33t91.5 -34q43 -16 75 -29t74.5 -35t73 -45t63 -57t53 -72t33.5 -89t13 -109 q0 -175 -126.5 -283t-344.5 -108q-106 0 -204 16.5t-140.5 30t-112.5 39.5v284q82 -67 205 -113.5t254 -46.5q107 0 171 44.5t64 127.5q0 87 -88 150.5t-260 122.5q-174 59 -266 165t-92 253z" />
<glyph unicode="T" horiz-adv-x="1175" d="M-20 1212v222h1216v-222q-22 11 -144.5 17t-232.5 6h-112v-1235h-238v1235h-113q-110 0 -232 -6t-144 -17z" />
<glyph unicode="U" horiz-adv-x="1374" d="M123 664v770h237v-789q0 -241 82 -352t242 -111q152 0 241 108t89 345v799h237v-770q0 -349 -141 -521t-432 -172q-279 0 -417 172.5t-138 520.5z" />
<glyph unicode="V" horiz-adv-x="1265" d="M20 1434h254l367 -1072h8l344 1072h254l-520 -1432h-176z" />
<glyph unicode="W" horiz-adv-x="1822" d="M0 1434h252l242 -961h8l350 965h139l357 -965h8l215 961h252l-391 -1434h-142l-268 717q-14 40 -51 162t-49 159h-9q-65 -205 -106 -317l-275 -721h-133z" />
<glyph unicode="X" horiz-adv-x="1263" d="M10 0l473 735l-450 697h284l318 -533l311 533h281l-441 -697l467 -735h-276l-344 569l-352 -569h-271z" />
<glyph unicode="Y" horiz-adv-x="1185" d="M-27 1434h260l363 -686l362 686h263l-510 -914v-520h-238v520z" />
<glyph unicode="Z" horiz-adv-x="1099" d="M8 4v78l733 1159q-218 0 -359.5 -5t-192.5 -10.5t-130 -17.5v226h1020v-80l-741 -1161q606 6 721 12v-201h-1051z" />
<glyph unicode="[" horiz-adv-x="765" d="M195 -457v2108h520v-197h-303v-1714h303v-197h-520z" />
<glyph unicode="\" horiz-adv-x="860" d="M-82 1536h223l719 -1638h-223z" />
<glyph unicode="]" horiz-adv-x="765" d="M51 -260h303v1714h-303v197h520v-2108h-520v197z" />
<glyph unicode="^" horiz-adv-x="1024" d="M70 999l438 613h4q442 -613 442 -615l-123 -84l-319 457l-319 -455z" />
<glyph unicode="_" horiz-adv-x="1024" d="M180 2h660v-229h-660v229z" />
<glyph unicode="`" horiz-adv-x="1024" d="M299 1634h291l176 -366h-174z" />
<glyph unicode="a" horiz-adv-x="1179" d="M88 303q0 194 131 294.5t416 100.5q30 0 84.5 -1t81.5 -1q-3 38 -9 67.5t-23 66t-44 61t-76 41t-114 16.5q-47 0 -88 -7t-65.5 -13t-56.5 -25.5t-41 -25.5t-41.5 -33.5t-35.5 -30.5l-21 266q16 8 46 19t125 30t192 19t170 -13.5t124.5 -43t85.5 -69.5t54 -101t27.5 -130 t7.5 -163v-199q0 -133 11 -235t21 -137l11 -36l-215 -30q-13 52 -29 174q-106 -104 -188 -148.5t-193 -44.5q-88 0 -156.5 28t-109.5 75.5t-61.5 105.5t-20.5 123zM309 319q0 -71 46 -114t120 -43q105 0 190 57.5t134 142.5l-2 162q-91 2 -138 2q-176 0 -263 -47.5 t-87 -159.5z" />
<glyph unicode="b" horiz-adv-x="1357" d="M184 0v1567l230 10v-586q106 89 199 123.5t194 34.5q73 0 139 -19.5t126 -63t103.5 -108.5t69 -162t25.5 -216q0 -145 -42.5 -262.5t-116.5 -194.5t-173.5 -118.5t-214.5 -41.5q-55 0 -106 6t-85.5 14t-70 21t-53 21.5t-42.5 22t-30 15.5l-113 -63h-39zM414 260 q127 -106 282 -106q153 0 244.5 104t91.5 295q0 205 -80.5 295t-216.5 90q-151 0 -321 -170v-508z" />
<glyph unicode="c" horiz-adv-x="1075" d="M88 559q0 279 160 434.5t428 155.5q80 0 168 -17.5t155 -44.5l-28 -282q-116 143 -309 143q-163 0 -254 -105t-91 -288q0 -54 13 -107.5t42 -103.5t69.5 -88t100 -61t130.5 -23q61 0 118 10.5t94.5 25t67 29t42.5 25.5l14 10l6 -215q-174 -77 -355 -77q-98 0 -182 20 t-156.5 64t-123.5 110.5t-80 164.5t-29 220z" />
<glyph unicode="d" horiz-adv-x="1355" d="M88 545q0 143 47 259.5t127 190t181.5 113t213.5 39.5q218 0 295 -43v463l230 10v-1047q0 -118 10.5 -268t26.5 -242l-218 -30q-23 106 -28 209q-68 -112 -170.5 -167t-222.5 -55q-80 0 -151 19.5t-134 63t-108.5 108t-72 161t-26.5 216.5zM317 559q0 -104 26.5 -181.5 t71 -119t94 -61t103.5 -19.5q203 0 340 242v459q-111 63 -278 63q-151 0 -254 -102.5t-103 -280.5z" />
<glyph unicode="e" horiz-adv-x="1191" d="M88 559q0 131 32.5 239t97 189t169.5 125.5t242 44.5q106 0 189 -30.5t133 -78.5t82.5 -114.5t44.5 -131t12 -134.5q0 -96 -13 -187h-758q17 -157 99 -231t239 -74q74 0 140.5 9.5t108 23.5t72 28t43.5 23l13 10v-221q-156 -69 -389 -69q-285 0 -421 141t-136 438z M319 672h547q0 137 -64 223t-196 86q-256 0 -287 -309z" />
<glyph unicode="f" horiz-adv-x="847" d="M61 864v203h177v115q0 87 24 156.5t64.5 115.5t96.5 76.5t115.5 43.5t125.5 13q46 0 117.5 -6.5t120.5 -12.5l48 -7l-26 -258q-90 77 -250 77q-209 0 -209 -231v-82h381v-203h-379v-864h-229v864h-177z" />
<glyph unicode="g" horiz-adv-x="1302" d="M88 559q0 94 22.5 181t67.5 161t108.5 129t150 86t186.5 31q72 0 146 -17t112.5 -33t38.5 -20l170 49h38v-964q0 -333 -144.5 -489t-448.5 -156q-74 0 -166.5 13.5t-148.5 26.5l-56 13l-21 266q8 -5 22 -13.5t58 -30t89 -38t108.5 -30t122.5 -13.5q92 0 158.5 24t104 61 t59 95.5t28 113t6.5 128.5q-86 -82 -165.5 -108.5t-168.5 -26.5q-209 0 -343 151.5t-134 409.5zM313 571q0 -176 83 -276t247 -100q58 0 128 28t128 82v574q-117 75 -274 75q-126 0 -219 -103.5t-93 -279.5z" />
<glyph unicode="h" horiz-adv-x="1331" d="M184 0v1567l222 10v-651q79 113 175 168t230 55q94 0 159.5 -24t108 -69t67 -123t33.5 -171.5t9 -229.5l-2 -532h-230q2 236 2 526q0 229 -45.5 320.5t-171.5 91.5q-91 0 -178 -65.5t-149 -167.5v-705h-230z" />
<glyph unicode="i" horiz-adv-x="618" d="M160 1409q0 62 42 104.5t103 42.5q62 0 105 -43t43 -104t-43 -103t-105 -42q-61 0 -103 42t-42 103zM193 0v1126h229v-1126h-229z" />
<glyph unicode="j" horiz-adv-x="655" d="M-133 -209q5 -2 35.5 -13t42.5 -14t40.5 -7.5t59.5 -4.5q96 0 142 91.5t46 310.5v972h230v-940q0 -328 -109 -487.5t-307 -159.5q-35 0 -76.5 4.5t-65.5 9.5l-24 5zM199 1409q0 62 42 104.5t103 42.5q62 0 105 -43t43 -104t-43 -103t-105 -42t-103.5 42t-41.5 103z" />
<glyph unicode="k" horiz-adv-x="1128" d="M184 0v1567l230 10v-928h53q17 0 47 32.5t80 100.5l262 346h266l-420 -532l467 -596h-288l-285 381q-91 119 -135 119h-47v-500h-230z" />
<glyph unicode="l" horiz-adv-x="628" d="M174 315v1252l227 10v-1231q0 -53 16.5 -87.5t48 -51t63 -22t73.5 -5.5l-27 -184q-53 -2 -161 -2q-118 0 -179 81.5t-61 239.5z" />
<glyph unicode="m" horiz-adv-x="1988" d="M184 0v1126h201l21 -204q90 123 174.5 175t210.5 52q117 0 186.5 -47t114.5 -152q177 199 385 199q91 0 155.5 -24t106 -69t65 -123t32.5 -171.5t9 -229.5l-2 -532h-229q2 236 2 526q0 96 -4 157.5t-15 114.5t-31.5 81.5t-53.5 43.5t-82 15q-52 0 -103.5 -20.5t-90.5 -51 t-66 -60.5t-42 -56v-750h-229q2 236 2 526q0 96 -4 158t-14.5 114.5t-31 81t-52 43.5t-78.5 15q-85 0 -164 -64.5t-143 -168.5v-705h-230z" />
<glyph unicode="n" horiz-adv-x="1331" d="M184 0v1126h201l21 -208q89 135 184 183t221 48q91 0 155.5 -24t108 -69.5t68.5 -122.5t35 -172t10 -229l-2 -532h-230q2 236 2 526q0 229 -45.5 320.5t-171.5 91.5q-91 0 -178 -65.5t-149 -167.5v-705h-230z" />
<glyph unicode="o" horiz-adv-x="1271" d="M86 563q0 258 160 427t403 169q138 0 243 -45.5t168 -127.5t94.5 -188.5t31.5 -234.5q0 -168 -63.5 -303.5t-190.5 -218t-297 -82.5q-178 0 -303.5 79t-185.5 213t-60 312zM315 565q0 -186 89 -299.5t231 -113.5q154 0 236.5 112.5t82.5 298.5q0 189 -80 296.5 t-231 107.5q-147 0 -237.5 -114t-90.5 -288z" />
<glyph unicode="p" horiz-adv-x="1368" d="M184 -451v1577h201l25 -190q80 116 168.5 164.5t224.5 48.5q73 0 140.5 -19.5t129.5 -63.5t107.5 -108.5t72.5 -161.5t27 -216q0 -144 -42.5 -260.5t-117 -191t-173.5 -114t-214 -39.5q-197 0 -319 60v-475zM414 246q122 -82 293 -82q153 0 244 102.5t91 292.5 q0 104 -25 182.5t-67.5 122t-90.5 64t-101 20.5q-103 0 -190 -63t-154 -172v-467z" />
<glyph unicode="q" horiz-adv-x="1366" d="M88 535q0 137 46.5 254t124.5 194t179.5 120.5t212.5 43.5q197 0 320 -70l170 49h41v-1566l-228 -11v574q-118 -146 -370 -146q-98 0 -185 34t-157.5 100t-112 175.5t-41.5 248.5zM319 541q0 -92 26 -163.5t68.5 -112.5t92.5 -62t104 -21q231 0 342 197v483 q-71 40 -134.5 60t-143.5 20q-162 0 -258.5 -110t-96.5 -291z" />
<glyph unicode="r" horiz-adv-x="899" d="M184 0v1126h201l18 -219q73 125 160.5 179.5t214.5 54.5q37 0 75 -8.5t57 -17.5l20 -9l-56 -254q-8 7 -22.5 16.5t-57.5 26t-85 16.5q-182 0 -295 -213v-698h-230z" />
<glyph unicode="s" horiz-adv-x="1040" d="M102 823q0 155 112 240.5t327 85.5q88 0 175.5 -11.5t131.5 -22.5l43 -11l-33 -264q-118 114 -338 114q-83 0 -137.5 -32.5t-54.5 -94.5q0 -29 14.5 -53t33 -39.5t57 -31.5t63.5 -23.5t76.5 -21.5t74.5 -21q48 -14 85 -28t84 -41t78 -58.5t53 -79.5t22 -106 q0 -162 -120.5 -253t-356.5 -91q-183 0 -367 67l12 254q5 -5 15.5 -14t46 -32t75 -40.5t101.5 -32t127 -14.5q94 0 162.5 39t68.5 104q0 34 -26.5 62.5t-75.5 49.5t-97 37t-113.5 35.5t-103.5 34.5q-102 40 -158.5 109.5t-56.5 183.5z" />
<glyph unicode="t" horiz-adv-x="995" d="M31 915v64q74 59 153.5 173.5t122.5 199.5l43 84h109v-322h467v-201l-467 2v-483q0 -138 45 -195t125 -57q81 0 158.5 30t114.5 60l38 29l-10 -248q-106 -47 -187.5 -62.5t-173.5 -15.5q-166 0 -254 109.5t-88 296.5l2 536h-198z" />
<glyph unicode="u" horiz-adv-x="1347" d="M164 551l2 575h229q-2 -277 -2 -567q0 -207 50 -293t159 -86q94 0 184.5 64.5t151.5 177.5v704h229v-596q0 -118 10.5 -268t26.5 -242l-217 -30q-24 112 -29 209q-110 -134 -197 -178t-210 -44q-200 0 -293.5 139t-93.5 435z" />
<glyph unicode="v" horiz-adv-x="1091" d="M4 1126h256l291 -823h8l272 823h256l-452 -1126h-170z" />
<glyph unicode="w" horiz-adv-x="1683" d="M16 1126h238l225 -768h8l326 785h61l338 -785h9l213 768h237l-362 -1126h-152l-311 686h-8l-308 -686h-145z" />
<glyph unicode="x" horiz-adv-x="1083" d="M0 0l399 580l-383 546h273l254 -409l252 409h264l-369 -546l393 -580h-266l-278 436l-281 -436h-258z" />
<glyph unicode="y" horiz-adv-x="1150" d="M35 1126h258l321 -915q23 65 42.5 122t41 123.5t35 108.5t38 125.5t36 122t44.5 151t48 162.5h240q-193 -603 -361 -1042q-56 -147 -107 -243.5t-112.5 -166.5t-135 -101.5t-167.5 -31.5q-100 0 -182 23l-15 248q33 -26 92 -48t115 -22q73 0 126 48.5t102 152.5z" />
<glyph unicode="z" horiz-adv-x="1005" d="M43 0v78q-1 1 147.5 216.5t297.5 430.5l149 215q-401 0 -569 -25v211h899v-79q-2 2 -153 -213l-302 -430l-150 -216h48t112 0.5t154 0.5t146 0.5t118 1.5t43 2v-193h-940z" />
<glyph unicode="{" horiz-adv-x="872" d="M20 612q83 68 118.5 98.5t85 78t68.5 79.5t19 60q0 85 16 164.5t43.5 142t63.5 118.5t75 97.5t78.5 76.5t75.5 58t63.5 39.5t43.5 23.5l16 7l107 -174q-7 -3 -19 -9t-47.5 -28t-68.5 -48t-74 -70.5t-72 -94.5t-55.5 -120.5t-30.5 -147.5q-7 -93 -73 -190.5t-152 -151.5 q86 -54 150.5 -162.5t74.5 -225.5q8 -82 31.5 -154.5t55 -123t68 -92.5t71 -68t62.5 -44t46 -25l17 -7l-86 -176q-10 4 -27 12t-66.5 38.5t-94.5 67t-100.5 100t-95.5 135.5t-68 174.5t-30 216.5q-1 23 -12.5 46.5t-44.5 59t-55.5 57.5t-84.5 78t-92 84z" />
<glyph unicode="|" horiz-adv-x="606" d="M195 -457v2108h217v-2108h-217z" />
<glyph unicode="}" horiz-adv-x="872" d="M-20 1481l106 174q10 -4 27 -12t66.5 -39t94.5 -67.5t99.5 -99t94 -132.5t66.5 -169t27 -208q0 -28 19 -60t68.5 -79.5t85 -78t118.5 -98.5q-30 -28 -92 -84t-84.5 -78t-55.5 -57.5t-44.5 -59t-12.5 -46.5q-1 -89 -18.5 -172t-45.5 -147t-64 -121.5t-76 -99.5t-79.5 -77 t-75 -58t-63 -39t-43.5 -23l-16 -7l-86 176q7 2 18 7t44 25t64 44t69.5 67.5t68.5 93.5t54 122.5t32 154.5q10 117 74.5 225.5t150.5 162.5q-86 54 -152 151.5t-73 190.5q-6 77 -30 147t-56.5 121t-70.5 94t-75 71t-67 48t-49 28z" />
<glyph unicode="~" horiz-adv-x="1228" d="M123 729q185 148 326 148q41 0 90.5 -18.5t87.5 -41t83 -41t78 -18.5q29 0 54 4t52 15.5t42 19t49 27t47 26.5l74 -164q-6 -4 -48 -30.5t-65 -39t-63 -32t-77.5 -28.5t-74.5 -9q-38 0 -86 18.5t-86 41t-84.5 41t-81.5 18.5q-63 0 -102.5 -16.5t-136.5 -76.5z" />
<glyph unicode="&#xa4;" horiz-adv-x="1193" d="M59 168v209h136v84h-136v209h136v762q17 0 87 3t157 5t194 2q122 0 218 -26t170 -81.5t113.5 -149t39.5 -220.5q0 -110 -33 -197.5t-87.5 -144t-129 -94t-153 -53t-163.5 -15.5h-176v-84h621v-209h-621v-168h-237v168h-136zM432 670h178q158 0 242 75.5t84 217.5 q0 132 -85 207t-241 75q-49 0 -178 -6v-569z" />
<glyph unicode="&#xa8;" horiz-adv-x="1024" d="M143 1415q0 59 41 100t99 41q59 0 100 -41t41 -100q0 -58 -41 -98.5t-100 -40.5t-99.5 40.5t-40.5 98.5zM567 1415q0 59 41 100t99 41q59 0 100 -41t41 -100q0 -58 -41 -98.5t-100 -40.5t-99.5 40.5t-40.5 98.5z" />
<glyph unicode="&#xa9;" horiz-adv-x="1372" d="M104 557q0 272 158.5 436t423.5 164q263 0 423.5 -164.5t160.5 -435.5q0 -270 -160 -431t-424 -161q-266 0 -424 160.5t-158 431.5zM252 559q0 -211 118.5 -340t317.5 -129q200 0 321 129.5t121 339.5q0 211 -121 342t-321 131q-199 0 -317.5 -131t-118.5 -342zM373 555 q0 158 96.5 260.5t243.5 102.5q46 0 85 -6t53.5 -9.5t48 -17.5t36.5 -15l-8 -174q-82 92 -201 92q-99 0 -156 -66.5t-57 -170.5q0 -92 53.5 -164t151.5 -72q57 0 110.5 20t78.5 40l24 20l4 -133q-95 -65 -223 -65q-148 0 -244 93t-96 265z" />
<glyph unicode="&#xab;" horiz-adv-x="1280" d="M84 561l448 502l156 -152l-334 -350l342 -334l-143 -157zM586 561l448 502l156 -152l-334 -350l342 -334l-143 -157z" />
<glyph unicode="&#xad;" horiz-adv-x="1048" d="M184 584v229h680v-229h-680z" />
<glyph unicode="&#xae;" horiz-adv-x="747" d="M61 1139q0 148 88.5 236.5t223.5 88.5q133 0 223 -88.5t90 -236.5q0 -142 -90.5 -231t-222.5 -89q-135 0 -223.5 88t-88.5 232zM150 1139q0 -106 62 -174t161 -68t161 68t62 174q0 109 -61.5 176t-161.5 67t-161.5 -67t-61.5 -176zM250 969h82v127h16l80 -127h96l-96 143 q31 10 52.5 37.5t21.5 67.5q0 110 -144 110q-88 0 -108 -2v-356zM332 1165v88q4 0 10.5 1t15.5 1q62 0 62 -45t-66 -45h-22z" />
<glyph unicode="&#xb0;" horiz-adv-x="776" d="M102 1204q0 138 94 235t230 97q138 0 234 -97t96 -235q0 -137 -97 -233.5t-235 -96.5q-136 0 -229 96.5t-93 233.5zM274 1202q0 -70 43.5 -118t110.5 -48q68 0 111 48t43 118t-43 119t-111 49q-67 0 -110.5 -49t-43.5 -119z" />
<glyph unicode="&#xb4;" horiz-adv-x="1024" d="M299 1268l176 366h291l-293 -366h-174z" />
<glyph unicode="&#xb6;" horiz-adv-x="1361" d="M61 956q0 219 147 348.5t398 129.5h735v-140h-170v-1702h-206v1702h-152v-1702h-207v885q-144 0 -251 36.5t-170 102.5t-93.5 150.5t-30.5 189.5z" />
<glyph unicode="&#xbb;" horiz-adv-x="1280" d="M82 227l342 334l-334 350l156 152l448 -502l-469 -491zM584 227l342 334l-334 350l156 152l448 -502l-469 -491z" />
<glyph unicode="&#x401;" horiz-adv-x="1155" d="M195 0v1434h903v-213h-666v-390h567v-208h-567v-410h692v-213h-929zM281 1692q0 59 40.5 100t98.5 41t99.5 -41.5t41.5 -99.5t-41 -99t-100 -41q-58 0 -98.5 40.5t-40.5 99.5zM735 1692q0 59 40.5 100t98.5 41q59 0 100.5 -41.5t41.5 -99.5t-41.5 -99t-100.5 -41 q-58 0 -98.5 40.5t-40.5 99.5z" />
<glyph unicode="&#x402;" horiz-adv-x="1568" d="M-20 1223v211h1148v-201q-108 12 -266 12h-258v-399q71 64 170 100.5t205 36.5q150 0 236.5 -52t130 -182t43.5 -360v-117q0 -353 -103 -517.5t-285 -164.5q-33 0 -147 13l-20 204q74 -18 122 -18q107 0 151 93t44 325v166q0 43 -0.5 67t-2.5 63t-6 62.5t-12 55.5 t-19.5 51t-29 40.5t-40 33t-53.5 19t-68 7.5q-86 0 -168 -44t-148 -118v-610h-244v1245h-127q-167 0 -253 -22z" />
<glyph unicode="&#x403;" horiz-adv-x="1024" d="M170 0v1434h877v-234q-23 11 -185 23t-260 12h-194v-1235h-238zM453 1569l176 366h291l-293 -366h-174z" />
<glyph unicode="&#x404;" horiz-adv-x="1243" d="M82 711q0 166 46.5 303t134.5 236t223 153.5t305 54.5q178 0 376 -78l-34 -297q-54 80 -153.5 123t-199.5 43q-190 0 -303.5 -102.5t-140.5 -310.5h659v-205h-661q12 -204 123.5 -323.5t316.5 -119.5q69 0 136.5 12.5t114 30.5t84 35.5t55.5 29.5l18 13v-229 q-206 -100 -422 -100q-333 0 -505.5 191.5t-172.5 539.5z" />
<glyph unicode="&#x405;" horiz-adv-x="1095" d="M72 1053q0 184 134.5 292.5t387.5 108.5q84 0 180 -15t150 -31l55 -15l-14 -279q-199 127 -412 127q-102 0 -169 -46t-67 -136q0 -28 8 -52.5t20 -43.5t36 -37.5t46 -31.5t60 -30t67 -28t79 -29q47 -17 76 -28.5t76.5 -34.5t77 -44.5t65.5 -56.5t56.5 -73t35 -91 t14.5 -114q0 -173 -133.5 -279t-353.5 -106q-106 0 -204 16.5t-140.5 30t-112.5 39.5v284q84 -69 206.5 -117.5t252.5 -48.5q96 0 165.5 47.5t69.5 122.5q0 92 -87.5 157t-260.5 124q-176 59 -270 165.5t-94 252.5z" />
<glyph unicode="&#x406;" horiz-adv-x="628" d="M195 0v1434h237v-1434h-237z" />
<glyph unicode="&#x407;" horiz-adv-x="628" d="M-47 1659q0 59 40.5 100t98.5 41t99.5 -41t41.5 -100q0 -58 -41 -98.5t-100 -40.5q-58 0 -98.5 40t-40.5 99zM195 0v1434h237v-1434h-237zM408 1659q0 59 40.5 100t98.5 41q59 0 100 -41t41 -100q0 -58 -41 -98.5t-100 -40.5t-99 40t-40 99z" />
<glyph unicode="&#x408;" horiz-adv-x="831" d="M33 231q8 -3 29.5 -10.5t32 -11t30 -8t40.5 -6.5t46 -2q95 0 141.5 79.5t46.5 259.5v902h238v-869q0 -165 -29.5 -280.5t-87 -181t-132.5 -94.5t-175 -29q-35 0 -76.5 4.5t-65.5 9.5l-24 4z" />
<glyph unicode="&#x409;" horiz-adv-x="2043" d="M0 209q18 0 82 16q82 25 140 126t81 270q20 142 29.5 299t13.5 514h916v-588q41 4 176 4q119 0 215.5 -24t171 -73t116 -132.5t41.5 -194.5q0 -96 -27 -171.5t-74 -124t-114 -80.5t-142 -45t-163 -13q-118 0 -438 8v1219h-446q-1 -57 -4.5 -147t-18.5 -283.5t-35 -286.5 q-19 -91 -43 -164t-61 -139.5t-84 -112.5t-112.5 -75.5t-145.5 -35.5zM1262 195q151 -7 178 -7q305 0 305 222q0 121 -83.5 176t-221.5 55q-106 0 -178 -6v-440z" />
<glyph unicode="&#x40a;" horiz-adv-x="2121" d="M195 0v1434h237v-588h670v588h237v-588q41 4 177 4q119 0 215.5 -24t171 -73t116 -132.5t41.5 -194.5q0 -96 -27 -171.5t-74 -124t-114 -80.5t-142 -45t-163 -13q-118 0 -438 8v637h-670v-637h-237zM1339 195q150 -7 179 -7q305 0 305 222q0 121 -83.5 176t-221.5 55 q-107 0 -179 -6v-440z" />
<glyph unicode="&#x40b;" horiz-adv-x="1548" d="M-20 1223v211h1148v-201q-108 12 -266 12h-258v-399q71 64 170 100.5t205 36.5q151 0 238 -52.5t129.5 -179.5t42.5 -352v-399h-238v381q0 152 -23 236t-72 119.5t-136 35.5q-86 0 -168 -44t-148 -118v-610h-244v1245h-127q-167 0 -253 -22z" />
<glyph unicode="&#x40c;" horiz-adv-x="1277" d="M195 0v1434h237v-621h33q16 0 33 10t41 36.5t41.5 48t52.5 67.5l354 459h289l-557 -689l610 -745h-317l-361 465q-10 13 -39 50.5t-42 53t-34 39t-36 32.5t-27 9h-41v-649h-237zM541 1503l176 367h291l-293 -367h-174z" />
<glyph unicode="&#x40e;" horiz-adv-x="1163" d="M0 1434h279l395 -879q51 127 256 782q21 64 31 97h243q-189 -581 -344 -981q-102 -263 -228.5 -368t-324.5 -105q-54 0 -102.5 4.5t-70.5 9.5l-21 4v248q34 -24 84.5 -41t101.5 -17q81 0 137.5 26.5t106.5 107.5zM197 1769l161 97l12 -24q13 -24 32 -50t47.5 -54 t72.5 -46.5t96 -18.5t99 20t77 48.5t52.5 57.5t32.5 49l10 20l164 -99q-2 -6 -7 -16.5t-23 -41t-39.5 -58t-59 -61t-79.5 -58t-101.5 -41t-125.5 -16.5q-65 0 -123.5 16t-100 42t-76 57t-56.5 62t-37 57t-21 42z" />
<glyph unicode="&#x40f;" horiz-adv-x="1533" d="M195 0v1434h237v-1225h670v1225h237v-1434h-452l-41 -414h-168l-31 414h-452z" />
<glyph unicode="&#x410;" horiz-adv-x="1284" d="M-10 0l581 1436h164l559 -1436h-252l-118 293h-572l-110 -293h-252zM422 489h438l-211 605h-8z" />
<glyph unicode="&#x411;" horiz-adv-x="1269" d="M195 0v1434h921v-230q-23 11 -194 21t-275 10h-215v-375q117 10 234 10q121 0 217.5 -23.5t170.5 -72.5t114 -131t40 -192q0 -91 -25.5 -169.5t-81.5 -146t-158 -106.5t-241 -39q-87 0 -507 10zM432 199q246 -6 266 -6q267 0 267 243q0 221 -314 221q-127 0 -219 -10 v-448z" />
<glyph unicode="&#x412;" horiz-adv-x="1333" d="M195 0v1434q395 10 471 10q142 0 246 -25t164.5 -72t89 -106.5t28.5 -134.5q0 -132 -62.5 -219.5t-179.5 -126.5q37 -6 74 -18.5t79 -38.5t73 -61t52 -90t21 -122q0 -70 -15.5 -131t-56 -119t-104 -99t-165.5 -66t-234 -25q-178 0 -481 10zM430 199q167 -9 248 -9 q145 0 230 63t85 171q0 96 -86.5 151.5t-240.5 55.5h-236v-432zM430 834h182q330 0 330 225q0 84 -71 132t-212 48q-44 0 -229 -10v-395z" />
<glyph unicode="&#x413;" horiz-adv-x="1024" d="M170 0v1434h877v-234q-23 11 -185 23t-260 12h-194v-1235h-238z" />
<glyph unicode="&#x414;" horiz-adv-x="1533" d="M10 201h223q26 44 55 112t67.5 188t67.5 300t38 385l10 250h813v-1235h219l-71 -570h-172l-25 363h-954l-23 -356h-164zM467 201h582v1030h-355q-3 -50 -9 -130.5t-29.5 -264.5t-51.5 -291q-55 -209 -137 -344z" />
<glyph unicode="&#x415;" horiz-adv-x="1155" d="M195 0v1434h903v-213h-666v-390h567v-208h-567v-410h692v-213h-929z" />
<glyph unicode="&#x416;" horiz-adv-x="1869" d="M-43 0l578 741l-539 693h291l334 -459q60 -84 95.5 -123t59.5 -39h39v621h238v-621h39q24 0 59.5 39t95.5 123l334 459h293l-541 -693l580 -741h-301l-346 465q-36 49 -52 70t-43 54t-44 46.5t-29 13.5h-45v-649h-238v649h-45q-12 0 -29 -13.5t-44 -46.5t-43 -54t-52 -70 l-346 -465h-299z" />
<glyph unicode="&#x417;" horiz-adv-x="1134" d="M72 39v252q6 -4 17.5 -11.5t51.5 -26t84 -32.5t113.5 -25.5t142.5 -11.5q163 0 241.5 61.5t78.5 160.5q0 111 -94.5 167t-270.5 56q-42 0 -107 -4.5t-108 -6.5v224h209q146 0 236 54.5t90 164.5q0 85 -73.5 138.5t-219.5 53.5q-117 0 -200.5 -28t-162.5 -76l-18 256 q19 6 55 15.5t147.5 25.5t225.5 16q254 0 377 -99t123 -265q0 -90 -38.5 -163t-91 -114.5t-116.5 -66.5q289 -70 289 -338q0 -205 -147.5 -322t-440.5 -117q-97 0 -207 19t-186 43z" />
<glyph unicode="&#x418;" horiz-adv-x="1564" d="M195 0v1432h237v-650l-26 -463l733 1113h231v-1432h-237v618l24 467l-735 -1085h-227z" />
<glyph unicode="&#x419;" horiz-adv-x="1564" d="M195 0v1432h237v-650l-26 -463l733 1113h231v-1432h-237v618l24 467l-735 -1085h-227zM352 1769l162 101q6 -15 15 -33t32 -49t50.5 -55t71 -42t91.5 -18q52 0 99 20t77 48.5t52 57.5t32 49l10 20l164 -99q-2 -6 -7 -16.5t-23 -41t-39.5 -58t-58.5 -61t-79 -58 t-101.5 -41t-125.5 -16.5q-65 0 -123.5 16t-100 42t-76.5 57t-57 62t-37 57t-22 42z" />
<glyph unicode="&#x41a;" horiz-adv-x="1277" d="M195 0v1434h237v-621h33q16 0 33 10t41 36.5t41.5 48t52.5 67.5l354 459h289l-557 -689l610 -745h-317l-361 465q-10 13 -39 50.5t-42 53t-34 39t-36 32.5t-27 9h-41v-649h-237z" />
<glyph unicode="&#x41b;" horiz-adv-x="1456" d="M0 209q18 0 82 16q82 25 140 126t81 270q20 142 29.5 299t13.5 514h916v-1432h-238v1217h-446q-1 -57 -4.5 -147t-18.5 -283.5t-35 -286.5q-19 -91 -43 -164t-61 -139.5t-84 -112.5t-112.5 -75.5t-145.5 -35.5z" />
<glyph unicode="&#x41c;" horiz-adv-x="1888" d="M123 0l149 1434h256l410 -1022h18l410 1022h256l143 -1434h-243l-54 725l-8 379h-8l-451 -1120h-118l-449 1124h-8l-8 -383l-62 -725h-233z" />
<glyph unicode="&#x41d;" horiz-adv-x="1533" d="M195 0v1434h237v-609h670v609h237v-1434h-237v616h-670v-616h-237z" />
<glyph unicode="&#x41e;" horiz-adv-x="1415" d="M82 733q0 217 77 383t222 258t338 92q614 0 614 -733q0 -128 -24.5 -241t-76 -207.5t-125 -163t-177.5 -106.5t-228 -38q-155 0 -275 58.5t-194.5 162t-112.5 239t-38 296.5zM322 741q0 -162 41 -285.5t130 -197.5t216 -74q98 0 173 41.5t120.5 116t68.5 171.5t23 214 q0 162 -38 277t-126.5 183t-224.5 68q-122 0 -210 -68.5t-130.5 -183t-42.5 -262.5z" />
<glyph unicode="&#x41f;" horiz-adv-x="1533" d="M195 0v1434h1144v-1434h-237v1225h-670v-1225h-237z" />
<glyph unicode="&#x420;" horiz-adv-x="1193" d="M195 0v1432q17 0 87 3t157 5t194 2q122 0 218 -26t170 -81.5t113.5 -149t39.5 -220.5q0 -110 -33 -197.5t-87.5 -144t-129 -94t-153 -53t-163.5 -15.5q-135 0 -176 4v-465h-237zM432 680q120 -10 178 -10q158 0 242 75.5t84 217.5q0 132 -85 207t-241 75q-49 0 -178 -6 v-559z" />
<glyph unicode="&#x421;" horiz-adv-x="1243" d="M82 711q0 166 46.5 303t134.5 236t223 153.5t305 54.5q178 0 376 -78l-34 -309q-55 88 -146 133t-207 45q-204 0 -328 -143.5t-124 -398.5q0 -105 28.5 -197.5t82.5 -165t140.5 -114.5t194.5 -42q69 0 136.5 12.5t114 30.5t84 35.5t55.5 29.5l18 13v-229 q-206 -100 -422 -100q-333 0 -505.5 191.5t-172.5 539.5z" />
<glyph unicode="&#x422;" horiz-adv-x="1175" d="M-20 1212v222h1216v-222q-22 11 -144.5 17t-232.5 6h-112v-1235h-238v1235h-113q-110 0 -232 -6t-144 -17z" />
<glyph unicode="&#x423;" horiz-adv-x="1163" d="M0 1434h279l395 -879q51 127 256 782q21 64 31 97h243q-189 -581 -344 -981q-102 -263 -228.5 -368t-324.5 -105q-54 0 -99.5 4.5t-63.5 9.5l-19 4l-12 248q34 -24 84.5 -41t101.5 -17q81 0 137.5 26.5t106.5 107.5z" />
<glyph unicode="&#x424;" horiz-adv-x="1679" d="M72 764q0 142 48.5 257.5t129.5 188.5t180.5 114.5t208.5 49.5q29 2 84 2v142h235v-142q26 0 84 -4q90 -6 169.5 -29t153.5 -70t127 -114t84.5 -166.5t31.5 -222.5q0 -242 -146.5 -402t-382.5 -188q-70 -8 -121 -8v-182h-237v182q-80 0 -143 8q-104 13 -195 58.5 t-160.5 118t-110 177.5t-40.5 230zM309 768q0 -94 27 -166.5t73 -117t96.5 -69.5t108.5 -36q33 -6 107 -6v796q-24 0 -55 -2q-167 -11 -262 -113t-95 -286zM958 371q58 0 97 6q62 10 115.5 35.5t100 70.5t73 118t26.5 167q0 192 -93.5 290t-258.5 109q-31 2 -60 2v-798z" />
<glyph unicode="&#x425;" horiz-adv-x="1263" d="M10 0l473 735l-450 697h284l318 -533l311 533h281l-441 -697l467 -735h-276l-344 569l-352 -569h-271z" />
<glyph unicode="&#x426;" horiz-adv-x="1603" d="M195 0v1434h237v-1225h670v1225h237v-1225h224l-70 -582h-168l-27 373h-1103z" />
<glyph unicode="&#x427;" horiz-adv-x="1349" d="M61 1001v433h238v-404q0 -90 16.5 -156t43 -104.5t67 -61.5t80.5 -30.5t92 -7.5q71 0 149 24.5t121.5 48.5t49.5 33v658h237v-1434h-237v543q-103 -53 -191 -75t-195 -22q-111 0 -195 28.5t-147.5 92t-96 172.5t-32.5 262z" />
<glyph unicode="&#x428;" horiz-adv-x="2138" d="M195 0v1434h237v-1223h518v1223h238v-1223h518v1223h238v-1434h-1749z" />
<glyph unicode="&#x429;" horiz-adv-x="2361" d="M195 0v1434h237v-1223h518v1223h238v-1223h518v1223h238v-1223h223l-70 -563h-168l-26 352h-1708z" />
<glyph unicode="&#x42a;" horiz-adv-x="1351" d="M-82 1212v222h672v-512q82 8 176 8q565 0 565 -457q0 -239 -147 -361t-393 -122q-107 0 -194 2t-157.5 5t-87.5 3v1239h-112q-96 0 -197.5 -8t-124.5 -19zM590 193q151 -7 178 -7q158 0 242 72.5t84 210.5q0 122 -84 187t-242 65q-106 0 -178 -6v-522z" />
<glyph unicode="&#x42b;" horiz-adv-x="1814" d="M195 2v1432h237v-510q82 8 176 8q566 0 566 -457q0 -161 -70.5 -271t-190 -161t-280.5 -51q-107 0 -194 2t-157 5t-87 3zM432 195q151 -7 178 -7q158 0 242 72.5t84 210.5q0 122 -84 187t-242 65q-106 0 -178 -6v-522zM1382 0v1434h238v-1434h-238z" />
<glyph unicode="&#x42c;" horiz-adv-x="1193" d="M195 2v1432h237v-510q82 8 176 8q566 0 566 -457q0 -161 -70.5 -271t-190 -161t-280.5 -51q-107 0 -194 2t-157 5t-87 3zM432 195q151 -7 178 -7q158 0 242 72.5t84 210.5q0 122 -84 187t-242 65q-106 0 -178 -6v-522z" />
<glyph unicode="&#x42d;" horiz-adv-x="1224" d="M61 63v246q6 -5 17.5 -13t52 -29t86 -37t119 -29t151.5 -13q179 0 289 117.5t115 310.5h-660v222h664q-22 203 -139.5 301t-300.5 98q-109 0 -194.5 -27.5t-164.5 -93.5l-20 264q198 78 383 78q335 0 509.5 -179.5t174.5 -524.5q0 -172 -40.5 -312t-120 -244t-207 -161 t-292.5 -57q-251 0 -422 83z" />
<glyph unicode="&#x42e;" horiz-adv-x="2054" d="M195 0v1434h237v-609h330q24 294 185.5 467.5t428.5 173.5q135 0 238.5 -36t170.5 -99t109.5 -157t60 -201t17.5 -240q0 -129 -22.5 -241t-71 -207.5t-119.5 -163.5t-173 -106t-226 -38q-553 0 -598 639h-330v-616h-237zM997 735q0 -161 40 -283.5t123 -195t200 -72.5 q98 0 171 42.5t116.5 118.5t64.5 173t21 215q0 161 -36 275t-119 180.5t-210 66.5q-122 0 -207.5 -70.5t-124.5 -185.5t-39 -264z" />
<glyph unicode="&#x42f;" horiz-adv-x="1320" d="M41 0l334 571q-100 40 -174 152t-74 246q0 121 43 213.5t120 148t177.5 83.5t222.5 28q97 0 183 -2t161 -5t92 -3v-1432h-237v502q-102 -10 -164 -10q-102 0 -129 4l-270 -496h-285zM369 979q0 -98 47.5 -161.5t123 -89.5t177.5 -26q78 0 172 15v526q-129 6 -199 6 q-151 0 -236 -72t-85 -198z" />
<glyph unicode="&#x430;" horiz-adv-x="1179" d="M88 303q0 194 131 294.5t416 100.5q30 0 84.5 -1t81.5 -1q-3 38 -9 67.5t-23 66t-44 61t-76 41t-114 16.5q-47 0 -88 -7t-65.5 -13t-56.5 -25.5t-41 -25.5t-41.5 -33.5t-35.5 -30.5l-21 266q16 8 46 19t125 30t192 19t170 -13.5t124.5 -43t85.5 -69.5t54 -101t27.5 -130 t7.5 -163v-199q0 -133 11 -235t21 -137l11 -36l-215 -30q-13 52 -29 174q-106 -104 -188 -148.5t-193 -44.5q-88 0 -156.5 28t-109.5 75.5t-61.5 105.5t-20.5 123zM309 319q0 -71 46 -114t120 -43q105 0 190 57.5t134 142.5l-2 162q-91 2 -138 2q-176 0 -263 -47.5 t-87 -159.5z" />
<glyph unicode="&#x431;" horiz-adv-x="1265" d="M109 682q0 146 20 266.5t54 207.5t87 155t110.5 112t132.5 75.5t146 48t158 26.5q10 1 43 5t43 5t36.5 5t37 6.5t31 8t32 11t25.5 13.5t25 18l45 -228q-21 -9 -47 -16t-45.5 -11.5t-57 -8.5t-54 -6t-66.5 -6t-66 -5q-214 -19 -324 -124t-135 -314q166 161 371 161 q98 0 183.5 -35t149.5 -101t101 -168.5t37 -229.5q0 -118 -33 -221.5t-97 -185t-167 -128.5t-234 -47q-141 0 -246 51.5t-169 147t-95.5 223.5t-31.5 289zM334 633q0 -214 88 -343.5t242 -129.5q136 0 217.5 105t81.5 272q0 158 -87.5 257t-216.5 99q-88 0 -176 -50.5 t-147 -125.5q0 -11 -1 -44.5t-1 -39.5z" />
<glyph unicode="&#x432;" horiz-adv-x="1206" d="M184 0v1126q263 15 453 15q220 0 321 -72.5t101 -200.5q0 -109 -53 -175.5t-136 -96.5q34 -8 67.5 -22.5t74.5 -43.5t66.5 -79.5t25.5 -114.5q0 -159 -105 -253.5t-323 -94.5q-294 0 -492 12zM397 178q114 -8 226 -8q245 0 245 162q0 75 -65.5 114t-188.5 39h-217v-307z M397 666h176q130 0 192 38t62 127q0 136 -217 136q-76 0 -213 -9v-292z" />
<glyph unicode="&#x433;" horiz-adv-x="913" d="M170 0v1126h729v-225q-19 9 -146.5 18t-203.5 9h-152v-928h-227z" />
<glyph unicode="&#x434;" horiz-adv-x="1314" d="M-39 184h191q152 252 167 746q1 28 4 100.5t3 95.5h749v-942h189l-47 -510h-160l-21 318h-839l-19 -318h-160zM371 184h477v748h-318q-2 -38 -5.5 -99.5t-19.5 -196.5t-38 -206q-4 -14 -14 -48t-14.5 -47t-13.5 -39.5t-15.5 -41.5t-17 -34t-21.5 -36z" />
<glyph unicode="&#x435;" horiz-adv-x="1191" d="M88 559q0 131 32.5 239t97 189t169.5 125.5t242 44.5q106 0 189 -30.5t133 -78.5t82.5 -114.5t44.5 -131t12 -134.5q0 -96 -13 -187h-758q17 -157 99 -231t239 -74q74 0 140.5 9.5t108 23.5t72 28t43.5 23l13 10v-221q-156 -69 -389 -69q-285 0 -421 141t-136 438z M319 672h547q0 137 -64 223t-196 86q-256 0 -287 -309z" />
<glyph unicode="&#x436;" horiz-adv-x="1683" d="M-8 0l469 588l-438 538h280l266 -358q47 -66 71 -91.5t46 -25.5h41v475h229v-475h41q22 0 46 25.5t71 91.5l266 358h281l-426 -538l457 -588h-289l-285 381q-87 121 -123 121h-39v-502h-229v502h-39q-36 0 -123 -121l-284 -381h-289z" />
<glyph unicode="&#x437;" horiz-adv-x="1067" d="M102 18v238q5 -3 15.5 -9t45 -20.5t72.5 -25.5t97.5 -20t120.5 -9q290 0 290 160q0 74 -79.5 112.5t-229.5 38.5q-35 0 -84 -2.5t-88 -3.5v197h166q62 0 109.5 7t87 24t60 47.5t20.5 74.5q0 64 -65.5 97.5t-184.5 33.5q-86 0 -151 -11.5t-97 -23.5t-90 -40l-6 221 q190 45 401 45q208 0 318 -79.5t110 -207.5q0 -106 -53.5 -171t-136.5 -95q34 -8 66 -22t72 -43.5t64.5 -83t24.5 -123.5q0 -163 -128.5 -253.5t-391.5 -90.5q-92 0 -195 10.5t-160 27.5z" />
<glyph unicode="&#x438;" horiz-adv-x="1378" d="M184 0v1128h230v-514l-21 -331l572 845h229v-1128h-227v487l20 334l-573 -821h-230z" />
<glyph unicode="&#x439;" horiz-adv-x="1378" d="M184 0v1128h230v-514l-21 -331l572 845h229v-1128h-227v487l20 334l-573 -821h-230zM289 1489l151 94l13 -26t29.5 -49t43.5 -52.5t67 -45t89 -17.5t91.5 20t71 48t48.5 56t30 48l9 20l153 -96q-4 -12 -13 -31.5t-43 -69.5t-76 -88.5t-114.5 -70t-156.5 -31.5 q-61 0 -115.5 16t-93 41.5t-71 57t-53 62.5t-34.5 56.5t-20 41.5z" />
<glyph unicode="&#x43a;" horiz-adv-x="1193" d="M184 0v1126h230v-477h39q45 0 137 117l276 360h285l-457 -540l508 -586h-303l-293 365q-110 135 -147 135h-45v-500h-230z" />
<glyph unicode="&#x43b;" horiz-adv-x="1236" d="M-8 178q15 -4 59 4q78 15 129 92.5t70 212.5q13 92 17 202.5t9 436.5h777v-1126h-230v930h-331q-4 -352 -35 -518q-38 -207 -126 -303.5t-239 -120.5l-49 -8z" />
<glyph unicode="&#x43c;" horiz-adv-x="1683" d="M154 0l65 1126h252l365 -782h14l367 782h251l62 -1126h-217l-23 582l10 268h-4l-90 -215l-307 -647h-115l-309 661l-88 205h-4l10 -272l-22 -582h-217z" />
<glyph unicode="&#x43d;" horiz-adv-x="1363" d="M184 0v1126h230v-454h536v454h230v-1126h-230v471h-536v-471h-230z" />
<glyph unicode="&#x43e;" horiz-adv-x="1271" d="M86 563q0 258 160 427t403 169q138 0 243 -45.5t168 -127.5t94.5 -188.5t31.5 -234.5q0 -168 -63.5 -303.5t-190.5 -218t-297 -82.5q-178 0 -303.5 79t-185.5 213t-60 312zM315 565q0 -186 89 -299.5t231 -113.5q154 0 236.5 112.5t82.5 298.5q0 189 -80 296.5 t-231 107.5q-147 0 -237.5 -114t-90.5 -288z" />
<glyph unicode="&#x43f;" horiz-adv-x="1343" d="M184 0v1126h975v-1126h-229v926h-516v-926h-230z" />
<glyph unicode="&#x440;" horiz-adv-x="1368" d="M184 -451v1577h201l25 -190q80 116 168.5 164.5t224.5 48.5q73 0 140.5 -19.5t129.5 -63.5t107.5 -108.5t72.5 -161.5t27 -216q0 -144 -42.5 -260.5t-117 -191t-173.5 -114t-214 -39.5q-197 0 -319 60v-475zM414 246q122 -82 293 -82q153 0 244 102.5t91 292.5 q0 104 -25 182.5t-67.5 122t-90.5 64t-101 20.5q-103 0 -190 -63t-154 -172v-467z" />
<glyph unicode="&#x441;" horiz-adv-x="1075" d="M88 559q0 279 160 434.5t428 155.5q80 0 168 -17.5t155 -44.5l-28 -282q-116 143 -309 143q-163 0 -254 -105t-91 -288q0 -54 13 -107.5t42 -103.5t69.5 -88t100 -61t130.5 -23q61 0 118 10.5t94.5 25t67 29t42.5 25.5l14 10l6 -215q-174 -77 -355 -77q-98 0 -182 20 t-156.5 64t-123.5 110.5t-80 164.5t-29 220z" />
<glyph unicode="&#x442;" horiz-adv-x="1040" d="M10 915v211h1020v-211q-20 9 -97.5 18t-129.5 9h-168v-942h-229v942h-168q-53 0 -134 -10t-94 -17z" />
<glyph unicode="&#x443;" horiz-adv-x="1150" d="M35 1126h258l321 -915q23 65 42.5 122t41 123.5t35 108.5t38 125.5t36 122t44.5 151t48 162.5h240q-193 -603 -361 -1042q-56 -147 -107 -243.5t-112.5 -166.5t-135 -101.5t-167.5 -31.5q-100 0 -182 23l-15 248q33 -26 92 -48t115 -22q73 0 126 48.5t102 152.5z" />
<glyph unicode="&#x444;" horiz-adv-x="1804" d="M82 559q0 135 38 248.5t101.5 187t144.5 114t169 40.5q151 0 256 -72v344l221 11v-355q94 72 268 72q93 0 172.5 -36t140 -106t95 -180.5t34.5 -251.5q0 -175 -49.5 -308.5t-154 -212.5t-252.5 -79q-70 0 -139.5 15t-110.5 35v-465l-230 -11v476q-41 -20 -105 -35 t-122 -15q-226 0 -351.5 158t-125.5 426zM303 561q0 -186 83 -291.5t200 -105.5q80 0 120 11t80 38v670q-83 41 -125 54t-108 13q-106 0 -178 -101.5t-72 -287.5zM1016 213q73 -49 223 -49q120 0 191 103t71 294q0 204 -69 296.5t-179 92.5q-125 0 -237 -67v-670z" />
<glyph unicode="&#x445;" horiz-adv-x="1083" d="M0 0l399 580l-383 546h273l254 -409l252 409h264l-369 -546l393 -580h-266l-278 436l-281 -436h-258z" />
<glyph unicode="&#x446;" horiz-adv-x="1409" d="M184 0v1126h230v-936h499v936h230v-936h194l-47 -516h-160l-20 326h-926z" />
<glyph unicode="&#x447;" horiz-adv-x="1216" d="M72 786v340h229v-299q0 -89 17 -147t51.5 -87t74.5 -39.5t99 -10.5q56 0 119.5 20t100 39.5t40.5 26.5v497h229v-1126h-229v414q-95 -44 -166.5 -64t-165.5 -20q-187 0 -293 110t-106 346z" />
<glyph unicode="&#x448;" horiz-adv-x="1888" d="M184 0v1126h230v-927h415v927h230v-927h416v927h229v-1126h-1520z" />
<glyph unicode="&#x449;" horiz-adv-x="1970" d="M184 0v1126h230v-927h415v927h230v-927h416v927h229v-929h194l-47 -523h-159l-21 326h-1487z" />
<glyph unicode="&#x44a;" horiz-adv-x="1239" d="M-49 915v211h606v-378h184q229 0 343 -97t114 -274q0 -176 -116 -276.5t-334 -100.5h-418v942h-148q-54 0 -136 -10t-95 -17zM557 176h131q277 0 277 199q0 84 -58.5 131t-204.5 47h-145v-377z" />
<glyph unicode="&#x44b;" horiz-adv-x="1630" d="M184 0v1126h230v-378h188q225 0 332.5 -96.5t107.5 -274.5q0 -175 -123.5 -276t-343.5 -101h-391zM414 176h161q69 0 118 17.5t74 48t35.5 63t10.5 70.5q0 176 -223 176h-176v-375zM1217 0v1126h229v-1126h-229z" />
<glyph unicode="&#x44c;" horiz-adv-x="1095" d="M184 0v1126h230v-378h184q229 0 343 -97t114 -274q0 -176 -116.5 -276.5t-334.5 -100.5h-420zM414 178h137q84 0 141 17t83.5 48t36 61.5t9.5 70.5q0 85 -55.5 131.5t-200.5 46.5h-151v-375z" />
<glyph unicode="&#x44d;" horiz-adv-x="1095" d="M88 43v215q5 -3 14.5 -9t42.5 -21t69.5 -26t94.5 -20.5t119 -9.5q152 0 237 78.5t107 208.5h-541v194h545q-19 137 -107 216t-227 79q-175 0 -315 -96l-25 238q65 26 155 42.5t171 16.5q273 0 426.5 -140t153.5 -421q0 -287 -149.5 -447.5t-418.5 -160.5q-209 0 -352 63z " />
<glyph unicode="&#x44e;" horiz-adv-x="1818" d="M184 0v1126h230v-450h252q29 221 172.5 352t361.5 131q138 0 242 -45.5t166 -128t92.5 -188t30.5 -234.5q0 -168 -62 -303.5t-187.5 -218t-295.5 -82.5q-240 0 -369.5 135t-152.5 373h-250v-467h-230zM885 565q0 -189 80.5 -301t220.5 -112q152 0 228.5 111.5t76.5 299.5 q0 192 -73.5 298t-223.5 106q-145 0 -227 -112.5t-82 -289.5z" />
<glyph unicode="&#x44f;" horiz-adv-x="1214" d="M61 0q108 183 291 451q-30 17 -52 31t-53 43t-51 61t-34.5 82t-14.5 108q0 183 125 273t340 90q112 0 418 -9v-1130h-229v393q-70 -4 -142 -4q-58 0 -104 4l-242 -393h-252zM377 768q0 -50 23.5 -88t61.5 -59t81 -31t88 -10q88 0 170 8v356q-111 6 -150 6 q-144 0 -209 -40.5t-65 -141.5z" />
<glyph unicode="&#x451;" horiz-adv-x="1191" d="M88 559q0 131 32.5 239t97 189t169.5 125.5t242 44.5q106 0 189 -30.5t133 -78.5t82.5 -114.5t44.5 -131t12 -134.5q0 -96 -13 -187h-758q17 -157 99 -231t239 -74q74 0 140.5 9.5t108 23.5t72 28t43.5 23l13 10v-221q-156 -69 -389 -69q-285 0 -421 141t-136 438z M256 1415q0 59 40.5 100t98.5 41q59 0 100.5 -41.5t41.5 -99.5t-41.5 -98.5t-100.5 -40.5t-99 40t-40 99zM319 672h547q0 137 -64 223t-196 86q-256 0 -287 -309zM680 1415q0 59 40.5 100t98.5 41q59 0 100.5 -41.5t41.5 -99.5t-41.5 -98.5t-100.5 -40.5t-99 40t-40 99z" />
<glyph unicode="&#x452;" horiz-adv-x="1333" d="M-78 1266v188h277v113l225 10v-123h453v-188q-198 10 -299 10h-152v-344q177 174 385 174q92 0 160.5 -25.5t111 -69.5t69 -110.5t36.5 -140.5t10 -168v-225q0 -411 -101 -595t-304 -184q-63 0 -136 15l-26 207q69 -21 135 -21q108 0 156.5 127.5t48.5 405.5v225 q0 198 -44.5 274t-170.5 76q-87 0 -172.5 -53t-157.5 -133v-711h-227v1276h-84q-144 0 -193 -10z" />
<glyph unicode="&#x453;" horiz-adv-x="913" d="M170 0v1126h729v-225q-19 9 -146.5 18t-203.5 9h-152v-928h-227zM408 1268l176 366h290l-292 -366h-174z" />
<glyph unicode="&#x454;" horiz-adv-x="1075" d="M88 559q0 279 160 434.5t428 155.5q80 0 168 -17.5t155 -44.5l-12 -251q-112 112 -328 112q-134 0 -219 -73t-112 -205h540v-193h-542q16 -141 99 -223t247 -82q61 0 118 10.5t94.5 25t67 29t42.5 25.5l14 10l6 -215q-174 -77 -355 -77q-98 0 -182 20t-156.5 64 t-123.5 110.5t-80 164.5t-29 220z" />
<glyph unicode="&#x455;" horiz-adv-x="1040" d="M102 823q0 155 112 240.5t327 85.5q88 0 178 -11.5t136 -22.5l46 -11l-12 -244q-144 94 -346 94q-91 0 -153 -33t-62 -94q0 -29 14.5 -53t33 -39.5t57 -31.5t63.5 -23.5t76.5 -21.5t74.5 -21q48 -14 85 -28t84 -41t78 -58.5t53 -79.5t22 -106q0 -162 -120.5 -253 t-356.5 -91q-193 0 -377 67v236q8 -5 21.5 -12.5t57 -27.5t87 -35t104.5 -27.5t117 -12.5q94 0 162.5 39t68.5 104q0 34 -26.5 62.5t-75.5 49.5t-97 37t-113.5 35.5t-103.5 34.5q-102 40 -158.5 109.5t-56.5 183.5z" />
<glyph unicode="&#x456;" horiz-adv-x="618" d="M160 1409q0 62 42 104.5t103 42.5q62 0 105 -43t43 -104t-43 -103t-105 -42q-61 0 -103 42t-42 103zM193 0v1126h229v-1126h-229z" />
<glyph unicode="&#x457;" horiz-adv-x="602" d="M-55 1415q0 59 40.5 100t98.5 41t99.5 -41t41.5 -100q0 -58 -41 -98.5t-100 -40.5q-58 0 -98.5 40t-40.5 99zM184 0v1126h230v-1126h-230zM369 1415q0 59 40.5 100t98.5 41t99.5 -41t41.5 -100q0 -58 -41 -98.5t-100 -40.5q-58 0 -98.5 40t-40.5 99z" />
<glyph unicode="&#x458;" horiz-adv-x="655" d="M-133 -209q5 -2 35.5 -13t42.5 -14t40.5 -7.5t59.5 -4.5q96 0 142 91.5t46 310.5v972h230v-940q0 -328 -109 -487.5t-307 -159.5q-35 0 -76.5 4.5t-65.5 9.5l-24 5zM199 1409q0 62 42 104.5t103 42.5q62 0 105 -43t43 -104t-43 -103t-105 -42t-103.5 42t-41.5 103z" />
<glyph unicode="&#x459;" horiz-adv-x="1724" d="M-8 178q36 0 59 4q78 15 129 92.5t70 212.5q13 92 17 202.5t9 436.5h777v-454h184q216 0 331 -83.5t115 -252.5t-115.5 -252.5t-324.5 -83.5h-420v930h-331q-4 -352 -35 -518q-38 -207 -126 -303.5t-239 -120.5l-49 -8zM1053 178h137q145 0 202.5 40.5t57.5 115.5 q0 73 -62 106t-184 33h-151v-295z" />
<glyph unicode="&#x45a;" horiz-adv-x="1851" d="M184 0v1126h230v-454h536v454h230v-454h184q216 0 331 -83.5t115 -252.5t-115.5 -252.5t-324.5 -83.5h-420v471h-536v-471h-230zM1180 178h137q145 0 202.5 40.5t57.5 115.5q0 73 -62 106t-184 33h-151v-295z" />
<glyph unicode="&#x45b;" horiz-adv-x="1333" d="M-78 1266v188h277v113l225 10v-123h453v-188q-198 10 -299 10h-152v-344q177 174 385 174q211 0 299 -116t88 -400v-590h-227v547q0 198 -44.5 274t-170.5 76q-87 0 -172.5 -53t-157.5 -133v-711h-227v1276h-84q-144 0 -193 -10z" />
<glyph unicode="&#x45c;" horiz-adv-x="1193" d="M184 0v1126h230v-477h39q45 0 137 117l276 360h285l-457 -540l508 -586h-303l-293 365q-110 135 -147 135h-45v-500h-230zM496 1268l176 366h291l-293 -366h-174z" />
<glyph unicode="&#x45e;" horiz-adv-x="1150" d="M35 1126h258l321 -915q124 361 285 915h240q-178 -564 -361 -1042q-106 -281 -218.5 -391.5t-293.5 -110.5q-56 0 -105 5t-70 11l-21 5v250q34 -27 92 -48.5t119 -21.5q41 0 74 11t71 48t68 101zM188 1489l152 94q1 -1 12 -24t28.5 -48.5t44 -53.5t68 -46t89.5 -18 t91.5 20t71 48t48 56t29.5 48l9 20l154 -96q-4 -12 -13 -31.5t-43 -69.5t-76 -88.5t-114.5 -70t-156.5 -31.5q-61 0 -115.5 16t-93.5 41.5t-71.5 57t-53 62.5t-34.5 56.5t-20 41.5z" />
<glyph unicode="&#x45f;" horiz-adv-x="1327" d="M184 0v1126h230v-936h499v936h230v-1126h-375l-31 -326h-159l-19 326h-375z" />
<glyph unicode="&#x490;" horiz-adv-x="1024" d="M170 0v1434h653l19 219h205v-443q-22 11 -176.5 18t-268.5 7h-194v-1235h-238z" />
<glyph unicode="&#x491;" horiz-adv-x="915" d="M184 0v1126h516l15 213h200v-430q-18 8 -139.5 13.5t-210.5 5.5h-151v-928h-230z" />
<glyph unicode="&#x2000;" horiz-adv-x="967" />
<glyph unicode="&#x2001;" horiz-adv-x="1935" />
<glyph unicode="&#x2002;" horiz-adv-x="967" />
<glyph unicode="&#x2003;" horiz-adv-x="1935" />
<glyph unicode="&#x2004;" horiz-adv-x="645" />
<glyph unicode="&#x2005;" horiz-adv-x="483" />
<glyph unicode="&#x2006;" horiz-adv-x="322" />
<glyph unicode="&#x2007;" horiz-adv-x="322" />
<glyph unicode="&#x2008;" horiz-adv-x="241" />
<glyph unicode="&#x2009;" horiz-adv-x="387" />
<glyph unicode="&#x200a;" horiz-adv-x="107" />
<glyph unicode="&#x2010;" horiz-adv-x="1048" d="M184 584v229h680v-229h-680z" />
<glyph unicode="&#x2011;" horiz-adv-x="1048" d="M184 584v229h680v-229h-680z" />
<glyph unicode="&#x2012;" horiz-adv-x="1048" d="M184 584v229h680v-229h-680z" />
<glyph unicode="&#x2013;" horiz-adv-x="1456" d="M123 584v229h1210v-229h-1210z" />
<glyph unicode="&#x2014;" horiz-adv-x="2048" d="M123 584v229h1802v-229h-1802z" />
<glyph unicode="&#x2018;" horiz-adv-x="509" d="M41 1006l266 593h142l-103 -593h-305z" />
<glyph unicode="&#x2019;" horiz-adv-x="417" d="M61 942l103 594h305l-266 -594h-142z" />
<glyph unicode="&#x201c;" horiz-adv-x="927" d="M41 1006l264 593h144l-105 -593h-303zM459 1006l266 593h141l-102 -593h-305z" />
<glyph unicode="&#x201d;" horiz-adv-x="927" d="M41 942l102 594h306l-267 -594h-141zM459 942l104 594h303l-264 -594h-143z" />
<glyph unicode="&#x201e;" horiz-adv-x="927" d="M61 -424l103 594h305l-266 -594h-142zM479 -424l105 594h303l-264 -594h-144z" />
<glyph unicode="&#x2020;" horiz-adv-x="1189" d="M61 819v217h414v410h238v-410h415v-217h-415v-1071h-238v1071h-414z" />
<glyph unicode="&#x2022;" horiz-adv-x="688" d="M102 647q0 100 71 172t169 72q100 0 172 -72t72 -172q0 -98 -72 -168.5t-172 -70.5q-98 0 -169 70.5t-71 168.5z" />
<glyph unicode="&#x2026;" horiz-adv-x="1701" d="M102 127q0 59 41 100t99 41t99.5 -41t41.5 -100q0 -58 -41 -98.5t-100 -40.5t-99.5 40.5t-40.5 98.5zM690 127q0 59 40.5 100t98.5 41q59 0 100.5 -41.5t41.5 -99.5t-41.5 -98.5t-100.5 -40.5t-99 40t-40 99zM1319 127q0 59 40.5 100t98.5 41t99.5 -41t41.5 -100 q0 -58 -41 -98.5t-100 -40.5q-58 0 -98.5 40t-40.5 99z" />
<glyph unicode="&#x202f;" horiz-adv-x="387" />
<glyph unicode="&#x205f;" horiz-adv-x="483" />
<glyph unicode="&#x20ac;" horiz-adv-x="1333" d="M82 446v183h121q-4 54 -4 82l2 43h-119v182h143q58 244 232.5 383t443.5 139q179 0 377 -78l-14 -256q-148 125 -385 125q-146 0 -255.5 -81.5t-158.5 -231.5h620v-182h-647l-2 -47q0 -41 6 -78h643v-183h-602q52 -119 153.5 -188.5t244.5 -69.5q73 0 142 12.5 t115.5 30.5t83 35.5t53.5 29.5l17 13v-223q-101 -49 -200 -77.5t-222 -28.5q-260 0 -420.5 120.5t-218.5 345.5h-149z" />
<glyph unicode="&#x2116;" horiz-adv-x="2293" d="M195 0v1432h247l684 -1070h9l-29 316v754h233v-1432h-223l-715 1110h-10l37 -342v-768h-233zM1501 721q0 155 105 263t258 108t259.5 -108.5t106.5 -262.5t-107 -261.5t-261 -107.5q-153 0 -257 107t-104 262zM1530 0v223h702v-223h-702zM1694 719q0 -78 48.5 -132.5 t123.5 -54.5t123.5 54.5t48.5 132.5t-48.5 132t-123.5 54t-123.5 -54t-48.5 -132z" />
<glyph unicode="&#x2122;" horiz-adv-x="1234" d="M61 1311v123h465v-123q-15 10 -125 10h-41v-436h-133v436h-43q-108 0 -123 -10zM543 885l59 549h137l117 -351h6l119 351h137l56 -549h-125l-27 276l6 96h-6l-109 -378h-106l-117 381h-4l4 -99l-14 -276h-133z" />
<glyph unicode="&#x2190;" horiz-adv-x="1798" d="M102 657v7q764 628 766 628l138 -153l-494 -377l1184 8v-209l-1186 4l498 -385l-138 -153z" />
<glyph unicode="&#x2191;" horiz-adv-x="1470" d="M102 827l629 766h6q631 -766 631 -768l-154 -137l-385 498l5 -1186h-209l8 1184l-377 -494z" />
<glyph unicode="&#x2192;" horiz-adv-x="1798" d="M102 561v209l1184 -8l-493 377l137 153l766 -628v-7q-766 -630 -768 -630l-137 153l497 385z" />
<glyph unicode="&#x2193;" horiz-adv-x="1470" d="M102 748l154 137l385 -498l-4 1186h209l-8 -1184l376 494l154 -138l-629 -765h-6q-631 766 -631 768z" />
<glyph unicode="&#x2248;" horiz-adv-x="1501" d="M123 502q99 71 208.5 112t207.5 41q53 0 116.5 -19.5t112 -43t106 -43t99.5 -19.5q31 0 62 4.5t51.5 9t54.5 18t46 19t53 25.5t52 25l86 -172q-228 -148 -417 -148q-49 0 -110.5 19t-110 42.5t-107.5 42.5t-105 19q-86 0 -140 -17.5t-167 -80.5zM123 903q99 71 209 112.5 t207 41.5q53 0 116.5 -21t112 -46.5t106 -46.5t99.5 -21q37 0 70 5t68.5 18.5t55.5 23t63.5 32t61.5 31.5l86 -170q-1 -1 -50 -29t-65.5 -36.5t-64.5 -31.5t-78.5 -32.5t-75 -18.5t-83.5 -9q-49 0 -110.5 21t-110 45.5t-107.5 45.5t-105 21q-83 0 -136 -18t-171 -83z" />
<glyph unicode="&#x25fc;" horiz-adv-x="1126" d="M0 0v1126h1126v-1126h-1126z" />
<glyph horiz-adv-x="1024" d="M-47 1659q0 59 40.5 100t98.5 41t99.5 -41t41.5 -100q0 -58 -41 -98.5t-100 -40.5q-58 0 -98.5 40t-40.5 99zM408 1659q0 59 40.5 100t98.5 41q59 0 100 -41t41 -100q0 -58 -41 -98.5t-100 -40.5t-99 40t-40 99z" />
</font>
</defs>
</svg>
