<?xml version="1.0" standalone="no"?>
<!DOCTYPE svg PUBLIC "-//W3C//DTD SVG 1.1//EN" "http://www.w3.org/Graphics/SVG/1.1/DTD/svg11.dtd" >
<svg xmlns="http://www.w3.org/2000/svg">
<metadata></metadata>
<defs>
<font id="directsemicondencedbold" horiz-adv-x="1171" >
<font-face units-per-em="2048" ascent="1638" descent="-410" />
<missing-glyph horiz-adv-x="423" />
<glyph unicode="fi" horiz-adv-x="1316" d="M55 776v277h148v47q0 227 138.5 338.5t385.5 111.5q56 0 106.5 -2t104.5 -8t78.5 -9t85 -12t65.5 -10v-295q-74 28 -194 43t-240 15q-125 0 -175 -57.5t-50 -161.5h659v-1053h-307v776h-352v-776h-305v776h-148z" />
<glyph unicode=" "  horiz-adv-x="423" />
<glyph unicode="&#x09;" horiz-adv-x="423" />
<glyph unicode="&#xa0;" horiz-adv-x="423" />
<glyph unicode="!" horiz-adv-x="663" d="M154 164q0 75 45.5 123.5t132.5 48.5t132.5 -48.5t45.5 -123.5q0 -76 -45.5 -126t-132.5 -50t-132.5 50t-45.5 126zM164 1503h336l-33 -1050h-268z" />
<glyph unicode="&#x22;" horiz-adv-x="796" d="M33 936l90 596h350l-240 -596h-200zM408 936l92 596h346l-236 -596h-202z" />
<glyph unicode="#" horiz-adv-x="1181" d="M41 385v252h201l26 164h-196v252h235l47 321h260l-39 -321h87l49 321h268l-51 -321h192v-252h-227l-25 -164h209v-252h-248l-51 -334h-266l47 334h-86l-51 -334h-266l49 334h-164zM514 637h80l24 164h-81z" />
<glyph unicode="$" horiz-adv-x="1103" d="M31 1042q0 158 99.5 266.5t270.5 131.5v104h273v-100q62 0 131 -14.5t107 -29.5l38 -14l-47 -325q-44 38 -89 62t-72 32t-68 16v-344q63 -25 111 -49.5t100.5 -62.5t86.5 -80.5t56.5 -102.5t22.5 -131q0 -84 -31 -156.5t-83.5 -122.5t-120 -81.5t-142.5 -40.5v-137h-273 v133q-206 18 -340 100l31 314q150 -125 309 -144v336q-70 29 -118.5 54.5t-99.5 63.5t-82 81.5t-50.5 104.5t-19.5 136zM309 1051q0 -104 92 -144v260q-92 -31 -92 -116zM674 264q37 11 59.5 44.5t22.5 80.5q0 46 -22 84t-60 55v-264z" />
<glyph unicode="%" horiz-adv-x="1814" d="M94 1061q0 174 103 280.5t260 106.5q158 0 262 -106.5t104 -280.5q0 -172 -105 -277.5t-263 -105.5q-156 0 -258.5 105.5t-102.5 277.5zM379 1059q0 -53 23 -89t57 -36q36 0 58 35.5t22 89.5t-22 90.5t-58 36.5q-34 0 -57 -37t-23 -90zM391 0l705 1423h315l-702 -1423 h-318zM991 379q0 170 104 277.5t261 107.5q156 0 260 -107.5t104 -277.5q0 -174 -104.5 -280.5t-261.5 -106.5q-158 0 -260.5 106.5t-102.5 280.5zM1276 377q0 -55 23 -91t59 -36q34 0 57 36.5t23 90.5q0 53 -23 89t-57 36q-36 0 -59 -36t-23 -89z" />
<glyph unicode="&#x26;" horiz-adv-x="1226" d="M47 365q0 84 29 158.5t67.5 123.5t98.5 107q-57 79 -81 151.5t-24 169.5q0 94 44 175.5t131.5 134.5t199.5 53q158 0 243 -93t85 -229q0 -190 -234 -397l150 -184q56 125 73 278h265q-9 -134 -51.5 -264t-90.5 -221l277 -328h-350l-97 113q-117 -125 -331 -125 q-178 0 -291 97.5t-113 279.5zM324 375q0 -50 39 -91.5t96 -41.5q103 0 149 61q-71 77 -209 250q-33 -31 -54 -78t-21 -100zM410 1071q0 -89 49 -143q47 43 79.5 93t32.5 91q0 32 -17 55t-50 23q-43 0 -68.5 -34t-25.5 -85z" />
<glyph unicode="'" horiz-adv-x="438" d="M49 936l92 596h348l-237 -596h-203z" />
<glyph unicode="(" horiz-adv-x="700" d="M123 608q0 124 24.5 248t63.5 223.5t86 191t94 158.5t86 117.5t63 75.5l25 25l197 -195q-14 -15 -36.5 -42.5t-81 -116t-103 -181t-81 -229.5t-36.5 -269q0 -112 18 -219.5t47.5 -190t64.5 -156.5t70 -125.5t64.5 -90t47.5 -56.5l18 -18l-179 -209q-9 8 -25.5 23.5 t-63.5 69t-89.5 113.5t-95 155t-90 195t-63 233t-25.5 270z" />
<glyph unicode=")" horiz-adv-x="700" d="M-61 1448l198 197q9 -9 25 -26t62 -73.5t87.5 -118t92.5 -156.5t87.5 -192.5t61.5 -222t25 -248.5q0 -137 -25 -269t-65 -234.5t-88.5 -194t-97.5 -156t-89 -112t-65 -70.5l-25 -23l-172 205q13 13 35.5 37t79 107.5t99.5 176t78.5 239t35.5 300.5q0 132 -35 267 t-85 232.5t-100 176t-85 118.5z" />
<glyph unicode="*" horiz-adv-x="1003" d="M20 1034l86 271l275 -111l-10 315h291l-13 -317l281 111l74 -279l-281 -94l199 -248l-226 -174l-186 260l-180 -260l-228 184l193 244z" />
<glyph unicode="+" d="M57 551v268h367v377h283v-377h364v-268h-364v-410h-283v410h-367z" />
<glyph unicode="," horiz-adv-x="403" d="M-37 -322l92 633h357l-240 -633h-209z" />
<glyph unicode="-" horiz-adv-x="968" d="M137 535v303h690v-303h-690z" />
<glyph unicode="." horiz-adv-x="497" d="M80 166q0 73 46 121.5t120 48.5q76 0 124 -48.5t48 -121.5q0 -74 -48.5 -126t-123.5 -52q-73 0 -119.5 52t-46.5 126z" />
<glyph unicode="/" horiz-adv-x="841" d="M-18 -102l632 1607h312l-629 -1607h-315z" />
<glyph unicode="0" d="M92 705q0 350 131.5 544.5t366.5 194.5q245 0 359 -184t114 -555q0 -353 -125 -538t-367 -185q-234 0 -356.5 187t-122.5 536zM393 698q0 -444 182 -444q67 0 111 60t62 156t18 228q0 459 -180 459q-68 0 -112.5 -62t-62.5 -161.5t-18 -235.5z" />
<glyph unicode="1" d="M150 868v260q177 51 320 137t333 263v-1256h248v-272h-893v272h334v686q-63 -35 -155 -59.5t-187 -30.5z" />
<glyph unicode="2" d="M109 0v242q90 84 148.5 140.5t124.5 124t106.5 116t81 104.5t62 102.5t35 97t13.5 99.5q0 60 -41.5 98.5t-112.5 38.5q-97 0 -179 -37.5t-183 -154.5l-23 356q72 59 196.5 92t246.5 33q211 0 317.5 -107t106.5 -311q0 -96 -41 -200t-113.5 -201t-156 -183t-183.5 -169 h512v-281h-917z" />
<glyph unicode="3" d="M133 66v348q162 -162 356 -162q95 0 153 56.5t58 156.5q0 194 -256 194q-70 0 -174 -14l305 524q-104 -2 -160 -7.5t-123.5 -28.5t-123.5 -68v369h905l-360 -562q146 -28 226.5 -132t80.5 -273q0 -79 -17 -149t-56.5 -132.5t-99 -107t-149.5 -70.5t-202 -26 q-126 0 -230 28.5t-133 55.5z" />
<glyph unicode="4" d="M49 260v254l481 922h400v-901h149v-277h-149v-258h-312v260h-569zM362 535h256v530z" />
<glyph unicode="5" d="M182 57v355q6 -7 17.5 -17.5t47 -38.5t72.5 -49.5t91 -39t106 -17.5q109 0 166 56t57 157q0 103 -51.5 156t-165.5 53q-62 0 -122.5 -15.5t-174.5 -56.5v834h797v-289h-498v-203q47 8 125 8q81 0 153 -26t133 -78.5t96.5 -143t35.5 -208.5q0 -78 -17.5 -149.5t-58 -138.5 t-100 -116t-150 -78.5t-202.5 -29.5q-214 0 -357 75z" />
<glyph unicode="6" d="M109 643q0 130 21 246t67.5 220t115.5 179t172 118.5t230 43.5q146 0 299 -47l-17 -328q-138 96 -295 96q-105 0 -180 -77t-90 -203q116 57 211 57q194 0 311 -113.5t117 -330.5q0 -245 -134 -383.5t-343 -138.5q-485 0 -485 661zM416 561q0 -159 43 -238t143 -79 q79 0 122.5 65.5t43.5 169.5q0 96 -43 145.5t-119 49.5q-59 0 -109.5 -22t-80.5 -52v-39z" />
<glyph unicode="7" d="M162 1073v338h983l-590 -1411h-330l488 1135q-346 -5 -551 -62z" />
<glyph unicode="8" d="M98 369q0 61 17 113.5t52.5 98t71 79t91.5 77.5q-193 142 -193 344q0 167 119.5 271t345.5 104q124 0 213.5 -28.5t140 -81t74 -118t23.5 -147.5q0 -91 -53 -174t-156 -172q113 -79 170 -160.5t57 -193.5q0 -83 -30.5 -154t-90 -126.5t-157 -87t-222.5 -31.5 q-240 0 -356.5 107t-116.5 280zM410 383q0 -65 45.5 -109.5t119.5 -44.5q84 0 135.5 48t51.5 122q0 55 -49 102t-142 103q-34 -25 -54.5 -42.5t-49 -47.5t-43 -63t-14.5 -68zM436 1067q0 -112 154 -199q72 52 113.5 99.5t41.5 99.5q0 54 -36.5 96.5t-112.5 42.5 q-71 0 -115.5 -40t-44.5 -99z" />
<glyph unicode="9" d="M100 954q0 119 38.5 215t104.5 156.5t149.5 92.5t176.5 32q494 0 494 -631q0 -191 -34.5 -342t-104.5 -263.5t-185.5 -173t-269.5 -60.5q-176 0 -317 55v338q88 -67 156 -95t149 -28q244 0 286 293q-42 -26 -101.5 -44t-115.5 -18q-205 0 -315.5 117t-110.5 356zM397 950 q0 -98 37.5 -150t106.5 -52q126 0 213 77v54q0 299 -185 299q-85 0 -128.5 -58.5t-43.5 -169.5z" />
<glyph unicode=":" horiz-adv-x="432" d="M37 295q0 73 48.5 123.5t123.5 50.5q73 0 120.5 -50.5t47.5 -123.5q0 -75 -47.5 -125.5t-120.5 -50.5q-76 0 -124 50t-48 126zM37 946q0 72 48.5 123t123.5 51q72 0 120 -51t48 -123q0 -75 -47.5 -125.5t-120.5 -50.5q-76 0 -124 50t-48 126z" />
<glyph unicode=";" horiz-adv-x="434" d="M-41 -170l90 580h365l-232 -580h-223zM39 946q0 72 47.5 123t120.5 51q74 0 123 -51t49 -123q0 -75 -48.5 -125.5t-123.5 -50.5q-74 0 -121 50t-47 126z" />
<glyph unicode="&#x3c;" d="M41 670l891 633l145 -218l-588 -419l590 -422l-147 -224z" />
<glyph unicode="=" d="M25 348v283h1124v-283h-1124zM25 735v283h1124v-283h-1124z" />
<glyph unicode="&#x3e;" d="M31 217l590 422l-588 422l145 221l877 -653l-877 -617z" />
<glyph unicode="?" horiz-adv-x="851" d="M41 1053v360q159 103 385 103q173 0 271 -93t98 -256q0 -49 -16.5 -105t-37.5 -100.5t-60 -105t-63 -93.5t-67 -91l-25.5 -34t-24.5 -33.5t-20.5 -29.5t-19 -29.5t-13 -25.5t-9.5 -26t-3 -23q0 -37 4 -57h-282q0 2 -1 11.5t-1 12.5q-6 34 -6 64q0 71 48 150.5t130 176.5 q48 59 75 96.5t51.5 88t24.5 88.5q0 60 -31.5 96.5t-89.5 36.5q-82 0 -158.5 -41.5t-158.5 -140.5zM125 164q0 71 51.5 121.5t126.5 50.5q74 0 127 -51t53 -121q0 -72 -53 -124t-127 -52q-75 0 -126.5 52t-51.5 124z" />
<glyph unicode="@" horiz-adv-x="1994" d="M90 514q0 226 71.5 419t197.5 329t304 213t386 77q144 0 265 -31t208.5 -83.5t156.5 -126.5t112.5 -156t72 -177t40 -183.5t11.5 -180.5q0 -174 -56 -317.5t-149.5 -224t-204.5 -80.5q-232 0 -282 192q-86 -192 -297 -192q-190 0 -293 137t-103 363q0 143 36 259.5 t99 193t147.5 118t182.5 41.5q32 0 62.5 -4.5t50.5 -9t44.5 -15.5t33.5 -15.5t30.5 -17.5t22.5 -14l174 45l27 -2q-31 -405 -31 -532q0 -92 8.5 -152t24.5 -89t33.5 -39.5t42.5 -10.5q30 0 56 39t42.5 98.5t25.5 125t9 122.5q0 335 -146 504.5t-465 169.5 q-311 0 -500.5 -211t-189.5 -566q0 -353 174 -534.5t488 -181.5q221 0 387 75v-258q-110 -38 -200 -50.5t-208 -12.5q-220 0 -392.5 69.5t-283 195.5t-168 298.5t-57.5 382.5zM805 518q0 -268 145 -268q47 0 81 38.5t56 116t35 167.5t23 219q-64 55 -146 55 q-89 0 -141.5 -87t-52.5 -241z" />
<glyph unicode="A" horiz-adv-x="1204" d="M-14 0l499 1444h238l496 -1444h-342l-89 250h-405l-84 -250h-313zM455 520h262l-121 434h-10z" />
<glyph unicode="B" horiz-adv-x="1218" d="M154 6v1432q227 8 428 8q148 0 250 -24.5t159 -73t81 -110.5t24 -148q0 -111 -42.5 -196.5t-131.5 -127.5q110 -33 169.5 -123.5t59.5 -208.5q0 -76 -14 -137t-52 -119t-100 -97.5t-162.5 -63t-234.5 -23.5q-235 0 -434 12zM465 250q55 -6 133 -6q125 0 175 49.5 t50 142.5q0 77 -48.5 121.5t-168.5 44.5h-141v-352zM465 850h100q120 0 168.5 46.5t48.5 139.5q0 71 -40.5 110.5t-145.5 39.5q-98 0 -131 -4v-332z" />
<glyph unicode="C" horiz-adv-x="1144" d="M72 698q0 344 177 552t480 208q115 0 202.5 -18.5t178.5 -63.5l-43 -375q-117 177 -330 177q-162 0 -257 -124t-95 -364q0 -210 96 -324t269 -114q115 0 214.5 44t151.5 89l2 -309q-90 -53 -185.5 -73.5t-232.5 -20.5q-301 0 -464.5 190.5t-163.5 525.5z" />
<glyph unicode="D" horiz-adv-x="1302" d="M154 0v1434h426q655 0 655 -701q0 -350 -167.5 -541.5t-500.5 -191.5h-413zM465 272h119q162 0 249 113.5t87 331.5q0 221 -88.5 325.5t-260.5 104.5h-106v-875z" />
<glyph unicode="E" horiz-adv-x="1077" d="M154 0v1434h864v-279h-553v-293h469v-272h-469v-311h575v-279h-886z" />
<glyph unicode="F" horiz-adv-x="1017" d="M154 0v1434h847v-281h-536v-291h485v-272h-485v-590h-311z" />
<glyph unicode="G" horiz-adv-x="1300" d="M74 698q0 225 77.5 395t235.5 267.5t379 97.5q91 0 168.5 -13.5t122 -28.5t119.5 -46l-41 -356q-48 55 -98.5 90.5t-102 50.5t-87.5 19t-85 4q-176 0 -278.5 -122.5t-102.5 -350.5q0 -457 371 -457q81 0 155 22v265q-138 -2 -260 -23v289h555v-707q-94 -47 -221 -78.5 t-262 -31.5q-315 0 -480 181.5t-165 532.5z" />
<glyph unicode="H" horiz-adv-x="1394" d="M154 0v1434h311v-557h465v557h311v-1434h-311v592h-465v-592h-311z" />
<glyph unicode="I" horiz-adv-x="618" d="M154 0v1434h311v-1434h-311z" />
<glyph unicode="J" horiz-adv-x="761" d="M-12 324q53 -33 88 -41.5t86 -8.5q139 0 139 281v879h311v-850q0 -169 -25.5 -284.5t-79 -183.5t-129 -97t-183.5 -29q-30 0 -55.5 2t-48 7t-33.5 8t-31.5 10t-22.5 8z" />
<glyph unicode="K" horiz-adv-x="1191" d="M154 0v1434h317v-578h27q7 0 14.5 6t16.5 19.5t16.5 25.5t19 33.5t19.5 34.5l272 459h350l-430 -686l457 -748h-369l-297 518q-34 60 -45.5 75t-27.5 15h-23v-608h-317z" />
<glyph unicode="L" horiz-adv-x="985" d="M154 0v1434h311v-1170h160q152 0 220 10t165 41v-315h-856z" />
<glyph unicode="M" horiz-adv-x="1656" d="M66 0l151 1434h322l292 -938l302 938h321l137 -1434h-317l-41 659q0 215 10 342h-6q-7 -24 -19.5 -73.5t-28 -113t-20.5 -85.5l-243 -745h-195l-250 747q-11 34 -24 88t-26.5 116t-14.5 66h-6q10 -192 10 -342l-35 -659h-319z" />
<glyph unicode="N" horiz-adv-x="1402" d="M154 0v1432h309l487 -861h11q-1 7 -7.5 80t-11 146.5t-4.5 136.5v498h311v-1432h-280l-527 877h-8q1 -14 10 -80.5t15 -134t6 -125.5v-537h-311z" />
<glyph unicode="O" horiz-adv-x="1316" d="M68 733q0 339 155 535t439 196q159 0 274 -51t183 -149t99 -228.5t31 -302.5q0 -132 -21.5 -245t-68 -207.5t-115.5 -160.5t-168.5 -103t-222.5 -37q-124 0 -222.5 36t-166 101.5t-112 160t-64.5 207.5t-20 248zM379 739q0 -110 15 -198.5t47.5 -156.5t87 -105t128.5 -37 q73 0 127.5 36.5t86.5 103t47.5 152.5t15.5 193q0 223 -68 347t-209 124q-132 0 -205 -127t-73 -332z" />
<glyph unicode="P" horiz-adv-x="1122" d="M154 0v1432q244 14 374 14q568 0 568 -494q0 -109 -29 -199t-78 -150.5t-115.5 -102t-138.5 -60t-149 -18.5q-72 0 -121 6v-428h-311zM465 696q50 -4 96 -4q106 0 162.5 66t56.5 184q0 227 -217 227q-40 0 -98 -4v-469z" />
<glyph unicode="Q" horiz-adv-x="1306" d="M68 733q0 331 158.5 531t439.5 200q158 0 271.5 -51t180 -149t97 -228.5t30.5 -302.5q0 -406 -227 -627q15 -54 43 -77t76 -23q60 0 149 19l-18 -269q-79 -20 -162 -20q-128 0 -223.5 61.5t-130.5 188.5q-46 -6 -99 -6q-124 0 -222.5 36t-166 101.5t-112 160t-64.5 207.5 t-20 248zM381 739q0 -248 65 -370.5t211 -122.5q90 0 153 65.5t91.5 171.5t28.5 244q0 214 -66 340.5t-196 126.5q-142 0 -214.5 -123t-72.5 -332z" />
<glyph unicode="R" horiz-adv-x="1230" d="M154 0v1430q200 12 442 12q263 0 391.5 -105.5t128.5 -341.5q0 -140 -68.5 -257t-164.5 -167l321 -571h-352l-248 489q-32 -4 -74 -4q-45 0 -65 2v-487h-311zM465 760q29 -4 100 -4q232 0 232 229q0 99 -51.5 146t-159.5 47q-51 0 -121 -4v-414z" />
<glyph unicode="S" horiz-adv-x="1019" d="M61 1044q0 192 122.5 301t357.5 109q190 0 368 -57l-32 -328q-87 72 -164 94.5t-164 22.5q-85 0 -133.5 -35.5t-48.5 -103.5q0 -23 8 -44t17.5 -36t32.5 -32.5t36.5 -27t47.5 -26t48 -22.5t53 -23q183 -80 271 -180.5t88 -252.5q0 -200 -122 -310.5t-376 -110.5 q-109 0 -216.5 21.5t-186.5 55.5v347q116 -91 206 -124.5t197 -33.5q86 0 136 40t50 107q0 32 -20 60.5t-60.5 55t-79.5 46t-100 45.5q-168 73 -252 181t-84 261z" />
<glyph unicode="T" horiz-adv-x="1097" d="M-25 1135v299h1147v-301q-37 21 -95 32t-101.5 13t-110.5 2h-106v-1180h-318v1180h-112q-109 0 -181.5 -8.5t-122.5 -36.5z" />
<glyph unicode="U" horiz-adv-x="1359" d="M143 641v793h312v-807q0 -204 55.5 -290.5t167.5 -86.5q227 0 227 373v811h312v-783q0 -348 -139 -511t-410 -163q-263 0 -394 157t-131 507z" />
<glyph unicode="V" horiz-adv-x="1153" d="M-29 1434h348l275 -975l250 975h338l-461 -1434h-272z" />
<glyph unicode="W" horiz-adv-x="1667" d="M-10 1434h323l172 -875l254 879h205l260 -883l156 879h317l-329 -1434h-230l-289 852l-276 -852h-221z" />
<glyph unicode="X" horiz-adv-x="1169" d="M-6 0l397 719l-377 713h348l236 -504l225 504h332l-373 -707l394 -725h-345l-256 504l-241 -504h-340z" />
<glyph unicode="Y" horiz-adv-x="1132" d="M-18 1434h331l269 -631l247 631h328l-420 -938v-496h-311v498z" />
<glyph unicode="Z" horiz-adv-x="1056" d="M16 4v117l613 1053q-220 -1 -337 -11.5t-233 -34.5v306h981v-119l-624 -1051h299q164 0 309 45v-305h-1008z" />
<glyph unicode="[" horiz-adv-x="802" d="M195 -430v2040h557v-273h-252v-1495h252v-272h-557z" />
<glyph unicode="\" horiz-adv-x="909" d="M-41 1505h315l635 -1607h-315z" />
<glyph unicode="]" horiz-adv-x="798" d="M51 -158h252v1495h-252v273h553v-2040h-553v272z" />
<glyph unicode="^" horiz-adv-x="1073" d="M90 946l447 651l446 -653l-178 -135l-270 399l-269 -397z" />
<glyph unicode="_" horiz-adv-x="956" d="M143 0h670v-260h-670v260z" />
<glyph unicode="`" horiz-adv-x="903" d="M184 1595h373l174 -407h-246z" />
<glyph unicode="a" horiz-adv-x="1130" d="M72 334q0 184 126.5 285.5t354.5 101.5h123q-3 82 -47 131t-135 49q-197 0 -324 -110l-18 292q18 8 50 20t130.5 32t195.5 20q106 0 183 -21t127.5 -60.5t80.5 -105t42 -146t12 -191.5v-256q0 -83 13 -166.5t22.5 -118.5t15.5 -49l-279 -57q-31 78 -43 159 q-139 -159 -309 -159q-158 0 -239.5 93t-81.5 257zM356 344q0 -51 28.5 -79.5t84.5 -28.5q59 0 116 47.5t95 113.5l-2 97h-107q-105 0 -160 -38.5t-55 -111.5z" />
<glyph unicode="b" horiz-adv-x="1249" d="M150 0v1542l307 17v-512q144 106 288 106q55 0 104 -11.5t97.5 -36.5t87 -69.5t68.5 -105t46.5 -148.5t16.5 -196q0 -290 -136.5 -447t-369.5 -157q-170 0 -325 84l-144 -66h-40zM457 313q84 -65 168 -65q123 0 176 76t53 243q0 165 -45 232t-135 67q-63 0 -110.5 -21.5 t-106.5 -82.5v-449z" />
<glyph unicode="c" horiz-adv-x="991" d="M84 561q0 136 42 248t116 186.5t175 115t218 40.5q150 0 305 -61l-41 -326q-77 72 -131.5 94.5t-130.5 22.5q-118 0 -183 -87.5t-65 -236.5q0 -303 264 -303q86 0 162 26.5t107 47.5l6 -273q-84 -40 -157 -53.5t-161 -13.5q-116 0 -209 31t-165.5 97t-112 179t-39.5 266z " />
<glyph unicode="d" horiz-adv-x="1259" d="M84 535q0 147 44.5 265.5t119.5 192.5t169 113t199 39q67 0 187 -21v418l307 17v-1024q0 -105 10.5 -253t26.5 -251l-291 -47q-23 93 -25 155q-69 -76 -148 -117.5t-189 -41.5q-88 0 -160.5 31.5t-129.5 96t-88.5 173.5t-31.5 254zM395 545q0 -157 45.5 -227t110.5 -70 q137 0 252 155v431q-64 34 -172 34q-104 0 -170 -80.5t-66 -242.5z" />
<glyph unicode="e" horiz-adv-x="1085" d="M82 551q0 178 53.5 310t167.5 209t279 77q101 0 178 -32t122 -82t73.5 -120t38.5 -137t10 -143q0 -67 -19 -197h-612q15 -198 243 -198q204 0 345 77v-262q-152 -67 -367 -67q-269 0 -390.5 139t-121.5 426zM377 674h348q-2 117 -39 172t-121 55q-79 0 -132 -58.5 t-56 -168.5z" />
<glyph unicode="f" horiz-adv-x="845" d="M55 784v267h148v69q0 118 33 204.5t93 136t135 72.5t169 23q126 0 274 -32l-24 -293q-88 51 -228 51q-73 0 -109 -41t-36 -135v-55h315v-267h-315v-784h-307v784h-148z" />
<glyph unicode="g" horiz-adv-x="1218" d="M84 559q0 270 134 427t364 157q83 0 153.5 -17.5t112.5 -42.5l184 43h43v-933q0 -334 -135.5 -488t-439.5 -154q-82 0 -169.5 16t-121 27t-53.5 19l-13 324q6 -5 18 -13.5t49.5 -29.5t77 -37t97 -29.5t113.5 -13.5q79 0 131.5 18.5t81.5 56t41.5 83t15.5 112.5 q-114 -72 -229 -72q-206 0 -330.5 139t-124.5 408zM387 571q0 -149 53 -219.5t135 -70.5q60 0 104 13t89 48v492q-42 25 -76.5 35t-85.5 10q-98 0 -158.5 -74.5t-60.5 -233.5z" />
<glyph unicode="h" horiz-adv-x="1239" d="M150 0v1542l301 17v-543q131 131 305 131q72 0 123 -11.5t90.5 -41t64 -73t39.5 -114.5t21 -158t6 -210v-539h-307q2 259 2 530q0 129 -11 194t-36.5 91.5t-77.5 26.5q-58 0 -117 -35.5t-96 -97.5v-709h-307z" />
<glyph unicode="i" horiz-adv-x="604" d="M123 1370q0 74 51.5 126t124.5 52q76 0 129 -52t53 -126t-53 -129t-129 -55q-73 0 -124.5 55t-51.5 129zM147 0v1087h308v-1087h-308z" />
<glyph unicode="j" horiz-adv-x="626" d="M-137 -106q45 -20 75 -29t44.5 -10.5t40.5 -1.5q54 0 85.5 26.5t48.5 97.5t17 197v913h307v-903q0 -324 -107 -468t-321 -144q-100 0 -180 29zM143 1372q0 74 51.5 126t127.5 52t129 -52t53 -126t-53 -129t-129 -55q-75 0 -127 54.5t-52 129.5z" />
<glyph unicode="k" horiz-adv-x="1087" d="M150 0v1540l307 16v-870h14q8 0 18.5 14t30.5 48l205 378h344l-338 -534l387 -592h-373l-239 422q-23 39 -35 39h-14v-461h-307z" />
<glyph unicode="l" horiz-adv-x="657" d="M139 334v1206l307 16v-1191q0 -35 14 -59t40 -35.5t53.5 -16t62.5 -4.5q-4 -40 -14 -124.5t-14 -127.5q-110 -4 -193 -4q-128 0 -192 81.5t-64 258.5z" />
<glyph unicode="m" horiz-adv-x="1802" d="M150 0v1126h266l14 -137q56 74 139 116t174 42q102 0 161 -31t102 -125q143 156 352 156q72 0 122.5 -18t87 -56t57.5 -104t30.5 -156.5t9.5 -218.5v-594h-307v573q0 119 -11 181.5t-34 85t-66 22.5q-51 0 -100.5 -35t-85.5 -94v-733h-307q2 259 2 573q0 158 -20.5 223.5 t-84.5 65.5q-49 0 -102 -29.5t-92 -95.5v-737h-307z" />
<glyph unicode="n" horiz-adv-x="1239" d="M150 0v1126h266l14 -133q64 71 148 112.5t174 41.5q86 0 143.5 -17.5t99 -56.5t63.5 -111t32 -169.5t10 -243.5v-549h-307v555q0 182 -25.5 244.5t-105.5 62.5q-120 0 -205 -143v-719h-307z" />
<glyph unicode="o" horiz-adv-x="1153" d="M78 567q0 266 138.5 423t373.5 157q108 0 191 -27.5t138.5 -76.5t90.5 -122.5t50 -160t15 -193.5q0 -175 -52.5 -303.5t-166.5 -204t-281 -75.5q-254 0 -375.5 152t-121.5 431zM379 569q0 -162 52.5 -247.5t143.5 -85.5q199 0 199 331q0 170 -46 248t-144 78 q-205 0 -205 -324z" />
<glyph unicode="p" horiz-adv-x="1261" d="M150 -432v1558h264l14 -120q59 65 142 103t175 38q94 0 170.5 -31.5t136.5 -97.5t93 -177.5t33 -260.5q0 -287 -142.5 -439.5t-378.5 -152.5q-115 0 -200 32v-430q-52 -3 -153.5 -11t-153.5 -11zM457 295q59 -45 182 -45q107 0 166 81t59 247q0 69 -10 121t-26.5 84 t-41 51.5t-49.5 26.5t-57 7q-57 0 -118.5 -35.5t-104.5 -103.5v-434z" />
<glyph unicode="q" horiz-adv-x="1259" d="M86 537q0 149 41.5 267t114 191.5t167 111.5t203.5 38q150 0 279 -68l188 58h31v-1543l-305 -24v510q-128 -98 -283 -98q-91 0 -166.5 29.5t-137.5 92t-97 173.5t-35 262zM389 555q0 -305 193 -305q130 0 221 117v458q-77 49 -172 49q-114 0 -178 -76.5t-64 -242.5z" />
<glyph unicode="r" horiz-adv-x="890" d="M150 0v1124h264l16 -141q65 84 129.5 120t159.5 36q93 0 172 -45l-64 -332q-2 3 -7 8.5t-20.5 19t-32 23.5t-42 18.5t-51.5 8.5q-77 0 -126.5 -35t-90.5 -113v-692h-307z" />
<glyph unicode="s" horiz-adv-x="940" d="M72 45l14 315q6 -5 17.5 -13t47.5 -29t73 -37.5t90.5 -29.5t103.5 -13q157 0 157 84q0 38 -53 67q-27 15 -183 76q-6 2 -11 4q-143 56 -199.5 134t-56.5 210q0 156 111.5 247t326.5 91q69 0 143.5 -12t109.5 -22t48 -15l-20 -314q-127 105 -291 105q-61 0 -95 -19 t-34 -55q0 -32 16 -52t69.5 -47t168.5 -69q131 -47 192.5 -118t61.5 -189q0 -173 -107 -267.5t-332 -94.5q-96 0 -196 18.5t-172 44.5z" />
<glyph unicode="t" horiz-adv-x="917" d="M14 866v80q67 46 128 111.5t100.5 125.5t69.5 113t44 85l13 32h116v-297h392v-252l-392 2v-411q0 -102 33.5 -149.5t110.5 -47.5q131 0 239 74l-10 -287q-142 -63 -323 -63q-182 0 -268.5 101t-86.5 316v467h-166z" />
<glyph unicode="u" horiz-adv-x="1263" d="M143 582v544h308v-575q0 -159 30.5 -223t98.5 -64q119 0 208 162v700h308v-591q0 -104 12.5 -252.5t32.5 -253.5l-291 -45q-17 58 -31 161q-140 -161 -334 -161q-189 0 -265.5 138t-76.5 460z" />
<glyph unicode="v" horiz-adv-x="987" d="M-12 1126h321l191 -667l10 2l166 665h323l-389 -1126h-225z" />
<glyph unicode="w" horiz-adv-x="1507" d="M0 1126h313l154 -669h8l215 684h148l215 -682h8l135 667h311l-317 -1126h-236l-198 543l-201 -543h-225q-62 220 -185.5 637.5t-144.5 488.5z" />
<glyph unicode="x" horiz-adv-x="1044" d="M4 0l338 578l-315 548h331l170 -331l150 331h332l-297 -551l327 -575h-342l-186 365l-186 -365h-322z" />
<glyph unicode="y" horiz-adv-x="1077" d="M8 1126h332l238 -809q44 175 174 809h305q-98 -409 -158 -630t-121 -402q-95 -279 -214 -406.5t-304 -127.5q-126 0 -203 26l-10 301q39 -27 76.5 -41t57.5 -16t52 -2q130 0 183 129z" />
<glyph unicode="z" horiz-adv-x="950" d="M10 0v72l492 807q-173 0 -251.5 -8.5t-162.5 -30.5v286h836v-71l-488 -801h197q131 0 258 51v-305h-881z" />
<glyph unicode="{" horiz-adv-x="858" d="M20 608q128 96 192 164t64 127q0 104 27 201t70 168.5t95 133.5t104 103t95 70.5t70 42.5l27 14l104 -237q-6 -3 -15.5 -8t-37.5 -24.5t-54 -43t-58.5 -63.5t-57 -85.5t-43 -109.5t-22.5 -135q-5 -76 -53.5 -160t-127.5 -148q161 -142 181 -354q6 -67 26 -128.5t47 -106 t58 -82.5t60.5 -62.5t53.5 -42t39 -24.5l15 -8l-127 -213q-10 4 -27 13t-67 40.5t-95 68.5t-100 99.5t-95 130.5t-67 163.5t-27 198.5q0 85 -254 297z" />
<glyph unicode="|" horiz-adv-x="696" d="M195 -422v2032h307v-2032h-307z" />
<glyph unicode="}" horiz-adv-x="872" d="M-20 1391l135 241l17 -8.5t44 -25t65.5 -42.5t76.5 -61t81.5 -79.5t76 -99t65.5 -118.5t44 -139t17 -160q0 -20 16 -46.5t59.5 -72t72.5 -73.5t102 -97l-96 -104q-51 -52 -76 -79t-49 -61t-29 -57q-5 -81 -25 -159t-50 -140.5t-67 -120.5t-77.5 -102.5t-80.5 -83 t-75.5 -65t-63 -45.5t-43.5 -28l-16 -9l-69 235q5 2 13.5 6t33 21.5t48 39.5t52.5 61.5t51.5 85.5t41 114.5t24.5 146.5q9 96 54.5 192t109.5 154v6q-62 60 -108 146.5t-56 163.5q-10 63 -32.5 122.5t-51.5 104.5t-61.5 84.5t-63 66.5t-55.5 47t-40 29z" />
<glyph unicode="~" horiz-adv-x="1200" d="M92 735q80 69 174.5 110.5t173.5 41.5q56 0 159.5 -44t162.5 -44q106 0 246 102l100 -248q-104 -74 -187 -107.5t-167 -33.5q-62 0 -163 45t-159 45q-42 0 -90.5 -19.5t-140.5 -84.5z" />
<glyph unicode="&#xa4;" horiz-adv-x="1122" d="M0 100v260h154v72h-154v260h154v740q244 14 374 14q568 0 568 -494q0 -109 -29 -198t-78 -148t-115.5 -99t-138 -57.5t-149.5 -17.5h-121v-72h567v-260h-567v-100h-311v100h-154zM465 692h96q106 0 162.5 66t56.5 184q0 227 -217 227q-40 0 -98 -4v-473z" />
<glyph unicode="&#xa8;" horiz-adv-x="911" d="M70 1356q0 68 49 118t119 50t120 -50t50 -118q0 -69 -49.5 -116.5t-120.5 -47.5t-119.5 47.5t-48.5 116.5zM467 1356q0 69 49 118.5t121 49.5q70 0 121 -50t51 -118q0 -69 -50.5 -116.5t-121.5 -47.5q-73 0 -121.5 47.5t-48.5 116.5z" />
<glyph unicode="&#xa9;" horiz-adv-x="1234" d="M41 578q0 272 160.5 436t425.5 164q262 0 414.5 -161t152.5 -433q0 -273 -153 -435.5t-414 -162.5q-266 0 -426 160.5t-160 431.5zM236 580q0 -189 105.5 -300.5t287.5 -111.5q178 0 273 110.5t95 301.5q0 192 -98 304.5t-283 112.5q-172 0 -276 -115.5t-104 -301.5z M330 580q0 144 88.5 237.5t222.5 93.5q43 0 78.5 -5t49 -8.5t44 -16t33.5 -13.5l-8 -198q-62 71 -183 71q-60 0 -101.5 -42.5t-41.5 -123.5q0 -73 37.5 -118t97.5 -45q53 0 101.5 18t71.5 36l22 19l4 -174q-89 -59 -205 -59q-135 0 -223 85.5t-88 242.5z" />
<glyph unicode="&#xab;" horiz-adv-x="1191" d="M61 561l398 541l205 -168l-277 -363l295 -354l-195 -172zM512 561l397 541l205 -168l-278 -363q57 -67 169 -202.5t125 -151.5l-194 -172z" />
<glyph unicode="&#xad;" horiz-adv-x="968" d="M137 535v303h690v-303h-690z" />
<glyph unicode="&#xae;" horiz-adv-x="813" d="M61 1100q0 162 96 258t246 96q151 0 250 -95t99 -259q0 -151 -99.5 -249.5t-249.5 -98.5q-152 0 -247 97t-95 251zM193 1100q0 -106 57 -169t156 -63t155.5 62.5t56.5 169.5q0 109 -56 171t-156 62t-156.5 -62t-56.5 -171zM279 938h98v111h18l45 -111h103l-60 129 q22 11 40 37.5t18 64.5q0 55 -40.5 81t-107.5 26q-73 0 -114 -6v-332zM377 1126v62h16q45 0 45 -27q0 -21 -11.5 -28t-37.5 -7h-12z" />
<glyph unicode="&#xb0;" horiz-adv-x="698" d="M20 1153q0 151 93 249.5t233 98.5q141 0 236.5 -98.5t95.5 -249.5q0 -148 -96 -245t-238 -97q-139 0 -231.5 97t-92.5 245zM248 1151q0 -49 29 -83t69 -34q43 0 71.5 33.5t28.5 83.5q0 53 -28.5 88t-71.5 35q-40 0 -69 -35.5t-29 -87.5z" />
<glyph unicode="&#xb4;" horiz-adv-x="901" d="M199 1188l196 407h342l-303 -407h-235z" />
<glyph unicode="&#xb6;" horiz-adv-x="1314" d="M61 944q0 253 139.5 372.5t393.5 119.5h700v-215h-147v-1653h-258v1653h-92v-1653h-256v878q-480 33 -480 498z" />
<glyph unicode="&#xbb;" horiz-adv-x="1193" d="M61 217l297 352l-280 353l209 165l395 -526l-426 -516zM510 217l297 354l-279 349l205 167l400 -526l-428 -516z" />
<glyph unicode="&#x401;" horiz-adv-x="1077" d="M154 0v1434h864v-279h-553v-293h469v-272h-469v-311h575v-279h-886zM227 1665q0 69 49.5 118.5t120.5 49.5q69 0 118.5 -49.5t49.5 -118.5q0 -67 -49.5 -115.5t-118.5 -48.5q-72 0 -121 48t-49 116zM639 1665q0 69 50 118.5t120 49.5q71 0 119.5 -49t48.5 -119 q0 -68 -48.5 -116t-119.5 -48q-70 0 -120 48t-50 116z" />
<glyph unicode="&#x402;" horiz-adv-x="1443" d="M-25 1153v281h1115v-279q-129 33 -308 33h-159v-324q138 88 290 88q74 0 133 -15t101 -41.5t73 -68t50 -87.5t30.5 -108.5t16 -124t4.5 -138.5v-109q0 -146 -21 -262t-59.5 -195.5t-94 -132t-121.5 -76.5t-146 -24q-103 0 -146 14l-18 283q69 -27 133 -27 q83 0 126.5 82.5t43.5 274.5v125q0 206 -29 284t-115 78q-135 0 -251 -104v-580h-312v1188h-63q-74 0 -130.5 -6t-142.5 -29z" />
<glyph unicode="&#x403;" horiz-adv-x="976" d="M154 0v1434h835v-306q-65 25 -129 31t-207 6h-188v-1165h-311zM410 1489l196 407h342l-303 -407h-235z" />
<glyph unicode="&#x404;" horiz-adv-x="1122" d="M68 711q0 168 39 303.5t116 234.5t198.5 153t278.5 54q114 0 201 -18t180 -66l-30 -348q-45 52 -89 85.5t-88.5 48.5t-80 19.5t-84.5 4.5q-59 0 -111 -15.5t-100 -50t-80.5 -99.5t-42.5 -155h557v-268h-563q12 -169 96.5 -256.5t239.5 -87.5q120 0 220 35.5t154 74.5 v-286q-176 -92 -405 -92q-161 0 -278 49t-188.5 144.5t-105.5 228t-34 307.5z" />
<glyph unicode="&#x405;" horiz-adv-x="1015" d="M57 1044q0 192 122.5 301t357.5 109q190 0 368 -57l-33 -328q-87 72 -163.5 94.5t-163.5 22.5q-85 0 -134 -35.5t-49 -103.5q0 -31 13.5 -57.5t34.5 -46t52.5 -38.5t62.5 -33.5t71 -31.5q7 -3 10 -4q183 -80 271 -180.5t88 -252.5q0 -200 -122 -310.5t-376 -110.5 q-109 0 -217 21.5t-187 55.5v347q116 -91 206.5 -124.5t197.5 -33.5q86 0 136 40t50 107q0 32 -20 60.5t-60.5 55t-79.5 46t-100 45.5q-168 73 -252 181t-84 261z" />
<glyph unicode="&#x406;" horiz-adv-x="618" d="M154 0v1434h311v-1434h-311z" />
<glyph unicode="&#x407;" horiz-adv-x="651" d="M-49 1671q0 69 49.5 118.5t120.5 49.5q69 0 118.5 -49.5t49.5 -118.5q0 -67 -49.5 -115.5t-118.5 -48.5q-72 0 -121 48t-49 116zM160 0v1434h311v-1434h-311zM362 1671q0 69 50 118.5t120 49.5q71 0 119.5 -49t48.5 -119q0 -68 -48.5 -116t-119.5 -48q-70 0 -120 48 t-50 116z" />
<glyph unicode="&#x408;" horiz-adv-x="761" d="M-12 324q53 -33 88 -41.5t86 -8.5q139 0 139 281v879h311v-850q0 -169 -25.5 -284.5t-79 -183.5t-129 -97t-183.5 -29q-30 0 -55.5 2t-48 7t-33.5 8t-31.5 10t-22.5 8z" />
<glyph unicode="&#x409;" horiz-adv-x="1828" d="M-16 262q74 3 120 33q61 39 101 115t61 211q14 106 19 258t8 555h866v-560q57 5 94 5q523 0 523 -439q0 -123 -40 -211t-115.5 -138t-172.5 -72.5t-223 -22.5q-134 0 -379 10v1147h-262q-13 -514 -35 -649q-20 -113 -51.5 -198.5t-84.5 -159t-135.5 -118t-193.5 -57.5z M1159 262q33 -6 96 -6q209 0 209 184q0 89 -58 130.5t-151 41.5q-30 0 -96 -4v-346z" />
<glyph unicode="&#x40a;" horiz-adv-x="1910" d="M154 0v1434h317v-555h457v555h313v-555h94q523 0 523 -439q0 -115 -40 -202t-112.5 -139.5t-166 -78.5t-206.5 -26q-111 0 -405 12v594h-457v-600h-317zM1241 254q37 -6 94 -6q209 0 209 196q0 91 -55 127.5t-152 36.5q-63 0 -96 -2v-352z" />
<glyph unicode="&#x40b;" horiz-adv-x="1439" d="M-25 1153v281h1117v-279q-129 33 -310 33h-153v-324q138 88 327 88q128 0 205 -49.5t116.5 -171t39.5 -330.5v-401h-311v338q0 142 -15 215.5t-46.5 100t-90.5 26.5q-53 0 -116 -26t-109 -70v-584h-310v1188h-69q-76 0 -132.5 -6t-142.5 -29z" />
<glyph unicode="&#x40c;" horiz-adv-x="1191" d="M154 0v1434h317v-578h27q7 0 14.5 6t16.5 19.5t16.5 25.5t19 33.5t19.5 34.5l272 459h350l-430 -686l457 -748h-369l-297 518q-34 60 -45.5 75t-27.5 15h-23v-608h-317zM489 1489l197 407h342l-303 -407h-236z" />
<glyph unicode="&#x40e;" horiz-adv-x="1114" d="M-12 1442h338l297 -780l204 780h312q-10 -34 -42 -150l-44 -159.5t-41.5 -144.5t-50 -167t-51.5 -162t-64 -190q-87 -254 -210.5 -363.5t-289.5 -109.5q-147 0 -231 24l-21 318q64 -45 107 -57.5t98 -12.5q45 0 88.5 21.5t71.5 68.5zM164 1792l178 178q13 -27 30 -51.5 t46.5 -55t72.5 -49t93 -18.5q148 0 247 168l175 -170q-6 -10 -17 -27t-51 -60.5t-85 -77t-119 -60.5t-154 -27q-71 0 -135 18.5t-108 45.5t-81 63t-57.5 65t-34.5 58z" />
<glyph unicode="&#x40f;" horiz-adv-x="1394" d="M154 0v1434h317v-1160h463v1160h307v-1434h-385l-33 -391h-237l-29 391h-403z" />
<glyph unicode="&#x410;" horiz-adv-x="1204" d="M-14 0l499 1444h238l496 -1444h-342l-89 250h-405l-84 -250h-313zM455 520h262l-121 434h-10z" />
<glyph unicode="&#x411;" horiz-adv-x="1212" d="M154 6v1428h895v-308q-155 48 -400 48h-184v-289q68 6 143 6q93 0 170.5 -14t142.5 -46t110 -80.5t70 -121t25 -164.5q0 -473 -540 -473q-159 0 -432 14zM465 246q41 -4 117 -4q115 0 170 55t55 149q0 179 -213 179q-64 0 -129 -7v-372z" />
<glyph unicode="&#x412;" horiz-adv-x="1218" d="M154 6v1432q227 8 428 8q148 0 250 -24.5t159 -73t81 -110.5t24 -148q0 -111 -42.5 -196.5t-131.5 -127.5q110 -33 169.5 -123.5t59.5 -208.5q0 -76 -14 -137t-52 -119t-100 -97.5t-162.5 -63t-234.5 -23.5q-235 0 -434 12zM465 250q55 -6 133 -6q125 0 175 49.5 t50 142.5q0 77 -48.5 121.5t-168.5 44.5h-141v-352zM465 850h100q120 0 168.5 46.5t48.5 139.5q0 71 -40.5 110.5t-145.5 39.5q-98 0 -131 -4v-332z" />
<glyph unicode="&#x413;" horiz-adv-x="976" d="M154 0v1434h835v-306q-65 25 -129 31t-207 6h-188v-1165h-311z" />
<glyph unicode="&#x414;" horiz-adv-x="1396" d="M-6 268h188q36 76 62.5 156.5t55.5 259.5t38 412q4 115 4 338h842v-1166h186l-55 -616h-250l-23 348h-729l-22 -344h-242zM485 268h381v895h-235q0 -117 -13 -292.5t-38 -299.5q-40 -193 -95 -303z" />
<glyph unicode="&#x415;" horiz-adv-x="1077" d="M154 0v1434h864v-279h-553v-293h469v-272h-469v-311h575v-279h-886z" />
<glyph unicode="&#x416;" horiz-adv-x="1761" d="M-23 0l472 750l-439 684h363l250 -455q5 -8 13.5 -23.5t14.5 -25t13.5 -22.5t13.5 -21.5t11.5 -16.5t10 -12t7.5 -4h18v580h313v-580h19q18 0 88 125l244 455h362l-436 -686l469 -748h-369l-295 522q-50 88 -67 88h-15v-610h-313v610h-10q-14 0 -64 -84l-307 -526h-367z " />
<glyph unicode="&#x417;" horiz-adv-x="1024" d="M37 45l10 301q5 -4 15.5 -11.5t44 -25.5t69 -32t90 -25.5t109.5 -11.5q139 0 198.5 50.5t59.5 129.5q0 91 -62 132.5t-196 41.5q-125 0 -221 -4v272h221q233 0 233 185q0 66 -46.5 107.5t-145.5 41.5q-106 0 -175.5 -18.5t-152.5 -73.5l-18 285q6 3 16.5 7.5t47.5 16.5 t78 21t106 16.5t133 7.5q246 0 359.5 -101t113.5 -276q0 -106 -48.5 -194t-134.5 -133q207 -84 207 -322q0 -98 -30 -178t-92 -142.5t-167.5 -97t-246.5 -34.5q-108 0 -211 17t-164 48z" />
<glyph unicode="&#x418;" horiz-adv-x="1411" d="M154 0v1432h311v-566q0 -194 -27 -352l6 -2l525 920h288v-1432h-311v563q0 197 23 332l-6 4l-519 -899h-290z" />
<glyph unicode="&#x419;" horiz-adv-x="1411" d="M154 0v1432h311v-566q0 -194 -27 -352l6 -2l525 920h288v-1432h-311v563q0 197 23 332l-6 4l-519 -899h-290zM281 1792l178 178q13 -27 30 -51.5t46 -55t72 -49t93 -18.5t94.5 19.5t76 51.5t48 53t29.5 44l174 -170q-6 -10 -17 -27t-51 -60.5t-85 -77t-119 -60.5 t-154 -27q-88 0 -163 26.5t-124.5 69t-79 80t-48.5 74.5z" />
<glyph unicode="&#x41a;" horiz-adv-x="1191" d="M154 0v1434h317v-578h27q7 0 14.5 6t16.5 19.5t16.5 25.5t19 33.5t19.5 34.5l272 459h350l-430 -686l457 -748h-369l-297 518q-34 60 -45.5 75t-27.5 15h-23v-608h-317z" />
<glyph unicode="&#x41b;" horiz-adv-x="1327" d="M-16 246q80 9 118 30q120 68 154 306q16 103 21 264t8 588h889v-1434h-310v1153h-284q-13 -515 -35 -649q-14 -84 -35 -152.5t-57.5 -136t-84.5 -115.5t-119.5 -83t-160.5 -46z" />
<glyph unicode="&#x41c;" horiz-adv-x="1656" d="M66 0l151 1434h322l292 -938l302 938h321l137 -1434h-317l-41 659q0 215 10 342h-6q-7 -24 -19.5 -73.5t-28 -113t-20.5 -85.5l-243 -745h-195l-250 747q-11 34 -24 88t-26.5 116t-14.5 66h-6q10 -192 10 -342l-35 -659h-319z" />
<glyph unicode="&#x41d;" horiz-adv-x="1394" d="M154 0v1434h311v-557h465v557h311v-1434h-311v592h-465v-592h-311z" />
<glyph unicode="&#x41e;" horiz-adv-x="1316" d="M68 733q0 339 155 535t439 196q159 0 274 -51t183 -149t99 -228.5t31 -302.5q0 -132 -21.5 -245t-68 -207.5t-115.5 -160.5t-168.5 -103t-222.5 -37q-124 0 -222.5 36t-166 101.5t-112 160t-64.5 207.5t-20 248zM379 739q0 -110 15 -198.5t47.5 -156.5t87 -105t128.5 -37 q73 0 127.5 36.5t86.5 103t47.5 152.5t15.5 193q0 223 -68 347t-209 124q-132 0 -205 -127t-73 -332z" />
<glyph unicode="&#x41f;" horiz-adv-x="1392" d="M154 0v1434h1085v-1434h-311v1159h-463v-1159h-311z" />
<glyph unicode="&#x420;" horiz-adv-x="1122" d="M154 0v1432q244 14 374 14q568 0 568 -494q0 -109 -29 -199t-78 -150.5t-115.5 -102t-138.5 -60t-149 -18.5q-72 0 -121 6v-428h-311zM465 696q50 -4 96 -4q106 0 162.5 66t56.5 184q0 227 -217 227q-40 0 -98 -4v-469z" />
<glyph unicode="&#x421;" horiz-adv-x="1144" d="M72 698q0 344 177 552t480 208q115 0 202.5 -18.5t178.5 -63.5l-43 -375q-117 177 -330 177q-162 0 -257 -124t-95 -364q0 -210 96 -324t269 -114q115 0 214.5 44t151.5 89l2 -309q-90 -53 -185.5 -73.5t-232.5 -20.5q-301 0 -464.5 190.5t-163.5 525.5z" />
<glyph unicode="&#x422;" horiz-adv-x="1099" d="M-25 1135v299h1147v-301q-37 21 -95 32t-101.5 13t-110.5 2h-106v-1180h-318v1180h-112q-109 0 -181.5 -8.5t-122.5 -36.5z" />
<glyph unicode="&#x423;" horiz-adv-x="1114" d="M-12 1434h338l297 -781l204 781h312q-10 -34 -42 -150l-44 -159.5t-41.5 -144.5t-50 -167t-51.5 -162t-64 -190q-87 -254 -210.5 -363.5t-289.5 -109.5q-147 0 -231 24l-21 318q64 -45 107 -57.5t98 -12.5q45 0 88.5 21.5t71.5 68.5z" />
<glyph unicode="&#x424;" horiz-adv-x="1540" d="M63 762q0 150 44 267.5t121.5 191t175.5 114t214 49.5v129h306v-129q115 -5 213 -45t175 -114t121 -191.5t44 -265.5q0 -273 -147 -436.5t-406 -173.5v-168h-308v166q-261 12 -407 174t-146 432zM360 766q0 -160 67 -253t189 -93v700q-120 -2 -188 -93.5t-68 -260.5z M924 420q118 0 187 95t69 251q0 167 -71 261.5t-185 94.5v-702z" />
<glyph unicode="&#x425;" horiz-adv-x="1169" d="M-6 0l397 719l-377 713h348l236 -504l225 504h332l-373 -707l394 -725h-345l-256 504l-241 -504h-340z" />
<glyph unicode="&#x426;" horiz-adv-x="1484" d="M154 0v1434h311v-1160h461v1160h311v-1160h203l-62 -626h-243l-25 352h-956z" />
<glyph unicode="&#x427;" horiz-adv-x="1249" d="M55 971v463h312v-428q0 -91 13.5 -152t40.5 -92.5t60.5 -44t81.5 -12.5q57 0 120 25t101 50v654h312v-1434h-312v502q-127 -80 -286 -80q-443 0 -443 549z" />
<glyph unicode="&#x428;" horiz-adv-x="1935" d="M154 0v1434h311v-1158h348v1158h311v-1158h349v1158h309v-1434h-1628z" />
<glyph unicode="&#x429;" horiz-adv-x="2019" d="M154 0v1434h311v-1158h346v1158h313v-1158h342v1158h310v-1158h198l-57 -610h-244l-24 334h-1495z" />
<glyph unicode="&#x42a;" horiz-adv-x="1284" d="M-57 1130v304h680v-478q13 0 44.5 1t53.5 1q90 0 164 -11.5t145.5 -43.5t120.5 -84t79 -137t30 -197q0 -256 -144 -375.5t-440 -119.5q-201 0 -365 14v1176h-102q-160 0 -266 -50zM623 258q33 -4 100 -4q107 0 164 58.5t57 168.5q0 97 -57 149t-164 52q-71 0 -100 -2 v-422z" />
<glyph unicode="&#x42b;" horiz-adv-x="1669" d="M154 8v1426h311v-478q73 5 94 5q541 0 541 -474q0 -251 -149 -373t-421 -122q-198 0 -376 16zM465 262q25 -6 96 -6q107 0 164 58.5t57 168.5q0 97 -57 148t-164 51q-50 0 -96 -4v-416zM1204 0v1434h312v-1434h-312z" />
<glyph unicode="&#x42c;" horiz-adv-x="1124" d="M154 8v1426h311v-478q73 5 94 5q541 0 541 -474q0 -251 -149 -373t-421 -122q-198 0 -376 16zM465 262q25 -6 96 -6q107 0 164 58.5t57 168.5q0 97 -57 148t-164 51q-50 0 -96 -4v-416z" />
<glyph unicode="&#x42d;" horiz-adv-x="1128" d="M61 47v326q6 -5 16.5 -13t46.5 -29t76 -37t102 -29t126 -13q158 0 232 88t85 246h-538v280h541q-4 83 -28.5 144t-65.5 96.5t-91.5 52.5t-111.5 17q-120 0 -198 -26.5t-165 -113.5l-20 336q197 80 399 80q155 0 269.5 -49t185.5 -142.5t105 -220t34 -288.5 q0 -175 -36 -313.5t-110.5 -242t-196.5 -159t-286 -55.5q-221 0 -371 65z" />
<glyph unicode="&#x42e;" horiz-adv-x="1843" d="M154 0v1434h317v-553h186q34 286 186.5 428.5t375.5 142.5q128 0 224.5 -32.5t160 -91t102.5 -149t55.5 -198.5t16.5 -248q0 -171 -34 -306.5t-103 -235t-179.5 -152.5t-257.5 -53q-248 0 -384 149.5t-163 429.5h-186v-565h-317zM958 735q0 -246 60 -361.5t186 -115.5 q69 0 119.5 36t80 102t43 149.5t13.5 187.5q0 236 -57 339.5t-193 103.5q-85 0 -143 -58.5t-83.5 -155t-25.5 -227.5z" />
<glyph unicode="&#x42f;" horiz-adv-x="1253" d="M49 0l295 557q-103 55 -154 163.5t-51 235.5t41 222.5t117.5 154.5t180 88t233.5 29q51 0 101.5 -2t85 -4t97 -6.5t105.5 -7.5v-1430h-316v469q-40 -6 -84 -6q-42 0 -92 4l-219 -467h-340zM438 965q0 -115 66.5 -169.5t173.5 -54.5q77 0 106 4v437q-39 6 -112 6 q-104 0 -169 -58t-65 -165z" />
<glyph unicode="&#x430;" horiz-adv-x="1130" d="M72 334q0 184 126.5 285.5t354.5 101.5h123q-3 82 -47 131t-135 49q-197 0 -324 -110l-18 292q18 8 50 20t130.5 32t195.5 20q106 0 183 -21t127.5 -60.5t80.5 -105t42 -146t12 -191.5v-256q0 -83 13 -166.5t22.5 -118.5t15.5 -49l-279 -57q-31 78 -43 159 q-139 -159 -309 -159q-158 0 -239.5 93t-81.5 257zM356 344q0 -51 28.5 -79.5t84.5 -28.5q59 0 116 47.5t95 113.5l-2 97h-107q-105 0 -160 -38.5t-55 -111.5z" />
<glyph unicode="&#x431;" horiz-adv-x="1142" d="M96 674q0 182 30 318.5t82 227.5t136.5 154t178 97t222.5 57q14 3 66 11t78 13.5t64.5 20t64.5 33.5l41 -308q-47 -10 -191.5 -30.5t-230.5 -42.5q-110 -29 -159 -83t-77 -177q110 86 256 86q192 0 301 -128.5t109 -381.5q0 -118 -30 -217.5t-90.5 -177t-160.5 -121 t-231 -43.5q-244 0 -351.5 174.5t-107.5 517.5zM387 602q0 -179 47 -276t137 -97q97 0 147 78.5t50 222.5q0 136 -44 196t-142 60q-121 0 -195 -100v-84z" />
<glyph unicode="&#x432;" horiz-adv-x="1126" d="M150 6v1122q211 11 440 11q407 0 407 -295q0 -169 -137 -242q77 -23 127.5 -93.5t50.5 -178.5q0 -54 -14 -101.5t-48 -91t-85.5 -75t-131.5 -50t-181 -18.5q-285 0 -428 12zM444 238q65 -7 117 -7q85 0 127.5 33t42.5 94q0 51 -37.5 78t-126.5 27q-76 0 -123 -2v-223z M444 680h109q139 0 139 115q0 104 -131 104q-76 0 -117 -4v-215z" />
<glyph unicode="&#x433;" horiz-adv-x="878" d="M150 0v1126h722v-313q-98 49 -299 49h-116v-862h-307z" />
<glyph unicode="&#x434;" horiz-adv-x="1177" d="M-25 252h154q90 185 107 543q6 135 6 331h755v-874h154l-37 -553h-240l-22 297h-578l-18 -297h-242zM414 252h276v612h-180q-16 -295 -35 -393q-20 -111 -61 -219z" />
<glyph unicode="&#x435;" horiz-adv-x="1085" d="M82 551q0 178 53.5 310t167.5 209t279 77q101 0 178 -32t122 -82t73.5 -120t38.5 -137t10 -143q0 -67 -19 -197h-612q15 -198 243 -198q204 0 345 77v-262q-152 -67 -367 -67q-269 0 -390.5 139t-121.5 426zM377 674h348q-2 117 -39 172t-121 55q-79 0 -132 -58.5 t-56 -168.5z" />
<glyph unicode="&#x436;" horiz-adv-x="1536" d="M-12 0l360 580l-334 546h342l162 -313q66 -125 82 -125h14v438h308v-444h14q11 0 76 120q4 7 6 11l164 313h342l-330 -546l354 -580h-344l-200 350q-38 65 -49.5 83t-18.5 18h-14v-451h-308v451h-18q-7 0 -64 -103l-194 -348h-350z" />
<glyph unicode="&#x437;" horiz-adv-x="952" d="M68 33v284q4 -3 12.5 -8.5t37.5 -19t61.5 -24t84.5 -19t107 -8.5q87 0 139.5 28.5t52.5 85.5q0 48 -46.5 72.5t-154.5 24.5q-47 0 -114.5 -2.5t-77.5 -2.5v244h186q94 0 135 25.5t41 83.5q0 41 -41.5 67.5t-109.5 26.5q-76 0 -137.5 -13t-137.5 -55l-22 267q13 6 38 15 t113.5 23.5t190.5 14.5q119 0 202.5 -22t129 -64t65 -93t19.5 -118q0 -181 -131 -254q163 -70 163 -248q0 -174 -117.5 -266t-375.5 -92q-179 0 -313 47z" />
<glyph unicode="&#x438;" horiz-adv-x="1253" d="M150 0v1126h305v-434l-15 -209l9 -2l368 645h287v-1126h-303v414l18 213l-8 2l-377 -629h-284z" />
<glyph unicode="&#x439;" horiz-adv-x="1253" d="M150 0v1126h305v-434l-15 -209l9 -2l368 645h287v-1126h-303v414l18 213l-8 2l-377 -629h-284zM244 1477l174 153q3 -6 9 -17t26 -38t43 -47.5t59.5 -37.5t75.5 -17q47 0 88.5 19.5t68 49t41 50t21.5 36.5l174 -151q-4 -10 -12.5 -27.5t-42 -61.5t-74.5 -78t-113 -61.5 t-155 -27.5q-59 0 -112.5 14t-90.5 35.5t-69 50t-51 53t-34 50.5t-19.5 36.5t-6.5 16.5z" />
<glyph unicode="&#x43a;" horiz-adv-x="1099" d="M150 0v1126h307v-436h22q14 0 62 88l190 348h354l-348 -544l389 -582h-364l-246 408q-3 4 -7 10.5t-6 10.5t-5.5 9t-6 8t-5 5.5t-5 4t-4.5 1.5h-20v-457h-307z" />
<glyph unicode="&#x43b;" horiz-adv-x="1146" d="M-20 217q196 30 233 291q10 65 14.5 164t7 251.5t3.5 202.5h759v-1126h-305v858h-174q-7 -308 -31 -432q-14 -73 -32.5 -131.5t-50 -118.5t-72.5 -101t-102.5 -69.5t-137.5 -34.5z" />
<glyph unicode="&#x43c;" horiz-adv-x="1529" d="M123 0l90 1126h305l248 -649l244 649h309l88 -1126h-301l-23 526l15 162h-8l-236 -700h-184l-236 698h-8l16 -154l-22 -532h-297z" />
<glyph unicode="&#x43d;" horiz-adv-x="1245" d="M150 0v1126h307v-419h331v419h308v-1126h-308v436h-331v-436h-307z" />
<glyph unicode="&#x43e;" horiz-adv-x="1153" d="M78 567q0 266 138.5 423t373.5 157q108 0 191 -27.5t138.5 -76.5t90.5 -122.5t50 -160t15 -193.5q0 -175 -52.5 -303.5t-166.5 -204t-281 -75.5q-254 0 -375.5 152t-121.5 431zM379 569q0 -162 52.5 -247.5t143.5 -85.5q199 0 199 331q0 170 -46 248t-144 78 q-205 0 -205 -324z" />
<glyph unicode="&#x43f;" horiz-adv-x="1228" d="M150 0v1126h929v-1126h-307v852h-315v-852h-307z" />
<glyph unicode="&#x440;" horiz-adv-x="1261" d="M150 -432v1558h264l14 -120q59 65 142 103t175 38q94 0 170.5 -31.5t136.5 -97.5t93 -177.5t33 -260.5q0 -287 -142.5 -439.5t-378.5 -152.5q-115 0 -200 32v-430q-52 -3 -153.5 -11t-153.5 -11zM457 295q59 -45 182 -45q107 0 166 81t59 247q0 69 -10 121t-26.5 84 t-41 51.5t-49.5 26.5t-57 7q-57 0 -118.5 -35.5t-104.5 -103.5v-434z" />
<glyph unicode="&#x441;" horiz-adv-x="987" d="M84 561q0 136 42 248t116 186.5t175 115t218 40.5q150 0 305 -61l-41 -326q-77 72 -131.5 94.5t-130.5 22.5q-118 0 -183 -87.5t-65 -236.5q0 -303 264 -303q86 0 162 26.5t107 47.5l6 -273q-84 -40 -157 -53.5t-161 -13.5q-116 0 -209 31t-165.5 97t-112 179t-39.5 266z " />
<glyph unicode="&#x442;" horiz-adv-x="980" d="M6 834v292h969v-292q-50 24 -99 32t-120 8h-111v-874h-309v874h-127q-130 0 -203 -40z" />
<glyph unicode="&#x443;" horiz-adv-x="1079" d="M8 1126h332l238 -809q44 175 174 809h305q-98 -409 -158 -630t-121 -402q-95 -279 -214 -406.5t-304 -127.5q-126 0 -203 26l-10 301q39 -27 76.5 -41t57.5 -16t52 -2q130 0 183 129z" />
<glyph unicode="&#x444;" horiz-adv-x="1687" d="M82 559q0 129 26 231.5t68.5 167.5t100 108.5t116.5 61t123 17.5q111 0 178 -33v318l299 14v-330q74 31 201 31q67 0 125 -17.5t111.5 -59.5t92 -106t61 -163t22.5 -224q0 -298 -117 -444.5t-328 -146.5q-90 0 -164 32v-426l-307 -20v446q-9 -2 -36.5 -9t-46.5 -11 t-48 -8t-55 -4q-203 0 -312.5 143.5t-109.5 431.5zM387 561q0 -94 12.5 -157.5t38.5 -98.5t58 -49t77 -14q54 0 117 28v576q-59 35 -112 35q-191 0 -191 -320zM997 272q8 -3 22.5 -9.5t24.5 -10t29 -7t43 -3.5q60 0 98 25.5t62 97.5t24 196q0 174 -42.5 247t-133.5 73 q-68 0 -127 -33v-576z" />
<glyph unicode="&#x445;" horiz-adv-x="1044" d="M4 0l338 578l-315 548h331l170 -331l150 331h332l-297 -551l327 -575h-342l-186 365l-186 -365h-322z" />
<glyph unicode="&#x446;" horiz-adv-x="1255" d="M150 0v1126h307v-864h299v864h307v-864h168l-51 -563h-234l-14 301h-782z" />
<glyph unicode="&#x447;" horiz-adv-x="1130" d="M68 768v358h307v-317q0 -69 9.5 -115t29.5 -69t43 -32t57 -9q75 0 160 53v489h307v-1126h-307v360q-38 -18 -65 -28t-79 -18.5t-118 -8.5q-71 0 -131.5 26.5t-109 80t-76 145t-27.5 211.5z" />
<glyph unicode="&#x448;" horiz-adv-x="1755" d="M150 0v1126h309v-858h266v858h307v-858h266v858h308v-1126h-1456z" />
<glyph unicode="&#x449;" horiz-adv-x="1798" d="M150 0v1126h307v-856h266v856h309v-856h266v856h308v-858h168l-52 -569h-235l-17 301h-1320z" />
<glyph unicode="&#x44a;" horiz-adv-x="1185" d="M-25 823v303h617v-350h110q219 0 328 -100.5t109 -284.5q0 -183 -110.5 -287t-319.5 -104h-418v879h-98q-58 0 -102 -9t-64 -18.5t-52 -28.5zM592 246h67q170 0 170 145q0 127 -159 127h-78v-272z" />
<glyph unicode="&#x44b;" horiz-adv-x="1529" d="M150 0v1126h303v-350h110q426 0 426 -385q0 -181 -119.5 -286t-330.5 -105h-389zM453 242h82q79 0 111 44t32 105q0 57 -31 93t-98 36h-96v-278zM1073 0v1126h307v-1126h-307z" />
<glyph unicode="&#x44c;" horiz-adv-x="1048" d="M150 0v1126h307v-350h108q219 0 327.5 -100t108.5 -285q0 -184 -110.5 -287.5t-321.5 -103.5h-419zM457 248h65q53 0 89 12.5t52.5 35t22.5 44.5t6 51q0 60 -33 93.5t-122 33.5h-80v-270z" />
<glyph unicode="&#x44d;" horiz-adv-x="987" d="M61 23v290q4 -3 11.5 -8.5t34.5 -19.5t57 -24.5t79 -19t101 -8.5q116 0 177 54t71 143h-424v252h430q-27 199 -221 199q-91 0 -148.5 -14t-138.5 -68l-24 291q74 32 153 44.5t195 12.5q229 0 362 -140.5t133 -420.5q0 -604 -557 -604q-164 0 -291 41z" />
<glyph unicode="&#x44e;" horiz-adv-x="1634" d="M150 0v1126h309v-415h125q29 211 155 326.5t328 115.5q130 0 225.5 -44.5t151 -126t82 -185.5t26.5 -234q0 -167 -56.5 -297.5t-171.5 -208t-275 -77.5q-111 0 -197 34t-142 96t-88 142.5t-42 179.5h-121v-432h-309zM862 565q0 -170 45 -248.5t142 -78.5q100 0 147 78.5 t47 246.5q0 332 -184 332q-95 0 -146 -86.5t-51 -243.5z" />
<glyph unicode="&#x44f;" horiz-adv-x="1122" d="M49 0l240 428q-80 45 -127 130.5t-47 205.5q0 188 121 284.5t323 96.5q223 0 414 -15v-1130h-307v352h-119l-176 -352h-322zM406 758q0 -75 42.5 -112.5t116.5 -37.5l101 2v279q-40 4 -99 4q-69 0 -115 -36.5t-46 -98.5z" />
<glyph unicode="&#x451;" horiz-adv-x="1085" d="M82 551q0 178 53.5 310t167.5 209t279 77q101 0 178 -32t122 -82t73.5 -120t38.5 -137t10 -143q0 -67 -19 -197h-612q15 -198 243 -198q204 0 345 77v-262q-152 -67 -367 -67q-269 0 -390.5 139t-121.5 426zM211 1376q0 68 49 118t119 50t120 -50t50 -118 q0 -69 -49.5 -116.5t-120.5 -47.5t-119.5 47.5t-48.5 116.5zM377 674h348q-2 117 -39 172t-121 55q-79 0 -132 -58.5t-56 -168.5zM608 1376q0 69 49 118.5t121 49.5q70 0 121 -50t51 -118q0 -69 -50.5 -116.5t-121.5 -47.5q-73 0 -121.5 47.5t-48.5 116.5z" />
<glyph unicode="&#x452;" horiz-adv-x="1286" d="M-61 1208v236h237v92q50 4 148.5 14.5t148.5 14.5v-121h391v-236q-124 19 -241 19h-148v-273q139 115 293 115q137 0 218.5 -50t121 -163t39.5 -305v-203q0 -173 -19 -305.5t-53 -220.5t-86 -144t-113.5 -80t-138.5 -24q-69 0 -133 12l-26 271q79 -11 96 -11 q40 0 69.5 15.5t48 49t30 69t16.5 93.5t6.5 104t1.5 118v264q0 130 -30.5 182t-102.5 52q-126 0 -238 -131v-662h-299v1227h-102q-68 0 -135 -19z" />
<glyph unicode="&#x453;" horiz-adv-x="878" d="M150 0v1126h722v-313q-98 49 -299 49h-116v-862h-307zM342 1188l197 407h342l-303 -407h-236z" />
<glyph unicode="&#x454;" horiz-adv-x="983" d="M80 559q0 276 139.5 434t390.5 158q164 0 291 -51l-31 -295q-79 56 -134.5 72t-127.5 16q-94 0 -156.5 -57.5t-82.5 -143.5h417v-235h-424q12 -103 75.5 -166.5t191.5 -63.5q56 0 116.5 15.5t92 29.5t49.5 25v-250q-120 -61 -309 -61q-498 0 -498 573z" />
<glyph unicode="&#x455;" horiz-adv-x="940" d="M72 45l14 315q6 -5 17.5 -13t47.5 -29t73 -37.5t90.5 -29.5t103.5 -13q157 0 157 84q0 38 -53 67q-27 15 -183 76q-6 2 -11 4q-143 56 -199.5 134t-56.5 210q0 156 111.5 247t326.5 91q69 0 143.5 -12t109.5 -22t48 -15l-20 -314q-127 105 -291 105q-61 0 -95 -19 t-34 -55q0 -32 16 -52t69.5 -47t168.5 -69q131 -47 192.5 -118t61.5 -189q0 -173 -107 -267.5t-332 -94.5q-96 0 -196 18.5t-172 44.5z" />
<glyph unicode="&#x456;" horiz-adv-x="604" d="M123 1370q0 74 51.5 126t124.5 52q76 0 129 -52t53 -126t-53 -129t-129 -55q-73 0 -124.5 55t-51.5 129zM147 0v1087h308v-1087h-308z" />
<glyph unicode="&#x457;" horiz-adv-x="632" d="M-53 1378q0 68 49 118t119 50t120 -50t50 -118q0 -69 -49.5 -116.5t-120.5 -47.5t-119.5 47.5t-48.5 116.5zM158 0v1087h307v-1087h-307zM344 1378q0 69 49 118.5t121 49.5q70 0 121 -50t51 -118q0 -69 -50.5 -116.5t-121.5 -47.5q-73 0 -121.5 47.5t-48.5 116.5z" />
<glyph unicode="&#x458;" horiz-adv-x="626" d="M-137 -106q45 -20 75 -29t44.5 -10.5t40.5 -1.5q54 0 85.5 26.5t48.5 97.5t17 197v913h307v-903q0 -324 -107 -468t-321 -144q-100 0 -180 29zM143 1372q0 74 51.5 126t127.5 52t129 -52t53 -126t-53 -129t-129 -55q-75 0 -127 54.5t-52 129.5z" />
<glyph unicode="&#x459;" horiz-adv-x="1521" d="M-20 240q58 0 108 24q87 55 125 266q21 117 27 596h743v-419h94q220 0 325 -86.5t105 -266.5t-111 -267t-315 -87h-405v858h-162q-5 -276 -33 -432q-58 -355 -301 -436q-20 -5 -49 -10t-49 -7l-19 -2zM983 236h66q157 0 157 116q0 47 -39.5 77t-105.5 30h-78v-223z" />
<glyph unicode="&#x45a;" horiz-adv-x="1628" d="M150 0v1126h307v-419h331v419h308v-419h94q226 0 325 -84.5t99 -266.5t-103.5 -269t-316.5 -87h-406v436h-331v-436h-307zM1096 236h75q148 0 148 118q0 95 -137 95h-86v-213z" />
<glyph unicode="&#x45b;" horiz-adv-x="1294" d="M-61 1204v240h237v104q50 2 152.5 8.5t152.5 8.5v-121h391v-238q-136 21 -241 21h-148v-262q152 104 283 104q211 0 300 -116.5t89 -401.5v-551h-307v500q0 168 -28.5 231.5t-106.5 63.5q-118 0 -230 -131v-664h-307v1227h-70q-61 0 -167 -23z" />
<glyph unicode="&#x45c;" horiz-adv-x="1099" d="M150 0v1126h307v-436h22q14 0 62 88l190 348h354l-348 -544l389 -582h-364l-246 408q-3 4 -7 10.5t-6 10.5t-5.5 9t-6 8t-5 5.5t-5 4t-4.5 1.5h-20v-457h-307zM418 1188l196 407h342l-303 -407h-235z" />
<glyph unicode="&#x45e;" horiz-adv-x="1079" d="M8 1126h332l238 -809q44 175 174 809h305q-98 -409 -158 -630t-121 -402q-95 -279 -214 -406.5t-304 -127.5q-126 0 -203 26l-10 301q39 -27 76.5 -41t57.5 -16t52 -2q130 0 183 129zM158 1477l174 153q3 -6 9 -17t26 -38t43 -47.5t59.5 -37.5t75.5 -17q47 0 88.5 19.5 t68 49t41 50t21.5 36.5l174 -151q-4 -10 -12.5 -27.5t-41.5 -61.5t-73.5 -78t-111.5 -61.5t-152 -27.5q-83 0 -154 27t-111 60.5t-71.5 76.5t-40 62t-12.5 30z" />
<glyph unicode="&#x45f;" horiz-adv-x="1251" d="M150 0v1126h309v-864h336v864h307v-1126h-328l-20 -301h-244l-21 301h-339z" />
<glyph unicode="&#x490;" horiz-adv-x="987" d="M154 0v1434h559l12 211h274v-533q-63 32 -190 44.5t-234 12.5h-110v-1169h-311z" />
<glyph unicode="&#x491;" horiz-adv-x="880" d="M150 0v1126h448l23 195h253v-506q-56 21 -107.5 30t-135.5 9h-176v-854h-305z" />
<glyph unicode="&#x2000;" horiz-adv-x="985" />
<glyph unicode="&#x2001;" horiz-adv-x="1970" />
<glyph unicode="&#x2002;" horiz-adv-x="985" />
<glyph unicode="&#x2003;" horiz-adv-x="1970" />
<glyph unicode="&#x2004;" horiz-adv-x="656" />
<glyph unicode="&#x2005;" horiz-adv-x="492" />
<glyph unicode="&#x2006;" horiz-adv-x="328" />
<glyph unicode="&#x2007;" horiz-adv-x="328" />
<glyph unicode="&#x2008;" horiz-adv-x="246" />
<glyph unicode="&#x2009;" horiz-adv-x="394" />
<glyph unicode="&#x200a;" horiz-adv-x="109" />
<glyph unicode="&#x2010;" horiz-adv-x="968" d="M137 535v303h690v-303h-690z" />
<glyph unicode="&#x2011;" horiz-adv-x="968" d="M137 535v303h690v-303h-690z" />
<glyph unicode="&#x2012;" horiz-adv-x="968" d="M137 535v303h690v-303h-690z" />
<glyph unicode="&#x2013;" horiz-adv-x="1325" d="M98 535v292h1129v-292h-1129z" />
<glyph unicode="&#x2014;" horiz-adv-x="1816" d="M98 535v292h1620v-292h-1620z" />
<glyph unicode="&#x2018;" horiz-adv-x="522" d="M33 999l241 598h199l-90 -598h-350z" />
<glyph unicode="&#x2019;" horiz-adv-x="438" d="M49 936l92 596h348l-237 -596h-203z" />
<glyph unicode="&#x201c;" horiz-adv-x="897" d="M33 999l237 598h203l-94 -598h-346zM408 999l237 598h203l-92 -598h-348z" />
<glyph unicode="&#x201d;" horiz-adv-x="894" d="M33 936l90 596h350l-240 -596h-200zM408 936l92 596h346l-236 -596h-202z" />
<glyph unicode="&#x201e;" horiz-adv-x="897" d="M49 -422l90 600h348l-237 -600h-201zM422 -422l94 600h348l-237 -600h-205z" />
<glyph unicode="&#x2020;" horiz-adv-x="1081" d="M41 754v290h342v377h311v-377h346v-290h-346v-987h-311v987h-342z" />
<glyph unicode="&#x2022;" horiz-adv-x="729" d="M102 641q0 112 74.5 191t188.5 79t188 -79t74 -191q0 -111 -74 -188.5t-188 -77.5t-188.5 77.5t-74.5 188.5z" />
<glyph unicode="&#x2026;" horiz-adv-x="1607" d="M72 166q0 72 51.5 121t126.5 49t127.5 -49t52.5 -121t-53 -125t-127 -53t-126 52.5t-52 125.5zM625 166q0 72 52 121t128 49q75 0 126.5 -49t51.5 -121q0 -73 -52 -125.5t-126 -52.5q-76 0 -128 52.5t-52 125.5zM1178 166q0 72 52 121t128 49q74 0 126 -49t52 -121 t-52.5 -125t-125.5 -53q-76 0 -128 52.5t-52 125.5z" />
<glyph unicode="&#x202f;" horiz-adv-x="394" />
<glyph unicode="&#x205f;" horiz-adv-x="492" />
<glyph unicode="&#x20ac;" horiz-adv-x="1245" d="M86 442v222h90q-2 16 -2 45q0 21 2 41h-90v221h121q65 222 224.5 355.5t385.5 133.5q119 0 205.5 -15.5t175.5 -58.5l-39 -344q-38 45 -80.5 74.5t-88.5 42.5t-82 17t-83 4q-107 0 -189 -52t-128 -157h512v-221h-551q-4 -24 -4 -41t4 -45h551v-222h-508 q42 -93 124.5 -142.5t186.5 -49.5q124 0 223 35t160 84v-301q-174 -86 -413 -86q-246 0 -391 116.5t-205 343.5h-111z" />
<glyph unicode="&#x2116;" horiz-adv-x="2113" d="M154 0v1432h309l487 -861h11q-1 7 -7.5 80t-11 146.5t-4.5 136.5v498h311v-1432h-280l-527 877h-8q1 -14 10 -80.5t15 -134t6 -125.5v-537h-311zM1333 735q0 172 102.5 273.5t254.5 101.5q156 0 258 -99t102 -278q0 -167 -103.5 -271t-256.5 -104q-151 0 -254 105.5 t-103 271.5zM1346 0v297h706v-297h-706zM1591 733q0 -57 31.5 -92t69.5 -35q40 0 72 35t32 92q0 55 -32 90t-72 35q-38 0 -69.5 -35t-31.5 -90z" />
<glyph unicode="&#x2122;" horiz-adv-x="1267" d="M61 1231v203h500v-203q-55 26 -153 26v-417h-193v417q-8 0 -29 -0.5t-31.5 -1.5t-28 -3t-33.5 -7.5t-32 -13.5zM561 840l62 594h206l78 -406l74 406h207l59 -594h-164l-20 336l-70 -340h-182l-72 340l-14 -336h-164z" />
<glyph unicode="&#x2190;" horiz-adv-x="1650" d="M102 668l721 626l164 -202l-391 -304l952 11v-281l-954 8l395 -311l-164 -205z" />
<glyph unicode="&#x2191;" horiz-adv-x="1476" d="M102 776l637 803l635 -805l-203 -180l-297 438l11 -1032h-299l12 1036l-291 -440z" />
<glyph unicode="&#x2192;" horiz-adv-x="1650" d="M102 520v281l955 -8l-395 311l163 205l723 -658l-721 -626l-163 202l391 303z" />
<glyph unicode="&#x2193;" horiz-adv-x="1476" d="M102 778l203 180l297 -438l-10 1032h299l-12 -1036l290 440l205 -180l-637 -803z" />
<glyph unicode="&#x2248;" horiz-adv-x="1431" d="M123 885q230 178 412 178q44 0 93.5 -19t88 -42.5t89 -42.5t95.5 -19q54 0 118.5 24.5t176.5 92.5l109 -228q-206 -159 -410 -159q-43 0 -92.5 19t-87 41.5t-87 41.5t-93.5 19q-60 0 -114.5 -22.5t-178.5 -98.5zM127 479q230 178 412 178q54 0 118 -28t128.5 -56 t119.5 -28q54 0 118.5 23t176.5 83l109 -219q-86 -66 -194 -113t-216 -47q-43 0 -92.5 18t-87 39.5t-87 39.5t-93.5 18q-61 0 -116.5 -22.5t-178.5 -98.5z" />
<glyph unicode="&#x25fc;" horiz-adv-x="1126" d="M0 0v1126h1126v-1126h-1126z" />
<glyph horiz-adv-x="598" d="M-90 1610q0 70 49 119t121 49q69 0 118.5 -49.5t49.5 -118.5q0 -67 -49.5 -115.5t-118.5 -48.5q-72 0 -121 48t-49 116zM322 1610q0 69 50 118.5t120 49.5q71 0 119 -49t48 -119q0 -68 -48 -116t-119 -48q-70 0 -120 48t-50 116z" />
</font>
</defs>
</svg>
