<?xml version="1.0" encoding="UTF-8" standalone="no"?><svg xmlns="http://www.w3.org/2000/svg" width="47" height="47" viewBox="0 0 47 47" version="1"><path d="M21.335 19.422l6.746-6.577c5.09-4.456 12.862 2.3 7.843 7.463L29.11 26.96c-2.046 1.926-3.56 1.41-3.56 1.36.977-.98 1.446-1.362 1.765-1.885.253-.416.41-.92.652-1.883l5.722-5.78c2.62-2.674-.813-6.34-3.71-3.58l-6.333 5.736c-1.018.74-1.326 2.58-.498 3.328l-2.032 1.915c-1.172-1.52-1.62-5.065.217-6.748zM25.814 26.916l-6.887 6.47c-5.088 4.457-12.86-2.298-7.842-7.462l6.813-6.652c2.27-1.894 3.77-1.087 3.77-1.077-1.256 1.127-2.164 1.668-2.196 3.41l-5.94 5.856c-2.622 2.675.81 6.34 3.708 3.58l5.91-5.454c1.09-.952 1.502-2.615.674-3.715l2.137-1.95c1.737 1.98 1.27 5.666-.146 6.996z" stroke-width="0"/></svg>