<?xml version="1.0" encoding="UTF-8" standalone="no"?><svg xmlns="http://www.w3.org/2000/svg" viewBox="0 0 47 47" width="47" height="47" version="1"><path d="M0 0h47v47H0z"/><path d="M30.37 34.852l-22.802-.15c.95-3.216 1.375-6.505 6.024-9.21 3.72 3.063 7.367 2.86 10.953-.05 3.133 2.576 5.47 5.774 5.825 9.41zM25.94 19.094a6.796 6.547 0 1 1-13.592 0 6.796 6.547 0 1 1 13.592 0zM37.092 20.314a4.605 4.58 0 1 1-9.21 0 4.605 4.58 0 1 1 9.21 0zM30.32 30.87c-1.22-2.248-.934-1.974-3.136-4.333.236-.365.318-.73 1.444-1.095 2.258 1.34 4.717 1.878 7.767.05 2.117.642 3.525 2.445 4.182 5.477z" stroke-width="0" fill="#DC3333"/></svg>